G04 #@! TF.GenerationSoftware,KiCad,Pcbnew,(5.1.4)-1*
G04 #@! TF.CreationDate,2019-10-14T20:14:25-04:00*
G04 #@! TF.ProjectId,badger-badge,62616467-6572-42d6-9261-6467652e6b69,rev?*
G04 #@! TF.SameCoordinates,Original*
G04 #@! TF.FileFunction,Copper,L2,Bot*
G04 #@! TF.FilePolarity,Positive*
%FSLAX46Y46*%
G04 Gerber Fmt 4.6, Leading zero omitted, Abs format (unit mm)*
G04 Created by KiCad (PCBNEW (5.1.4)-1) date 2019-10-14 20:14:25*
%MOMM*%
%LPD*%
G04 APERTURE LIST*
%ADD10C,0.800000*%
%ADD11C,0.250000*%
G04 APERTURE END LIST*
D10*
X83250000Y-89250000D03*
X83250000Y-101250000D03*
X83250000Y-77250000D03*
X97250000Y-83250000D03*
X97250000Y-95250000D03*
X56250000Y-77250000D03*
X56250000Y-89250000D03*
X56250000Y-101250000D03*
X70250000Y-83250000D03*
X70250000Y-95250000D03*
X86000000Y-63250000D03*
D11*
X83250000Y-89250000D02*
X83250000Y-101250000D01*
X56250000Y-89250000D02*
X56250000Y-101250000D01*
X56250000Y-85000000D02*
X70250000Y-85000000D01*
X70250000Y-85000000D02*
X70250000Y-95250000D01*
X70250000Y-83250000D02*
X70250000Y-85000000D01*
X56250000Y-77250000D02*
X56250000Y-85000000D01*
X56250000Y-85000000D02*
X56250000Y-89250000D01*
X70250000Y-85000000D02*
X83250000Y-85000000D01*
X83250000Y-89250000D02*
X83250000Y-85000000D01*
X83250000Y-85000000D02*
X83250000Y-77250000D01*
X83250000Y-85000000D02*
X97250000Y-85000000D01*
X97250000Y-83250000D02*
X97250000Y-85000000D01*
X97250000Y-85000000D02*
X97250000Y-95250000D01*
X83250000Y-77250000D02*
X83250000Y-66000000D01*
X83250000Y-66000000D02*
X86000000Y-63250000D01*
M02*
