G04 #@! TF.GenerationSoftware,KiCad,Pcbnew,(5.1.4)-1*
G04 #@! TF.CreationDate,2019-10-14T20:14:25-04:00*
G04 #@! TF.ProjectId,badger-badge,62616467-6572-42d6-9261-6467652e6b69,rev?*
G04 #@! TF.SameCoordinates,Original*
G04 #@! TF.FileFunction,Copper,L1,Top*
G04 #@! TF.FilePolarity,Positive*
%FSLAX46Y46*%
G04 Gerber Fmt 4.6, Leading zero omitted, Abs format (unit mm)*
G04 Created by KiCad (PCBNEW (5.1.4)-1) date 2019-10-14 20:14:25*
%MOMM*%
%LPD*%
G04 APERTURE LIST*
%ADD10R,1.600000X0.850000*%
%ADD11C,0.100000*%
%ADD12C,0.875000*%
%ADD13C,0.800000*%
%ADD14C,0.250000*%
%ADD15C,0.200000*%
G04 APERTURE END LIST*
D10*
X85750000Y-97875000D03*
X85750000Y-96125000D03*
X82250000Y-97875000D03*
X82250000Y-96125000D03*
X58750000Y-85875000D03*
X58750000Y-84125000D03*
X55250000Y-85875000D03*
X55250000Y-84125000D03*
X58750000Y-97875000D03*
X58750000Y-96125000D03*
X55250000Y-97875000D03*
X55250000Y-96125000D03*
X99750000Y-79875000D03*
X99750000Y-78125000D03*
X96250000Y-79875000D03*
X96250000Y-78125000D03*
X99750000Y-91875000D03*
X99750000Y-90125000D03*
X96250000Y-91875000D03*
X96250000Y-90125000D03*
X72750000Y-79875000D03*
X72750000Y-78125000D03*
X69250000Y-79875000D03*
X69250000Y-78125000D03*
X72750000Y-91875000D03*
X72750000Y-90125000D03*
X69250000Y-91875000D03*
X69250000Y-90125000D03*
X85750000Y-73875000D03*
X85750000Y-72125000D03*
X82250000Y-73875000D03*
X82250000Y-72125000D03*
X85750000Y-85875000D03*
X85750000Y-84125000D03*
X82250000Y-85875000D03*
X82250000Y-84125000D03*
X58750000Y-73875000D03*
X58750000Y-72125000D03*
X55250000Y-73875000D03*
X55250000Y-72125000D03*
D11*
G36*
X85027691Y-99526053D02*
G01*
X85048926Y-99529203D01*
X85069750Y-99534419D01*
X85089962Y-99541651D01*
X85109368Y-99550830D01*
X85127781Y-99561866D01*
X85145024Y-99574654D01*
X85160930Y-99589070D01*
X85175346Y-99604976D01*
X85188134Y-99622219D01*
X85199170Y-99640632D01*
X85208349Y-99660038D01*
X85215581Y-99680250D01*
X85220797Y-99701074D01*
X85223947Y-99722309D01*
X85225000Y-99743750D01*
X85225000Y-100256250D01*
X85223947Y-100277691D01*
X85220797Y-100298926D01*
X85215581Y-100319750D01*
X85208349Y-100339962D01*
X85199170Y-100359368D01*
X85188134Y-100377781D01*
X85175346Y-100395024D01*
X85160930Y-100410930D01*
X85145024Y-100425346D01*
X85127781Y-100438134D01*
X85109368Y-100449170D01*
X85089962Y-100458349D01*
X85069750Y-100465581D01*
X85048926Y-100470797D01*
X85027691Y-100473947D01*
X85006250Y-100475000D01*
X84568750Y-100475000D01*
X84547309Y-100473947D01*
X84526074Y-100470797D01*
X84505250Y-100465581D01*
X84485038Y-100458349D01*
X84465632Y-100449170D01*
X84447219Y-100438134D01*
X84429976Y-100425346D01*
X84414070Y-100410930D01*
X84399654Y-100395024D01*
X84386866Y-100377781D01*
X84375830Y-100359368D01*
X84366651Y-100339962D01*
X84359419Y-100319750D01*
X84354203Y-100298926D01*
X84351053Y-100277691D01*
X84350000Y-100256250D01*
X84350000Y-99743750D01*
X84351053Y-99722309D01*
X84354203Y-99701074D01*
X84359419Y-99680250D01*
X84366651Y-99660038D01*
X84375830Y-99640632D01*
X84386866Y-99622219D01*
X84399654Y-99604976D01*
X84414070Y-99589070D01*
X84429976Y-99574654D01*
X84447219Y-99561866D01*
X84465632Y-99550830D01*
X84485038Y-99541651D01*
X84505250Y-99534419D01*
X84526074Y-99529203D01*
X84547309Y-99526053D01*
X84568750Y-99525000D01*
X85006250Y-99525000D01*
X85027691Y-99526053D01*
X85027691Y-99526053D01*
G37*
D12*
X84787500Y-100000000D03*
D11*
G36*
X83452691Y-99526053D02*
G01*
X83473926Y-99529203D01*
X83494750Y-99534419D01*
X83514962Y-99541651D01*
X83534368Y-99550830D01*
X83552781Y-99561866D01*
X83570024Y-99574654D01*
X83585930Y-99589070D01*
X83600346Y-99604976D01*
X83613134Y-99622219D01*
X83624170Y-99640632D01*
X83633349Y-99660038D01*
X83640581Y-99680250D01*
X83645797Y-99701074D01*
X83648947Y-99722309D01*
X83650000Y-99743750D01*
X83650000Y-100256250D01*
X83648947Y-100277691D01*
X83645797Y-100298926D01*
X83640581Y-100319750D01*
X83633349Y-100339962D01*
X83624170Y-100359368D01*
X83613134Y-100377781D01*
X83600346Y-100395024D01*
X83585930Y-100410930D01*
X83570024Y-100425346D01*
X83552781Y-100438134D01*
X83534368Y-100449170D01*
X83514962Y-100458349D01*
X83494750Y-100465581D01*
X83473926Y-100470797D01*
X83452691Y-100473947D01*
X83431250Y-100475000D01*
X82993750Y-100475000D01*
X82972309Y-100473947D01*
X82951074Y-100470797D01*
X82930250Y-100465581D01*
X82910038Y-100458349D01*
X82890632Y-100449170D01*
X82872219Y-100438134D01*
X82854976Y-100425346D01*
X82839070Y-100410930D01*
X82824654Y-100395024D01*
X82811866Y-100377781D01*
X82800830Y-100359368D01*
X82791651Y-100339962D01*
X82784419Y-100319750D01*
X82779203Y-100298926D01*
X82776053Y-100277691D01*
X82775000Y-100256250D01*
X82775000Y-99743750D01*
X82776053Y-99722309D01*
X82779203Y-99701074D01*
X82784419Y-99680250D01*
X82791651Y-99660038D01*
X82800830Y-99640632D01*
X82811866Y-99622219D01*
X82824654Y-99604976D01*
X82839070Y-99589070D01*
X82854976Y-99574654D01*
X82872219Y-99561866D01*
X82890632Y-99550830D01*
X82910038Y-99541651D01*
X82930250Y-99534419D01*
X82951074Y-99529203D01*
X82972309Y-99526053D01*
X82993750Y-99525000D01*
X83431250Y-99525000D01*
X83452691Y-99526053D01*
X83452691Y-99526053D01*
G37*
D12*
X83212500Y-100000000D03*
D11*
G36*
X58027691Y-99526053D02*
G01*
X58048926Y-99529203D01*
X58069750Y-99534419D01*
X58089962Y-99541651D01*
X58109368Y-99550830D01*
X58127781Y-99561866D01*
X58145024Y-99574654D01*
X58160930Y-99589070D01*
X58175346Y-99604976D01*
X58188134Y-99622219D01*
X58199170Y-99640632D01*
X58208349Y-99660038D01*
X58215581Y-99680250D01*
X58220797Y-99701074D01*
X58223947Y-99722309D01*
X58225000Y-99743750D01*
X58225000Y-100256250D01*
X58223947Y-100277691D01*
X58220797Y-100298926D01*
X58215581Y-100319750D01*
X58208349Y-100339962D01*
X58199170Y-100359368D01*
X58188134Y-100377781D01*
X58175346Y-100395024D01*
X58160930Y-100410930D01*
X58145024Y-100425346D01*
X58127781Y-100438134D01*
X58109368Y-100449170D01*
X58089962Y-100458349D01*
X58069750Y-100465581D01*
X58048926Y-100470797D01*
X58027691Y-100473947D01*
X58006250Y-100475000D01*
X57568750Y-100475000D01*
X57547309Y-100473947D01*
X57526074Y-100470797D01*
X57505250Y-100465581D01*
X57485038Y-100458349D01*
X57465632Y-100449170D01*
X57447219Y-100438134D01*
X57429976Y-100425346D01*
X57414070Y-100410930D01*
X57399654Y-100395024D01*
X57386866Y-100377781D01*
X57375830Y-100359368D01*
X57366651Y-100339962D01*
X57359419Y-100319750D01*
X57354203Y-100298926D01*
X57351053Y-100277691D01*
X57350000Y-100256250D01*
X57350000Y-99743750D01*
X57351053Y-99722309D01*
X57354203Y-99701074D01*
X57359419Y-99680250D01*
X57366651Y-99660038D01*
X57375830Y-99640632D01*
X57386866Y-99622219D01*
X57399654Y-99604976D01*
X57414070Y-99589070D01*
X57429976Y-99574654D01*
X57447219Y-99561866D01*
X57465632Y-99550830D01*
X57485038Y-99541651D01*
X57505250Y-99534419D01*
X57526074Y-99529203D01*
X57547309Y-99526053D01*
X57568750Y-99525000D01*
X58006250Y-99525000D01*
X58027691Y-99526053D01*
X58027691Y-99526053D01*
G37*
D12*
X57787500Y-100000000D03*
D11*
G36*
X56452691Y-99526053D02*
G01*
X56473926Y-99529203D01*
X56494750Y-99534419D01*
X56514962Y-99541651D01*
X56534368Y-99550830D01*
X56552781Y-99561866D01*
X56570024Y-99574654D01*
X56585930Y-99589070D01*
X56600346Y-99604976D01*
X56613134Y-99622219D01*
X56624170Y-99640632D01*
X56633349Y-99660038D01*
X56640581Y-99680250D01*
X56645797Y-99701074D01*
X56648947Y-99722309D01*
X56650000Y-99743750D01*
X56650000Y-100256250D01*
X56648947Y-100277691D01*
X56645797Y-100298926D01*
X56640581Y-100319750D01*
X56633349Y-100339962D01*
X56624170Y-100359368D01*
X56613134Y-100377781D01*
X56600346Y-100395024D01*
X56585930Y-100410930D01*
X56570024Y-100425346D01*
X56552781Y-100438134D01*
X56534368Y-100449170D01*
X56514962Y-100458349D01*
X56494750Y-100465581D01*
X56473926Y-100470797D01*
X56452691Y-100473947D01*
X56431250Y-100475000D01*
X55993750Y-100475000D01*
X55972309Y-100473947D01*
X55951074Y-100470797D01*
X55930250Y-100465581D01*
X55910038Y-100458349D01*
X55890632Y-100449170D01*
X55872219Y-100438134D01*
X55854976Y-100425346D01*
X55839070Y-100410930D01*
X55824654Y-100395024D01*
X55811866Y-100377781D01*
X55800830Y-100359368D01*
X55791651Y-100339962D01*
X55784419Y-100319750D01*
X55779203Y-100298926D01*
X55776053Y-100277691D01*
X55775000Y-100256250D01*
X55775000Y-99743750D01*
X55776053Y-99722309D01*
X55779203Y-99701074D01*
X55784419Y-99680250D01*
X55791651Y-99660038D01*
X55800830Y-99640632D01*
X55811866Y-99622219D01*
X55824654Y-99604976D01*
X55839070Y-99589070D01*
X55854976Y-99574654D01*
X55872219Y-99561866D01*
X55890632Y-99550830D01*
X55910038Y-99541651D01*
X55930250Y-99534419D01*
X55951074Y-99529203D01*
X55972309Y-99526053D01*
X55993750Y-99525000D01*
X56431250Y-99525000D01*
X56452691Y-99526053D01*
X56452691Y-99526053D01*
G37*
D12*
X56212500Y-100000000D03*
D11*
G36*
X99027691Y-93526053D02*
G01*
X99048926Y-93529203D01*
X99069750Y-93534419D01*
X99089962Y-93541651D01*
X99109368Y-93550830D01*
X99127781Y-93561866D01*
X99145024Y-93574654D01*
X99160930Y-93589070D01*
X99175346Y-93604976D01*
X99188134Y-93622219D01*
X99199170Y-93640632D01*
X99208349Y-93660038D01*
X99215581Y-93680250D01*
X99220797Y-93701074D01*
X99223947Y-93722309D01*
X99225000Y-93743750D01*
X99225000Y-94256250D01*
X99223947Y-94277691D01*
X99220797Y-94298926D01*
X99215581Y-94319750D01*
X99208349Y-94339962D01*
X99199170Y-94359368D01*
X99188134Y-94377781D01*
X99175346Y-94395024D01*
X99160930Y-94410930D01*
X99145024Y-94425346D01*
X99127781Y-94438134D01*
X99109368Y-94449170D01*
X99089962Y-94458349D01*
X99069750Y-94465581D01*
X99048926Y-94470797D01*
X99027691Y-94473947D01*
X99006250Y-94475000D01*
X98568750Y-94475000D01*
X98547309Y-94473947D01*
X98526074Y-94470797D01*
X98505250Y-94465581D01*
X98485038Y-94458349D01*
X98465632Y-94449170D01*
X98447219Y-94438134D01*
X98429976Y-94425346D01*
X98414070Y-94410930D01*
X98399654Y-94395024D01*
X98386866Y-94377781D01*
X98375830Y-94359368D01*
X98366651Y-94339962D01*
X98359419Y-94319750D01*
X98354203Y-94298926D01*
X98351053Y-94277691D01*
X98350000Y-94256250D01*
X98350000Y-93743750D01*
X98351053Y-93722309D01*
X98354203Y-93701074D01*
X98359419Y-93680250D01*
X98366651Y-93660038D01*
X98375830Y-93640632D01*
X98386866Y-93622219D01*
X98399654Y-93604976D01*
X98414070Y-93589070D01*
X98429976Y-93574654D01*
X98447219Y-93561866D01*
X98465632Y-93550830D01*
X98485038Y-93541651D01*
X98505250Y-93534419D01*
X98526074Y-93529203D01*
X98547309Y-93526053D01*
X98568750Y-93525000D01*
X99006250Y-93525000D01*
X99027691Y-93526053D01*
X99027691Y-93526053D01*
G37*
D12*
X98787500Y-94000000D03*
D11*
G36*
X97452691Y-93526053D02*
G01*
X97473926Y-93529203D01*
X97494750Y-93534419D01*
X97514962Y-93541651D01*
X97534368Y-93550830D01*
X97552781Y-93561866D01*
X97570024Y-93574654D01*
X97585930Y-93589070D01*
X97600346Y-93604976D01*
X97613134Y-93622219D01*
X97624170Y-93640632D01*
X97633349Y-93660038D01*
X97640581Y-93680250D01*
X97645797Y-93701074D01*
X97648947Y-93722309D01*
X97650000Y-93743750D01*
X97650000Y-94256250D01*
X97648947Y-94277691D01*
X97645797Y-94298926D01*
X97640581Y-94319750D01*
X97633349Y-94339962D01*
X97624170Y-94359368D01*
X97613134Y-94377781D01*
X97600346Y-94395024D01*
X97585930Y-94410930D01*
X97570024Y-94425346D01*
X97552781Y-94438134D01*
X97534368Y-94449170D01*
X97514962Y-94458349D01*
X97494750Y-94465581D01*
X97473926Y-94470797D01*
X97452691Y-94473947D01*
X97431250Y-94475000D01*
X96993750Y-94475000D01*
X96972309Y-94473947D01*
X96951074Y-94470797D01*
X96930250Y-94465581D01*
X96910038Y-94458349D01*
X96890632Y-94449170D01*
X96872219Y-94438134D01*
X96854976Y-94425346D01*
X96839070Y-94410930D01*
X96824654Y-94395024D01*
X96811866Y-94377781D01*
X96800830Y-94359368D01*
X96791651Y-94339962D01*
X96784419Y-94319750D01*
X96779203Y-94298926D01*
X96776053Y-94277691D01*
X96775000Y-94256250D01*
X96775000Y-93743750D01*
X96776053Y-93722309D01*
X96779203Y-93701074D01*
X96784419Y-93680250D01*
X96791651Y-93660038D01*
X96800830Y-93640632D01*
X96811866Y-93622219D01*
X96824654Y-93604976D01*
X96839070Y-93589070D01*
X96854976Y-93574654D01*
X96872219Y-93561866D01*
X96890632Y-93550830D01*
X96910038Y-93541651D01*
X96930250Y-93534419D01*
X96951074Y-93529203D01*
X96972309Y-93526053D01*
X96993750Y-93525000D01*
X97431250Y-93525000D01*
X97452691Y-93526053D01*
X97452691Y-93526053D01*
G37*
D12*
X97212500Y-94000000D03*
D11*
G36*
X72027691Y-93526053D02*
G01*
X72048926Y-93529203D01*
X72069750Y-93534419D01*
X72089962Y-93541651D01*
X72109368Y-93550830D01*
X72127781Y-93561866D01*
X72145024Y-93574654D01*
X72160930Y-93589070D01*
X72175346Y-93604976D01*
X72188134Y-93622219D01*
X72199170Y-93640632D01*
X72208349Y-93660038D01*
X72215581Y-93680250D01*
X72220797Y-93701074D01*
X72223947Y-93722309D01*
X72225000Y-93743750D01*
X72225000Y-94256250D01*
X72223947Y-94277691D01*
X72220797Y-94298926D01*
X72215581Y-94319750D01*
X72208349Y-94339962D01*
X72199170Y-94359368D01*
X72188134Y-94377781D01*
X72175346Y-94395024D01*
X72160930Y-94410930D01*
X72145024Y-94425346D01*
X72127781Y-94438134D01*
X72109368Y-94449170D01*
X72089962Y-94458349D01*
X72069750Y-94465581D01*
X72048926Y-94470797D01*
X72027691Y-94473947D01*
X72006250Y-94475000D01*
X71568750Y-94475000D01*
X71547309Y-94473947D01*
X71526074Y-94470797D01*
X71505250Y-94465581D01*
X71485038Y-94458349D01*
X71465632Y-94449170D01*
X71447219Y-94438134D01*
X71429976Y-94425346D01*
X71414070Y-94410930D01*
X71399654Y-94395024D01*
X71386866Y-94377781D01*
X71375830Y-94359368D01*
X71366651Y-94339962D01*
X71359419Y-94319750D01*
X71354203Y-94298926D01*
X71351053Y-94277691D01*
X71350000Y-94256250D01*
X71350000Y-93743750D01*
X71351053Y-93722309D01*
X71354203Y-93701074D01*
X71359419Y-93680250D01*
X71366651Y-93660038D01*
X71375830Y-93640632D01*
X71386866Y-93622219D01*
X71399654Y-93604976D01*
X71414070Y-93589070D01*
X71429976Y-93574654D01*
X71447219Y-93561866D01*
X71465632Y-93550830D01*
X71485038Y-93541651D01*
X71505250Y-93534419D01*
X71526074Y-93529203D01*
X71547309Y-93526053D01*
X71568750Y-93525000D01*
X72006250Y-93525000D01*
X72027691Y-93526053D01*
X72027691Y-93526053D01*
G37*
D12*
X71787500Y-94000000D03*
D11*
G36*
X70452691Y-93526053D02*
G01*
X70473926Y-93529203D01*
X70494750Y-93534419D01*
X70514962Y-93541651D01*
X70534368Y-93550830D01*
X70552781Y-93561866D01*
X70570024Y-93574654D01*
X70585930Y-93589070D01*
X70600346Y-93604976D01*
X70613134Y-93622219D01*
X70624170Y-93640632D01*
X70633349Y-93660038D01*
X70640581Y-93680250D01*
X70645797Y-93701074D01*
X70648947Y-93722309D01*
X70650000Y-93743750D01*
X70650000Y-94256250D01*
X70648947Y-94277691D01*
X70645797Y-94298926D01*
X70640581Y-94319750D01*
X70633349Y-94339962D01*
X70624170Y-94359368D01*
X70613134Y-94377781D01*
X70600346Y-94395024D01*
X70585930Y-94410930D01*
X70570024Y-94425346D01*
X70552781Y-94438134D01*
X70534368Y-94449170D01*
X70514962Y-94458349D01*
X70494750Y-94465581D01*
X70473926Y-94470797D01*
X70452691Y-94473947D01*
X70431250Y-94475000D01*
X69993750Y-94475000D01*
X69972309Y-94473947D01*
X69951074Y-94470797D01*
X69930250Y-94465581D01*
X69910038Y-94458349D01*
X69890632Y-94449170D01*
X69872219Y-94438134D01*
X69854976Y-94425346D01*
X69839070Y-94410930D01*
X69824654Y-94395024D01*
X69811866Y-94377781D01*
X69800830Y-94359368D01*
X69791651Y-94339962D01*
X69784419Y-94319750D01*
X69779203Y-94298926D01*
X69776053Y-94277691D01*
X69775000Y-94256250D01*
X69775000Y-93743750D01*
X69776053Y-93722309D01*
X69779203Y-93701074D01*
X69784419Y-93680250D01*
X69791651Y-93660038D01*
X69800830Y-93640632D01*
X69811866Y-93622219D01*
X69824654Y-93604976D01*
X69839070Y-93589070D01*
X69854976Y-93574654D01*
X69872219Y-93561866D01*
X69890632Y-93550830D01*
X69910038Y-93541651D01*
X69930250Y-93534419D01*
X69951074Y-93529203D01*
X69972309Y-93526053D01*
X69993750Y-93525000D01*
X70431250Y-93525000D01*
X70452691Y-93526053D01*
X70452691Y-93526053D01*
G37*
D12*
X70212500Y-94000000D03*
D11*
G36*
X85027691Y-87526053D02*
G01*
X85048926Y-87529203D01*
X85069750Y-87534419D01*
X85089962Y-87541651D01*
X85109368Y-87550830D01*
X85127781Y-87561866D01*
X85145024Y-87574654D01*
X85160930Y-87589070D01*
X85175346Y-87604976D01*
X85188134Y-87622219D01*
X85199170Y-87640632D01*
X85208349Y-87660038D01*
X85215581Y-87680250D01*
X85220797Y-87701074D01*
X85223947Y-87722309D01*
X85225000Y-87743750D01*
X85225000Y-88256250D01*
X85223947Y-88277691D01*
X85220797Y-88298926D01*
X85215581Y-88319750D01*
X85208349Y-88339962D01*
X85199170Y-88359368D01*
X85188134Y-88377781D01*
X85175346Y-88395024D01*
X85160930Y-88410930D01*
X85145024Y-88425346D01*
X85127781Y-88438134D01*
X85109368Y-88449170D01*
X85089962Y-88458349D01*
X85069750Y-88465581D01*
X85048926Y-88470797D01*
X85027691Y-88473947D01*
X85006250Y-88475000D01*
X84568750Y-88475000D01*
X84547309Y-88473947D01*
X84526074Y-88470797D01*
X84505250Y-88465581D01*
X84485038Y-88458349D01*
X84465632Y-88449170D01*
X84447219Y-88438134D01*
X84429976Y-88425346D01*
X84414070Y-88410930D01*
X84399654Y-88395024D01*
X84386866Y-88377781D01*
X84375830Y-88359368D01*
X84366651Y-88339962D01*
X84359419Y-88319750D01*
X84354203Y-88298926D01*
X84351053Y-88277691D01*
X84350000Y-88256250D01*
X84350000Y-87743750D01*
X84351053Y-87722309D01*
X84354203Y-87701074D01*
X84359419Y-87680250D01*
X84366651Y-87660038D01*
X84375830Y-87640632D01*
X84386866Y-87622219D01*
X84399654Y-87604976D01*
X84414070Y-87589070D01*
X84429976Y-87574654D01*
X84447219Y-87561866D01*
X84465632Y-87550830D01*
X84485038Y-87541651D01*
X84505250Y-87534419D01*
X84526074Y-87529203D01*
X84547309Y-87526053D01*
X84568750Y-87525000D01*
X85006250Y-87525000D01*
X85027691Y-87526053D01*
X85027691Y-87526053D01*
G37*
D12*
X84787500Y-88000000D03*
D11*
G36*
X83452691Y-87526053D02*
G01*
X83473926Y-87529203D01*
X83494750Y-87534419D01*
X83514962Y-87541651D01*
X83534368Y-87550830D01*
X83552781Y-87561866D01*
X83570024Y-87574654D01*
X83585930Y-87589070D01*
X83600346Y-87604976D01*
X83613134Y-87622219D01*
X83624170Y-87640632D01*
X83633349Y-87660038D01*
X83640581Y-87680250D01*
X83645797Y-87701074D01*
X83648947Y-87722309D01*
X83650000Y-87743750D01*
X83650000Y-88256250D01*
X83648947Y-88277691D01*
X83645797Y-88298926D01*
X83640581Y-88319750D01*
X83633349Y-88339962D01*
X83624170Y-88359368D01*
X83613134Y-88377781D01*
X83600346Y-88395024D01*
X83585930Y-88410930D01*
X83570024Y-88425346D01*
X83552781Y-88438134D01*
X83534368Y-88449170D01*
X83514962Y-88458349D01*
X83494750Y-88465581D01*
X83473926Y-88470797D01*
X83452691Y-88473947D01*
X83431250Y-88475000D01*
X82993750Y-88475000D01*
X82972309Y-88473947D01*
X82951074Y-88470797D01*
X82930250Y-88465581D01*
X82910038Y-88458349D01*
X82890632Y-88449170D01*
X82872219Y-88438134D01*
X82854976Y-88425346D01*
X82839070Y-88410930D01*
X82824654Y-88395024D01*
X82811866Y-88377781D01*
X82800830Y-88359368D01*
X82791651Y-88339962D01*
X82784419Y-88319750D01*
X82779203Y-88298926D01*
X82776053Y-88277691D01*
X82775000Y-88256250D01*
X82775000Y-87743750D01*
X82776053Y-87722309D01*
X82779203Y-87701074D01*
X82784419Y-87680250D01*
X82791651Y-87660038D01*
X82800830Y-87640632D01*
X82811866Y-87622219D01*
X82824654Y-87604976D01*
X82839070Y-87589070D01*
X82854976Y-87574654D01*
X82872219Y-87561866D01*
X82890632Y-87550830D01*
X82910038Y-87541651D01*
X82930250Y-87534419D01*
X82951074Y-87529203D01*
X82972309Y-87526053D01*
X82993750Y-87525000D01*
X83431250Y-87525000D01*
X83452691Y-87526053D01*
X83452691Y-87526053D01*
G37*
D12*
X83212500Y-88000000D03*
D11*
G36*
X58027691Y-87526053D02*
G01*
X58048926Y-87529203D01*
X58069750Y-87534419D01*
X58089962Y-87541651D01*
X58109368Y-87550830D01*
X58127781Y-87561866D01*
X58145024Y-87574654D01*
X58160930Y-87589070D01*
X58175346Y-87604976D01*
X58188134Y-87622219D01*
X58199170Y-87640632D01*
X58208349Y-87660038D01*
X58215581Y-87680250D01*
X58220797Y-87701074D01*
X58223947Y-87722309D01*
X58225000Y-87743750D01*
X58225000Y-88256250D01*
X58223947Y-88277691D01*
X58220797Y-88298926D01*
X58215581Y-88319750D01*
X58208349Y-88339962D01*
X58199170Y-88359368D01*
X58188134Y-88377781D01*
X58175346Y-88395024D01*
X58160930Y-88410930D01*
X58145024Y-88425346D01*
X58127781Y-88438134D01*
X58109368Y-88449170D01*
X58089962Y-88458349D01*
X58069750Y-88465581D01*
X58048926Y-88470797D01*
X58027691Y-88473947D01*
X58006250Y-88475000D01*
X57568750Y-88475000D01*
X57547309Y-88473947D01*
X57526074Y-88470797D01*
X57505250Y-88465581D01*
X57485038Y-88458349D01*
X57465632Y-88449170D01*
X57447219Y-88438134D01*
X57429976Y-88425346D01*
X57414070Y-88410930D01*
X57399654Y-88395024D01*
X57386866Y-88377781D01*
X57375830Y-88359368D01*
X57366651Y-88339962D01*
X57359419Y-88319750D01*
X57354203Y-88298926D01*
X57351053Y-88277691D01*
X57350000Y-88256250D01*
X57350000Y-87743750D01*
X57351053Y-87722309D01*
X57354203Y-87701074D01*
X57359419Y-87680250D01*
X57366651Y-87660038D01*
X57375830Y-87640632D01*
X57386866Y-87622219D01*
X57399654Y-87604976D01*
X57414070Y-87589070D01*
X57429976Y-87574654D01*
X57447219Y-87561866D01*
X57465632Y-87550830D01*
X57485038Y-87541651D01*
X57505250Y-87534419D01*
X57526074Y-87529203D01*
X57547309Y-87526053D01*
X57568750Y-87525000D01*
X58006250Y-87525000D01*
X58027691Y-87526053D01*
X58027691Y-87526053D01*
G37*
D12*
X57787500Y-88000000D03*
D11*
G36*
X56452691Y-87526053D02*
G01*
X56473926Y-87529203D01*
X56494750Y-87534419D01*
X56514962Y-87541651D01*
X56534368Y-87550830D01*
X56552781Y-87561866D01*
X56570024Y-87574654D01*
X56585930Y-87589070D01*
X56600346Y-87604976D01*
X56613134Y-87622219D01*
X56624170Y-87640632D01*
X56633349Y-87660038D01*
X56640581Y-87680250D01*
X56645797Y-87701074D01*
X56648947Y-87722309D01*
X56650000Y-87743750D01*
X56650000Y-88256250D01*
X56648947Y-88277691D01*
X56645797Y-88298926D01*
X56640581Y-88319750D01*
X56633349Y-88339962D01*
X56624170Y-88359368D01*
X56613134Y-88377781D01*
X56600346Y-88395024D01*
X56585930Y-88410930D01*
X56570024Y-88425346D01*
X56552781Y-88438134D01*
X56534368Y-88449170D01*
X56514962Y-88458349D01*
X56494750Y-88465581D01*
X56473926Y-88470797D01*
X56452691Y-88473947D01*
X56431250Y-88475000D01*
X55993750Y-88475000D01*
X55972309Y-88473947D01*
X55951074Y-88470797D01*
X55930250Y-88465581D01*
X55910038Y-88458349D01*
X55890632Y-88449170D01*
X55872219Y-88438134D01*
X55854976Y-88425346D01*
X55839070Y-88410930D01*
X55824654Y-88395024D01*
X55811866Y-88377781D01*
X55800830Y-88359368D01*
X55791651Y-88339962D01*
X55784419Y-88319750D01*
X55779203Y-88298926D01*
X55776053Y-88277691D01*
X55775000Y-88256250D01*
X55775000Y-87743750D01*
X55776053Y-87722309D01*
X55779203Y-87701074D01*
X55784419Y-87680250D01*
X55791651Y-87660038D01*
X55800830Y-87640632D01*
X55811866Y-87622219D01*
X55824654Y-87604976D01*
X55839070Y-87589070D01*
X55854976Y-87574654D01*
X55872219Y-87561866D01*
X55890632Y-87550830D01*
X55910038Y-87541651D01*
X55930250Y-87534419D01*
X55951074Y-87529203D01*
X55972309Y-87526053D01*
X55993750Y-87525000D01*
X56431250Y-87525000D01*
X56452691Y-87526053D01*
X56452691Y-87526053D01*
G37*
D12*
X56212500Y-88000000D03*
D11*
G36*
X99027691Y-81526053D02*
G01*
X99048926Y-81529203D01*
X99069750Y-81534419D01*
X99089962Y-81541651D01*
X99109368Y-81550830D01*
X99127781Y-81561866D01*
X99145024Y-81574654D01*
X99160930Y-81589070D01*
X99175346Y-81604976D01*
X99188134Y-81622219D01*
X99199170Y-81640632D01*
X99208349Y-81660038D01*
X99215581Y-81680250D01*
X99220797Y-81701074D01*
X99223947Y-81722309D01*
X99225000Y-81743750D01*
X99225000Y-82256250D01*
X99223947Y-82277691D01*
X99220797Y-82298926D01*
X99215581Y-82319750D01*
X99208349Y-82339962D01*
X99199170Y-82359368D01*
X99188134Y-82377781D01*
X99175346Y-82395024D01*
X99160930Y-82410930D01*
X99145024Y-82425346D01*
X99127781Y-82438134D01*
X99109368Y-82449170D01*
X99089962Y-82458349D01*
X99069750Y-82465581D01*
X99048926Y-82470797D01*
X99027691Y-82473947D01*
X99006250Y-82475000D01*
X98568750Y-82475000D01*
X98547309Y-82473947D01*
X98526074Y-82470797D01*
X98505250Y-82465581D01*
X98485038Y-82458349D01*
X98465632Y-82449170D01*
X98447219Y-82438134D01*
X98429976Y-82425346D01*
X98414070Y-82410930D01*
X98399654Y-82395024D01*
X98386866Y-82377781D01*
X98375830Y-82359368D01*
X98366651Y-82339962D01*
X98359419Y-82319750D01*
X98354203Y-82298926D01*
X98351053Y-82277691D01*
X98350000Y-82256250D01*
X98350000Y-81743750D01*
X98351053Y-81722309D01*
X98354203Y-81701074D01*
X98359419Y-81680250D01*
X98366651Y-81660038D01*
X98375830Y-81640632D01*
X98386866Y-81622219D01*
X98399654Y-81604976D01*
X98414070Y-81589070D01*
X98429976Y-81574654D01*
X98447219Y-81561866D01*
X98465632Y-81550830D01*
X98485038Y-81541651D01*
X98505250Y-81534419D01*
X98526074Y-81529203D01*
X98547309Y-81526053D01*
X98568750Y-81525000D01*
X99006250Y-81525000D01*
X99027691Y-81526053D01*
X99027691Y-81526053D01*
G37*
D12*
X98787500Y-82000000D03*
D11*
G36*
X97452691Y-81526053D02*
G01*
X97473926Y-81529203D01*
X97494750Y-81534419D01*
X97514962Y-81541651D01*
X97534368Y-81550830D01*
X97552781Y-81561866D01*
X97570024Y-81574654D01*
X97585930Y-81589070D01*
X97600346Y-81604976D01*
X97613134Y-81622219D01*
X97624170Y-81640632D01*
X97633349Y-81660038D01*
X97640581Y-81680250D01*
X97645797Y-81701074D01*
X97648947Y-81722309D01*
X97650000Y-81743750D01*
X97650000Y-82256250D01*
X97648947Y-82277691D01*
X97645797Y-82298926D01*
X97640581Y-82319750D01*
X97633349Y-82339962D01*
X97624170Y-82359368D01*
X97613134Y-82377781D01*
X97600346Y-82395024D01*
X97585930Y-82410930D01*
X97570024Y-82425346D01*
X97552781Y-82438134D01*
X97534368Y-82449170D01*
X97514962Y-82458349D01*
X97494750Y-82465581D01*
X97473926Y-82470797D01*
X97452691Y-82473947D01*
X97431250Y-82475000D01*
X96993750Y-82475000D01*
X96972309Y-82473947D01*
X96951074Y-82470797D01*
X96930250Y-82465581D01*
X96910038Y-82458349D01*
X96890632Y-82449170D01*
X96872219Y-82438134D01*
X96854976Y-82425346D01*
X96839070Y-82410930D01*
X96824654Y-82395024D01*
X96811866Y-82377781D01*
X96800830Y-82359368D01*
X96791651Y-82339962D01*
X96784419Y-82319750D01*
X96779203Y-82298926D01*
X96776053Y-82277691D01*
X96775000Y-82256250D01*
X96775000Y-81743750D01*
X96776053Y-81722309D01*
X96779203Y-81701074D01*
X96784419Y-81680250D01*
X96791651Y-81660038D01*
X96800830Y-81640632D01*
X96811866Y-81622219D01*
X96824654Y-81604976D01*
X96839070Y-81589070D01*
X96854976Y-81574654D01*
X96872219Y-81561866D01*
X96890632Y-81550830D01*
X96910038Y-81541651D01*
X96930250Y-81534419D01*
X96951074Y-81529203D01*
X96972309Y-81526053D01*
X96993750Y-81525000D01*
X97431250Y-81525000D01*
X97452691Y-81526053D01*
X97452691Y-81526053D01*
G37*
D12*
X97212500Y-82000000D03*
D11*
G36*
X72027691Y-81526053D02*
G01*
X72048926Y-81529203D01*
X72069750Y-81534419D01*
X72089962Y-81541651D01*
X72109368Y-81550830D01*
X72127781Y-81561866D01*
X72145024Y-81574654D01*
X72160930Y-81589070D01*
X72175346Y-81604976D01*
X72188134Y-81622219D01*
X72199170Y-81640632D01*
X72208349Y-81660038D01*
X72215581Y-81680250D01*
X72220797Y-81701074D01*
X72223947Y-81722309D01*
X72225000Y-81743750D01*
X72225000Y-82256250D01*
X72223947Y-82277691D01*
X72220797Y-82298926D01*
X72215581Y-82319750D01*
X72208349Y-82339962D01*
X72199170Y-82359368D01*
X72188134Y-82377781D01*
X72175346Y-82395024D01*
X72160930Y-82410930D01*
X72145024Y-82425346D01*
X72127781Y-82438134D01*
X72109368Y-82449170D01*
X72089962Y-82458349D01*
X72069750Y-82465581D01*
X72048926Y-82470797D01*
X72027691Y-82473947D01*
X72006250Y-82475000D01*
X71568750Y-82475000D01*
X71547309Y-82473947D01*
X71526074Y-82470797D01*
X71505250Y-82465581D01*
X71485038Y-82458349D01*
X71465632Y-82449170D01*
X71447219Y-82438134D01*
X71429976Y-82425346D01*
X71414070Y-82410930D01*
X71399654Y-82395024D01*
X71386866Y-82377781D01*
X71375830Y-82359368D01*
X71366651Y-82339962D01*
X71359419Y-82319750D01*
X71354203Y-82298926D01*
X71351053Y-82277691D01*
X71350000Y-82256250D01*
X71350000Y-81743750D01*
X71351053Y-81722309D01*
X71354203Y-81701074D01*
X71359419Y-81680250D01*
X71366651Y-81660038D01*
X71375830Y-81640632D01*
X71386866Y-81622219D01*
X71399654Y-81604976D01*
X71414070Y-81589070D01*
X71429976Y-81574654D01*
X71447219Y-81561866D01*
X71465632Y-81550830D01*
X71485038Y-81541651D01*
X71505250Y-81534419D01*
X71526074Y-81529203D01*
X71547309Y-81526053D01*
X71568750Y-81525000D01*
X72006250Y-81525000D01*
X72027691Y-81526053D01*
X72027691Y-81526053D01*
G37*
D12*
X71787500Y-82000000D03*
D11*
G36*
X70452691Y-81526053D02*
G01*
X70473926Y-81529203D01*
X70494750Y-81534419D01*
X70514962Y-81541651D01*
X70534368Y-81550830D01*
X70552781Y-81561866D01*
X70570024Y-81574654D01*
X70585930Y-81589070D01*
X70600346Y-81604976D01*
X70613134Y-81622219D01*
X70624170Y-81640632D01*
X70633349Y-81660038D01*
X70640581Y-81680250D01*
X70645797Y-81701074D01*
X70648947Y-81722309D01*
X70650000Y-81743750D01*
X70650000Y-82256250D01*
X70648947Y-82277691D01*
X70645797Y-82298926D01*
X70640581Y-82319750D01*
X70633349Y-82339962D01*
X70624170Y-82359368D01*
X70613134Y-82377781D01*
X70600346Y-82395024D01*
X70585930Y-82410930D01*
X70570024Y-82425346D01*
X70552781Y-82438134D01*
X70534368Y-82449170D01*
X70514962Y-82458349D01*
X70494750Y-82465581D01*
X70473926Y-82470797D01*
X70452691Y-82473947D01*
X70431250Y-82475000D01*
X69993750Y-82475000D01*
X69972309Y-82473947D01*
X69951074Y-82470797D01*
X69930250Y-82465581D01*
X69910038Y-82458349D01*
X69890632Y-82449170D01*
X69872219Y-82438134D01*
X69854976Y-82425346D01*
X69839070Y-82410930D01*
X69824654Y-82395024D01*
X69811866Y-82377781D01*
X69800830Y-82359368D01*
X69791651Y-82339962D01*
X69784419Y-82319750D01*
X69779203Y-82298926D01*
X69776053Y-82277691D01*
X69775000Y-82256250D01*
X69775000Y-81743750D01*
X69776053Y-81722309D01*
X69779203Y-81701074D01*
X69784419Y-81680250D01*
X69791651Y-81660038D01*
X69800830Y-81640632D01*
X69811866Y-81622219D01*
X69824654Y-81604976D01*
X69839070Y-81589070D01*
X69854976Y-81574654D01*
X69872219Y-81561866D01*
X69890632Y-81550830D01*
X69910038Y-81541651D01*
X69930250Y-81534419D01*
X69951074Y-81529203D01*
X69972309Y-81526053D01*
X69993750Y-81525000D01*
X70431250Y-81525000D01*
X70452691Y-81526053D01*
X70452691Y-81526053D01*
G37*
D12*
X70212500Y-82000000D03*
D11*
G36*
X58027691Y-75526053D02*
G01*
X58048926Y-75529203D01*
X58069750Y-75534419D01*
X58089962Y-75541651D01*
X58109368Y-75550830D01*
X58127781Y-75561866D01*
X58145024Y-75574654D01*
X58160930Y-75589070D01*
X58175346Y-75604976D01*
X58188134Y-75622219D01*
X58199170Y-75640632D01*
X58208349Y-75660038D01*
X58215581Y-75680250D01*
X58220797Y-75701074D01*
X58223947Y-75722309D01*
X58225000Y-75743750D01*
X58225000Y-76256250D01*
X58223947Y-76277691D01*
X58220797Y-76298926D01*
X58215581Y-76319750D01*
X58208349Y-76339962D01*
X58199170Y-76359368D01*
X58188134Y-76377781D01*
X58175346Y-76395024D01*
X58160930Y-76410930D01*
X58145024Y-76425346D01*
X58127781Y-76438134D01*
X58109368Y-76449170D01*
X58089962Y-76458349D01*
X58069750Y-76465581D01*
X58048926Y-76470797D01*
X58027691Y-76473947D01*
X58006250Y-76475000D01*
X57568750Y-76475000D01*
X57547309Y-76473947D01*
X57526074Y-76470797D01*
X57505250Y-76465581D01*
X57485038Y-76458349D01*
X57465632Y-76449170D01*
X57447219Y-76438134D01*
X57429976Y-76425346D01*
X57414070Y-76410930D01*
X57399654Y-76395024D01*
X57386866Y-76377781D01*
X57375830Y-76359368D01*
X57366651Y-76339962D01*
X57359419Y-76319750D01*
X57354203Y-76298926D01*
X57351053Y-76277691D01*
X57350000Y-76256250D01*
X57350000Y-75743750D01*
X57351053Y-75722309D01*
X57354203Y-75701074D01*
X57359419Y-75680250D01*
X57366651Y-75660038D01*
X57375830Y-75640632D01*
X57386866Y-75622219D01*
X57399654Y-75604976D01*
X57414070Y-75589070D01*
X57429976Y-75574654D01*
X57447219Y-75561866D01*
X57465632Y-75550830D01*
X57485038Y-75541651D01*
X57505250Y-75534419D01*
X57526074Y-75529203D01*
X57547309Y-75526053D01*
X57568750Y-75525000D01*
X58006250Y-75525000D01*
X58027691Y-75526053D01*
X58027691Y-75526053D01*
G37*
D12*
X57787500Y-76000000D03*
D11*
G36*
X56452691Y-75526053D02*
G01*
X56473926Y-75529203D01*
X56494750Y-75534419D01*
X56514962Y-75541651D01*
X56534368Y-75550830D01*
X56552781Y-75561866D01*
X56570024Y-75574654D01*
X56585930Y-75589070D01*
X56600346Y-75604976D01*
X56613134Y-75622219D01*
X56624170Y-75640632D01*
X56633349Y-75660038D01*
X56640581Y-75680250D01*
X56645797Y-75701074D01*
X56648947Y-75722309D01*
X56650000Y-75743750D01*
X56650000Y-76256250D01*
X56648947Y-76277691D01*
X56645797Y-76298926D01*
X56640581Y-76319750D01*
X56633349Y-76339962D01*
X56624170Y-76359368D01*
X56613134Y-76377781D01*
X56600346Y-76395024D01*
X56585930Y-76410930D01*
X56570024Y-76425346D01*
X56552781Y-76438134D01*
X56534368Y-76449170D01*
X56514962Y-76458349D01*
X56494750Y-76465581D01*
X56473926Y-76470797D01*
X56452691Y-76473947D01*
X56431250Y-76475000D01*
X55993750Y-76475000D01*
X55972309Y-76473947D01*
X55951074Y-76470797D01*
X55930250Y-76465581D01*
X55910038Y-76458349D01*
X55890632Y-76449170D01*
X55872219Y-76438134D01*
X55854976Y-76425346D01*
X55839070Y-76410930D01*
X55824654Y-76395024D01*
X55811866Y-76377781D01*
X55800830Y-76359368D01*
X55791651Y-76339962D01*
X55784419Y-76319750D01*
X55779203Y-76298926D01*
X55776053Y-76277691D01*
X55775000Y-76256250D01*
X55775000Y-75743750D01*
X55776053Y-75722309D01*
X55779203Y-75701074D01*
X55784419Y-75680250D01*
X55791651Y-75660038D01*
X55800830Y-75640632D01*
X55811866Y-75622219D01*
X55824654Y-75604976D01*
X55839070Y-75589070D01*
X55854976Y-75574654D01*
X55872219Y-75561866D01*
X55890632Y-75550830D01*
X55910038Y-75541651D01*
X55930250Y-75534419D01*
X55951074Y-75529203D01*
X55972309Y-75526053D01*
X55993750Y-75525000D01*
X56431250Y-75525000D01*
X56452691Y-75526053D01*
X56452691Y-75526053D01*
G37*
D12*
X56212500Y-76000000D03*
D11*
G36*
X85027691Y-75526053D02*
G01*
X85048926Y-75529203D01*
X85069750Y-75534419D01*
X85089962Y-75541651D01*
X85109368Y-75550830D01*
X85127781Y-75561866D01*
X85145024Y-75574654D01*
X85160930Y-75589070D01*
X85175346Y-75604976D01*
X85188134Y-75622219D01*
X85199170Y-75640632D01*
X85208349Y-75660038D01*
X85215581Y-75680250D01*
X85220797Y-75701074D01*
X85223947Y-75722309D01*
X85225000Y-75743750D01*
X85225000Y-76256250D01*
X85223947Y-76277691D01*
X85220797Y-76298926D01*
X85215581Y-76319750D01*
X85208349Y-76339962D01*
X85199170Y-76359368D01*
X85188134Y-76377781D01*
X85175346Y-76395024D01*
X85160930Y-76410930D01*
X85145024Y-76425346D01*
X85127781Y-76438134D01*
X85109368Y-76449170D01*
X85089962Y-76458349D01*
X85069750Y-76465581D01*
X85048926Y-76470797D01*
X85027691Y-76473947D01*
X85006250Y-76475000D01*
X84568750Y-76475000D01*
X84547309Y-76473947D01*
X84526074Y-76470797D01*
X84505250Y-76465581D01*
X84485038Y-76458349D01*
X84465632Y-76449170D01*
X84447219Y-76438134D01*
X84429976Y-76425346D01*
X84414070Y-76410930D01*
X84399654Y-76395024D01*
X84386866Y-76377781D01*
X84375830Y-76359368D01*
X84366651Y-76339962D01*
X84359419Y-76319750D01*
X84354203Y-76298926D01*
X84351053Y-76277691D01*
X84350000Y-76256250D01*
X84350000Y-75743750D01*
X84351053Y-75722309D01*
X84354203Y-75701074D01*
X84359419Y-75680250D01*
X84366651Y-75660038D01*
X84375830Y-75640632D01*
X84386866Y-75622219D01*
X84399654Y-75604976D01*
X84414070Y-75589070D01*
X84429976Y-75574654D01*
X84447219Y-75561866D01*
X84465632Y-75550830D01*
X84485038Y-75541651D01*
X84505250Y-75534419D01*
X84526074Y-75529203D01*
X84547309Y-75526053D01*
X84568750Y-75525000D01*
X85006250Y-75525000D01*
X85027691Y-75526053D01*
X85027691Y-75526053D01*
G37*
D12*
X84787500Y-76000000D03*
D11*
G36*
X83452691Y-75526053D02*
G01*
X83473926Y-75529203D01*
X83494750Y-75534419D01*
X83514962Y-75541651D01*
X83534368Y-75550830D01*
X83552781Y-75561866D01*
X83570024Y-75574654D01*
X83585930Y-75589070D01*
X83600346Y-75604976D01*
X83613134Y-75622219D01*
X83624170Y-75640632D01*
X83633349Y-75660038D01*
X83640581Y-75680250D01*
X83645797Y-75701074D01*
X83648947Y-75722309D01*
X83650000Y-75743750D01*
X83650000Y-76256250D01*
X83648947Y-76277691D01*
X83645797Y-76298926D01*
X83640581Y-76319750D01*
X83633349Y-76339962D01*
X83624170Y-76359368D01*
X83613134Y-76377781D01*
X83600346Y-76395024D01*
X83585930Y-76410930D01*
X83570024Y-76425346D01*
X83552781Y-76438134D01*
X83534368Y-76449170D01*
X83514962Y-76458349D01*
X83494750Y-76465581D01*
X83473926Y-76470797D01*
X83452691Y-76473947D01*
X83431250Y-76475000D01*
X82993750Y-76475000D01*
X82972309Y-76473947D01*
X82951074Y-76470797D01*
X82930250Y-76465581D01*
X82910038Y-76458349D01*
X82890632Y-76449170D01*
X82872219Y-76438134D01*
X82854976Y-76425346D01*
X82839070Y-76410930D01*
X82824654Y-76395024D01*
X82811866Y-76377781D01*
X82800830Y-76359368D01*
X82791651Y-76339962D01*
X82784419Y-76319750D01*
X82779203Y-76298926D01*
X82776053Y-76277691D01*
X82775000Y-76256250D01*
X82775000Y-75743750D01*
X82776053Y-75722309D01*
X82779203Y-75701074D01*
X82784419Y-75680250D01*
X82791651Y-75660038D01*
X82800830Y-75640632D01*
X82811866Y-75622219D01*
X82824654Y-75604976D01*
X82839070Y-75589070D01*
X82854976Y-75574654D01*
X82872219Y-75561866D01*
X82890632Y-75550830D01*
X82910038Y-75541651D01*
X82930250Y-75534419D01*
X82951074Y-75529203D01*
X82972309Y-75526053D01*
X82993750Y-75525000D01*
X83431250Y-75525000D01*
X83452691Y-75526053D01*
X83452691Y-75526053D01*
G37*
D12*
X83212500Y-76000000D03*
D13*
X83250000Y-89250000D03*
X83250000Y-101250000D03*
X83250000Y-77250000D03*
X97250000Y-83250000D03*
X97250000Y-95250000D03*
X56250000Y-77250000D03*
X56250000Y-89250000D03*
X56250000Y-101250000D03*
X70250000Y-83250000D03*
X70250000Y-95250000D03*
X86000000Y-63250000D03*
D14*
X55250000Y-75037500D02*
X56212500Y-76000000D01*
X55250000Y-73875000D02*
X55250000Y-75037500D01*
X82250000Y-75037500D02*
X83212500Y-76000000D01*
X82250000Y-73875000D02*
X82250000Y-75037500D01*
X96750888Y-81538388D02*
X97212500Y-82000000D01*
X96250000Y-81037500D02*
X96750888Y-81538388D01*
X96250000Y-79875000D02*
X96250000Y-81037500D01*
X96250000Y-93037500D02*
X97212500Y-94000000D01*
X96250000Y-91875000D02*
X96250000Y-93037500D01*
X82250000Y-87037500D02*
X83212500Y-88000000D01*
X82250000Y-85875000D02*
X82250000Y-87037500D01*
X69250000Y-81037500D02*
X70212500Y-82000000D01*
X69250000Y-79875000D02*
X69250000Y-81037500D01*
X55250000Y-87037500D02*
X56212500Y-88000000D01*
X55250000Y-85875000D02*
X55250000Y-87037500D01*
X69250000Y-93037500D02*
X70212500Y-94000000D01*
X69250000Y-91875000D02*
X69250000Y-93037500D01*
X82250000Y-99037500D02*
X83212500Y-100000000D01*
X82250000Y-97875000D02*
X82250000Y-99037500D01*
X55250000Y-99037500D02*
X56212500Y-100000000D01*
X55250000Y-97875000D02*
X55250000Y-99037500D01*
X83212500Y-88000000D02*
X83212500Y-89212500D01*
X83212500Y-89212500D02*
X83250000Y-89250000D01*
X83250000Y-100037500D02*
X83212500Y-100000000D01*
X83250000Y-101250000D02*
X83250000Y-100037500D01*
X83250000Y-76037500D02*
X83212500Y-76000000D01*
X83250000Y-77250000D02*
X83250000Y-76037500D01*
X97212500Y-82000000D02*
X97212500Y-83212500D01*
X97212500Y-83212500D02*
X97250000Y-83250000D01*
X97250000Y-94037500D02*
X97212500Y-94000000D01*
X97250000Y-95250000D02*
X97250000Y-94037500D01*
X56212500Y-76000000D02*
X56212500Y-77212500D01*
X56212500Y-77212500D02*
X56250000Y-77250000D01*
X56250000Y-88037500D02*
X56212500Y-88000000D01*
X56250000Y-89250000D02*
X56250000Y-88037500D01*
X56250000Y-100037500D02*
X56212500Y-100000000D01*
X56250000Y-101250000D02*
X56250000Y-100037500D01*
X70212500Y-83212500D02*
X70250000Y-83250000D01*
X70212500Y-82000000D02*
X70212500Y-83212500D01*
X70250000Y-94037500D02*
X70212500Y-94000000D01*
X70250000Y-95250000D02*
X70250000Y-94037500D01*
X70125000Y-73875000D02*
X58750000Y-73875000D01*
X82250000Y-72125000D02*
X71875000Y-72125000D01*
X71875000Y-72125000D02*
X70125000Y-73875000D01*
X55250000Y-71450000D02*
X59200000Y-67500000D01*
X55250000Y-72125000D02*
X55250000Y-71450000D01*
X59200000Y-67500000D02*
X89250000Y-67500000D01*
X89250000Y-67500000D02*
X93750000Y-63000000D01*
X83949999Y-73124999D02*
X73125001Y-73124999D01*
X85750000Y-73875000D02*
X84700000Y-73875000D01*
X84700000Y-73875000D02*
X83949999Y-73124999D01*
X69250000Y-77000000D02*
X69250000Y-78125000D01*
X73125001Y-73124999D02*
X69250000Y-77000000D01*
X83125000Y-79875000D02*
X72750000Y-79875000D01*
X96250000Y-78125000D02*
X84875000Y-78125000D01*
X84875000Y-78125000D02*
X83125000Y-79875000D01*
X98700000Y-79875000D02*
X97949999Y-79124999D01*
X99750000Y-79875000D02*
X98700000Y-79875000D01*
X70598002Y-83975002D02*
X69901998Y-83975002D01*
X97949999Y-79124999D02*
X84511411Y-79124999D01*
X56300000Y-84125000D02*
X55250000Y-84125000D01*
X69301995Y-83374999D02*
X57050001Y-83374999D01*
X57050001Y-83374999D02*
X56300000Y-84125000D01*
X69901998Y-83975002D02*
X69301995Y-83374999D01*
X80261411Y-83374999D02*
X71198005Y-83374999D01*
X71198005Y-83374999D02*
X70598002Y-83975002D01*
X84511411Y-79124999D02*
X80261411Y-83374999D01*
X70125000Y-85875000D02*
X58750000Y-85875000D01*
X82250000Y-84125000D02*
X71875000Y-84125000D01*
X71875000Y-84125000D02*
X70125000Y-85875000D01*
X83949999Y-85124999D02*
X73125001Y-85124999D01*
X85750000Y-85875000D02*
X84700000Y-85875000D01*
X84700000Y-85875000D02*
X83949999Y-85124999D01*
X69250000Y-89000000D02*
X69250000Y-90125000D01*
X73125001Y-85124999D02*
X69250000Y-89000000D01*
X83125000Y-91875000D02*
X72750000Y-91875000D01*
X96250000Y-90125000D02*
X84875000Y-90125000D01*
X84875000Y-90125000D02*
X83125000Y-91875000D01*
X70125000Y-97875000D02*
X58750000Y-97875000D01*
X82250000Y-96125000D02*
X71875000Y-96125000D01*
X71875000Y-96125000D02*
X70125000Y-97875000D01*
X85750000Y-97875000D02*
X87625000Y-97875000D01*
X87625000Y-97875000D02*
X88000000Y-98250000D01*
X88000000Y-98250000D02*
X88000000Y-101500000D01*
X88000000Y-101500000D02*
X87250000Y-102250000D01*
X87250000Y-102250000D02*
X52000000Y-102250000D01*
X52000000Y-102250000D02*
X51500000Y-101750000D01*
X51500000Y-101750000D02*
X51500000Y-67250000D01*
X51500000Y-67250000D02*
X55500000Y-63250000D01*
X56300000Y-96125000D02*
X55250000Y-96125000D01*
X99750000Y-91875000D02*
X98700000Y-91875000D01*
X98700000Y-91875000D02*
X97949999Y-91124999D01*
X97949999Y-91124999D02*
X84511411Y-91124999D01*
X69301997Y-95374999D02*
X57050001Y-95374999D01*
X70598001Y-95975001D02*
X69901999Y-95975001D01*
X69901999Y-95975001D02*
X69301997Y-95374999D01*
X71198003Y-95374999D02*
X70598001Y-95975001D01*
X80261411Y-95374999D02*
X71198003Y-95374999D01*
X57050001Y-95374999D02*
X56300000Y-96125000D01*
X84511411Y-91124999D02*
X80261411Y-95374999D01*
D15*
G36*
X99748001Y-62987614D02*
G01*
X99746781Y-63000000D01*
X99751647Y-63049401D01*
X99766056Y-63096903D01*
X99789456Y-63140681D01*
X99820947Y-63179053D01*
X99859319Y-63210544D01*
X99900000Y-63232289D01*
X99900000Y-63650000D01*
X93100000Y-63650000D01*
X93100000Y-59502000D01*
X99748000Y-59502000D01*
X99748001Y-62987614D01*
X99748001Y-62987614D01*
G37*
X99748001Y-62987614D02*
X99746781Y-63000000D01*
X99751647Y-63049401D01*
X99766056Y-63096903D01*
X99789456Y-63140681D01*
X99820947Y-63179053D01*
X99859319Y-63210544D01*
X99900000Y-63232289D01*
X99900000Y-63650000D01*
X93100000Y-63650000D01*
X93100000Y-59502000D01*
X99748000Y-59502000D01*
X99748001Y-62987614D01*
G36*
X91900000Y-63650000D02*
G01*
X85100000Y-63650000D01*
X85100000Y-63232289D01*
X85140681Y-63210544D01*
X85179053Y-63179053D01*
X85210544Y-63140681D01*
X85233944Y-63096903D01*
X85248353Y-63049401D01*
X85253219Y-63000000D01*
X85252000Y-62987624D01*
X85252000Y-59502000D01*
X91900000Y-59502000D01*
X91900000Y-63650000D01*
X91900000Y-63650000D01*
G37*
X91900000Y-63650000D02*
X85100000Y-63650000D01*
X85100000Y-63232289D01*
X85140681Y-63210544D01*
X85179053Y-63179053D01*
X85210544Y-63140681D01*
X85233944Y-63096903D01*
X85248353Y-63049401D01*
X85253219Y-63000000D01*
X85252000Y-62987624D01*
X85252000Y-59502000D01*
X91900000Y-59502000D01*
X91900000Y-63650000D01*
G36*
X61900000Y-63650000D02*
G01*
X55100000Y-63650000D01*
X55100000Y-63232289D01*
X55140681Y-63210544D01*
X55179053Y-63179053D01*
X55210544Y-63140681D01*
X55233944Y-63096903D01*
X55248353Y-63049401D01*
X55253219Y-63000000D01*
X55252000Y-62987624D01*
X55252000Y-59502000D01*
X61900000Y-59502000D01*
X61900000Y-63650000D01*
X61900000Y-63650000D01*
G37*
X61900000Y-63650000D02*
X55100000Y-63650000D01*
X55100000Y-63232289D01*
X55140681Y-63210544D01*
X55179053Y-63179053D01*
X55210544Y-63140681D01*
X55233944Y-63096903D01*
X55248353Y-63049401D01*
X55253219Y-63000000D01*
X55252000Y-62987624D01*
X55252000Y-59502000D01*
X61900000Y-59502000D01*
X61900000Y-63650000D01*
G36*
X69621001Y-62981380D02*
G01*
X69619167Y-63000000D01*
X69626485Y-63074297D01*
X69648156Y-63145738D01*
X69683349Y-63211579D01*
X69730710Y-63269290D01*
X69788421Y-63316651D01*
X69854262Y-63351844D01*
X69925703Y-63373515D01*
X69981390Y-63379000D01*
X70000000Y-63380833D01*
X70018610Y-63379000D01*
X84646000Y-63379000D01*
X84646000Y-63750000D01*
X84652802Y-63819062D01*
X84672947Y-63885470D01*
X84705660Y-63946672D01*
X84749684Y-64000316D01*
X84803328Y-64044340D01*
X84864530Y-64077053D01*
X84930938Y-64097198D01*
X85000000Y-64104000D01*
X91968592Y-64104000D01*
X89051593Y-67021000D01*
X59223523Y-67021000D01*
X59200000Y-67018683D01*
X59176477Y-67021000D01*
X59176474Y-67021000D01*
X59106100Y-67027931D01*
X59015808Y-67055321D01*
X58932594Y-67099800D01*
X58902417Y-67124565D01*
X58859657Y-67159657D01*
X58844660Y-67177932D01*
X54927936Y-71094657D01*
X54909658Y-71109657D01*
X54894661Y-71127932D01*
X54849800Y-71182595D01*
X54805322Y-71265808D01*
X54781515Y-71344288D01*
X54450000Y-71344288D01*
X54380604Y-71351123D01*
X54313875Y-71371365D01*
X54252377Y-71404236D01*
X54198474Y-71448474D01*
X54154236Y-71502377D01*
X54121365Y-71563875D01*
X54101123Y-71630604D01*
X54094288Y-71700000D01*
X54094288Y-72550000D01*
X54101123Y-72619396D01*
X54121365Y-72686125D01*
X54154236Y-72747623D01*
X54198474Y-72801526D01*
X54252377Y-72845764D01*
X54313875Y-72878635D01*
X54380604Y-72898877D01*
X54450000Y-72905712D01*
X56050000Y-72905712D01*
X56119396Y-72898877D01*
X56186125Y-72878635D01*
X56247623Y-72845764D01*
X56301526Y-72801526D01*
X56345764Y-72747623D01*
X56378635Y-72686125D01*
X56398877Y-72619396D01*
X56405712Y-72550000D01*
X57594287Y-72550000D01*
X57601122Y-72619396D01*
X57621364Y-72686125D01*
X57654235Y-72747624D01*
X57698473Y-72801527D01*
X57752376Y-72845765D01*
X57813875Y-72878636D01*
X57880604Y-72898878D01*
X57950000Y-72905713D01*
X58659900Y-72904000D01*
X58748400Y-72815500D01*
X58748400Y-72126600D01*
X58751600Y-72126600D01*
X58751600Y-72815500D01*
X58840100Y-72904000D01*
X59550000Y-72905713D01*
X59619396Y-72898878D01*
X59686125Y-72878636D01*
X59747624Y-72845765D01*
X59801527Y-72801527D01*
X59845765Y-72747624D01*
X59878636Y-72686125D01*
X59898878Y-72619396D01*
X59905713Y-72550000D01*
X59904000Y-72215100D01*
X59815500Y-72126600D01*
X58751600Y-72126600D01*
X58748400Y-72126600D01*
X57684500Y-72126600D01*
X57596000Y-72215100D01*
X57594287Y-72550000D01*
X56405712Y-72550000D01*
X56405712Y-71700000D01*
X57594287Y-71700000D01*
X57596000Y-72034900D01*
X57684500Y-72123400D01*
X58748400Y-72123400D01*
X58748400Y-71434500D01*
X58751600Y-71434500D01*
X58751600Y-72123400D01*
X59815500Y-72123400D01*
X59904000Y-72034900D01*
X59905713Y-71700000D01*
X59898878Y-71630604D01*
X59878636Y-71563875D01*
X59845765Y-71502376D01*
X59801527Y-71448473D01*
X59747624Y-71404235D01*
X59686125Y-71371364D01*
X59619396Y-71351122D01*
X59550000Y-71344287D01*
X58840100Y-71346000D01*
X58751600Y-71434500D01*
X58748400Y-71434500D01*
X58659900Y-71346000D01*
X57950000Y-71344287D01*
X57880604Y-71351122D01*
X57813875Y-71371364D01*
X57752376Y-71404235D01*
X57698473Y-71448473D01*
X57654235Y-71502376D01*
X57621364Y-71563875D01*
X57601122Y-71630604D01*
X57594287Y-71700000D01*
X56405712Y-71700000D01*
X56398877Y-71630604D01*
X56378635Y-71563875D01*
X56345764Y-71502377D01*
X56301526Y-71448474D01*
X56247623Y-71404236D01*
X56186125Y-71371365D01*
X56119396Y-71351123D01*
X56050000Y-71344288D01*
X56033119Y-71344288D01*
X59398408Y-67979000D01*
X89226477Y-67979000D01*
X89250000Y-67981317D01*
X89273523Y-67979000D01*
X89273526Y-67979000D01*
X89343900Y-67972069D01*
X89434192Y-67944679D01*
X89517405Y-67900200D01*
X89590343Y-67840343D01*
X89605347Y-67822060D01*
X93323408Y-64104000D01*
X100000000Y-64104000D01*
X100069062Y-64097198D01*
X100135470Y-64077053D01*
X100196672Y-64044340D01*
X100250316Y-64000316D01*
X100294340Y-63946672D01*
X100327053Y-63885470D01*
X100347198Y-63819062D01*
X100354000Y-63750000D01*
X100354000Y-63379000D01*
X104621000Y-63379000D01*
X104621001Y-102621000D01*
X87552986Y-102621000D01*
X87590343Y-102590343D01*
X87605347Y-102572060D01*
X88322065Y-101855343D01*
X88340343Y-101840343D01*
X88397250Y-101771000D01*
X88400200Y-101767406D01*
X88444678Y-101684193D01*
X88444679Y-101684192D01*
X88472069Y-101593900D01*
X88479000Y-101523526D01*
X88479000Y-101523522D01*
X88481317Y-101500001D01*
X88479000Y-101476480D01*
X88479000Y-98273520D01*
X88481317Y-98249999D01*
X88479000Y-98226474D01*
X88472069Y-98156100D01*
X88444679Y-98065808D01*
X88423974Y-98027073D01*
X88400200Y-97982594D01*
X88375435Y-97952417D01*
X88340343Y-97909657D01*
X88322065Y-97894657D01*
X87980347Y-97552940D01*
X87965343Y-97534657D01*
X87892405Y-97474800D01*
X87809192Y-97430321D01*
X87718900Y-97402931D01*
X87648526Y-97396000D01*
X87648523Y-97396000D01*
X87625000Y-97393683D01*
X87601477Y-97396000D01*
X86900393Y-97396000D01*
X86898877Y-97380604D01*
X86878635Y-97313875D01*
X86845764Y-97252377D01*
X86801526Y-97198474D01*
X86747623Y-97154236D01*
X86686125Y-97121365D01*
X86619396Y-97101123D01*
X86550000Y-97094288D01*
X84950000Y-97094288D01*
X84880604Y-97101123D01*
X84813875Y-97121365D01*
X84752377Y-97154236D01*
X84698474Y-97198474D01*
X84654236Y-97252377D01*
X84621365Y-97313875D01*
X84601123Y-97380604D01*
X84594288Y-97450000D01*
X84594288Y-98300000D01*
X84601123Y-98369396D01*
X84621365Y-98436125D01*
X84654236Y-98497623D01*
X84698474Y-98551526D01*
X84752377Y-98595764D01*
X84813875Y-98628635D01*
X84880604Y-98648877D01*
X84950000Y-98655712D01*
X86550000Y-98655712D01*
X86619396Y-98648877D01*
X86686125Y-98628635D01*
X86747623Y-98595764D01*
X86801526Y-98551526D01*
X86845764Y-98497623D01*
X86878635Y-98436125D01*
X86898877Y-98369396D01*
X86900393Y-98354000D01*
X87426593Y-98354000D01*
X87521000Y-98448408D01*
X87521001Y-101301591D01*
X87051593Y-101771000D01*
X83795317Y-101771000D01*
X83835670Y-101730647D01*
X83918186Y-101607153D01*
X83975024Y-101469934D01*
X84004000Y-101324262D01*
X84004000Y-101175738D01*
X83975024Y-101030066D01*
X83918186Y-100892847D01*
X83835670Y-100769353D01*
X83777762Y-100711445D01*
X83837456Y-100662456D01*
X83908898Y-100575404D01*
X83961984Y-100476087D01*
X83994674Y-100368322D01*
X83994766Y-100367389D01*
X83994287Y-100475000D01*
X84001122Y-100544396D01*
X84021364Y-100611125D01*
X84054235Y-100672624D01*
X84098473Y-100726527D01*
X84152376Y-100770765D01*
X84213875Y-100803636D01*
X84280604Y-100823878D01*
X84350000Y-100830713D01*
X84697400Y-100829000D01*
X84785900Y-100740500D01*
X84785900Y-100001600D01*
X84789100Y-100001600D01*
X84789100Y-100740500D01*
X84877600Y-100829000D01*
X85225000Y-100830713D01*
X85294396Y-100823878D01*
X85361125Y-100803636D01*
X85422624Y-100770765D01*
X85476527Y-100726527D01*
X85520765Y-100672624D01*
X85553636Y-100611125D01*
X85573878Y-100544396D01*
X85580713Y-100475000D01*
X85579000Y-100090100D01*
X85490500Y-100001600D01*
X84789100Y-100001600D01*
X84785900Y-100001600D01*
X84765900Y-100001600D01*
X84765900Y-99998400D01*
X84785900Y-99998400D01*
X84785900Y-99259500D01*
X84789100Y-99259500D01*
X84789100Y-99998400D01*
X85490500Y-99998400D01*
X85579000Y-99909900D01*
X85580713Y-99525000D01*
X85573878Y-99455604D01*
X85553636Y-99388875D01*
X85520765Y-99327376D01*
X85476527Y-99273473D01*
X85422624Y-99229235D01*
X85361125Y-99196364D01*
X85294396Y-99176122D01*
X85225000Y-99169287D01*
X84877600Y-99171000D01*
X84789100Y-99259500D01*
X84785900Y-99259500D01*
X84697400Y-99171000D01*
X84350000Y-99169287D01*
X84280604Y-99176122D01*
X84213875Y-99196364D01*
X84152376Y-99229235D01*
X84098473Y-99273473D01*
X84054235Y-99327376D01*
X84021364Y-99388875D01*
X84001122Y-99455604D01*
X83994287Y-99525000D01*
X83994766Y-99632611D01*
X83994674Y-99631678D01*
X83961984Y-99523913D01*
X83908898Y-99424596D01*
X83837456Y-99337544D01*
X83750404Y-99266102D01*
X83651087Y-99213016D01*
X83543322Y-99180326D01*
X83431250Y-99169288D01*
X83059195Y-99169288D01*
X82729000Y-98839093D01*
X82729000Y-98655712D01*
X83050000Y-98655712D01*
X83119396Y-98648877D01*
X83186125Y-98628635D01*
X83247623Y-98595764D01*
X83301526Y-98551526D01*
X83345764Y-98497623D01*
X83378635Y-98436125D01*
X83398877Y-98369396D01*
X83405712Y-98300000D01*
X83405712Y-97450000D01*
X83398877Y-97380604D01*
X83378635Y-97313875D01*
X83345764Y-97252377D01*
X83301526Y-97198474D01*
X83247623Y-97154236D01*
X83186125Y-97121365D01*
X83119396Y-97101123D01*
X83050000Y-97094288D01*
X81450000Y-97094288D01*
X81380604Y-97101123D01*
X81313875Y-97121365D01*
X81252377Y-97154236D01*
X81198474Y-97198474D01*
X81154236Y-97252377D01*
X81121365Y-97313875D01*
X81101123Y-97380604D01*
X81094288Y-97450000D01*
X81094288Y-98300000D01*
X81101123Y-98369396D01*
X81121365Y-98436125D01*
X81154236Y-98497623D01*
X81198474Y-98551526D01*
X81252377Y-98595764D01*
X81313875Y-98628635D01*
X81380604Y-98648877D01*
X81450000Y-98655712D01*
X81771001Y-98655712D01*
X81771001Y-99013967D01*
X81768683Y-99037500D01*
X81777932Y-99131400D01*
X81805322Y-99221692D01*
X81849800Y-99304905D01*
X81868242Y-99327376D01*
X81909658Y-99377843D01*
X81927936Y-99392843D01*
X82419288Y-99884196D01*
X82419288Y-100256250D01*
X82430326Y-100368322D01*
X82463016Y-100476087D01*
X82516102Y-100575404D01*
X82587544Y-100662456D01*
X82674596Y-100733898D01*
X82691011Y-100742672D01*
X82664330Y-100769353D01*
X82581814Y-100892847D01*
X82524976Y-101030066D01*
X82496000Y-101175738D01*
X82496000Y-101324262D01*
X82524976Y-101469934D01*
X82581814Y-101607153D01*
X82664330Y-101730647D01*
X82704683Y-101771000D01*
X56795317Y-101771000D01*
X56835670Y-101730647D01*
X56918186Y-101607153D01*
X56975024Y-101469934D01*
X57004000Y-101324262D01*
X57004000Y-101175738D01*
X56975024Y-101030066D01*
X56918186Y-100892847D01*
X56835670Y-100769353D01*
X56777762Y-100711445D01*
X56837456Y-100662456D01*
X56908898Y-100575404D01*
X56961984Y-100476087D01*
X56994674Y-100368322D01*
X56994766Y-100367389D01*
X56994287Y-100475000D01*
X57001122Y-100544396D01*
X57021364Y-100611125D01*
X57054235Y-100672624D01*
X57098473Y-100726527D01*
X57152376Y-100770765D01*
X57213875Y-100803636D01*
X57280604Y-100823878D01*
X57350000Y-100830713D01*
X57697400Y-100829000D01*
X57785900Y-100740500D01*
X57785900Y-100001600D01*
X57789100Y-100001600D01*
X57789100Y-100740500D01*
X57877600Y-100829000D01*
X58225000Y-100830713D01*
X58294396Y-100823878D01*
X58361125Y-100803636D01*
X58422624Y-100770765D01*
X58476527Y-100726527D01*
X58520765Y-100672624D01*
X58553636Y-100611125D01*
X58573878Y-100544396D01*
X58580713Y-100475000D01*
X58579000Y-100090100D01*
X58490500Y-100001600D01*
X57789100Y-100001600D01*
X57785900Y-100001600D01*
X57765900Y-100001600D01*
X57765900Y-99998400D01*
X57785900Y-99998400D01*
X57785900Y-99259500D01*
X57789100Y-99259500D01*
X57789100Y-99998400D01*
X58490500Y-99998400D01*
X58579000Y-99909900D01*
X58580713Y-99525000D01*
X58573878Y-99455604D01*
X58553636Y-99388875D01*
X58520765Y-99327376D01*
X58476527Y-99273473D01*
X58422624Y-99229235D01*
X58361125Y-99196364D01*
X58294396Y-99176122D01*
X58225000Y-99169287D01*
X57877600Y-99171000D01*
X57789100Y-99259500D01*
X57785900Y-99259500D01*
X57697400Y-99171000D01*
X57350000Y-99169287D01*
X57280604Y-99176122D01*
X57213875Y-99196364D01*
X57152376Y-99229235D01*
X57098473Y-99273473D01*
X57054235Y-99327376D01*
X57021364Y-99388875D01*
X57001122Y-99455604D01*
X56994287Y-99525000D01*
X56994766Y-99632611D01*
X56994674Y-99631678D01*
X56961984Y-99523913D01*
X56908898Y-99424596D01*
X56837456Y-99337544D01*
X56750404Y-99266102D01*
X56651087Y-99213016D01*
X56543322Y-99180326D01*
X56431250Y-99169288D01*
X56059195Y-99169288D01*
X55729000Y-98839093D01*
X55729000Y-98655712D01*
X56050000Y-98655712D01*
X56119396Y-98648877D01*
X56186125Y-98628635D01*
X56247623Y-98595764D01*
X56301526Y-98551526D01*
X56345764Y-98497623D01*
X56378635Y-98436125D01*
X56398877Y-98369396D01*
X56405712Y-98300000D01*
X56405712Y-97450000D01*
X56398877Y-97380604D01*
X56378635Y-97313875D01*
X56345764Y-97252377D01*
X56301526Y-97198474D01*
X56247623Y-97154236D01*
X56186125Y-97121365D01*
X56119396Y-97101123D01*
X56050000Y-97094288D01*
X54450000Y-97094288D01*
X54380604Y-97101123D01*
X54313875Y-97121365D01*
X54252377Y-97154236D01*
X54198474Y-97198474D01*
X54154236Y-97252377D01*
X54121365Y-97313875D01*
X54101123Y-97380604D01*
X54094288Y-97450000D01*
X54094288Y-98300000D01*
X54101123Y-98369396D01*
X54121365Y-98436125D01*
X54154236Y-98497623D01*
X54198474Y-98551526D01*
X54252377Y-98595764D01*
X54313875Y-98628635D01*
X54380604Y-98648877D01*
X54450000Y-98655712D01*
X54771001Y-98655712D01*
X54771001Y-99013967D01*
X54768683Y-99037500D01*
X54777932Y-99131400D01*
X54805322Y-99221692D01*
X54849800Y-99304905D01*
X54868242Y-99327376D01*
X54909658Y-99377843D01*
X54927936Y-99392843D01*
X55419288Y-99884196D01*
X55419288Y-100256250D01*
X55430326Y-100368322D01*
X55463016Y-100476087D01*
X55516102Y-100575404D01*
X55587544Y-100662456D01*
X55674596Y-100733898D01*
X55691011Y-100742672D01*
X55664330Y-100769353D01*
X55581814Y-100892847D01*
X55524976Y-101030066D01*
X55496000Y-101175738D01*
X55496000Y-101324262D01*
X55524976Y-101469934D01*
X55581814Y-101607153D01*
X55664330Y-101730647D01*
X55704683Y-101771000D01*
X52198408Y-101771000D01*
X51979000Y-101551593D01*
X51979000Y-95700000D01*
X54094288Y-95700000D01*
X54094288Y-96550000D01*
X54101123Y-96619396D01*
X54121365Y-96686125D01*
X54154236Y-96747623D01*
X54198474Y-96801526D01*
X54252377Y-96845764D01*
X54313875Y-96878635D01*
X54380604Y-96898877D01*
X54450000Y-96905712D01*
X56050000Y-96905712D01*
X56119396Y-96898877D01*
X56186125Y-96878635D01*
X56247623Y-96845764D01*
X56301526Y-96801526D01*
X56345764Y-96747623D01*
X56378635Y-96686125D01*
X56398877Y-96619396D01*
X56401297Y-96594825D01*
X56484192Y-96569679D01*
X56521008Y-96550000D01*
X57594287Y-96550000D01*
X57601122Y-96619396D01*
X57621364Y-96686125D01*
X57654235Y-96747624D01*
X57698473Y-96801527D01*
X57752376Y-96845765D01*
X57813875Y-96878636D01*
X57880604Y-96898878D01*
X57950000Y-96905713D01*
X58659900Y-96904000D01*
X58748400Y-96815500D01*
X58748400Y-96126600D01*
X58751600Y-96126600D01*
X58751600Y-96815500D01*
X58840100Y-96904000D01*
X59550000Y-96905713D01*
X59619396Y-96898878D01*
X59686125Y-96878636D01*
X59747624Y-96845765D01*
X59801527Y-96801527D01*
X59845765Y-96747624D01*
X59878636Y-96686125D01*
X59898878Y-96619396D01*
X59905713Y-96550000D01*
X59904000Y-96215100D01*
X59815500Y-96126600D01*
X58751600Y-96126600D01*
X58748400Y-96126600D01*
X57684500Y-96126600D01*
X57596000Y-96215100D01*
X57594287Y-96550000D01*
X56521008Y-96550000D01*
X56567405Y-96525200D01*
X56640343Y-96465343D01*
X56655347Y-96447060D01*
X57248409Y-95853999D01*
X57595075Y-95853999D01*
X57596000Y-96034900D01*
X57684500Y-96123400D01*
X58748400Y-96123400D01*
X58748400Y-96103400D01*
X58751600Y-96103400D01*
X58751600Y-96123400D01*
X59815500Y-96123400D01*
X59904000Y-96034900D01*
X59904925Y-95853999D01*
X69103590Y-95853999D01*
X69546656Y-96297066D01*
X69561656Y-96315344D01*
X69604416Y-96350436D01*
X69634593Y-96375201D01*
X69679072Y-96398975D01*
X69717807Y-96419680D01*
X69808099Y-96447070D01*
X69878473Y-96454001D01*
X69878476Y-96454001D01*
X69901999Y-96456318D01*
X69925522Y-96454001D01*
X70574478Y-96454001D01*
X70598001Y-96456318D01*
X70621524Y-96454001D01*
X70621527Y-96454001D01*
X70691901Y-96447070D01*
X70782193Y-96419680D01*
X70865406Y-96375201D01*
X70938344Y-96315344D01*
X70953348Y-96297061D01*
X71396411Y-95853999D01*
X71468593Y-95853999D01*
X69926593Y-97396000D01*
X59900393Y-97396000D01*
X59898877Y-97380604D01*
X59878635Y-97313875D01*
X59845764Y-97252377D01*
X59801526Y-97198474D01*
X59747623Y-97154236D01*
X59686125Y-97121365D01*
X59619396Y-97101123D01*
X59550000Y-97094288D01*
X57950000Y-97094288D01*
X57880604Y-97101123D01*
X57813875Y-97121365D01*
X57752377Y-97154236D01*
X57698474Y-97198474D01*
X57654236Y-97252377D01*
X57621365Y-97313875D01*
X57601123Y-97380604D01*
X57594288Y-97450000D01*
X57594288Y-98300000D01*
X57601123Y-98369396D01*
X57621365Y-98436125D01*
X57654236Y-98497623D01*
X57698474Y-98551526D01*
X57752377Y-98595764D01*
X57813875Y-98628635D01*
X57880604Y-98648877D01*
X57950000Y-98655712D01*
X59550000Y-98655712D01*
X59619396Y-98648877D01*
X59686125Y-98628635D01*
X59747623Y-98595764D01*
X59801526Y-98551526D01*
X59845764Y-98497623D01*
X59878635Y-98436125D01*
X59898877Y-98369396D01*
X59900393Y-98354000D01*
X70101477Y-98354000D01*
X70125000Y-98356317D01*
X70148523Y-98354000D01*
X70148526Y-98354000D01*
X70218900Y-98347069D01*
X70309192Y-98319679D01*
X70392405Y-98275200D01*
X70465343Y-98215343D01*
X70480347Y-98197060D01*
X72073408Y-96604000D01*
X81099607Y-96604000D01*
X81101123Y-96619396D01*
X81121365Y-96686125D01*
X81154236Y-96747623D01*
X81198474Y-96801526D01*
X81252377Y-96845764D01*
X81313875Y-96878635D01*
X81380604Y-96898877D01*
X81450000Y-96905712D01*
X83050000Y-96905712D01*
X83119396Y-96898877D01*
X83186125Y-96878635D01*
X83247623Y-96845764D01*
X83301526Y-96801526D01*
X83345764Y-96747623D01*
X83378635Y-96686125D01*
X83398877Y-96619396D01*
X83405712Y-96550000D01*
X84594287Y-96550000D01*
X84601122Y-96619396D01*
X84621364Y-96686125D01*
X84654235Y-96747624D01*
X84698473Y-96801527D01*
X84752376Y-96845765D01*
X84813875Y-96878636D01*
X84880604Y-96898878D01*
X84950000Y-96905713D01*
X85659900Y-96904000D01*
X85748400Y-96815500D01*
X85748400Y-96126600D01*
X85751600Y-96126600D01*
X85751600Y-96815500D01*
X85840100Y-96904000D01*
X86550000Y-96905713D01*
X86619396Y-96898878D01*
X86686125Y-96878636D01*
X86747624Y-96845765D01*
X86801527Y-96801527D01*
X86845765Y-96747624D01*
X86878636Y-96686125D01*
X86898878Y-96619396D01*
X86905713Y-96550000D01*
X86904000Y-96215100D01*
X86815500Y-96126600D01*
X85751600Y-96126600D01*
X85748400Y-96126600D01*
X84684500Y-96126600D01*
X84596000Y-96215100D01*
X84594287Y-96550000D01*
X83405712Y-96550000D01*
X83405712Y-95700000D01*
X84594287Y-95700000D01*
X84596000Y-96034900D01*
X84684500Y-96123400D01*
X85748400Y-96123400D01*
X85748400Y-95434500D01*
X85751600Y-95434500D01*
X85751600Y-96123400D01*
X86815500Y-96123400D01*
X86904000Y-96034900D01*
X86905713Y-95700000D01*
X86898878Y-95630604D01*
X86878636Y-95563875D01*
X86845765Y-95502376D01*
X86801527Y-95448473D01*
X86747624Y-95404235D01*
X86686125Y-95371364D01*
X86619396Y-95351122D01*
X86550000Y-95344287D01*
X85840100Y-95346000D01*
X85751600Y-95434500D01*
X85748400Y-95434500D01*
X85659900Y-95346000D01*
X84950000Y-95344287D01*
X84880604Y-95351122D01*
X84813875Y-95371364D01*
X84752376Y-95404235D01*
X84698473Y-95448473D01*
X84654235Y-95502376D01*
X84621364Y-95563875D01*
X84601122Y-95630604D01*
X84594287Y-95700000D01*
X83405712Y-95700000D01*
X83398877Y-95630604D01*
X83378635Y-95563875D01*
X83345764Y-95502377D01*
X83301526Y-95448474D01*
X83247623Y-95404236D01*
X83186125Y-95371365D01*
X83119396Y-95351123D01*
X83050000Y-95344288D01*
X81450000Y-95344288D01*
X81380604Y-95351123D01*
X81313875Y-95371365D01*
X81252377Y-95404236D01*
X81198474Y-95448474D01*
X81154236Y-95502377D01*
X81121365Y-95563875D01*
X81101123Y-95630604D01*
X81099607Y-95646000D01*
X80667817Y-95646000D01*
X84709819Y-91603999D01*
X95094288Y-91603999D01*
X95094288Y-92300000D01*
X95101123Y-92369396D01*
X95121365Y-92436125D01*
X95154236Y-92497623D01*
X95198474Y-92551526D01*
X95252377Y-92595764D01*
X95313875Y-92628635D01*
X95380604Y-92648877D01*
X95450000Y-92655712D01*
X95771001Y-92655712D01*
X95771001Y-93013967D01*
X95768683Y-93037500D01*
X95777932Y-93131400D01*
X95805322Y-93221692D01*
X95849800Y-93304905D01*
X95868242Y-93327376D01*
X95909658Y-93377843D01*
X95927936Y-93392843D01*
X96419288Y-93884196D01*
X96419288Y-94256250D01*
X96430326Y-94368322D01*
X96463016Y-94476087D01*
X96516102Y-94575404D01*
X96587544Y-94662456D01*
X96674596Y-94733898D01*
X96691011Y-94742672D01*
X96664330Y-94769353D01*
X96581814Y-94892847D01*
X96524976Y-95030066D01*
X96496000Y-95175738D01*
X96496000Y-95324262D01*
X96524976Y-95469934D01*
X96581814Y-95607153D01*
X96664330Y-95730647D01*
X96769353Y-95835670D01*
X96892847Y-95918186D01*
X97030066Y-95975024D01*
X97175738Y-96004000D01*
X97324262Y-96004000D01*
X97469934Y-95975024D01*
X97607153Y-95918186D01*
X97730647Y-95835670D01*
X97835670Y-95730647D01*
X97918186Y-95607153D01*
X97975024Y-95469934D01*
X98004000Y-95324262D01*
X98004000Y-95175738D01*
X97975024Y-95030066D01*
X97918186Y-94892847D01*
X97835670Y-94769353D01*
X97777762Y-94711445D01*
X97837456Y-94662456D01*
X97908898Y-94575404D01*
X97961984Y-94476087D01*
X97994674Y-94368322D01*
X97994766Y-94367389D01*
X97994287Y-94475000D01*
X98001122Y-94544396D01*
X98021364Y-94611125D01*
X98054235Y-94672624D01*
X98098473Y-94726527D01*
X98152376Y-94770765D01*
X98213875Y-94803636D01*
X98280604Y-94823878D01*
X98350000Y-94830713D01*
X98697400Y-94829000D01*
X98785900Y-94740500D01*
X98785900Y-94001600D01*
X98789100Y-94001600D01*
X98789100Y-94740500D01*
X98877600Y-94829000D01*
X99225000Y-94830713D01*
X99294396Y-94823878D01*
X99361125Y-94803636D01*
X99422624Y-94770765D01*
X99476527Y-94726527D01*
X99520765Y-94672624D01*
X99553636Y-94611125D01*
X99573878Y-94544396D01*
X99580713Y-94475000D01*
X99579000Y-94090100D01*
X99490500Y-94001600D01*
X98789100Y-94001600D01*
X98785900Y-94001600D01*
X98765900Y-94001600D01*
X98765900Y-93998400D01*
X98785900Y-93998400D01*
X98785900Y-93259500D01*
X98789100Y-93259500D01*
X98789100Y-93998400D01*
X99490500Y-93998400D01*
X99579000Y-93909900D01*
X99580713Y-93525000D01*
X99573878Y-93455604D01*
X99553636Y-93388875D01*
X99520765Y-93327376D01*
X99476527Y-93273473D01*
X99422624Y-93229235D01*
X99361125Y-93196364D01*
X99294396Y-93176122D01*
X99225000Y-93169287D01*
X98877600Y-93171000D01*
X98789100Y-93259500D01*
X98785900Y-93259500D01*
X98697400Y-93171000D01*
X98350000Y-93169287D01*
X98280604Y-93176122D01*
X98213875Y-93196364D01*
X98152376Y-93229235D01*
X98098473Y-93273473D01*
X98054235Y-93327376D01*
X98021364Y-93388875D01*
X98001122Y-93455604D01*
X97994287Y-93525000D01*
X97994766Y-93632611D01*
X97994674Y-93631678D01*
X97961984Y-93523913D01*
X97908898Y-93424596D01*
X97837456Y-93337544D01*
X97750404Y-93266102D01*
X97651087Y-93213016D01*
X97543322Y-93180326D01*
X97431250Y-93169288D01*
X97059195Y-93169288D01*
X96729000Y-92839093D01*
X96729000Y-92655712D01*
X97050000Y-92655712D01*
X97119396Y-92648877D01*
X97186125Y-92628635D01*
X97247623Y-92595764D01*
X97301526Y-92551526D01*
X97345764Y-92497623D01*
X97378635Y-92436125D01*
X97398877Y-92369396D01*
X97405712Y-92300000D01*
X97405712Y-91603999D01*
X97751592Y-91603999D01*
X98344657Y-92197065D01*
X98359657Y-92215343D01*
X98402417Y-92250435D01*
X98432594Y-92275200D01*
X98515806Y-92319678D01*
X98515808Y-92319679D01*
X98598703Y-92344825D01*
X98601123Y-92369396D01*
X98621365Y-92436125D01*
X98654236Y-92497623D01*
X98698474Y-92551526D01*
X98752377Y-92595764D01*
X98813875Y-92628635D01*
X98880604Y-92648877D01*
X98950000Y-92655712D01*
X100550000Y-92655712D01*
X100619396Y-92648877D01*
X100686125Y-92628635D01*
X100747623Y-92595764D01*
X100801526Y-92551526D01*
X100845764Y-92497623D01*
X100878635Y-92436125D01*
X100898877Y-92369396D01*
X100905712Y-92300000D01*
X100905712Y-91450000D01*
X100898877Y-91380604D01*
X100878635Y-91313875D01*
X100845764Y-91252377D01*
X100801526Y-91198474D01*
X100747623Y-91154236D01*
X100686125Y-91121365D01*
X100619396Y-91101123D01*
X100550000Y-91094288D01*
X98950000Y-91094288D01*
X98880604Y-91101123D01*
X98813875Y-91121365D01*
X98752377Y-91154236D01*
X98699796Y-91197389D01*
X98305346Y-90802939D01*
X98290342Y-90784656D01*
X98217404Y-90724799D01*
X98134191Y-90680320D01*
X98043899Y-90652930D01*
X97973525Y-90645999D01*
X97973522Y-90645999D01*
X97949999Y-90643682D01*
X97926476Y-90645999D01*
X97390807Y-90645999D01*
X97398877Y-90619396D01*
X97405712Y-90550000D01*
X98594287Y-90550000D01*
X98601122Y-90619396D01*
X98621364Y-90686125D01*
X98654235Y-90747624D01*
X98698473Y-90801527D01*
X98752376Y-90845765D01*
X98813875Y-90878636D01*
X98880604Y-90898878D01*
X98950000Y-90905713D01*
X99659900Y-90904000D01*
X99748400Y-90815500D01*
X99748400Y-90126600D01*
X99751600Y-90126600D01*
X99751600Y-90815500D01*
X99840100Y-90904000D01*
X100550000Y-90905713D01*
X100619396Y-90898878D01*
X100686125Y-90878636D01*
X100747624Y-90845765D01*
X100801527Y-90801527D01*
X100845765Y-90747624D01*
X100878636Y-90686125D01*
X100898878Y-90619396D01*
X100905713Y-90550000D01*
X100904000Y-90215100D01*
X100815500Y-90126600D01*
X99751600Y-90126600D01*
X99748400Y-90126600D01*
X98684500Y-90126600D01*
X98596000Y-90215100D01*
X98594287Y-90550000D01*
X97405712Y-90550000D01*
X97405712Y-89700000D01*
X98594287Y-89700000D01*
X98596000Y-90034900D01*
X98684500Y-90123400D01*
X99748400Y-90123400D01*
X99748400Y-89434500D01*
X99751600Y-89434500D01*
X99751600Y-90123400D01*
X100815500Y-90123400D01*
X100904000Y-90034900D01*
X100905713Y-89700000D01*
X100898878Y-89630604D01*
X100878636Y-89563875D01*
X100845765Y-89502376D01*
X100801527Y-89448473D01*
X100747624Y-89404235D01*
X100686125Y-89371364D01*
X100619396Y-89351122D01*
X100550000Y-89344287D01*
X99840100Y-89346000D01*
X99751600Y-89434500D01*
X99748400Y-89434500D01*
X99659900Y-89346000D01*
X98950000Y-89344287D01*
X98880604Y-89351122D01*
X98813875Y-89371364D01*
X98752376Y-89404235D01*
X98698473Y-89448473D01*
X98654235Y-89502376D01*
X98621364Y-89563875D01*
X98601122Y-89630604D01*
X98594287Y-89700000D01*
X97405712Y-89700000D01*
X97398877Y-89630604D01*
X97378635Y-89563875D01*
X97345764Y-89502377D01*
X97301526Y-89448474D01*
X97247623Y-89404236D01*
X97186125Y-89371365D01*
X97119396Y-89351123D01*
X97050000Y-89344288D01*
X95450000Y-89344288D01*
X95380604Y-89351123D01*
X95313875Y-89371365D01*
X95252377Y-89404236D01*
X95198474Y-89448474D01*
X95154236Y-89502377D01*
X95121365Y-89563875D01*
X95101123Y-89630604D01*
X95099607Y-89646000D01*
X84898523Y-89646000D01*
X84875000Y-89643683D01*
X84851477Y-89646000D01*
X84851474Y-89646000D01*
X84781100Y-89652931D01*
X84690808Y-89680321D01*
X84607594Y-89724800D01*
X84577417Y-89749565D01*
X84534657Y-89784657D01*
X84519657Y-89802935D01*
X82926593Y-91396000D01*
X73900393Y-91396000D01*
X73898877Y-91380604D01*
X73878635Y-91313875D01*
X73845764Y-91252377D01*
X73801526Y-91198474D01*
X73747623Y-91154236D01*
X73686125Y-91121365D01*
X73619396Y-91101123D01*
X73550000Y-91094288D01*
X71950000Y-91094288D01*
X71880604Y-91101123D01*
X71813875Y-91121365D01*
X71752377Y-91154236D01*
X71698474Y-91198474D01*
X71654236Y-91252377D01*
X71621365Y-91313875D01*
X71601123Y-91380604D01*
X71594288Y-91450000D01*
X71594288Y-92300000D01*
X71601123Y-92369396D01*
X71621365Y-92436125D01*
X71654236Y-92497623D01*
X71698474Y-92551526D01*
X71752377Y-92595764D01*
X71813875Y-92628635D01*
X71880604Y-92648877D01*
X71950000Y-92655712D01*
X73550000Y-92655712D01*
X73619396Y-92648877D01*
X73686125Y-92628635D01*
X73747623Y-92595764D01*
X73801526Y-92551526D01*
X73845764Y-92497623D01*
X73878635Y-92436125D01*
X73898877Y-92369396D01*
X73900393Y-92354000D01*
X82605002Y-92354000D01*
X80063004Y-94895999D01*
X71221526Y-94895999D01*
X71198003Y-94893682D01*
X71174480Y-94895999D01*
X71174477Y-94895999D01*
X71104103Y-94902930D01*
X71013811Y-94930320D01*
X70975076Y-94951025D01*
X70948228Y-94965375D01*
X70918186Y-94892847D01*
X70835670Y-94769353D01*
X70777762Y-94711445D01*
X70837456Y-94662456D01*
X70908898Y-94575404D01*
X70961984Y-94476087D01*
X70994674Y-94368322D01*
X70994766Y-94367389D01*
X70994287Y-94475000D01*
X71001122Y-94544396D01*
X71021364Y-94611125D01*
X71054235Y-94672624D01*
X71098473Y-94726527D01*
X71152376Y-94770765D01*
X71213875Y-94803636D01*
X71280604Y-94823878D01*
X71350000Y-94830713D01*
X71697400Y-94829000D01*
X71785900Y-94740500D01*
X71785900Y-94001600D01*
X71789100Y-94001600D01*
X71789100Y-94740500D01*
X71877600Y-94829000D01*
X72225000Y-94830713D01*
X72294396Y-94823878D01*
X72361125Y-94803636D01*
X72422624Y-94770765D01*
X72476527Y-94726527D01*
X72520765Y-94672624D01*
X72553636Y-94611125D01*
X72573878Y-94544396D01*
X72580713Y-94475000D01*
X72579000Y-94090100D01*
X72490500Y-94001600D01*
X71789100Y-94001600D01*
X71785900Y-94001600D01*
X71765900Y-94001600D01*
X71765900Y-93998400D01*
X71785900Y-93998400D01*
X71785900Y-93259500D01*
X71789100Y-93259500D01*
X71789100Y-93998400D01*
X72490500Y-93998400D01*
X72579000Y-93909900D01*
X72580713Y-93525000D01*
X72573878Y-93455604D01*
X72553636Y-93388875D01*
X72520765Y-93327376D01*
X72476527Y-93273473D01*
X72422624Y-93229235D01*
X72361125Y-93196364D01*
X72294396Y-93176122D01*
X72225000Y-93169287D01*
X71877600Y-93171000D01*
X71789100Y-93259500D01*
X71785900Y-93259500D01*
X71697400Y-93171000D01*
X71350000Y-93169287D01*
X71280604Y-93176122D01*
X71213875Y-93196364D01*
X71152376Y-93229235D01*
X71098473Y-93273473D01*
X71054235Y-93327376D01*
X71021364Y-93388875D01*
X71001122Y-93455604D01*
X70994287Y-93525000D01*
X70994766Y-93632611D01*
X70994674Y-93631678D01*
X70961984Y-93523913D01*
X70908898Y-93424596D01*
X70837456Y-93337544D01*
X70750404Y-93266102D01*
X70651087Y-93213016D01*
X70543322Y-93180326D01*
X70431250Y-93169288D01*
X70059195Y-93169288D01*
X69729000Y-92839093D01*
X69729000Y-92655712D01*
X70050000Y-92655712D01*
X70119396Y-92648877D01*
X70186125Y-92628635D01*
X70247623Y-92595764D01*
X70301526Y-92551526D01*
X70345764Y-92497623D01*
X70378635Y-92436125D01*
X70398877Y-92369396D01*
X70405712Y-92300000D01*
X70405712Y-91450000D01*
X70398877Y-91380604D01*
X70378635Y-91313875D01*
X70345764Y-91252377D01*
X70301526Y-91198474D01*
X70247623Y-91154236D01*
X70186125Y-91121365D01*
X70119396Y-91101123D01*
X70050000Y-91094288D01*
X68450000Y-91094288D01*
X68380604Y-91101123D01*
X68313875Y-91121365D01*
X68252377Y-91154236D01*
X68198474Y-91198474D01*
X68154236Y-91252377D01*
X68121365Y-91313875D01*
X68101123Y-91380604D01*
X68094288Y-91450000D01*
X68094288Y-92300000D01*
X68101123Y-92369396D01*
X68121365Y-92436125D01*
X68154236Y-92497623D01*
X68198474Y-92551526D01*
X68252377Y-92595764D01*
X68313875Y-92628635D01*
X68380604Y-92648877D01*
X68450000Y-92655712D01*
X68771001Y-92655712D01*
X68771001Y-93013967D01*
X68768683Y-93037500D01*
X68777932Y-93131400D01*
X68805322Y-93221692D01*
X68849800Y-93304905D01*
X68868242Y-93327376D01*
X68909658Y-93377843D01*
X68927936Y-93392843D01*
X69419288Y-93884196D01*
X69419288Y-94256250D01*
X69430326Y-94368322D01*
X69463016Y-94476087D01*
X69516102Y-94575404D01*
X69587544Y-94662456D01*
X69674596Y-94733898D01*
X69691011Y-94742672D01*
X69664330Y-94769353D01*
X69581814Y-94892847D01*
X69551772Y-94965375D01*
X69486189Y-94930320D01*
X69395897Y-94902930D01*
X69325523Y-94895999D01*
X69325520Y-94895999D01*
X69301997Y-94893682D01*
X69278474Y-94895999D01*
X57073524Y-94895999D01*
X57050001Y-94893682D01*
X57026478Y-94895999D01*
X57026475Y-94895999D01*
X56956101Y-94902930D01*
X56865809Y-94930320D01*
X56782595Y-94974799D01*
X56752418Y-94999564D01*
X56709658Y-95034656D01*
X56694661Y-95052931D01*
X56300204Y-95447389D01*
X56247623Y-95404236D01*
X56186125Y-95371365D01*
X56119396Y-95351123D01*
X56050000Y-95344288D01*
X54450000Y-95344288D01*
X54380604Y-95351123D01*
X54313875Y-95371365D01*
X54252377Y-95404236D01*
X54198474Y-95448474D01*
X54154236Y-95502377D01*
X54121365Y-95563875D01*
X54101123Y-95630604D01*
X54094288Y-95700000D01*
X51979000Y-95700000D01*
X51979000Y-85450000D01*
X54094288Y-85450000D01*
X54094288Y-86300000D01*
X54101123Y-86369396D01*
X54121365Y-86436125D01*
X54154236Y-86497623D01*
X54198474Y-86551526D01*
X54252377Y-86595764D01*
X54313875Y-86628635D01*
X54380604Y-86648877D01*
X54450000Y-86655712D01*
X54771001Y-86655712D01*
X54771001Y-87013967D01*
X54768683Y-87037500D01*
X54777932Y-87131400D01*
X54805322Y-87221692D01*
X54849800Y-87304905D01*
X54868242Y-87327376D01*
X54909658Y-87377843D01*
X54927936Y-87392843D01*
X55419288Y-87884196D01*
X55419288Y-88256250D01*
X55430326Y-88368322D01*
X55463016Y-88476087D01*
X55516102Y-88575404D01*
X55587544Y-88662456D01*
X55674596Y-88733898D01*
X55691011Y-88742672D01*
X55664330Y-88769353D01*
X55581814Y-88892847D01*
X55524976Y-89030066D01*
X55496000Y-89175738D01*
X55496000Y-89324262D01*
X55524976Y-89469934D01*
X55581814Y-89607153D01*
X55664330Y-89730647D01*
X55769353Y-89835670D01*
X55892847Y-89918186D01*
X56030066Y-89975024D01*
X56175738Y-90004000D01*
X56324262Y-90004000D01*
X56469934Y-89975024D01*
X56607153Y-89918186D01*
X56730647Y-89835670D01*
X56835670Y-89730647D01*
X56918186Y-89607153D01*
X56975024Y-89469934D01*
X57004000Y-89324262D01*
X57004000Y-89175738D01*
X56975024Y-89030066D01*
X56918186Y-88892847D01*
X56835670Y-88769353D01*
X56777762Y-88711445D01*
X56837456Y-88662456D01*
X56908898Y-88575404D01*
X56961984Y-88476087D01*
X56994674Y-88368322D01*
X56994766Y-88367389D01*
X56994287Y-88475000D01*
X57001122Y-88544396D01*
X57021364Y-88611125D01*
X57054235Y-88672624D01*
X57098473Y-88726527D01*
X57152376Y-88770765D01*
X57213875Y-88803636D01*
X57280604Y-88823878D01*
X57350000Y-88830713D01*
X57697400Y-88829000D01*
X57785900Y-88740500D01*
X57785900Y-88001600D01*
X57789100Y-88001600D01*
X57789100Y-88740500D01*
X57877600Y-88829000D01*
X58225000Y-88830713D01*
X58294396Y-88823878D01*
X58361125Y-88803636D01*
X58422624Y-88770765D01*
X58476527Y-88726527D01*
X58520765Y-88672624D01*
X58553636Y-88611125D01*
X58573878Y-88544396D01*
X58580713Y-88475000D01*
X58579000Y-88090100D01*
X58490500Y-88001600D01*
X57789100Y-88001600D01*
X57785900Y-88001600D01*
X57765900Y-88001600D01*
X57765900Y-87998400D01*
X57785900Y-87998400D01*
X57785900Y-87259500D01*
X57789100Y-87259500D01*
X57789100Y-87998400D01*
X58490500Y-87998400D01*
X58579000Y-87909900D01*
X58580713Y-87525000D01*
X58573878Y-87455604D01*
X58553636Y-87388875D01*
X58520765Y-87327376D01*
X58476527Y-87273473D01*
X58422624Y-87229235D01*
X58361125Y-87196364D01*
X58294396Y-87176122D01*
X58225000Y-87169287D01*
X57877600Y-87171000D01*
X57789100Y-87259500D01*
X57785900Y-87259500D01*
X57697400Y-87171000D01*
X57350000Y-87169287D01*
X57280604Y-87176122D01*
X57213875Y-87196364D01*
X57152376Y-87229235D01*
X57098473Y-87273473D01*
X57054235Y-87327376D01*
X57021364Y-87388875D01*
X57001122Y-87455604D01*
X56994287Y-87525000D01*
X56994766Y-87632611D01*
X56994674Y-87631678D01*
X56961984Y-87523913D01*
X56908898Y-87424596D01*
X56837456Y-87337544D01*
X56750404Y-87266102D01*
X56651087Y-87213016D01*
X56543322Y-87180326D01*
X56431250Y-87169288D01*
X56059195Y-87169288D01*
X55729000Y-86839093D01*
X55729000Y-86655712D01*
X56050000Y-86655712D01*
X56119396Y-86648877D01*
X56186125Y-86628635D01*
X56247623Y-86595764D01*
X56301526Y-86551526D01*
X56345764Y-86497623D01*
X56378635Y-86436125D01*
X56398877Y-86369396D01*
X56405712Y-86300000D01*
X56405712Y-85450000D01*
X56398877Y-85380604D01*
X56378635Y-85313875D01*
X56345764Y-85252377D01*
X56301526Y-85198474D01*
X56247623Y-85154236D01*
X56186125Y-85121365D01*
X56119396Y-85101123D01*
X56050000Y-85094288D01*
X54450000Y-85094288D01*
X54380604Y-85101123D01*
X54313875Y-85121365D01*
X54252377Y-85154236D01*
X54198474Y-85198474D01*
X54154236Y-85252377D01*
X54121365Y-85313875D01*
X54101123Y-85380604D01*
X54094288Y-85450000D01*
X51979000Y-85450000D01*
X51979000Y-83700000D01*
X54094288Y-83700000D01*
X54094288Y-84550000D01*
X54101123Y-84619396D01*
X54121365Y-84686125D01*
X54154236Y-84747623D01*
X54198474Y-84801526D01*
X54252377Y-84845764D01*
X54313875Y-84878635D01*
X54380604Y-84898877D01*
X54450000Y-84905712D01*
X56050000Y-84905712D01*
X56119396Y-84898877D01*
X56186125Y-84878635D01*
X56247623Y-84845764D01*
X56301526Y-84801526D01*
X56345764Y-84747623D01*
X56378635Y-84686125D01*
X56398877Y-84619396D01*
X56401297Y-84594825D01*
X56484192Y-84569679D01*
X56521008Y-84550000D01*
X57594287Y-84550000D01*
X57601122Y-84619396D01*
X57621364Y-84686125D01*
X57654235Y-84747624D01*
X57698473Y-84801527D01*
X57752376Y-84845765D01*
X57813875Y-84878636D01*
X57880604Y-84898878D01*
X57950000Y-84905713D01*
X58659900Y-84904000D01*
X58748400Y-84815500D01*
X58748400Y-84126600D01*
X58751600Y-84126600D01*
X58751600Y-84815500D01*
X58840100Y-84904000D01*
X59550000Y-84905713D01*
X59619396Y-84898878D01*
X59686125Y-84878636D01*
X59747624Y-84845765D01*
X59801527Y-84801527D01*
X59845765Y-84747624D01*
X59878636Y-84686125D01*
X59898878Y-84619396D01*
X59905713Y-84550000D01*
X59904000Y-84215100D01*
X59815500Y-84126600D01*
X58751600Y-84126600D01*
X58748400Y-84126600D01*
X57684500Y-84126600D01*
X57596000Y-84215100D01*
X57594287Y-84550000D01*
X56521008Y-84550000D01*
X56567405Y-84525200D01*
X56640343Y-84465343D01*
X56655347Y-84447060D01*
X57248409Y-83853999D01*
X57595075Y-83853999D01*
X57596000Y-84034900D01*
X57684500Y-84123400D01*
X58748400Y-84123400D01*
X58748400Y-84103400D01*
X58751600Y-84103400D01*
X58751600Y-84123400D01*
X59815500Y-84123400D01*
X59904000Y-84034900D01*
X59904925Y-83853999D01*
X69103588Y-83853999D01*
X69546659Y-84297072D01*
X69561655Y-84315345D01*
X69579927Y-84330340D01*
X69579928Y-84330341D01*
X69634591Y-84375202D01*
X69692563Y-84406188D01*
X69717806Y-84419681D01*
X69808098Y-84447071D01*
X69878472Y-84454002D01*
X69878476Y-84454002D01*
X69901997Y-84456319D01*
X69925518Y-84454002D01*
X70574479Y-84454002D01*
X70598002Y-84456319D01*
X70621525Y-84454002D01*
X70621528Y-84454002D01*
X70691902Y-84447071D01*
X70782194Y-84419681D01*
X70865407Y-84375202D01*
X70938345Y-84315345D01*
X70953349Y-84297062D01*
X71396414Y-83853999D01*
X71468593Y-83853999D01*
X69926593Y-85396000D01*
X59900393Y-85396000D01*
X59898877Y-85380604D01*
X59878635Y-85313875D01*
X59845764Y-85252377D01*
X59801526Y-85198474D01*
X59747623Y-85154236D01*
X59686125Y-85121365D01*
X59619396Y-85101123D01*
X59550000Y-85094288D01*
X57950000Y-85094288D01*
X57880604Y-85101123D01*
X57813875Y-85121365D01*
X57752377Y-85154236D01*
X57698474Y-85198474D01*
X57654236Y-85252377D01*
X57621365Y-85313875D01*
X57601123Y-85380604D01*
X57594288Y-85450000D01*
X57594288Y-86300000D01*
X57601123Y-86369396D01*
X57621365Y-86436125D01*
X57654236Y-86497623D01*
X57698474Y-86551526D01*
X57752377Y-86595764D01*
X57813875Y-86628635D01*
X57880604Y-86648877D01*
X57950000Y-86655712D01*
X59550000Y-86655712D01*
X59619396Y-86648877D01*
X59686125Y-86628635D01*
X59747623Y-86595764D01*
X59801526Y-86551526D01*
X59845764Y-86497623D01*
X59878635Y-86436125D01*
X59898877Y-86369396D01*
X59900393Y-86354000D01*
X70101477Y-86354000D01*
X70125000Y-86356317D01*
X70148523Y-86354000D01*
X70148526Y-86354000D01*
X70218900Y-86347069D01*
X70309192Y-86319679D01*
X70392405Y-86275200D01*
X70465343Y-86215343D01*
X70480347Y-86197060D01*
X72073408Y-84604000D01*
X81099607Y-84604000D01*
X81101123Y-84619396D01*
X81109193Y-84645999D01*
X73148524Y-84645999D01*
X73125001Y-84643682D01*
X73101478Y-84645999D01*
X73101475Y-84645999D01*
X73031101Y-84652930D01*
X72940809Y-84680320D01*
X72929949Y-84686125D01*
X72857595Y-84724799D01*
X72829784Y-84747623D01*
X72784658Y-84784656D01*
X72769658Y-84802934D01*
X68927940Y-88644653D01*
X68909657Y-88659657D01*
X68849800Y-88732595D01*
X68805321Y-88815809D01*
X68777931Y-88906101D01*
X68774091Y-88945095D01*
X68768683Y-89000000D01*
X68771000Y-89023524D01*
X68771000Y-89344288D01*
X68450000Y-89344288D01*
X68380604Y-89351123D01*
X68313875Y-89371365D01*
X68252377Y-89404236D01*
X68198474Y-89448474D01*
X68154236Y-89502377D01*
X68121365Y-89563875D01*
X68101123Y-89630604D01*
X68094288Y-89700000D01*
X68094288Y-90550000D01*
X68101123Y-90619396D01*
X68121365Y-90686125D01*
X68154236Y-90747623D01*
X68198474Y-90801526D01*
X68252377Y-90845764D01*
X68313875Y-90878635D01*
X68380604Y-90898877D01*
X68450000Y-90905712D01*
X70050000Y-90905712D01*
X70119396Y-90898877D01*
X70186125Y-90878635D01*
X70247623Y-90845764D01*
X70301526Y-90801526D01*
X70345764Y-90747623D01*
X70378635Y-90686125D01*
X70398877Y-90619396D01*
X70405712Y-90550000D01*
X71594287Y-90550000D01*
X71601122Y-90619396D01*
X71621364Y-90686125D01*
X71654235Y-90747624D01*
X71698473Y-90801527D01*
X71752376Y-90845765D01*
X71813875Y-90878636D01*
X71880604Y-90898878D01*
X71950000Y-90905713D01*
X72659900Y-90904000D01*
X72748400Y-90815500D01*
X72748400Y-90126600D01*
X72751600Y-90126600D01*
X72751600Y-90815500D01*
X72840100Y-90904000D01*
X73550000Y-90905713D01*
X73619396Y-90898878D01*
X73686125Y-90878636D01*
X73747624Y-90845765D01*
X73801527Y-90801527D01*
X73845765Y-90747624D01*
X73878636Y-90686125D01*
X73898878Y-90619396D01*
X73905713Y-90550000D01*
X73904000Y-90215100D01*
X73815500Y-90126600D01*
X72751600Y-90126600D01*
X72748400Y-90126600D01*
X71684500Y-90126600D01*
X71596000Y-90215100D01*
X71594287Y-90550000D01*
X70405712Y-90550000D01*
X70405712Y-89700000D01*
X71594287Y-89700000D01*
X71596000Y-90034900D01*
X71684500Y-90123400D01*
X72748400Y-90123400D01*
X72748400Y-89434500D01*
X72751600Y-89434500D01*
X72751600Y-90123400D01*
X73815500Y-90123400D01*
X73904000Y-90034900D01*
X73905713Y-89700000D01*
X73898878Y-89630604D01*
X73878636Y-89563875D01*
X73845765Y-89502376D01*
X73801527Y-89448473D01*
X73747624Y-89404235D01*
X73686125Y-89371364D01*
X73619396Y-89351122D01*
X73550000Y-89344287D01*
X72840100Y-89346000D01*
X72751600Y-89434500D01*
X72748400Y-89434500D01*
X72659900Y-89346000D01*
X71950000Y-89344287D01*
X71880604Y-89351122D01*
X71813875Y-89371364D01*
X71752376Y-89404235D01*
X71698473Y-89448473D01*
X71654235Y-89502376D01*
X71621364Y-89563875D01*
X71601122Y-89630604D01*
X71594287Y-89700000D01*
X70405712Y-89700000D01*
X70398877Y-89630604D01*
X70378635Y-89563875D01*
X70345764Y-89502377D01*
X70301526Y-89448474D01*
X70247623Y-89404236D01*
X70186125Y-89371365D01*
X70119396Y-89351123D01*
X70050000Y-89344288D01*
X69729000Y-89344288D01*
X69729000Y-89198407D01*
X73323409Y-85603999D01*
X81094288Y-85603999D01*
X81094288Y-86300000D01*
X81101123Y-86369396D01*
X81121365Y-86436125D01*
X81154236Y-86497623D01*
X81198474Y-86551526D01*
X81252377Y-86595764D01*
X81313875Y-86628635D01*
X81380604Y-86648877D01*
X81450000Y-86655712D01*
X81771001Y-86655712D01*
X81771001Y-87013967D01*
X81768683Y-87037500D01*
X81777932Y-87131400D01*
X81805322Y-87221692D01*
X81849800Y-87304905D01*
X81868242Y-87327376D01*
X81909658Y-87377843D01*
X81927936Y-87392843D01*
X82419288Y-87884196D01*
X82419288Y-88256250D01*
X82430326Y-88368322D01*
X82463016Y-88476087D01*
X82516102Y-88575404D01*
X82587544Y-88662456D01*
X82674596Y-88733898D01*
X82691011Y-88742672D01*
X82664330Y-88769353D01*
X82581814Y-88892847D01*
X82524976Y-89030066D01*
X82496000Y-89175738D01*
X82496000Y-89324262D01*
X82524976Y-89469934D01*
X82581814Y-89607153D01*
X82664330Y-89730647D01*
X82769353Y-89835670D01*
X82892847Y-89918186D01*
X83030066Y-89975024D01*
X83175738Y-90004000D01*
X83324262Y-90004000D01*
X83469934Y-89975024D01*
X83607153Y-89918186D01*
X83730647Y-89835670D01*
X83835670Y-89730647D01*
X83918186Y-89607153D01*
X83975024Y-89469934D01*
X84004000Y-89324262D01*
X84004000Y-89175738D01*
X83975024Y-89030066D01*
X83918186Y-88892847D01*
X83835670Y-88769353D01*
X83777762Y-88711445D01*
X83837456Y-88662456D01*
X83908898Y-88575404D01*
X83961984Y-88476087D01*
X83994674Y-88368322D01*
X83994766Y-88367389D01*
X83994287Y-88475000D01*
X84001122Y-88544396D01*
X84021364Y-88611125D01*
X84054235Y-88672624D01*
X84098473Y-88726527D01*
X84152376Y-88770765D01*
X84213875Y-88803636D01*
X84280604Y-88823878D01*
X84350000Y-88830713D01*
X84697400Y-88829000D01*
X84785900Y-88740500D01*
X84785900Y-88001600D01*
X84789100Y-88001600D01*
X84789100Y-88740500D01*
X84877600Y-88829000D01*
X85225000Y-88830713D01*
X85294396Y-88823878D01*
X85361125Y-88803636D01*
X85422624Y-88770765D01*
X85476527Y-88726527D01*
X85520765Y-88672624D01*
X85553636Y-88611125D01*
X85573878Y-88544396D01*
X85580713Y-88475000D01*
X85579000Y-88090100D01*
X85490500Y-88001600D01*
X84789100Y-88001600D01*
X84785900Y-88001600D01*
X84765900Y-88001600D01*
X84765900Y-87998400D01*
X84785900Y-87998400D01*
X84785900Y-87259500D01*
X84789100Y-87259500D01*
X84789100Y-87998400D01*
X85490500Y-87998400D01*
X85579000Y-87909900D01*
X85580713Y-87525000D01*
X85573878Y-87455604D01*
X85553636Y-87388875D01*
X85520765Y-87327376D01*
X85476527Y-87273473D01*
X85422624Y-87229235D01*
X85361125Y-87196364D01*
X85294396Y-87176122D01*
X85225000Y-87169287D01*
X84877600Y-87171000D01*
X84789100Y-87259500D01*
X84785900Y-87259500D01*
X84697400Y-87171000D01*
X84350000Y-87169287D01*
X84280604Y-87176122D01*
X84213875Y-87196364D01*
X84152376Y-87229235D01*
X84098473Y-87273473D01*
X84054235Y-87327376D01*
X84021364Y-87388875D01*
X84001122Y-87455604D01*
X83994287Y-87525000D01*
X83994766Y-87632611D01*
X83994674Y-87631678D01*
X83961984Y-87523913D01*
X83908898Y-87424596D01*
X83837456Y-87337544D01*
X83750404Y-87266102D01*
X83651087Y-87213016D01*
X83543322Y-87180326D01*
X83431250Y-87169288D01*
X83059195Y-87169288D01*
X82729000Y-86839093D01*
X82729000Y-86655712D01*
X83050000Y-86655712D01*
X83119396Y-86648877D01*
X83186125Y-86628635D01*
X83247623Y-86595764D01*
X83301526Y-86551526D01*
X83345764Y-86497623D01*
X83378635Y-86436125D01*
X83398877Y-86369396D01*
X83405712Y-86300000D01*
X83405712Y-85603999D01*
X83751592Y-85603999D01*
X84344657Y-86197065D01*
X84359657Y-86215343D01*
X84402417Y-86250435D01*
X84432594Y-86275200D01*
X84515806Y-86319678D01*
X84515808Y-86319679D01*
X84598703Y-86344825D01*
X84601123Y-86369396D01*
X84621365Y-86436125D01*
X84654236Y-86497623D01*
X84698474Y-86551526D01*
X84752377Y-86595764D01*
X84813875Y-86628635D01*
X84880604Y-86648877D01*
X84950000Y-86655712D01*
X86550000Y-86655712D01*
X86619396Y-86648877D01*
X86686125Y-86628635D01*
X86747623Y-86595764D01*
X86801526Y-86551526D01*
X86845764Y-86497623D01*
X86878635Y-86436125D01*
X86898877Y-86369396D01*
X86905712Y-86300000D01*
X86905712Y-85450000D01*
X86898877Y-85380604D01*
X86878635Y-85313875D01*
X86845764Y-85252377D01*
X86801526Y-85198474D01*
X86747623Y-85154236D01*
X86686125Y-85121365D01*
X86619396Y-85101123D01*
X86550000Y-85094288D01*
X84950000Y-85094288D01*
X84880604Y-85101123D01*
X84813875Y-85121365D01*
X84752377Y-85154236D01*
X84699796Y-85197389D01*
X84305346Y-84802939D01*
X84290342Y-84784656D01*
X84217404Y-84724799D01*
X84134191Y-84680320D01*
X84043899Y-84652930D01*
X83973525Y-84645999D01*
X83973522Y-84645999D01*
X83949999Y-84643682D01*
X83926476Y-84645999D01*
X83390807Y-84645999D01*
X83398877Y-84619396D01*
X83405712Y-84550000D01*
X84594287Y-84550000D01*
X84601122Y-84619396D01*
X84621364Y-84686125D01*
X84654235Y-84747624D01*
X84698473Y-84801527D01*
X84752376Y-84845765D01*
X84813875Y-84878636D01*
X84880604Y-84898878D01*
X84950000Y-84905713D01*
X85659900Y-84904000D01*
X85748400Y-84815500D01*
X85748400Y-84126600D01*
X85751600Y-84126600D01*
X85751600Y-84815500D01*
X85840100Y-84904000D01*
X86550000Y-84905713D01*
X86619396Y-84898878D01*
X86686125Y-84878636D01*
X86747624Y-84845765D01*
X86801527Y-84801527D01*
X86845765Y-84747624D01*
X86878636Y-84686125D01*
X86898878Y-84619396D01*
X86905713Y-84550000D01*
X86904000Y-84215100D01*
X86815500Y-84126600D01*
X85751600Y-84126600D01*
X85748400Y-84126600D01*
X84684500Y-84126600D01*
X84596000Y-84215100D01*
X84594287Y-84550000D01*
X83405712Y-84550000D01*
X83405712Y-83700000D01*
X84594287Y-83700000D01*
X84596000Y-84034900D01*
X84684500Y-84123400D01*
X85748400Y-84123400D01*
X85748400Y-83434500D01*
X85751600Y-83434500D01*
X85751600Y-84123400D01*
X86815500Y-84123400D01*
X86904000Y-84034900D01*
X86905713Y-83700000D01*
X86898878Y-83630604D01*
X86878636Y-83563875D01*
X86845765Y-83502376D01*
X86801527Y-83448473D01*
X86747624Y-83404235D01*
X86686125Y-83371364D01*
X86619396Y-83351122D01*
X86550000Y-83344287D01*
X85840100Y-83346000D01*
X85751600Y-83434500D01*
X85748400Y-83434500D01*
X85659900Y-83346000D01*
X84950000Y-83344287D01*
X84880604Y-83351122D01*
X84813875Y-83371364D01*
X84752376Y-83404235D01*
X84698473Y-83448473D01*
X84654235Y-83502376D01*
X84621364Y-83563875D01*
X84601122Y-83630604D01*
X84594287Y-83700000D01*
X83405712Y-83700000D01*
X83398877Y-83630604D01*
X83378635Y-83563875D01*
X83345764Y-83502377D01*
X83301526Y-83448474D01*
X83247623Y-83404236D01*
X83186125Y-83371365D01*
X83119396Y-83351123D01*
X83050000Y-83344288D01*
X81450000Y-83344288D01*
X81380604Y-83351123D01*
X81313875Y-83371365D01*
X81252377Y-83404236D01*
X81198474Y-83448474D01*
X81154236Y-83502377D01*
X81121365Y-83563875D01*
X81101123Y-83630604D01*
X81099607Y-83646000D01*
X80667817Y-83646000D01*
X84709819Y-79603999D01*
X95094288Y-79603999D01*
X95094288Y-80300000D01*
X95101123Y-80369396D01*
X95121365Y-80436125D01*
X95154236Y-80497623D01*
X95198474Y-80551526D01*
X95252377Y-80595764D01*
X95313875Y-80628635D01*
X95380604Y-80648877D01*
X95450000Y-80655712D01*
X95771001Y-80655712D01*
X95771001Y-81013967D01*
X95768683Y-81037500D01*
X95777932Y-81131400D01*
X95805322Y-81221692D01*
X95849800Y-81304905D01*
X95868242Y-81327376D01*
X95909658Y-81377843D01*
X95927935Y-81392842D01*
X96419288Y-81884196D01*
X96419288Y-82256250D01*
X96430326Y-82368322D01*
X96463016Y-82476087D01*
X96516102Y-82575404D01*
X96587544Y-82662456D01*
X96674596Y-82733898D01*
X96691011Y-82742672D01*
X96664330Y-82769353D01*
X96581814Y-82892847D01*
X96524976Y-83030066D01*
X96496000Y-83175738D01*
X96496000Y-83324262D01*
X96524976Y-83469934D01*
X96581814Y-83607153D01*
X96664330Y-83730647D01*
X96769353Y-83835670D01*
X96892847Y-83918186D01*
X97030066Y-83975024D01*
X97175738Y-84004000D01*
X97324262Y-84004000D01*
X97469934Y-83975024D01*
X97607153Y-83918186D01*
X97730647Y-83835670D01*
X97835670Y-83730647D01*
X97918186Y-83607153D01*
X97975024Y-83469934D01*
X98004000Y-83324262D01*
X98004000Y-83175738D01*
X97975024Y-83030066D01*
X97918186Y-82892847D01*
X97835670Y-82769353D01*
X97777762Y-82711445D01*
X97837456Y-82662456D01*
X97908898Y-82575404D01*
X97961984Y-82476087D01*
X97994674Y-82368322D01*
X97994766Y-82367389D01*
X97994287Y-82475000D01*
X98001122Y-82544396D01*
X98021364Y-82611125D01*
X98054235Y-82672624D01*
X98098473Y-82726527D01*
X98152376Y-82770765D01*
X98213875Y-82803636D01*
X98280604Y-82823878D01*
X98350000Y-82830713D01*
X98697400Y-82829000D01*
X98785900Y-82740500D01*
X98785900Y-82001600D01*
X98789100Y-82001600D01*
X98789100Y-82740500D01*
X98877600Y-82829000D01*
X99225000Y-82830713D01*
X99294396Y-82823878D01*
X99361125Y-82803636D01*
X99422624Y-82770765D01*
X99476527Y-82726527D01*
X99520765Y-82672624D01*
X99553636Y-82611125D01*
X99573878Y-82544396D01*
X99580713Y-82475000D01*
X99579000Y-82090100D01*
X99490500Y-82001600D01*
X98789100Y-82001600D01*
X98785900Y-82001600D01*
X98765900Y-82001600D01*
X98765900Y-81998400D01*
X98785900Y-81998400D01*
X98785900Y-81259500D01*
X98789100Y-81259500D01*
X98789100Y-81998400D01*
X99490500Y-81998400D01*
X99579000Y-81909900D01*
X99580713Y-81525000D01*
X99573878Y-81455604D01*
X99553636Y-81388875D01*
X99520765Y-81327376D01*
X99476527Y-81273473D01*
X99422624Y-81229235D01*
X99361125Y-81196364D01*
X99294396Y-81176122D01*
X99225000Y-81169287D01*
X98877600Y-81171000D01*
X98789100Y-81259500D01*
X98785900Y-81259500D01*
X98697400Y-81171000D01*
X98350000Y-81169287D01*
X98280604Y-81176122D01*
X98213875Y-81196364D01*
X98152376Y-81229235D01*
X98098473Y-81273473D01*
X98054235Y-81327376D01*
X98021364Y-81388875D01*
X98001122Y-81455604D01*
X97994287Y-81525000D01*
X97994766Y-81632611D01*
X97994674Y-81631678D01*
X97961984Y-81523913D01*
X97908898Y-81424596D01*
X97837456Y-81337544D01*
X97750404Y-81266102D01*
X97651087Y-81213016D01*
X97543322Y-81180326D01*
X97431250Y-81169288D01*
X97059196Y-81169288D01*
X96729000Y-80839093D01*
X96729000Y-80655712D01*
X97050000Y-80655712D01*
X97119396Y-80648877D01*
X97186125Y-80628635D01*
X97247623Y-80595764D01*
X97301526Y-80551526D01*
X97345764Y-80497623D01*
X97378635Y-80436125D01*
X97398877Y-80369396D01*
X97405712Y-80300000D01*
X97405712Y-79603999D01*
X97751592Y-79603999D01*
X98344657Y-80197065D01*
X98359657Y-80215343D01*
X98402417Y-80250435D01*
X98432594Y-80275200D01*
X98515806Y-80319678D01*
X98515808Y-80319679D01*
X98598703Y-80344825D01*
X98601123Y-80369396D01*
X98621365Y-80436125D01*
X98654236Y-80497623D01*
X98698474Y-80551526D01*
X98752377Y-80595764D01*
X98813875Y-80628635D01*
X98880604Y-80648877D01*
X98950000Y-80655712D01*
X100550000Y-80655712D01*
X100619396Y-80648877D01*
X100686125Y-80628635D01*
X100747623Y-80595764D01*
X100801526Y-80551526D01*
X100845764Y-80497623D01*
X100878635Y-80436125D01*
X100898877Y-80369396D01*
X100905712Y-80300000D01*
X100905712Y-79450000D01*
X100898877Y-79380604D01*
X100878635Y-79313875D01*
X100845764Y-79252377D01*
X100801526Y-79198474D01*
X100747623Y-79154236D01*
X100686125Y-79121365D01*
X100619396Y-79101123D01*
X100550000Y-79094288D01*
X98950000Y-79094288D01*
X98880604Y-79101123D01*
X98813875Y-79121365D01*
X98752377Y-79154236D01*
X98699796Y-79197389D01*
X98305346Y-78802939D01*
X98290342Y-78784656D01*
X98217404Y-78724799D01*
X98134191Y-78680320D01*
X98043899Y-78652930D01*
X97973525Y-78645999D01*
X97973522Y-78645999D01*
X97949999Y-78643682D01*
X97926476Y-78645999D01*
X97390807Y-78645999D01*
X97398877Y-78619396D01*
X97405712Y-78550000D01*
X98594287Y-78550000D01*
X98601122Y-78619396D01*
X98621364Y-78686125D01*
X98654235Y-78747624D01*
X98698473Y-78801527D01*
X98752376Y-78845765D01*
X98813875Y-78878636D01*
X98880604Y-78898878D01*
X98950000Y-78905713D01*
X99659900Y-78904000D01*
X99748400Y-78815500D01*
X99748400Y-78126600D01*
X99751600Y-78126600D01*
X99751600Y-78815500D01*
X99840100Y-78904000D01*
X100550000Y-78905713D01*
X100619396Y-78898878D01*
X100686125Y-78878636D01*
X100747624Y-78845765D01*
X100801527Y-78801527D01*
X100845765Y-78747624D01*
X100878636Y-78686125D01*
X100898878Y-78619396D01*
X100905713Y-78550000D01*
X100904000Y-78215100D01*
X100815500Y-78126600D01*
X99751600Y-78126600D01*
X99748400Y-78126600D01*
X98684500Y-78126600D01*
X98596000Y-78215100D01*
X98594287Y-78550000D01*
X97405712Y-78550000D01*
X97405712Y-77700000D01*
X98594287Y-77700000D01*
X98596000Y-78034900D01*
X98684500Y-78123400D01*
X99748400Y-78123400D01*
X99748400Y-77434500D01*
X99751600Y-77434500D01*
X99751600Y-78123400D01*
X100815500Y-78123400D01*
X100904000Y-78034900D01*
X100905713Y-77700000D01*
X100898878Y-77630604D01*
X100878636Y-77563875D01*
X100845765Y-77502376D01*
X100801527Y-77448473D01*
X100747624Y-77404235D01*
X100686125Y-77371364D01*
X100619396Y-77351122D01*
X100550000Y-77344287D01*
X99840100Y-77346000D01*
X99751600Y-77434500D01*
X99748400Y-77434500D01*
X99659900Y-77346000D01*
X98950000Y-77344287D01*
X98880604Y-77351122D01*
X98813875Y-77371364D01*
X98752376Y-77404235D01*
X98698473Y-77448473D01*
X98654235Y-77502376D01*
X98621364Y-77563875D01*
X98601122Y-77630604D01*
X98594287Y-77700000D01*
X97405712Y-77700000D01*
X97398877Y-77630604D01*
X97378635Y-77563875D01*
X97345764Y-77502377D01*
X97301526Y-77448474D01*
X97247623Y-77404236D01*
X97186125Y-77371365D01*
X97119396Y-77351123D01*
X97050000Y-77344288D01*
X95450000Y-77344288D01*
X95380604Y-77351123D01*
X95313875Y-77371365D01*
X95252377Y-77404236D01*
X95198474Y-77448474D01*
X95154236Y-77502377D01*
X95121365Y-77563875D01*
X95101123Y-77630604D01*
X95099607Y-77646000D01*
X84898523Y-77646000D01*
X84875000Y-77643683D01*
X84851477Y-77646000D01*
X84851474Y-77646000D01*
X84781100Y-77652931D01*
X84690808Y-77680321D01*
X84607594Y-77724800D01*
X84577417Y-77749565D01*
X84534657Y-77784657D01*
X84519657Y-77802935D01*
X82926593Y-79396000D01*
X73900393Y-79396000D01*
X73898877Y-79380604D01*
X73878635Y-79313875D01*
X73845764Y-79252377D01*
X73801526Y-79198474D01*
X73747623Y-79154236D01*
X73686125Y-79121365D01*
X73619396Y-79101123D01*
X73550000Y-79094288D01*
X71950000Y-79094288D01*
X71880604Y-79101123D01*
X71813875Y-79121365D01*
X71752377Y-79154236D01*
X71698474Y-79198474D01*
X71654236Y-79252377D01*
X71621365Y-79313875D01*
X71601123Y-79380604D01*
X71594288Y-79450000D01*
X71594288Y-80300000D01*
X71601123Y-80369396D01*
X71621365Y-80436125D01*
X71654236Y-80497623D01*
X71698474Y-80551526D01*
X71752377Y-80595764D01*
X71813875Y-80628635D01*
X71880604Y-80648877D01*
X71950000Y-80655712D01*
X73550000Y-80655712D01*
X73619396Y-80648877D01*
X73686125Y-80628635D01*
X73747623Y-80595764D01*
X73801526Y-80551526D01*
X73845764Y-80497623D01*
X73878635Y-80436125D01*
X73898877Y-80369396D01*
X73900393Y-80354000D01*
X82605002Y-80354000D01*
X80063004Y-82895999D01*
X71221525Y-82895999D01*
X71198004Y-82893682D01*
X71174483Y-82895999D01*
X71174479Y-82895999D01*
X71104105Y-82902930D01*
X71013813Y-82930320D01*
X70988570Y-82943813D01*
X70948228Y-82965376D01*
X70918186Y-82892847D01*
X70835670Y-82769353D01*
X70777762Y-82711445D01*
X70837456Y-82662456D01*
X70908898Y-82575404D01*
X70961984Y-82476087D01*
X70994674Y-82368322D01*
X70994766Y-82367389D01*
X70994287Y-82475000D01*
X71001122Y-82544396D01*
X71021364Y-82611125D01*
X71054235Y-82672624D01*
X71098473Y-82726527D01*
X71152376Y-82770765D01*
X71213875Y-82803636D01*
X71280604Y-82823878D01*
X71350000Y-82830713D01*
X71697400Y-82829000D01*
X71785900Y-82740500D01*
X71785900Y-82001600D01*
X71789100Y-82001600D01*
X71789100Y-82740500D01*
X71877600Y-82829000D01*
X72225000Y-82830713D01*
X72294396Y-82823878D01*
X72361125Y-82803636D01*
X72422624Y-82770765D01*
X72476527Y-82726527D01*
X72520765Y-82672624D01*
X72553636Y-82611125D01*
X72573878Y-82544396D01*
X72580713Y-82475000D01*
X72579000Y-82090100D01*
X72490500Y-82001600D01*
X71789100Y-82001600D01*
X71785900Y-82001600D01*
X71765900Y-82001600D01*
X71765900Y-81998400D01*
X71785900Y-81998400D01*
X71785900Y-81259500D01*
X71789100Y-81259500D01*
X71789100Y-81998400D01*
X72490500Y-81998400D01*
X72579000Y-81909900D01*
X72580713Y-81525000D01*
X72573878Y-81455604D01*
X72553636Y-81388875D01*
X72520765Y-81327376D01*
X72476527Y-81273473D01*
X72422624Y-81229235D01*
X72361125Y-81196364D01*
X72294396Y-81176122D01*
X72225000Y-81169287D01*
X71877600Y-81171000D01*
X71789100Y-81259500D01*
X71785900Y-81259500D01*
X71697400Y-81171000D01*
X71350000Y-81169287D01*
X71280604Y-81176122D01*
X71213875Y-81196364D01*
X71152376Y-81229235D01*
X71098473Y-81273473D01*
X71054235Y-81327376D01*
X71021364Y-81388875D01*
X71001122Y-81455604D01*
X70994287Y-81525000D01*
X70994766Y-81632611D01*
X70994674Y-81631678D01*
X70961984Y-81523913D01*
X70908898Y-81424596D01*
X70837456Y-81337544D01*
X70750404Y-81266102D01*
X70651087Y-81213016D01*
X70543322Y-81180326D01*
X70431250Y-81169288D01*
X70059195Y-81169288D01*
X69729000Y-80839093D01*
X69729000Y-80655712D01*
X70050000Y-80655712D01*
X70119396Y-80648877D01*
X70186125Y-80628635D01*
X70247623Y-80595764D01*
X70301526Y-80551526D01*
X70345764Y-80497623D01*
X70378635Y-80436125D01*
X70398877Y-80369396D01*
X70405712Y-80300000D01*
X70405712Y-79450000D01*
X70398877Y-79380604D01*
X70378635Y-79313875D01*
X70345764Y-79252377D01*
X70301526Y-79198474D01*
X70247623Y-79154236D01*
X70186125Y-79121365D01*
X70119396Y-79101123D01*
X70050000Y-79094288D01*
X68450000Y-79094288D01*
X68380604Y-79101123D01*
X68313875Y-79121365D01*
X68252377Y-79154236D01*
X68198474Y-79198474D01*
X68154236Y-79252377D01*
X68121365Y-79313875D01*
X68101123Y-79380604D01*
X68094288Y-79450000D01*
X68094288Y-80300000D01*
X68101123Y-80369396D01*
X68121365Y-80436125D01*
X68154236Y-80497623D01*
X68198474Y-80551526D01*
X68252377Y-80595764D01*
X68313875Y-80628635D01*
X68380604Y-80648877D01*
X68450000Y-80655712D01*
X68771001Y-80655712D01*
X68771001Y-81013967D01*
X68768683Y-81037500D01*
X68777932Y-81131400D01*
X68805322Y-81221692D01*
X68849800Y-81304905D01*
X68868242Y-81327376D01*
X68909658Y-81377843D01*
X68927936Y-81392843D01*
X69419288Y-81884196D01*
X69419288Y-82256250D01*
X69430326Y-82368322D01*
X69463016Y-82476087D01*
X69516102Y-82575404D01*
X69587544Y-82662456D01*
X69674596Y-82733898D01*
X69691011Y-82742672D01*
X69664330Y-82769353D01*
X69581814Y-82892847D01*
X69551771Y-82965376D01*
X69486187Y-82930320D01*
X69395895Y-82902930D01*
X69325521Y-82895999D01*
X69325518Y-82895999D01*
X69301995Y-82893682D01*
X69278472Y-82895999D01*
X57073524Y-82895999D01*
X57050001Y-82893682D01*
X57026478Y-82895999D01*
X57026475Y-82895999D01*
X56956101Y-82902930D01*
X56873681Y-82927932D01*
X56865809Y-82930320D01*
X56782595Y-82974799D01*
X56773096Y-82982595D01*
X56709658Y-83034656D01*
X56694661Y-83052931D01*
X56300204Y-83447389D01*
X56247623Y-83404236D01*
X56186125Y-83371365D01*
X56119396Y-83351123D01*
X56050000Y-83344288D01*
X54450000Y-83344288D01*
X54380604Y-83351123D01*
X54313875Y-83371365D01*
X54252377Y-83404236D01*
X54198474Y-83448474D01*
X54154236Y-83502377D01*
X54121365Y-83563875D01*
X54101123Y-83630604D01*
X54094288Y-83700000D01*
X51979000Y-83700000D01*
X51979000Y-73450000D01*
X54094288Y-73450000D01*
X54094288Y-74300000D01*
X54101123Y-74369396D01*
X54121365Y-74436125D01*
X54154236Y-74497623D01*
X54198474Y-74551526D01*
X54252377Y-74595764D01*
X54313875Y-74628635D01*
X54380604Y-74648877D01*
X54450000Y-74655712D01*
X54771001Y-74655712D01*
X54771001Y-75013967D01*
X54768683Y-75037500D01*
X54777932Y-75131400D01*
X54805322Y-75221692D01*
X54849800Y-75304905D01*
X54868242Y-75327376D01*
X54909658Y-75377843D01*
X54927936Y-75392843D01*
X55419288Y-75884196D01*
X55419288Y-76256250D01*
X55430326Y-76368322D01*
X55463016Y-76476087D01*
X55516102Y-76575404D01*
X55587544Y-76662456D01*
X55674596Y-76733898D01*
X55691011Y-76742672D01*
X55664330Y-76769353D01*
X55581814Y-76892847D01*
X55524976Y-77030066D01*
X55496000Y-77175738D01*
X55496000Y-77324262D01*
X55524976Y-77469934D01*
X55581814Y-77607153D01*
X55664330Y-77730647D01*
X55769353Y-77835670D01*
X55892847Y-77918186D01*
X56030066Y-77975024D01*
X56175738Y-78004000D01*
X56324262Y-78004000D01*
X56469934Y-77975024D01*
X56607153Y-77918186D01*
X56730647Y-77835670D01*
X56835670Y-77730647D01*
X56918186Y-77607153D01*
X56975024Y-77469934D01*
X57004000Y-77324262D01*
X57004000Y-77175738D01*
X56975024Y-77030066D01*
X56918186Y-76892847D01*
X56835670Y-76769353D01*
X56777762Y-76711445D01*
X56837456Y-76662456D01*
X56908898Y-76575404D01*
X56961984Y-76476087D01*
X56994674Y-76368322D01*
X56994766Y-76367389D01*
X56994287Y-76475000D01*
X57001122Y-76544396D01*
X57021364Y-76611125D01*
X57054235Y-76672624D01*
X57098473Y-76726527D01*
X57152376Y-76770765D01*
X57213875Y-76803636D01*
X57280604Y-76823878D01*
X57350000Y-76830713D01*
X57697400Y-76829000D01*
X57785900Y-76740500D01*
X57785900Y-76001600D01*
X57789100Y-76001600D01*
X57789100Y-76740500D01*
X57877600Y-76829000D01*
X58225000Y-76830713D01*
X58294396Y-76823878D01*
X58361125Y-76803636D01*
X58422624Y-76770765D01*
X58476527Y-76726527D01*
X58520765Y-76672624D01*
X58553636Y-76611125D01*
X58573878Y-76544396D01*
X58580713Y-76475000D01*
X58579000Y-76090100D01*
X58490500Y-76001600D01*
X57789100Y-76001600D01*
X57785900Y-76001600D01*
X57765900Y-76001600D01*
X57765900Y-75998400D01*
X57785900Y-75998400D01*
X57785900Y-75259500D01*
X57789100Y-75259500D01*
X57789100Y-75998400D01*
X58490500Y-75998400D01*
X58579000Y-75909900D01*
X58580713Y-75525000D01*
X58573878Y-75455604D01*
X58553636Y-75388875D01*
X58520765Y-75327376D01*
X58476527Y-75273473D01*
X58422624Y-75229235D01*
X58361125Y-75196364D01*
X58294396Y-75176122D01*
X58225000Y-75169287D01*
X57877600Y-75171000D01*
X57789100Y-75259500D01*
X57785900Y-75259500D01*
X57697400Y-75171000D01*
X57350000Y-75169287D01*
X57280604Y-75176122D01*
X57213875Y-75196364D01*
X57152376Y-75229235D01*
X57098473Y-75273473D01*
X57054235Y-75327376D01*
X57021364Y-75388875D01*
X57001122Y-75455604D01*
X56994287Y-75525000D01*
X56994766Y-75632611D01*
X56994674Y-75631678D01*
X56961984Y-75523913D01*
X56908898Y-75424596D01*
X56837456Y-75337544D01*
X56750404Y-75266102D01*
X56651087Y-75213016D01*
X56543322Y-75180326D01*
X56431250Y-75169288D01*
X56059195Y-75169288D01*
X55729000Y-74839093D01*
X55729000Y-74655712D01*
X56050000Y-74655712D01*
X56119396Y-74648877D01*
X56186125Y-74628635D01*
X56247623Y-74595764D01*
X56301526Y-74551526D01*
X56345764Y-74497623D01*
X56378635Y-74436125D01*
X56398877Y-74369396D01*
X56405712Y-74300000D01*
X56405712Y-73450000D01*
X57594288Y-73450000D01*
X57594288Y-74300000D01*
X57601123Y-74369396D01*
X57621365Y-74436125D01*
X57654236Y-74497623D01*
X57698474Y-74551526D01*
X57752377Y-74595764D01*
X57813875Y-74628635D01*
X57880604Y-74648877D01*
X57950000Y-74655712D01*
X59550000Y-74655712D01*
X59619396Y-74648877D01*
X59686125Y-74628635D01*
X59747623Y-74595764D01*
X59801526Y-74551526D01*
X59845764Y-74497623D01*
X59878635Y-74436125D01*
X59898877Y-74369396D01*
X59900393Y-74354000D01*
X70101477Y-74354000D01*
X70125000Y-74356317D01*
X70148523Y-74354000D01*
X70148526Y-74354000D01*
X70218900Y-74347069D01*
X70309192Y-74319679D01*
X70392405Y-74275200D01*
X70465343Y-74215343D01*
X70480347Y-74197060D01*
X72073408Y-72604000D01*
X81099607Y-72604000D01*
X81101123Y-72619396D01*
X81109193Y-72645999D01*
X73148524Y-72645999D01*
X73125001Y-72643682D01*
X73101478Y-72645999D01*
X73101475Y-72645999D01*
X73031101Y-72652930D01*
X72940809Y-72680320D01*
X72929949Y-72686125D01*
X72857595Y-72724799D01*
X72829784Y-72747623D01*
X72784658Y-72784656D01*
X72769658Y-72802934D01*
X68927940Y-76644653D01*
X68909657Y-76659657D01*
X68849800Y-76732595D01*
X68805321Y-76815809D01*
X68777931Y-76906101D01*
X68774091Y-76945095D01*
X68768683Y-77000000D01*
X68771000Y-77023524D01*
X68771000Y-77344288D01*
X68450000Y-77344288D01*
X68380604Y-77351123D01*
X68313875Y-77371365D01*
X68252377Y-77404236D01*
X68198474Y-77448474D01*
X68154236Y-77502377D01*
X68121365Y-77563875D01*
X68101123Y-77630604D01*
X68094288Y-77700000D01*
X68094288Y-78550000D01*
X68101123Y-78619396D01*
X68121365Y-78686125D01*
X68154236Y-78747623D01*
X68198474Y-78801526D01*
X68252377Y-78845764D01*
X68313875Y-78878635D01*
X68380604Y-78898877D01*
X68450000Y-78905712D01*
X70050000Y-78905712D01*
X70119396Y-78898877D01*
X70186125Y-78878635D01*
X70247623Y-78845764D01*
X70301526Y-78801526D01*
X70345764Y-78747623D01*
X70378635Y-78686125D01*
X70398877Y-78619396D01*
X70405712Y-78550000D01*
X71594287Y-78550000D01*
X71601122Y-78619396D01*
X71621364Y-78686125D01*
X71654235Y-78747624D01*
X71698473Y-78801527D01*
X71752376Y-78845765D01*
X71813875Y-78878636D01*
X71880604Y-78898878D01*
X71950000Y-78905713D01*
X72659900Y-78904000D01*
X72748400Y-78815500D01*
X72748400Y-78126600D01*
X72751600Y-78126600D01*
X72751600Y-78815500D01*
X72840100Y-78904000D01*
X73550000Y-78905713D01*
X73619396Y-78898878D01*
X73686125Y-78878636D01*
X73747624Y-78845765D01*
X73801527Y-78801527D01*
X73845765Y-78747624D01*
X73878636Y-78686125D01*
X73898878Y-78619396D01*
X73905713Y-78550000D01*
X73904000Y-78215100D01*
X73815500Y-78126600D01*
X72751600Y-78126600D01*
X72748400Y-78126600D01*
X71684500Y-78126600D01*
X71596000Y-78215100D01*
X71594287Y-78550000D01*
X70405712Y-78550000D01*
X70405712Y-77700000D01*
X71594287Y-77700000D01*
X71596000Y-78034900D01*
X71684500Y-78123400D01*
X72748400Y-78123400D01*
X72748400Y-77434500D01*
X72751600Y-77434500D01*
X72751600Y-78123400D01*
X73815500Y-78123400D01*
X73904000Y-78034900D01*
X73905713Y-77700000D01*
X73898878Y-77630604D01*
X73878636Y-77563875D01*
X73845765Y-77502376D01*
X73801527Y-77448473D01*
X73747624Y-77404235D01*
X73686125Y-77371364D01*
X73619396Y-77351122D01*
X73550000Y-77344287D01*
X72840100Y-77346000D01*
X72751600Y-77434500D01*
X72748400Y-77434500D01*
X72659900Y-77346000D01*
X71950000Y-77344287D01*
X71880604Y-77351122D01*
X71813875Y-77371364D01*
X71752376Y-77404235D01*
X71698473Y-77448473D01*
X71654235Y-77502376D01*
X71621364Y-77563875D01*
X71601122Y-77630604D01*
X71594287Y-77700000D01*
X70405712Y-77700000D01*
X70398877Y-77630604D01*
X70378635Y-77563875D01*
X70345764Y-77502377D01*
X70301526Y-77448474D01*
X70247623Y-77404236D01*
X70186125Y-77371365D01*
X70119396Y-77351123D01*
X70050000Y-77344288D01*
X69729000Y-77344288D01*
X69729000Y-77198407D01*
X73323409Y-73603999D01*
X81094288Y-73603999D01*
X81094288Y-74300000D01*
X81101123Y-74369396D01*
X81121365Y-74436125D01*
X81154236Y-74497623D01*
X81198474Y-74551526D01*
X81252377Y-74595764D01*
X81313875Y-74628635D01*
X81380604Y-74648877D01*
X81450000Y-74655712D01*
X81771001Y-74655712D01*
X81771001Y-75013967D01*
X81768683Y-75037500D01*
X81777932Y-75131400D01*
X81805322Y-75221692D01*
X81849800Y-75304905D01*
X81868242Y-75327376D01*
X81909658Y-75377843D01*
X81927936Y-75392843D01*
X82419288Y-75884196D01*
X82419288Y-76256250D01*
X82430326Y-76368322D01*
X82463016Y-76476087D01*
X82516102Y-76575404D01*
X82587544Y-76662456D01*
X82674596Y-76733898D01*
X82691011Y-76742672D01*
X82664330Y-76769353D01*
X82581814Y-76892847D01*
X82524976Y-77030066D01*
X82496000Y-77175738D01*
X82496000Y-77324262D01*
X82524976Y-77469934D01*
X82581814Y-77607153D01*
X82664330Y-77730647D01*
X82769353Y-77835670D01*
X82892847Y-77918186D01*
X83030066Y-77975024D01*
X83175738Y-78004000D01*
X83324262Y-78004000D01*
X83469934Y-77975024D01*
X83607153Y-77918186D01*
X83730647Y-77835670D01*
X83835670Y-77730647D01*
X83918186Y-77607153D01*
X83975024Y-77469934D01*
X84004000Y-77324262D01*
X84004000Y-77175738D01*
X83975024Y-77030066D01*
X83918186Y-76892847D01*
X83835670Y-76769353D01*
X83777762Y-76711445D01*
X83837456Y-76662456D01*
X83908898Y-76575404D01*
X83961984Y-76476087D01*
X83994674Y-76368322D01*
X83994766Y-76367389D01*
X83994287Y-76475000D01*
X84001122Y-76544396D01*
X84021364Y-76611125D01*
X84054235Y-76672624D01*
X84098473Y-76726527D01*
X84152376Y-76770765D01*
X84213875Y-76803636D01*
X84280604Y-76823878D01*
X84350000Y-76830713D01*
X84697400Y-76829000D01*
X84785900Y-76740500D01*
X84785900Y-76001600D01*
X84789100Y-76001600D01*
X84789100Y-76740500D01*
X84877600Y-76829000D01*
X85225000Y-76830713D01*
X85294396Y-76823878D01*
X85361125Y-76803636D01*
X85422624Y-76770765D01*
X85476527Y-76726527D01*
X85520765Y-76672624D01*
X85553636Y-76611125D01*
X85573878Y-76544396D01*
X85580713Y-76475000D01*
X85579000Y-76090100D01*
X85490500Y-76001600D01*
X84789100Y-76001600D01*
X84785900Y-76001600D01*
X84765900Y-76001600D01*
X84765900Y-75998400D01*
X84785900Y-75998400D01*
X84785900Y-75259500D01*
X84789100Y-75259500D01*
X84789100Y-75998400D01*
X85490500Y-75998400D01*
X85579000Y-75909900D01*
X85580713Y-75525000D01*
X85573878Y-75455604D01*
X85553636Y-75388875D01*
X85520765Y-75327376D01*
X85476527Y-75273473D01*
X85422624Y-75229235D01*
X85361125Y-75196364D01*
X85294396Y-75176122D01*
X85225000Y-75169287D01*
X84877600Y-75171000D01*
X84789100Y-75259500D01*
X84785900Y-75259500D01*
X84697400Y-75171000D01*
X84350000Y-75169287D01*
X84280604Y-75176122D01*
X84213875Y-75196364D01*
X84152376Y-75229235D01*
X84098473Y-75273473D01*
X84054235Y-75327376D01*
X84021364Y-75388875D01*
X84001122Y-75455604D01*
X83994287Y-75525000D01*
X83994766Y-75632611D01*
X83994674Y-75631678D01*
X83961984Y-75523913D01*
X83908898Y-75424596D01*
X83837456Y-75337544D01*
X83750404Y-75266102D01*
X83651087Y-75213016D01*
X83543322Y-75180326D01*
X83431250Y-75169288D01*
X83059195Y-75169288D01*
X82729000Y-74839093D01*
X82729000Y-74655712D01*
X83050000Y-74655712D01*
X83119396Y-74648877D01*
X83186125Y-74628635D01*
X83247623Y-74595764D01*
X83301526Y-74551526D01*
X83345764Y-74497623D01*
X83378635Y-74436125D01*
X83398877Y-74369396D01*
X83405712Y-74300000D01*
X83405712Y-73603999D01*
X83751592Y-73603999D01*
X84344657Y-74197065D01*
X84359657Y-74215343D01*
X84402417Y-74250435D01*
X84432594Y-74275200D01*
X84515806Y-74319678D01*
X84515808Y-74319679D01*
X84598703Y-74344825D01*
X84601123Y-74369396D01*
X84621365Y-74436125D01*
X84654236Y-74497623D01*
X84698474Y-74551526D01*
X84752377Y-74595764D01*
X84813875Y-74628635D01*
X84880604Y-74648877D01*
X84950000Y-74655712D01*
X86550000Y-74655712D01*
X86619396Y-74648877D01*
X86686125Y-74628635D01*
X86747623Y-74595764D01*
X86801526Y-74551526D01*
X86845764Y-74497623D01*
X86878635Y-74436125D01*
X86898877Y-74369396D01*
X86905712Y-74300000D01*
X86905712Y-73450000D01*
X86898877Y-73380604D01*
X86878635Y-73313875D01*
X86845764Y-73252377D01*
X86801526Y-73198474D01*
X86747623Y-73154236D01*
X86686125Y-73121365D01*
X86619396Y-73101123D01*
X86550000Y-73094288D01*
X84950000Y-73094288D01*
X84880604Y-73101123D01*
X84813875Y-73121365D01*
X84752377Y-73154236D01*
X84699796Y-73197389D01*
X84305346Y-72802939D01*
X84290342Y-72784656D01*
X84217404Y-72724799D01*
X84134191Y-72680320D01*
X84043899Y-72652930D01*
X83973525Y-72645999D01*
X83973522Y-72645999D01*
X83949999Y-72643682D01*
X83926476Y-72645999D01*
X83390807Y-72645999D01*
X83398877Y-72619396D01*
X83405712Y-72550000D01*
X84594287Y-72550000D01*
X84601122Y-72619396D01*
X84621364Y-72686125D01*
X84654235Y-72747624D01*
X84698473Y-72801527D01*
X84752376Y-72845765D01*
X84813875Y-72878636D01*
X84880604Y-72898878D01*
X84950000Y-72905713D01*
X85659900Y-72904000D01*
X85748400Y-72815500D01*
X85748400Y-72126600D01*
X85751600Y-72126600D01*
X85751600Y-72815500D01*
X85840100Y-72904000D01*
X86550000Y-72905713D01*
X86619396Y-72898878D01*
X86686125Y-72878636D01*
X86747624Y-72845765D01*
X86801527Y-72801527D01*
X86845765Y-72747624D01*
X86878636Y-72686125D01*
X86898878Y-72619396D01*
X86905713Y-72550000D01*
X86904000Y-72215100D01*
X86815500Y-72126600D01*
X85751600Y-72126600D01*
X85748400Y-72126600D01*
X84684500Y-72126600D01*
X84596000Y-72215100D01*
X84594287Y-72550000D01*
X83405712Y-72550000D01*
X83405712Y-71700000D01*
X84594287Y-71700000D01*
X84596000Y-72034900D01*
X84684500Y-72123400D01*
X85748400Y-72123400D01*
X85748400Y-71434500D01*
X85751600Y-71434500D01*
X85751600Y-72123400D01*
X86815500Y-72123400D01*
X86904000Y-72034900D01*
X86905713Y-71700000D01*
X86898878Y-71630604D01*
X86878636Y-71563875D01*
X86845765Y-71502376D01*
X86801527Y-71448473D01*
X86747624Y-71404235D01*
X86686125Y-71371364D01*
X86619396Y-71351122D01*
X86550000Y-71344287D01*
X85840100Y-71346000D01*
X85751600Y-71434500D01*
X85748400Y-71434500D01*
X85659900Y-71346000D01*
X84950000Y-71344287D01*
X84880604Y-71351122D01*
X84813875Y-71371364D01*
X84752376Y-71404235D01*
X84698473Y-71448473D01*
X84654235Y-71502376D01*
X84621364Y-71563875D01*
X84601122Y-71630604D01*
X84594287Y-71700000D01*
X83405712Y-71700000D01*
X83398877Y-71630604D01*
X83378635Y-71563875D01*
X83345764Y-71502377D01*
X83301526Y-71448474D01*
X83247623Y-71404236D01*
X83186125Y-71371365D01*
X83119396Y-71351123D01*
X83050000Y-71344288D01*
X81450000Y-71344288D01*
X81380604Y-71351123D01*
X81313875Y-71371365D01*
X81252377Y-71404236D01*
X81198474Y-71448474D01*
X81154236Y-71502377D01*
X81121365Y-71563875D01*
X81101123Y-71630604D01*
X81099607Y-71646000D01*
X71898523Y-71646000D01*
X71875000Y-71643683D01*
X71851477Y-71646000D01*
X71851474Y-71646000D01*
X71781100Y-71652931D01*
X71690808Y-71680321D01*
X71607594Y-71724800D01*
X71577417Y-71749565D01*
X71534657Y-71784657D01*
X71519657Y-71802935D01*
X69926593Y-73396000D01*
X59900393Y-73396000D01*
X59898877Y-73380604D01*
X59878635Y-73313875D01*
X59845764Y-73252377D01*
X59801526Y-73198474D01*
X59747623Y-73154236D01*
X59686125Y-73121365D01*
X59619396Y-73101123D01*
X59550000Y-73094288D01*
X57950000Y-73094288D01*
X57880604Y-73101123D01*
X57813875Y-73121365D01*
X57752377Y-73154236D01*
X57698474Y-73198474D01*
X57654236Y-73252377D01*
X57621365Y-73313875D01*
X57601123Y-73380604D01*
X57594288Y-73450000D01*
X56405712Y-73450000D01*
X56398877Y-73380604D01*
X56378635Y-73313875D01*
X56345764Y-73252377D01*
X56301526Y-73198474D01*
X56247623Y-73154236D01*
X56186125Y-73121365D01*
X56119396Y-73101123D01*
X56050000Y-73094288D01*
X54450000Y-73094288D01*
X54380604Y-73101123D01*
X54313875Y-73121365D01*
X54252377Y-73154236D01*
X54198474Y-73198474D01*
X54154236Y-73252377D01*
X54121365Y-73313875D01*
X54101123Y-73380604D01*
X54094288Y-73450000D01*
X51979000Y-73450000D01*
X51979000Y-67448407D01*
X55323408Y-64104000D01*
X62000000Y-64104000D01*
X62069062Y-64097198D01*
X62135470Y-64077053D01*
X62196672Y-64044340D01*
X62250316Y-64000316D01*
X62294340Y-63946672D01*
X62327053Y-63885470D01*
X62347198Y-63819062D01*
X62354000Y-63750000D01*
X62354000Y-59629000D01*
X69621000Y-59629000D01*
X69621001Y-62981380D01*
X69621001Y-62981380D01*
G37*
X69621001Y-62981380D02*
X69619167Y-63000000D01*
X69626485Y-63074297D01*
X69648156Y-63145738D01*
X69683349Y-63211579D01*
X69730710Y-63269290D01*
X69788421Y-63316651D01*
X69854262Y-63351844D01*
X69925703Y-63373515D01*
X69981390Y-63379000D01*
X70000000Y-63380833D01*
X70018610Y-63379000D01*
X84646000Y-63379000D01*
X84646000Y-63750000D01*
X84652802Y-63819062D01*
X84672947Y-63885470D01*
X84705660Y-63946672D01*
X84749684Y-64000316D01*
X84803328Y-64044340D01*
X84864530Y-64077053D01*
X84930938Y-64097198D01*
X85000000Y-64104000D01*
X91968592Y-64104000D01*
X89051593Y-67021000D01*
X59223523Y-67021000D01*
X59200000Y-67018683D01*
X59176477Y-67021000D01*
X59176474Y-67021000D01*
X59106100Y-67027931D01*
X59015808Y-67055321D01*
X58932594Y-67099800D01*
X58902417Y-67124565D01*
X58859657Y-67159657D01*
X58844660Y-67177932D01*
X54927936Y-71094657D01*
X54909658Y-71109657D01*
X54894661Y-71127932D01*
X54849800Y-71182595D01*
X54805322Y-71265808D01*
X54781515Y-71344288D01*
X54450000Y-71344288D01*
X54380604Y-71351123D01*
X54313875Y-71371365D01*
X54252377Y-71404236D01*
X54198474Y-71448474D01*
X54154236Y-71502377D01*
X54121365Y-71563875D01*
X54101123Y-71630604D01*
X54094288Y-71700000D01*
X54094288Y-72550000D01*
X54101123Y-72619396D01*
X54121365Y-72686125D01*
X54154236Y-72747623D01*
X54198474Y-72801526D01*
X54252377Y-72845764D01*
X54313875Y-72878635D01*
X54380604Y-72898877D01*
X54450000Y-72905712D01*
X56050000Y-72905712D01*
X56119396Y-72898877D01*
X56186125Y-72878635D01*
X56247623Y-72845764D01*
X56301526Y-72801526D01*
X56345764Y-72747623D01*
X56378635Y-72686125D01*
X56398877Y-72619396D01*
X56405712Y-72550000D01*
X57594287Y-72550000D01*
X57601122Y-72619396D01*
X57621364Y-72686125D01*
X57654235Y-72747624D01*
X57698473Y-72801527D01*
X57752376Y-72845765D01*
X57813875Y-72878636D01*
X57880604Y-72898878D01*
X57950000Y-72905713D01*
X58659900Y-72904000D01*
X58748400Y-72815500D01*
X58748400Y-72126600D01*
X58751600Y-72126600D01*
X58751600Y-72815500D01*
X58840100Y-72904000D01*
X59550000Y-72905713D01*
X59619396Y-72898878D01*
X59686125Y-72878636D01*
X59747624Y-72845765D01*
X59801527Y-72801527D01*
X59845765Y-72747624D01*
X59878636Y-72686125D01*
X59898878Y-72619396D01*
X59905713Y-72550000D01*
X59904000Y-72215100D01*
X59815500Y-72126600D01*
X58751600Y-72126600D01*
X58748400Y-72126600D01*
X57684500Y-72126600D01*
X57596000Y-72215100D01*
X57594287Y-72550000D01*
X56405712Y-72550000D01*
X56405712Y-71700000D01*
X57594287Y-71700000D01*
X57596000Y-72034900D01*
X57684500Y-72123400D01*
X58748400Y-72123400D01*
X58748400Y-71434500D01*
X58751600Y-71434500D01*
X58751600Y-72123400D01*
X59815500Y-72123400D01*
X59904000Y-72034900D01*
X59905713Y-71700000D01*
X59898878Y-71630604D01*
X59878636Y-71563875D01*
X59845765Y-71502376D01*
X59801527Y-71448473D01*
X59747624Y-71404235D01*
X59686125Y-71371364D01*
X59619396Y-71351122D01*
X59550000Y-71344287D01*
X58840100Y-71346000D01*
X58751600Y-71434500D01*
X58748400Y-71434500D01*
X58659900Y-71346000D01*
X57950000Y-71344287D01*
X57880604Y-71351122D01*
X57813875Y-71371364D01*
X57752376Y-71404235D01*
X57698473Y-71448473D01*
X57654235Y-71502376D01*
X57621364Y-71563875D01*
X57601122Y-71630604D01*
X57594287Y-71700000D01*
X56405712Y-71700000D01*
X56398877Y-71630604D01*
X56378635Y-71563875D01*
X56345764Y-71502377D01*
X56301526Y-71448474D01*
X56247623Y-71404236D01*
X56186125Y-71371365D01*
X56119396Y-71351123D01*
X56050000Y-71344288D01*
X56033119Y-71344288D01*
X59398408Y-67979000D01*
X89226477Y-67979000D01*
X89250000Y-67981317D01*
X89273523Y-67979000D01*
X89273526Y-67979000D01*
X89343900Y-67972069D01*
X89434192Y-67944679D01*
X89517405Y-67900200D01*
X89590343Y-67840343D01*
X89605347Y-67822060D01*
X93323408Y-64104000D01*
X100000000Y-64104000D01*
X100069062Y-64097198D01*
X100135470Y-64077053D01*
X100196672Y-64044340D01*
X100250316Y-64000316D01*
X100294340Y-63946672D01*
X100327053Y-63885470D01*
X100347198Y-63819062D01*
X100354000Y-63750000D01*
X100354000Y-63379000D01*
X104621000Y-63379000D01*
X104621001Y-102621000D01*
X87552986Y-102621000D01*
X87590343Y-102590343D01*
X87605347Y-102572060D01*
X88322065Y-101855343D01*
X88340343Y-101840343D01*
X88397250Y-101771000D01*
X88400200Y-101767406D01*
X88444678Y-101684193D01*
X88444679Y-101684192D01*
X88472069Y-101593900D01*
X88479000Y-101523526D01*
X88479000Y-101523522D01*
X88481317Y-101500001D01*
X88479000Y-101476480D01*
X88479000Y-98273520D01*
X88481317Y-98249999D01*
X88479000Y-98226474D01*
X88472069Y-98156100D01*
X88444679Y-98065808D01*
X88423974Y-98027073D01*
X88400200Y-97982594D01*
X88375435Y-97952417D01*
X88340343Y-97909657D01*
X88322065Y-97894657D01*
X87980347Y-97552940D01*
X87965343Y-97534657D01*
X87892405Y-97474800D01*
X87809192Y-97430321D01*
X87718900Y-97402931D01*
X87648526Y-97396000D01*
X87648523Y-97396000D01*
X87625000Y-97393683D01*
X87601477Y-97396000D01*
X86900393Y-97396000D01*
X86898877Y-97380604D01*
X86878635Y-97313875D01*
X86845764Y-97252377D01*
X86801526Y-97198474D01*
X86747623Y-97154236D01*
X86686125Y-97121365D01*
X86619396Y-97101123D01*
X86550000Y-97094288D01*
X84950000Y-97094288D01*
X84880604Y-97101123D01*
X84813875Y-97121365D01*
X84752377Y-97154236D01*
X84698474Y-97198474D01*
X84654236Y-97252377D01*
X84621365Y-97313875D01*
X84601123Y-97380604D01*
X84594288Y-97450000D01*
X84594288Y-98300000D01*
X84601123Y-98369396D01*
X84621365Y-98436125D01*
X84654236Y-98497623D01*
X84698474Y-98551526D01*
X84752377Y-98595764D01*
X84813875Y-98628635D01*
X84880604Y-98648877D01*
X84950000Y-98655712D01*
X86550000Y-98655712D01*
X86619396Y-98648877D01*
X86686125Y-98628635D01*
X86747623Y-98595764D01*
X86801526Y-98551526D01*
X86845764Y-98497623D01*
X86878635Y-98436125D01*
X86898877Y-98369396D01*
X86900393Y-98354000D01*
X87426593Y-98354000D01*
X87521000Y-98448408D01*
X87521001Y-101301591D01*
X87051593Y-101771000D01*
X83795317Y-101771000D01*
X83835670Y-101730647D01*
X83918186Y-101607153D01*
X83975024Y-101469934D01*
X84004000Y-101324262D01*
X84004000Y-101175738D01*
X83975024Y-101030066D01*
X83918186Y-100892847D01*
X83835670Y-100769353D01*
X83777762Y-100711445D01*
X83837456Y-100662456D01*
X83908898Y-100575404D01*
X83961984Y-100476087D01*
X83994674Y-100368322D01*
X83994766Y-100367389D01*
X83994287Y-100475000D01*
X84001122Y-100544396D01*
X84021364Y-100611125D01*
X84054235Y-100672624D01*
X84098473Y-100726527D01*
X84152376Y-100770765D01*
X84213875Y-100803636D01*
X84280604Y-100823878D01*
X84350000Y-100830713D01*
X84697400Y-100829000D01*
X84785900Y-100740500D01*
X84785900Y-100001600D01*
X84789100Y-100001600D01*
X84789100Y-100740500D01*
X84877600Y-100829000D01*
X85225000Y-100830713D01*
X85294396Y-100823878D01*
X85361125Y-100803636D01*
X85422624Y-100770765D01*
X85476527Y-100726527D01*
X85520765Y-100672624D01*
X85553636Y-100611125D01*
X85573878Y-100544396D01*
X85580713Y-100475000D01*
X85579000Y-100090100D01*
X85490500Y-100001600D01*
X84789100Y-100001600D01*
X84785900Y-100001600D01*
X84765900Y-100001600D01*
X84765900Y-99998400D01*
X84785900Y-99998400D01*
X84785900Y-99259500D01*
X84789100Y-99259500D01*
X84789100Y-99998400D01*
X85490500Y-99998400D01*
X85579000Y-99909900D01*
X85580713Y-99525000D01*
X85573878Y-99455604D01*
X85553636Y-99388875D01*
X85520765Y-99327376D01*
X85476527Y-99273473D01*
X85422624Y-99229235D01*
X85361125Y-99196364D01*
X85294396Y-99176122D01*
X85225000Y-99169287D01*
X84877600Y-99171000D01*
X84789100Y-99259500D01*
X84785900Y-99259500D01*
X84697400Y-99171000D01*
X84350000Y-99169287D01*
X84280604Y-99176122D01*
X84213875Y-99196364D01*
X84152376Y-99229235D01*
X84098473Y-99273473D01*
X84054235Y-99327376D01*
X84021364Y-99388875D01*
X84001122Y-99455604D01*
X83994287Y-99525000D01*
X83994766Y-99632611D01*
X83994674Y-99631678D01*
X83961984Y-99523913D01*
X83908898Y-99424596D01*
X83837456Y-99337544D01*
X83750404Y-99266102D01*
X83651087Y-99213016D01*
X83543322Y-99180326D01*
X83431250Y-99169288D01*
X83059195Y-99169288D01*
X82729000Y-98839093D01*
X82729000Y-98655712D01*
X83050000Y-98655712D01*
X83119396Y-98648877D01*
X83186125Y-98628635D01*
X83247623Y-98595764D01*
X83301526Y-98551526D01*
X83345764Y-98497623D01*
X83378635Y-98436125D01*
X83398877Y-98369396D01*
X83405712Y-98300000D01*
X83405712Y-97450000D01*
X83398877Y-97380604D01*
X83378635Y-97313875D01*
X83345764Y-97252377D01*
X83301526Y-97198474D01*
X83247623Y-97154236D01*
X83186125Y-97121365D01*
X83119396Y-97101123D01*
X83050000Y-97094288D01*
X81450000Y-97094288D01*
X81380604Y-97101123D01*
X81313875Y-97121365D01*
X81252377Y-97154236D01*
X81198474Y-97198474D01*
X81154236Y-97252377D01*
X81121365Y-97313875D01*
X81101123Y-97380604D01*
X81094288Y-97450000D01*
X81094288Y-98300000D01*
X81101123Y-98369396D01*
X81121365Y-98436125D01*
X81154236Y-98497623D01*
X81198474Y-98551526D01*
X81252377Y-98595764D01*
X81313875Y-98628635D01*
X81380604Y-98648877D01*
X81450000Y-98655712D01*
X81771001Y-98655712D01*
X81771001Y-99013967D01*
X81768683Y-99037500D01*
X81777932Y-99131400D01*
X81805322Y-99221692D01*
X81849800Y-99304905D01*
X81868242Y-99327376D01*
X81909658Y-99377843D01*
X81927936Y-99392843D01*
X82419288Y-99884196D01*
X82419288Y-100256250D01*
X82430326Y-100368322D01*
X82463016Y-100476087D01*
X82516102Y-100575404D01*
X82587544Y-100662456D01*
X82674596Y-100733898D01*
X82691011Y-100742672D01*
X82664330Y-100769353D01*
X82581814Y-100892847D01*
X82524976Y-101030066D01*
X82496000Y-101175738D01*
X82496000Y-101324262D01*
X82524976Y-101469934D01*
X82581814Y-101607153D01*
X82664330Y-101730647D01*
X82704683Y-101771000D01*
X56795317Y-101771000D01*
X56835670Y-101730647D01*
X56918186Y-101607153D01*
X56975024Y-101469934D01*
X57004000Y-101324262D01*
X57004000Y-101175738D01*
X56975024Y-101030066D01*
X56918186Y-100892847D01*
X56835670Y-100769353D01*
X56777762Y-100711445D01*
X56837456Y-100662456D01*
X56908898Y-100575404D01*
X56961984Y-100476087D01*
X56994674Y-100368322D01*
X56994766Y-100367389D01*
X56994287Y-100475000D01*
X57001122Y-100544396D01*
X57021364Y-100611125D01*
X57054235Y-100672624D01*
X57098473Y-100726527D01*
X57152376Y-100770765D01*
X57213875Y-100803636D01*
X57280604Y-100823878D01*
X57350000Y-100830713D01*
X57697400Y-100829000D01*
X57785900Y-100740500D01*
X57785900Y-100001600D01*
X57789100Y-100001600D01*
X57789100Y-100740500D01*
X57877600Y-100829000D01*
X58225000Y-100830713D01*
X58294396Y-100823878D01*
X58361125Y-100803636D01*
X58422624Y-100770765D01*
X58476527Y-100726527D01*
X58520765Y-100672624D01*
X58553636Y-100611125D01*
X58573878Y-100544396D01*
X58580713Y-100475000D01*
X58579000Y-100090100D01*
X58490500Y-100001600D01*
X57789100Y-100001600D01*
X57785900Y-100001600D01*
X57765900Y-100001600D01*
X57765900Y-99998400D01*
X57785900Y-99998400D01*
X57785900Y-99259500D01*
X57789100Y-99259500D01*
X57789100Y-99998400D01*
X58490500Y-99998400D01*
X58579000Y-99909900D01*
X58580713Y-99525000D01*
X58573878Y-99455604D01*
X58553636Y-99388875D01*
X58520765Y-99327376D01*
X58476527Y-99273473D01*
X58422624Y-99229235D01*
X58361125Y-99196364D01*
X58294396Y-99176122D01*
X58225000Y-99169287D01*
X57877600Y-99171000D01*
X57789100Y-99259500D01*
X57785900Y-99259500D01*
X57697400Y-99171000D01*
X57350000Y-99169287D01*
X57280604Y-99176122D01*
X57213875Y-99196364D01*
X57152376Y-99229235D01*
X57098473Y-99273473D01*
X57054235Y-99327376D01*
X57021364Y-99388875D01*
X57001122Y-99455604D01*
X56994287Y-99525000D01*
X56994766Y-99632611D01*
X56994674Y-99631678D01*
X56961984Y-99523913D01*
X56908898Y-99424596D01*
X56837456Y-99337544D01*
X56750404Y-99266102D01*
X56651087Y-99213016D01*
X56543322Y-99180326D01*
X56431250Y-99169288D01*
X56059195Y-99169288D01*
X55729000Y-98839093D01*
X55729000Y-98655712D01*
X56050000Y-98655712D01*
X56119396Y-98648877D01*
X56186125Y-98628635D01*
X56247623Y-98595764D01*
X56301526Y-98551526D01*
X56345764Y-98497623D01*
X56378635Y-98436125D01*
X56398877Y-98369396D01*
X56405712Y-98300000D01*
X56405712Y-97450000D01*
X56398877Y-97380604D01*
X56378635Y-97313875D01*
X56345764Y-97252377D01*
X56301526Y-97198474D01*
X56247623Y-97154236D01*
X56186125Y-97121365D01*
X56119396Y-97101123D01*
X56050000Y-97094288D01*
X54450000Y-97094288D01*
X54380604Y-97101123D01*
X54313875Y-97121365D01*
X54252377Y-97154236D01*
X54198474Y-97198474D01*
X54154236Y-97252377D01*
X54121365Y-97313875D01*
X54101123Y-97380604D01*
X54094288Y-97450000D01*
X54094288Y-98300000D01*
X54101123Y-98369396D01*
X54121365Y-98436125D01*
X54154236Y-98497623D01*
X54198474Y-98551526D01*
X54252377Y-98595764D01*
X54313875Y-98628635D01*
X54380604Y-98648877D01*
X54450000Y-98655712D01*
X54771001Y-98655712D01*
X54771001Y-99013967D01*
X54768683Y-99037500D01*
X54777932Y-99131400D01*
X54805322Y-99221692D01*
X54849800Y-99304905D01*
X54868242Y-99327376D01*
X54909658Y-99377843D01*
X54927936Y-99392843D01*
X55419288Y-99884196D01*
X55419288Y-100256250D01*
X55430326Y-100368322D01*
X55463016Y-100476087D01*
X55516102Y-100575404D01*
X55587544Y-100662456D01*
X55674596Y-100733898D01*
X55691011Y-100742672D01*
X55664330Y-100769353D01*
X55581814Y-100892847D01*
X55524976Y-101030066D01*
X55496000Y-101175738D01*
X55496000Y-101324262D01*
X55524976Y-101469934D01*
X55581814Y-101607153D01*
X55664330Y-101730647D01*
X55704683Y-101771000D01*
X52198408Y-101771000D01*
X51979000Y-101551593D01*
X51979000Y-95700000D01*
X54094288Y-95700000D01*
X54094288Y-96550000D01*
X54101123Y-96619396D01*
X54121365Y-96686125D01*
X54154236Y-96747623D01*
X54198474Y-96801526D01*
X54252377Y-96845764D01*
X54313875Y-96878635D01*
X54380604Y-96898877D01*
X54450000Y-96905712D01*
X56050000Y-96905712D01*
X56119396Y-96898877D01*
X56186125Y-96878635D01*
X56247623Y-96845764D01*
X56301526Y-96801526D01*
X56345764Y-96747623D01*
X56378635Y-96686125D01*
X56398877Y-96619396D01*
X56401297Y-96594825D01*
X56484192Y-96569679D01*
X56521008Y-96550000D01*
X57594287Y-96550000D01*
X57601122Y-96619396D01*
X57621364Y-96686125D01*
X57654235Y-96747624D01*
X57698473Y-96801527D01*
X57752376Y-96845765D01*
X57813875Y-96878636D01*
X57880604Y-96898878D01*
X57950000Y-96905713D01*
X58659900Y-96904000D01*
X58748400Y-96815500D01*
X58748400Y-96126600D01*
X58751600Y-96126600D01*
X58751600Y-96815500D01*
X58840100Y-96904000D01*
X59550000Y-96905713D01*
X59619396Y-96898878D01*
X59686125Y-96878636D01*
X59747624Y-96845765D01*
X59801527Y-96801527D01*
X59845765Y-96747624D01*
X59878636Y-96686125D01*
X59898878Y-96619396D01*
X59905713Y-96550000D01*
X59904000Y-96215100D01*
X59815500Y-96126600D01*
X58751600Y-96126600D01*
X58748400Y-96126600D01*
X57684500Y-96126600D01*
X57596000Y-96215100D01*
X57594287Y-96550000D01*
X56521008Y-96550000D01*
X56567405Y-96525200D01*
X56640343Y-96465343D01*
X56655347Y-96447060D01*
X57248409Y-95853999D01*
X57595075Y-95853999D01*
X57596000Y-96034900D01*
X57684500Y-96123400D01*
X58748400Y-96123400D01*
X58748400Y-96103400D01*
X58751600Y-96103400D01*
X58751600Y-96123400D01*
X59815500Y-96123400D01*
X59904000Y-96034900D01*
X59904925Y-95853999D01*
X69103590Y-95853999D01*
X69546656Y-96297066D01*
X69561656Y-96315344D01*
X69604416Y-96350436D01*
X69634593Y-96375201D01*
X69679072Y-96398975D01*
X69717807Y-96419680D01*
X69808099Y-96447070D01*
X69878473Y-96454001D01*
X69878476Y-96454001D01*
X69901999Y-96456318D01*
X69925522Y-96454001D01*
X70574478Y-96454001D01*
X70598001Y-96456318D01*
X70621524Y-96454001D01*
X70621527Y-96454001D01*
X70691901Y-96447070D01*
X70782193Y-96419680D01*
X70865406Y-96375201D01*
X70938344Y-96315344D01*
X70953348Y-96297061D01*
X71396411Y-95853999D01*
X71468593Y-95853999D01*
X69926593Y-97396000D01*
X59900393Y-97396000D01*
X59898877Y-97380604D01*
X59878635Y-97313875D01*
X59845764Y-97252377D01*
X59801526Y-97198474D01*
X59747623Y-97154236D01*
X59686125Y-97121365D01*
X59619396Y-97101123D01*
X59550000Y-97094288D01*
X57950000Y-97094288D01*
X57880604Y-97101123D01*
X57813875Y-97121365D01*
X57752377Y-97154236D01*
X57698474Y-97198474D01*
X57654236Y-97252377D01*
X57621365Y-97313875D01*
X57601123Y-97380604D01*
X57594288Y-97450000D01*
X57594288Y-98300000D01*
X57601123Y-98369396D01*
X57621365Y-98436125D01*
X57654236Y-98497623D01*
X57698474Y-98551526D01*
X57752377Y-98595764D01*
X57813875Y-98628635D01*
X57880604Y-98648877D01*
X57950000Y-98655712D01*
X59550000Y-98655712D01*
X59619396Y-98648877D01*
X59686125Y-98628635D01*
X59747623Y-98595764D01*
X59801526Y-98551526D01*
X59845764Y-98497623D01*
X59878635Y-98436125D01*
X59898877Y-98369396D01*
X59900393Y-98354000D01*
X70101477Y-98354000D01*
X70125000Y-98356317D01*
X70148523Y-98354000D01*
X70148526Y-98354000D01*
X70218900Y-98347069D01*
X70309192Y-98319679D01*
X70392405Y-98275200D01*
X70465343Y-98215343D01*
X70480347Y-98197060D01*
X72073408Y-96604000D01*
X81099607Y-96604000D01*
X81101123Y-96619396D01*
X81121365Y-96686125D01*
X81154236Y-96747623D01*
X81198474Y-96801526D01*
X81252377Y-96845764D01*
X81313875Y-96878635D01*
X81380604Y-96898877D01*
X81450000Y-96905712D01*
X83050000Y-96905712D01*
X83119396Y-96898877D01*
X83186125Y-96878635D01*
X83247623Y-96845764D01*
X83301526Y-96801526D01*
X83345764Y-96747623D01*
X83378635Y-96686125D01*
X83398877Y-96619396D01*
X83405712Y-96550000D01*
X84594287Y-96550000D01*
X84601122Y-96619396D01*
X84621364Y-96686125D01*
X84654235Y-96747624D01*
X84698473Y-96801527D01*
X84752376Y-96845765D01*
X84813875Y-96878636D01*
X84880604Y-96898878D01*
X84950000Y-96905713D01*
X85659900Y-96904000D01*
X85748400Y-96815500D01*
X85748400Y-96126600D01*
X85751600Y-96126600D01*
X85751600Y-96815500D01*
X85840100Y-96904000D01*
X86550000Y-96905713D01*
X86619396Y-96898878D01*
X86686125Y-96878636D01*
X86747624Y-96845765D01*
X86801527Y-96801527D01*
X86845765Y-96747624D01*
X86878636Y-96686125D01*
X86898878Y-96619396D01*
X86905713Y-96550000D01*
X86904000Y-96215100D01*
X86815500Y-96126600D01*
X85751600Y-96126600D01*
X85748400Y-96126600D01*
X84684500Y-96126600D01*
X84596000Y-96215100D01*
X84594287Y-96550000D01*
X83405712Y-96550000D01*
X83405712Y-95700000D01*
X84594287Y-95700000D01*
X84596000Y-96034900D01*
X84684500Y-96123400D01*
X85748400Y-96123400D01*
X85748400Y-95434500D01*
X85751600Y-95434500D01*
X85751600Y-96123400D01*
X86815500Y-96123400D01*
X86904000Y-96034900D01*
X86905713Y-95700000D01*
X86898878Y-95630604D01*
X86878636Y-95563875D01*
X86845765Y-95502376D01*
X86801527Y-95448473D01*
X86747624Y-95404235D01*
X86686125Y-95371364D01*
X86619396Y-95351122D01*
X86550000Y-95344287D01*
X85840100Y-95346000D01*
X85751600Y-95434500D01*
X85748400Y-95434500D01*
X85659900Y-95346000D01*
X84950000Y-95344287D01*
X84880604Y-95351122D01*
X84813875Y-95371364D01*
X84752376Y-95404235D01*
X84698473Y-95448473D01*
X84654235Y-95502376D01*
X84621364Y-95563875D01*
X84601122Y-95630604D01*
X84594287Y-95700000D01*
X83405712Y-95700000D01*
X83398877Y-95630604D01*
X83378635Y-95563875D01*
X83345764Y-95502377D01*
X83301526Y-95448474D01*
X83247623Y-95404236D01*
X83186125Y-95371365D01*
X83119396Y-95351123D01*
X83050000Y-95344288D01*
X81450000Y-95344288D01*
X81380604Y-95351123D01*
X81313875Y-95371365D01*
X81252377Y-95404236D01*
X81198474Y-95448474D01*
X81154236Y-95502377D01*
X81121365Y-95563875D01*
X81101123Y-95630604D01*
X81099607Y-95646000D01*
X80667817Y-95646000D01*
X84709819Y-91603999D01*
X95094288Y-91603999D01*
X95094288Y-92300000D01*
X95101123Y-92369396D01*
X95121365Y-92436125D01*
X95154236Y-92497623D01*
X95198474Y-92551526D01*
X95252377Y-92595764D01*
X95313875Y-92628635D01*
X95380604Y-92648877D01*
X95450000Y-92655712D01*
X95771001Y-92655712D01*
X95771001Y-93013967D01*
X95768683Y-93037500D01*
X95777932Y-93131400D01*
X95805322Y-93221692D01*
X95849800Y-93304905D01*
X95868242Y-93327376D01*
X95909658Y-93377843D01*
X95927936Y-93392843D01*
X96419288Y-93884196D01*
X96419288Y-94256250D01*
X96430326Y-94368322D01*
X96463016Y-94476087D01*
X96516102Y-94575404D01*
X96587544Y-94662456D01*
X96674596Y-94733898D01*
X96691011Y-94742672D01*
X96664330Y-94769353D01*
X96581814Y-94892847D01*
X96524976Y-95030066D01*
X96496000Y-95175738D01*
X96496000Y-95324262D01*
X96524976Y-95469934D01*
X96581814Y-95607153D01*
X96664330Y-95730647D01*
X96769353Y-95835670D01*
X96892847Y-95918186D01*
X97030066Y-95975024D01*
X97175738Y-96004000D01*
X97324262Y-96004000D01*
X97469934Y-95975024D01*
X97607153Y-95918186D01*
X97730647Y-95835670D01*
X97835670Y-95730647D01*
X97918186Y-95607153D01*
X97975024Y-95469934D01*
X98004000Y-95324262D01*
X98004000Y-95175738D01*
X97975024Y-95030066D01*
X97918186Y-94892847D01*
X97835670Y-94769353D01*
X97777762Y-94711445D01*
X97837456Y-94662456D01*
X97908898Y-94575404D01*
X97961984Y-94476087D01*
X97994674Y-94368322D01*
X97994766Y-94367389D01*
X97994287Y-94475000D01*
X98001122Y-94544396D01*
X98021364Y-94611125D01*
X98054235Y-94672624D01*
X98098473Y-94726527D01*
X98152376Y-94770765D01*
X98213875Y-94803636D01*
X98280604Y-94823878D01*
X98350000Y-94830713D01*
X98697400Y-94829000D01*
X98785900Y-94740500D01*
X98785900Y-94001600D01*
X98789100Y-94001600D01*
X98789100Y-94740500D01*
X98877600Y-94829000D01*
X99225000Y-94830713D01*
X99294396Y-94823878D01*
X99361125Y-94803636D01*
X99422624Y-94770765D01*
X99476527Y-94726527D01*
X99520765Y-94672624D01*
X99553636Y-94611125D01*
X99573878Y-94544396D01*
X99580713Y-94475000D01*
X99579000Y-94090100D01*
X99490500Y-94001600D01*
X98789100Y-94001600D01*
X98785900Y-94001600D01*
X98765900Y-94001600D01*
X98765900Y-93998400D01*
X98785900Y-93998400D01*
X98785900Y-93259500D01*
X98789100Y-93259500D01*
X98789100Y-93998400D01*
X99490500Y-93998400D01*
X99579000Y-93909900D01*
X99580713Y-93525000D01*
X99573878Y-93455604D01*
X99553636Y-93388875D01*
X99520765Y-93327376D01*
X99476527Y-93273473D01*
X99422624Y-93229235D01*
X99361125Y-93196364D01*
X99294396Y-93176122D01*
X99225000Y-93169287D01*
X98877600Y-93171000D01*
X98789100Y-93259500D01*
X98785900Y-93259500D01*
X98697400Y-93171000D01*
X98350000Y-93169287D01*
X98280604Y-93176122D01*
X98213875Y-93196364D01*
X98152376Y-93229235D01*
X98098473Y-93273473D01*
X98054235Y-93327376D01*
X98021364Y-93388875D01*
X98001122Y-93455604D01*
X97994287Y-93525000D01*
X97994766Y-93632611D01*
X97994674Y-93631678D01*
X97961984Y-93523913D01*
X97908898Y-93424596D01*
X97837456Y-93337544D01*
X97750404Y-93266102D01*
X97651087Y-93213016D01*
X97543322Y-93180326D01*
X97431250Y-93169288D01*
X97059195Y-93169288D01*
X96729000Y-92839093D01*
X96729000Y-92655712D01*
X97050000Y-92655712D01*
X97119396Y-92648877D01*
X97186125Y-92628635D01*
X97247623Y-92595764D01*
X97301526Y-92551526D01*
X97345764Y-92497623D01*
X97378635Y-92436125D01*
X97398877Y-92369396D01*
X97405712Y-92300000D01*
X97405712Y-91603999D01*
X97751592Y-91603999D01*
X98344657Y-92197065D01*
X98359657Y-92215343D01*
X98402417Y-92250435D01*
X98432594Y-92275200D01*
X98515806Y-92319678D01*
X98515808Y-92319679D01*
X98598703Y-92344825D01*
X98601123Y-92369396D01*
X98621365Y-92436125D01*
X98654236Y-92497623D01*
X98698474Y-92551526D01*
X98752377Y-92595764D01*
X98813875Y-92628635D01*
X98880604Y-92648877D01*
X98950000Y-92655712D01*
X100550000Y-92655712D01*
X100619396Y-92648877D01*
X100686125Y-92628635D01*
X100747623Y-92595764D01*
X100801526Y-92551526D01*
X100845764Y-92497623D01*
X100878635Y-92436125D01*
X100898877Y-92369396D01*
X100905712Y-92300000D01*
X100905712Y-91450000D01*
X100898877Y-91380604D01*
X100878635Y-91313875D01*
X100845764Y-91252377D01*
X100801526Y-91198474D01*
X100747623Y-91154236D01*
X100686125Y-91121365D01*
X100619396Y-91101123D01*
X100550000Y-91094288D01*
X98950000Y-91094288D01*
X98880604Y-91101123D01*
X98813875Y-91121365D01*
X98752377Y-91154236D01*
X98699796Y-91197389D01*
X98305346Y-90802939D01*
X98290342Y-90784656D01*
X98217404Y-90724799D01*
X98134191Y-90680320D01*
X98043899Y-90652930D01*
X97973525Y-90645999D01*
X97973522Y-90645999D01*
X97949999Y-90643682D01*
X97926476Y-90645999D01*
X97390807Y-90645999D01*
X97398877Y-90619396D01*
X97405712Y-90550000D01*
X98594287Y-90550000D01*
X98601122Y-90619396D01*
X98621364Y-90686125D01*
X98654235Y-90747624D01*
X98698473Y-90801527D01*
X98752376Y-90845765D01*
X98813875Y-90878636D01*
X98880604Y-90898878D01*
X98950000Y-90905713D01*
X99659900Y-90904000D01*
X99748400Y-90815500D01*
X99748400Y-90126600D01*
X99751600Y-90126600D01*
X99751600Y-90815500D01*
X99840100Y-90904000D01*
X100550000Y-90905713D01*
X100619396Y-90898878D01*
X100686125Y-90878636D01*
X100747624Y-90845765D01*
X100801527Y-90801527D01*
X100845765Y-90747624D01*
X100878636Y-90686125D01*
X100898878Y-90619396D01*
X100905713Y-90550000D01*
X100904000Y-90215100D01*
X100815500Y-90126600D01*
X99751600Y-90126600D01*
X99748400Y-90126600D01*
X98684500Y-90126600D01*
X98596000Y-90215100D01*
X98594287Y-90550000D01*
X97405712Y-90550000D01*
X97405712Y-89700000D01*
X98594287Y-89700000D01*
X98596000Y-90034900D01*
X98684500Y-90123400D01*
X99748400Y-90123400D01*
X99748400Y-89434500D01*
X99751600Y-89434500D01*
X99751600Y-90123400D01*
X100815500Y-90123400D01*
X100904000Y-90034900D01*
X100905713Y-89700000D01*
X100898878Y-89630604D01*
X100878636Y-89563875D01*
X100845765Y-89502376D01*
X100801527Y-89448473D01*
X100747624Y-89404235D01*
X100686125Y-89371364D01*
X100619396Y-89351122D01*
X100550000Y-89344287D01*
X99840100Y-89346000D01*
X99751600Y-89434500D01*
X99748400Y-89434500D01*
X99659900Y-89346000D01*
X98950000Y-89344287D01*
X98880604Y-89351122D01*
X98813875Y-89371364D01*
X98752376Y-89404235D01*
X98698473Y-89448473D01*
X98654235Y-89502376D01*
X98621364Y-89563875D01*
X98601122Y-89630604D01*
X98594287Y-89700000D01*
X97405712Y-89700000D01*
X97398877Y-89630604D01*
X97378635Y-89563875D01*
X97345764Y-89502377D01*
X97301526Y-89448474D01*
X97247623Y-89404236D01*
X97186125Y-89371365D01*
X97119396Y-89351123D01*
X97050000Y-89344288D01*
X95450000Y-89344288D01*
X95380604Y-89351123D01*
X95313875Y-89371365D01*
X95252377Y-89404236D01*
X95198474Y-89448474D01*
X95154236Y-89502377D01*
X95121365Y-89563875D01*
X95101123Y-89630604D01*
X95099607Y-89646000D01*
X84898523Y-89646000D01*
X84875000Y-89643683D01*
X84851477Y-89646000D01*
X84851474Y-89646000D01*
X84781100Y-89652931D01*
X84690808Y-89680321D01*
X84607594Y-89724800D01*
X84577417Y-89749565D01*
X84534657Y-89784657D01*
X84519657Y-89802935D01*
X82926593Y-91396000D01*
X73900393Y-91396000D01*
X73898877Y-91380604D01*
X73878635Y-91313875D01*
X73845764Y-91252377D01*
X73801526Y-91198474D01*
X73747623Y-91154236D01*
X73686125Y-91121365D01*
X73619396Y-91101123D01*
X73550000Y-91094288D01*
X71950000Y-91094288D01*
X71880604Y-91101123D01*
X71813875Y-91121365D01*
X71752377Y-91154236D01*
X71698474Y-91198474D01*
X71654236Y-91252377D01*
X71621365Y-91313875D01*
X71601123Y-91380604D01*
X71594288Y-91450000D01*
X71594288Y-92300000D01*
X71601123Y-92369396D01*
X71621365Y-92436125D01*
X71654236Y-92497623D01*
X71698474Y-92551526D01*
X71752377Y-92595764D01*
X71813875Y-92628635D01*
X71880604Y-92648877D01*
X71950000Y-92655712D01*
X73550000Y-92655712D01*
X73619396Y-92648877D01*
X73686125Y-92628635D01*
X73747623Y-92595764D01*
X73801526Y-92551526D01*
X73845764Y-92497623D01*
X73878635Y-92436125D01*
X73898877Y-92369396D01*
X73900393Y-92354000D01*
X82605002Y-92354000D01*
X80063004Y-94895999D01*
X71221526Y-94895999D01*
X71198003Y-94893682D01*
X71174480Y-94895999D01*
X71174477Y-94895999D01*
X71104103Y-94902930D01*
X71013811Y-94930320D01*
X70975076Y-94951025D01*
X70948228Y-94965375D01*
X70918186Y-94892847D01*
X70835670Y-94769353D01*
X70777762Y-94711445D01*
X70837456Y-94662456D01*
X70908898Y-94575404D01*
X70961984Y-94476087D01*
X70994674Y-94368322D01*
X70994766Y-94367389D01*
X70994287Y-94475000D01*
X71001122Y-94544396D01*
X71021364Y-94611125D01*
X71054235Y-94672624D01*
X71098473Y-94726527D01*
X71152376Y-94770765D01*
X71213875Y-94803636D01*
X71280604Y-94823878D01*
X71350000Y-94830713D01*
X71697400Y-94829000D01*
X71785900Y-94740500D01*
X71785900Y-94001600D01*
X71789100Y-94001600D01*
X71789100Y-94740500D01*
X71877600Y-94829000D01*
X72225000Y-94830713D01*
X72294396Y-94823878D01*
X72361125Y-94803636D01*
X72422624Y-94770765D01*
X72476527Y-94726527D01*
X72520765Y-94672624D01*
X72553636Y-94611125D01*
X72573878Y-94544396D01*
X72580713Y-94475000D01*
X72579000Y-94090100D01*
X72490500Y-94001600D01*
X71789100Y-94001600D01*
X71785900Y-94001600D01*
X71765900Y-94001600D01*
X71765900Y-93998400D01*
X71785900Y-93998400D01*
X71785900Y-93259500D01*
X71789100Y-93259500D01*
X71789100Y-93998400D01*
X72490500Y-93998400D01*
X72579000Y-93909900D01*
X72580713Y-93525000D01*
X72573878Y-93455604D01*
X72553636Y-93388875D01*
X72520765Y-93327376D01*
X72476527Y-93273473D01*
X72422624Y-93229235D01*
X72361125Y-93196364D01*
X72294396Y-93176122D01*
X72225000Y-93169287D01*
X71877600Y-93171000D01*
X71789100Y-93259500D01*
X71785900Y-93259500D01*
X71697400Y-93171000D01*
X71350000Y-93169287D01*
X71280604Y-93176122D01*
X71213875Y-93196364D01*
X71152376Y-93229235D01*
X71098473Y-93273473D01*
X71054235Y-93327376D01*
X71021364Y-93388875D01*
X71001122Y-93455604D01*
X70994287Y-93525000D01*
X70994766Y-93632611D01*
X70994674Y-93631678D01*
X70961984Y-93523913D01*
X70908898Y-93424596D01*
X70837456Y-93337544D01*
X70750404Y-93266102D01*
X70651087Y-93213016D01*
X70543322Y-93180326D01*
X70431250Y-93169288D01*
X70059195Y-93169288D01*
X69729000Y-92839093D01*
X69729000Y-92655712D01*
X70050000Y-92655712D01*
X70119396Y-92648877D01*
X70186125Y-92628635D01*
X70247623Y-92595764D01*
X70301526Y-92551526D01*
X70345764Y-92497623D01*
X70378635Y-92436125D01*
X70398877Y-92369396D01*
X70405712Y-92300000D01*
X70405712Y-91450000D01*
X70398877Y-91380604D01*
X70378635Y-91313875D01*
X70345764Y-91252377D01*
X70301526Y-91198474D01*
X70247623Y-91154236D01*
X70186125Y-91121365D01*
X70119396Y-91101123D01*
X70050000Y-91094288D01*
X68450000Y-91094288D01*
X68380604Y-91101123D01*
X68313875Y-91121365D01*
X68252377Y-91154236D01*
X68198474Y-91198474D01*
X68154236Y-91252377D01*
X68121365Y-91313875D01*
X68101123Y-91380604D01*
X68094288Y-91450000D01*
X68094288Y-92300000D01*
X68101123Y-92369396D01*
X68121365Y-92436125D01*
X68154236Y-92497623D01*
X68198474Y-92551526D01*
X68252377Y-92595764D01*
X68313875Y-92628635D01*
X68380604Y-92648877D01*
X68450000Y-92655712D01*
X68771001Y-92655712D01*
X68771001Y-93013967D01*
X68768683Y-93037500D01*
X68777932Y-93131400D01*
X68805322Y-93221692D01*
X68849800Y-93304905D01*
X68868242Y-93327376D01*
X68909658Y-93377843D01*
X68927936Y-93392843D01*
X69419288Y-93884196D01*
X69419288Y-94256250D01*
X69430326Y-94368322D01*
X69463016Y-94476087D01*
X69516102Y-94575404D01*
X69587544Y-94662456D01*
X69674596Y-94733898D01*
X69691011Y-94742672D01*
X69664330Y-94769353D01*
X69581814Y-94892847D01*
X69551772Y-94965375D01*
X69486189Y-94930320D01*
X69395897Y-94902930D01*
X69325523Y-94895999D01*
X69325520Y-94895999D01*
X69301997Y-94893682D01*
X69278474Y-94895999D01*
X57073524Y-94895999D01*
X57050001Y-94893682D01*
X57026478Y-94895999D01*
X57026475Y-94895999D01*
X56956101Y-94902930D01*
X56865809Y-94930320D01*
X56782595Y-94974799D01*
X56752418Y-94999564D01*
X56709658Y-95034656D01*
X56694661Y-95052931D01*
X56300204Y-95447389D01*
X56247623Y-95404236D01*
X56186125Y-95371365D01*
X56119396Y-95351123D01*
X56050000Y-95344288D01*
X54450000Y-95344288D01*
X54380604Y-95351123D01*
X54313875Y-95371365D01*
X54252377Y-95404236D01*
X54198474Y-95448474D01*
X54154236Y-95502377D01*
X54121365Y-95563875D01*
X54101123Y-95630604D01*
X54094288Y-95700000D01*
X51979000Y-95700000D01*
X51979000Y-85450000D01*
X54094288Y-85450000D01*
X54094288Y-86300000D01*
X54101123Y-86369396D01*
X54121365Y-86436125D01*
X54154236Y-86497623D01*
X54198474Y-86551526D01*
X54252377Y-86595764D01*
X54313875Y-86628635D01*
X54380604Y-86648877D01*
X54450000Y-86655712D01*
X54771001Y-86655712D01*
X54771001Y-87013967D01*
X54768683Y-87037500D01*
X54777932Y-87131400D01*
X54805322Y-87221692D01*
X54849800Y-87304905D01*
X54868242Y-87327376D01*
X54909658Y-87377843D01*
X54927936Y-87392843D01*
X55419288Y-87884196D01*
X55419288Y-88256250D01*
X55430326Y-88368322D01*
X55463016Y-88476087D01*
X55516102Y-88575404D01*
X55587544Y-88662456D01*
X55674596Y-88733898D01*
X55691011Y-88742672D01*
X55664330Y-88769353D01*
X55581814Y-88892847D01*
X55524976Y-89030066D01*
X55496000Y-89175738D01*
X55496000Y-89324262D01*
X55524976Y-89469934D01*
X55581814Y-89607153D01*
X55664330Y-89730647D01*
X55769353Y-89835670D01*
X55892847Y-89918186D01*
X56030066Y-89975024D01*
X56175738Y-90004000D01*
X56324262Y-90004000D01*
X56469934Y-89975024D01*
X56607153Y-89918186D01*
X56730647Y-89835670D01*
X56835670Y-89730647D01*
X56918186Y-89607153D01*
X56975024Y-89469934D01*
X57004000Y-89324262D01*
X57004000Y-89175738D01*
X56975024Y-89030066D01*
X56918186Y-88892847D01*
X56835670Y-88769353D01*
X56777762Y-88711445D01*
X56837456Y-88662456D01*
X56908898Y-88575404D01*
X56961984Y-88476087D01*
X56994674Y-88368322D01*
X56994766Y-88367389D01*
X56994287Y-88475000D01*
X57001122Y-88544396D01*
X57021364Y-88611125D01*
X57054235Y-88672624D01*
X57098473Y-88726527D01*
X57152376Y-88770765D01*
X57213875Y-88803636D01*
X57280604Y-88823878D01*
X57350000Y-88830713D01*
X57697400Y-88829000D01*
X57785900Y-88740500D01*
X57785900Y-88001600D01*
X57789100Y-88001600D01*
X57789100Y-88740500D01*
X57877600Y-88829000D01*
X58225000Y-88830713D01*
X58294396Y-88823878D01*
X58361125Y-88803636D01*
X58422624Y-88770765D01*
X58476527Y-88726527D01*
X58520765Y-88672624D01*
X58553636Y-88611125D01*
X58573878Y-88544396D01*
X58580713Y-88475000D01*
X58579000Y-88090100D01*
X58490500Y-88001600D01*
X57789100Y-88001600D01*
X57785900Y-88001600D01*
X57765900Y-88001600D01*
X57765900Y-87998400D01*
X57785900Y-87998400D01*
X57785900Y-87259500D01*
X57789100Y-87259500D01*
X57789100Y-87998400D01*
X58490500Y-87998400D01*
X58579000Y-87909900D01*
X58580713Y-87525000D01*
X58573878Y-87455604D01*
X58553636Y-87388875D01*
X58520765Y-87327376D01*
X58476527Y-87273473D01*
X58422624Y-87229235D01*
X58361125Y-87196364D01*
X58294396Y-87176122D01*
X58225000Y-87169287D01*
X57877600Y-87171000D01*
X57789100Y-87259500D01*
X57785900Y-87259500D01*
X57697400Y-87171000D01*
X57350000Y-87169287D01*
X57280604Y-87176122D01*
X57213875Y-87196364D01*
X57152376Y-87229235D01*
X57098473Y-87273473D01*
X57054235Y-87327376D01*
X57021364Y-87388875D01*
X57001122Y-87455604D01*
X56994287Y-87525000D01*
X56994766Y-87632611D01*
X56994674Y-87631678D01*
X56961984Y-87523913D01*
X56908898Y-87424596D01*
X56837456Y-87337544D01*
X56750404Y-87266102D01*
X56651087Y-87213016D01*
X56543322Y-87180326D01*
X56431250Y-87169288D01*
X56059195Y-87169288D01*
X55729000Y-86839093D01*
X55729000Y-86655712D01*
X56050000Y-86655712D01*
X56119396Y-86648877D01*
X56186125Y-86628635D01*
X56247623Y-86595764D01*
X56301526Y-86551526D01*
X56345764Y-86497623D01*
X56378635Y-86436125D01*
X56398877Y-86369396D01*
X56405712Y-86300000D01*
X56405712Y-85450000D01*
X56398877Y-85380604D01*
X56378635Y-85313875D01*
X56345764Y-85252377D01*
X56301526Y-85198474D01*
X56247623Y-85154236D01*
X56186125Y-85121365D01*
X56119396Y-85101123D01*
X56050000Y-85094288D01*
X54450000Y-85094288D01*
X54380604Y-85101123D01*
X54313875Y-85121365D01*
X54252377Y-85154236D01*
X54198474Y-85198474D01*
X54154236Y-85252377D01*
X54121365Y-85313875D01*
X54101123Y-85380604D01*
X54094288Y-85450000D01*
X51979000Y-85450000D01*
X51979000Y-83700000D01*
X54094288Y-83700000D01*
X54094288Y-84550000D01*
X54101123Y-84619396D01*
X54121365Y-84686125D01*
X54154236Y-84747623D01*
X54198474Y-84801526D01*
X54252377Y-84845764D01*
X54313875Y-84878635D01*
X54380604Y-84898877D01*
X54450000Y-84905712D01*
X56050000Y-84905712D01*
X56119396Y-84898877D01*
X56186125Y-84878635D01*
X56247623Y-84845764D01*
X56301526Y-84801526D01*
X56345764Y-84747623D01*
X56378635Y-84686125D01*
X56398877Y-84619396D01*
X56401297Y-84594825D01*
X56484192Y-84569679D01*
X56521008Y-84550000D01*
X57594287Y-84550000D01*
X57601122Y-84619396D01*
X57621364Y-84686125D01*
X57654235Y-84747624D01*
X57698473Y-84801527D01*
X57752376Y-84845765D01*
X57813875Y-84878636D01*
X57880604Y-84898878D01*
X57950000Y-84905713D01*
X58659900Y-84904000D01*
X58748400Y-84815500D01*
X58748400Y-84126600D01*
X58751600Y-84126600D01*
X58751600Y-84815500D01*
X58840100Y-84904000D01*
X59550000Y-84905713D01*
X59619396Y-84898878D01*
X59686125Y-84878636D01*
X59747624Y-84845765D01*
X59801527Y-84801527D01*
X59845765Y-84747624D01*
X59878636Y-84686125D01*
X59898878Y-84619396D01*
X59905713Y-84550000D01*
X59904000Y-84215100D01*
X59815500Y-84126600D01*
X58751600Y-84126600D01*
X58748400Y-84126600D01*
X57684500Y-84126600D01*
X57596000Y-84215100D01*
X57594287Y-84550000D01*
X56521008Y-84550000D01*
X56567405Y-84525200D01*
X56640343Y-84465343D01*
X56655347Y-84447060D01*
X57248409Y-83853999D01*
X57595075Y-83853999D01*
X57596000Y-84034900D01*
X57684500Y-84123400D01*
X58748400Y-84123400D01*
X58748400Y-84103400D01*
X58751600Y-84103400D01*
X58751600Y-84123400D01*
X59815500Y-84123400D01*
X59904000Y-84034900D01*
X59904925Y-83853999D01*
X69103588Y-83853999D01*
X69546659Y-84297072D01*
X69561655Y-84315345D01*
X69579927Y-84330340D01*
X69579928Y-84330341D01*
X69634591Y-84375202D01*
X69692563Y-84406188D01*
X69717806Y-84419681D01*
X69808098Y-84447071D01*
X69878472Y-84454002D01*
X69878476Y-84454002D01*
X69901997Y-84456319D01*
X69925518Y-84454002D01*
X70574479Y-84454002D01*
X70598002Y-84456319D01*
X70621525Y-84454002D01*
X70621528Y-84454002D01*
X70691902Y-84447071D01*
X70782194Y-84419681D01*
X70865407Y-84375202D01*
X70938345Y-84315345D01*
X70953349Y-84297062D01*
X71396414Y-83853999D01*
X71468593Y-83853999D01*
X69926593Y-85396000D01*
X59900393Y-85396000D01*
X59898877Y-85380604D01*
X59878635Y-85313875D01*
X59845764Y-85252377D01*
X59801526Y-85198474D01*
X59747623Y-85154236D01*
X59686125Y-85121365D01*
X59619396Y-85101123D01*
X59550000Y-85094288D01*
X57950000Y-85094288D01*
X57880604Y-85101123D01*
X57813875Y-85121365D01*
X57752377Y-85154236D01*
X57698474Y-85198474D01*
X57654236Y-85252377D01*
X57621365Y-85313875D01*
X57601123Y-85380604D01*
X57594288Y-85450000D01*
X57594288Y-86300000D01*
X57601123Y-86369396D01*
X57621365Y-86436125D01*
X57654236Y-86497623D01*
X57698474Y-86551526D01*
X57752377Y-86595764D01*
X57813875Y-86628635D01*
X57880604Y-86648877D01*
X57950000Y-86655712D01*
X59550000Y-86655712D01*
X59619396Y-86648877D01*
X59686125Y-86628635D01*
X59747623Y-86595764D01*
X59801526Y-86551526D01*
X59845764Y-86497623D01*
X59878635Y-86436125D01*
X59898877Y-86369396D01*
X59900393Y-86354000D01*
X70101477Y-86354000D01*
X70125000Y-86356317D01*
X70148523Y-86354000D01*
X70148526Y-86354000D01*
X70218900Y-86347069D01*
X70309192Y-86319679D01*
X70392405Y-86275200D01*
X70465343Y-86215343D01*
X70480347Y-86197060D01*
X72073408Y-84604000D01*
X81099607Y-84604000D01*
X81101123Y-84619396D01*
X81109193Y-84645999D01*
X73148524Y-84645999D01*
X73125001Y-84643682D01*
X73101478Y-84645999D01*
X73101475Y-84645999D01*
X73031101Y-84652930D01*
X72940809Y-84680320D01*
X72929949Y-84686125D01*
X72857595Y-84724799D01*
X72829784Y-84747623D01*
X72784658Y-84784656D01*
X72769658Y-84802934D01*
X68927940Y-88644653D01*
X68909657Y-88659657D01*
X68849800Y-88732595D01*
X68805321Y-88815809D01*
X68777931Y-88906101D01*
X68774091Y-88945095D01*
X68768683Y-89000000D01*
X68771000Y-89023524D01*
X68771000Y-89344288D01*
X68450000Y-89344288D01*
X68380604Y-89351123D01*
X68313875Y-89371365D01*
X68252377Y-89404236D01*
X68198474Y-89448474D01*
X68154236Y-89502377D01*
X68121365Y-89563875D01*
X68101123Y-89630604D01*
X68094288Y-89700000D01*
X68094288Y-90550000D01*
X68101123Y-90619396D01*
X68121365Y-90686125D01*
X68154236Y-90747623D01*
X68198474Y-90801526D01*
X68252377Y-90845764D01*
X68313875Y-90878635D01*
X68380604Y-90898877D01*
X68450000Y-90905712D01*
X70050000Y-90905712D01*
X70119396Y-90898877D01*
X70186125Y-90878635D01*
X70247623Y-90845764D01*
X70301526Y-90801526D01*
X70345764Y-90747623D01*
X70378635Y-90686125D01*
X70398877Y-90619396D01*
X70405712Y-90550000D01*
X71594287Y-90550000D01*
X71601122Y-90619396D01*
X71621364Y-90686125D01*
X71654235Y-90747624D01*
X71698473Y-90801527D01*
X71752376Y-90845765D01*
X71813875Y-90878636D01*
X71880604Y-90898878D01*
X71950000Y-90905713D01*
X72659900Y-90904000D01*
X72748400Y-90815500D01*
X72748400Y-90126600D01*
X72751600Y-90126600D01*
X72751600Y-90815500D01*
X72840100Y-90904000D01*
X73550000Y-90905713D01*
X73619396Y-90898878D01*
X73686125Y-90878636D01*
X73747624Y-90845765D01*
X73801527Y-90801527D01*
X73845765Y-90747624D01*
X73878636Y-90686125D01*
X73898878Y-90619396D01*
X73905713Y-90550000D01*
X73904000Y-90215100D01*
X73815500Y-90126600D01*
X72751600Y-90126600D01*
X72748400Y-90126600D01*
X71684500Y-90126600D01*
X71596000Y-90215100D01*
X71594287Y-90550000D01*
X70405712Y-90550000D01*
X70405712Y-89700000D01*
X71594287Y-89700000D01*
X71596000Y-90034900D01*
X71684500Y-90123400D01*
X72748400Y-90123400D01*
X72748400Y-89434500D01*
X72751600Y-89434500D01*
X72751600Y-90123400D01*
X73815500Y-90123400D01*
X73904000Y-90034900D01*
X73905713Y-89700000D01*
X73898878Y-89630604D01*
X73878636Y-89563875D01*
X73845765Y-89502376D01*
X73801527Y-89448473D01*
X73747624Y-89404235D01*
X73686125Y-89371364D01*
X73619396Y-89351122D01*
X73550000Y-89344287D01*
X72840100Y-89346000D01*
X72751600Y-89434500D01*
X72748400Y-89434500D01*
X72659900Y-89346000D01*
X71950000Y-89344287D01*
X71880604Y-89351122D01*
X71813875Y-89371364D01*
X71752376Y-89404235D01*
X71698473Y-89448473D01*
X71654235Y-89502376D01*
X71621364Y-89563875D01*
X71601122Y-89630604D01*
X71594287Y-89700000D01*
X70405712Y-89700000D01*
X70398877Y-89630604D01*
X70378635Y-89563875D01*
X70345764Y-89502377D01*
X70301526Y-89448474D01*
X70247623Y-89404236D01*
X70186125Y-89371365D01*
X70119396Y-89351123D01*
X70050000Y-89344288D01*
X69729000Y-89344288D01*
X69729000Y-89198407D01*
X73323409Y-85603999D01*
X81094288Y-85603999D01*
X81094288Y-86300000D01*
X81101123Y-86369396D01*
X81121365Y-86436125D01*
X81154236Y-86497623D01*
X81198474Y-86551526D01*
X81252377Y-86595764D01*
X81313875Y-86628635D01*
X81380604Y-86648877D01*
X81450000Y-86655712D01*
X81771001Y-86655712D01*
X81771001Y-87013967D01*
X81768683Y-87037500D01*
X81777932Y-87131400D01*
X81805322Y-87221692D01*
X81849800Y-87304905D01*
X81868242Y-87327376D01*
X81909658Y-87377843D01*
X81927936Y-87392843D01*
X82419288Y-87884196D01*
X82419288Y-88256250D01*
X82430326Y-88368322D01*
X82463016Y-88476087D01*
X82516102Y-88575404D01*
X82587544Y-88662456D01*
X82674596Y-88733898D01*
X82691011Y-88742672D01*
X82664330Y-88769353D01*
X82581814Y-88892847D01*
X82524976Y-89030066D01*
X82496000Y-89175738D01*
X82496000Y-89324262D01*
X82524976Y-89469934D01*
X82581814Y-89607153D01*
X82664330Y-89730647D01*
X82769353Y-89835670D01*
X82892847Y-89918186D01*
X83030066Y-89975024D01*
X83175738Y-90004000D01*
X83324262Y-90004000D01*
X83469934Y-89975024D01*
X83607153Y-89918186D01*
X83730647Y-89835670D01*
X83835670Y-89730647D01*
X83918186Y-89607153D01*
X83975024Y-89469934D01*
X84004000Y-89324262D01*
X84004000Y-89175738D01*
X83975024Y-89030066D01*
X83918186Y-88892847D01*
X83835670Y-88769353D01*
X83777762Y-88711445D01*
X83837456Y-88662456D01*
X83908898Y-88575404D01*
X83961984Y-88476087D01*
X83994674Y-88368322D01*
X83994766Y-88367389D01*
X83994287Y-88475000D01*
X84001122Y-88544396D01*
X84021364Y-88611125D01*
X84054235Y-88672624D01*
X84098473Y-88726527D01*
X84152376Y-88770765D01*
X84213875Y-88803636D01*
X84280604Y-88823878D01*
X84350000Y-88830713D01*
X84697400Y-88829000D01*
X84785900Y-88740500D01*
X84785900Y-88001600D01*
X84789100Y-88001600D01*
X84789100Y-88740500D01*
X84877600Y-88829000D01*
X85225000Y-88830713D01*
X85294396Y-88823878D01*
X85361125Y-88803636D01*
X85422624Y-88770765D01*
X85476527Y-88726527D01*
X85520765Y-88672624D01*
X85553636Y-88611125D01*
X85573878Y-88544396D01*
X85580713Y-88475000D01*
X85579000Y-88090100D01*
X85490500Y-88001600D01*
X84789100Y-88001600D01*
X84785900Y-88001600D01*
X84765900Y-88001600D01*
X84765900Y-87998400D01*
X84785900Y-87998400D01*
X84785900Y-87259500D01*
X84789100Y-87259500D01*
X84789100Y-87998400D01*
X85490500Y-87998400D01*
X85579000Y-87909900D01*
X85580713Y-87525000D01*
X85573878Y-87455604D01*
X85553636Y-87388875D01*
X85520765Y-87327376D01*
X85476527Y-87273473D01*
X85422624Y-87229235D01*
X85361125Y-87196364D01*
X85294396Y-87176122D01*
X85225000Y-87169287D01*
X84877600Y-87171000D01*
X84789100Y-87259500D01*
X84785900Y-87259500D01*
X84697400Y-87171000D01*
X84350000Y-87169287D01*
X84280604Y-87176122D01*
X84213875Y-87196364D01*
X84152376Y-87229235D01*
X84098473Y-87273473D01*
X84054235Y-87327376D01*
X84021364Y-87388875D01*
X84001122Y-87455604D01*
X83994287Y-87525000D01*
X83994766Y-87632611D01*
X83994674Y-87631678D01*
X83961984Y-87523913D01*
X83908898Y-87424596D01*
X83837456Y-87337544D01*
X83750404Y-87266102D01*
X83651087Y-87213016D01*
X83543322Y-87180326D01*
X83431250Y-87169288D01*
X83059195Y-87169288D01*
X82729000Y-86839093D01*
X82729000Y-86655712D01*
X83050000Y-86655712D01*
X83119396Y-86648877D01*
X83186125Y-86628635D01*
X83247623Y-86595764D01*
X83301526Y-86551526D01*
X83345764Y-86497623D01*
X83378635Y-86436125D01*
X83398877Y-86369396D01*
X83405712Y-86300000D01*
X83405712Y-85603999D01*
X83751592Y-85603999D01*
X84344657Y-86197065D01*
X84359657Y-86215343D01*
X84402417Y-86250435D01*
X84432594Y-86275200D01*
X84515806Y-86319678D01*
X84515808Y-86319679D01*
X84598703Y-86344825D01*
X84601123Y-86369396D01*
X84621365Y-86436125D01*
X84654236Y-86497623D01*
X84698474Y-86551526D01*
X84752377Y-86595764D01*
X84813875Y-86628635D01*
X84880604Y-86648877D01*
X84950000Y-86655712D01*
X86550000Y-86655712D01*
X86619396Y-86648877D01*
X86686125Y-86628635D01*
X86747623Y-86595764D01*
X86801526Y-86551526D01*
X86845764Y-86497623D01*
X86878635Y-86436125D01*
X86898877Y-86369396D01*
X86905712Y-86300000D01*
X86905712Y-85450000D01*
X86898877Y-85380604D01*
X86878635Y-85313875D01*
X86845764Y-85252377D01*
X86801526Y-85198474D01*
X86747623Y-85154236D01*
X86686125Y-85121365D01*
X86619396Y-85101123D01*
X86550000Y-85094288D01*
X84950000Y-85094288D01*
X84880604Y-85101123D01*
X84813875Y-85121365D01*
X84752377Y-85154236D01*
X84699796Y-85197389D01*
X84305346Y-84802939D01*
X84290342Y-84784656D01*
X84217404Y-84724799D01*
X84134191Y-84680320D01*
X84043899Y-84652930D01*
X83973525Y-84645999D01*
X83973522Y-84645999D01*
X83949999Y-84643682D01*
X83926476Y-84645999D01*
X83390807Y-84645999D01*
X83398877Y-84619396D01*
X83405712Y-84550000D01*
X84594287Y-84550000D01*
X84601122Y-84619396D01*
X84621364Y-84686125D01*
X84654235Y-84747624D01*
X84698473Y-84801527D01*
X84752376Y-84845765D01*
X84813875Y-84878636D01*
X84880604Y-84898878D01*
X84950000Y-84905713D01*
X85659900Y-84904000D01*
X85748400Y-84815500D01*
X85748400Y-84126600D01*
X85751600Y-84126600D01*
X85751600Y-84815500D01*
X85840100Y-84904000D01*
X86550000Y-84905713D01*
X86619396Y-84898878D01*
X86686125Y-84878636D01*
X86747624Y-84845765D01*
X86801527Y-84801527D01*
X86845765Y-84747624D01*
X86878636Y-84686125D01*
X86898878Y-84619396D01*
X86905713Y-84550000D01*
X86904000Y-84215100D01*
X86815500Y-84126600D01*
X85751600Y-84126600D01*
X85748400Y-84126600D01*
X84684500Y-84126600D01*
X84596000Y-84215100D01*
X84594287Y-84550000D01*
X83405712Y-84550000D01*
X83405712Y-83700000D01*
X84594287Y-83700000D01*
X84596000Y-84034900D01*
X84684500Y-84123400D01*
X85748400Y-84123400D01*
X85748400Y-83434500D01*
X85751600Y-83434500D01*
X85751600Y-84123400D01*
X86815500Y-84123400D01*
X86904000Y-84034900D01*
X86905713Y-83700000D01*
X86898878Y-83630604D01*
X86878636Y-83563875D01*
X86845765Y-83502376D01*
X86801527Y-83448473D01*
X86747624Y-83404235D01*
X86686125Y-83371364D01*
X86619396Y-83351122D01*
X86550000Y-83344287D01*
X85840100Y-83346000D01*
X85751600Y-83434500D01*
X85748400Y-83434500D01*
X85659900Y-83346000D01*
X84950000Y-83344287D01*
X84880604Y-83351122D01*
X84813875Y-83371364D01*
X84752376Y-83404235D01*
X84698473Y-83448473D01*
X84654235Y-83502376D01*
X84621364Y-83563875D01*
X84601122Y-83630604D01*
X84594287Y-83700000D01*
X83405712Y-83700000D01*
X83398877Y-83630604D01*
X83378635Y-83563875D01*
X83345764Y-83502377D01*
X83301526Y-83448474D01*
X83247623Y-83404236D01*
X83186125Y-83371365D01*
X83119396Y-83351123D01*
X83050000Y-83344288D01*
X81450000Y-83344288D01*
X81380604Y-83351123D01*
X81313875Y-83371365D01*
X81252377Y-83404236D01*
X81198474Y-83448474D01*
X81154236Y-83502377D01*
X81121365Y-83563875D01*
X81101123Y-83630604D01*
X81099607Y-83646000D01*
X80667817Y-83646000D01*
X84709819Y-79603999D01*
X95094288Y-79603999D01*
X95094288Y-80300000D01*
X95101123Y-80369396D01*
X95121365Y-80436125D01*
X95154236Y-80497623D01*
X95198474Y-80551526D01*
X95252377Y-80595764D01*
X95313875Y-80628635D01*
X95380604Y-80648877D01*
X95450000Y-80655712D01*
X95771001Y-80655712D01*
X95771001Y-81013967D01*
X95768683Y-81037500D01*
X95777932Y-81131400D01*
X95805322Y-81221692D01*
X95849800Y-81304905D01*
X95868242Y-81327376D01*
X95909658Y-81377843D01*
X95927935Y-81392842D01*
X96419288Y-81884196D01*
X96419288Y-82256250D01*
X96430326Y-82368322D01*
X96463016Y-82476087D01*
X96516102Y-82575404D01*
X96587544Y-82662456D01*
X96674596Y-82733898D01*
X96691011Y-82742672D01*
X96664330Y-82769353D01*
X96581814Y-82892847D01*
X96524976Y-83030066D01*
X96496000Y-83175738D01*
X96496000Y-83324262D01*
X96524976Y-83469934D01*
X96581814Y-83607153D01*
X96664330Y-83730647D01*
X96769353Y-83835670D01*
X96892847Y-83918186D01*
X97030066Y-83975024D01*
X97175738Y-84004000D01*
X97324262Y-84004000D01*
X97469934Y-83975024D01*
X97607153Y-83918186D01*
X97730647Y-83835670D01*
X97835670Y-83730647D01*
X97918186Y-83607153D01*
X97975024Y-83469934D01*
X98004000Y-83324262D01*
X98004000Y-83175738D01*
X97975024Y-83030066D01*
X97918186Y-82892847D01*
X97835670Y-82769353D01*
X97777762Y-82711445D01*
X97837456Y-82662456D01*
X97908898Y-82575404D01*
X97961984Y-82476087D01*
X97994674Y-82368322D01*
X97994766Y-82367389D01*
X97994287Y-82475000D01*
X98001122Y-82544396D01*
X98021364Y-82611125D01*
X98054235Y-82672624D01*
X98098473Y-82726527D01*
X98152376Y-82770765D01*
X98213875Y-82803636D01*
X98280604Y-82823878D01*
X98350000Y-82830713D01*
X98697400Y-82829000D01*
X98785900Y-82740500D01*
X98785900Y-82001600D01*
X98789100Y-82001600D01*
X98789100Y-82740500D01*
X98877600Y-82829000D01*
X99225000Y-82830713D01*
X99294396Y-82823878D01*
X99361125Y-82803636D01*
X99422624Y-82770765D01*
X99476527Y-82726527D01*
X99520765Y-82672624D01*
X99553636Y-82611125D01*
X99573878Y-82544396D01*
X99580713Y-82475000D01*
X99579000Y-82090100D01*
X99490500Y-82001600D01*
X98789100Y-82001600D01*
X98785900Y-82001600D01*
X98765900Y-82001600D01*
X98765900Y-81998400D01*
X98785900Y-81998400D01*
X98785900Y-81259500D01*
X98789100Y-81259500D01*
X98789100Y-81998400D01*
X99490500Y-81998400D01*
X99579000Y-81909900D01*
X99580713Y-81525000D01*
X99573878Y-81455604D01*
X99553636Y-81388875D01*
X99520765Y-81327376D01*
X99476527Y-81273473D01*
X99422624Y-81229235D01*
X99361125Y-81196364D01*
X99294396Y-81176122D01*
X99225000Y-81169287D01*
X98877600Y-81171000D01*
X98789100Y-81259500D01*
X98785900Y-81259500D01*
X98697400Y-81171000D01*
X98350000Y-81169287D01*
X98280604Y-81176122D01*
X98213875Y-81196364D01*
X98152376Y-81229235D01*
X98098473Y-81273473D01*
X98054235Y-81327376D01*
X98021364Y-81388875D01*
X98001122Y-81455604D01*
X97994287Y-81525000D01*
X97994766Y-81632611D01*
X97994674Y-81631678D01*
X97961984Y-81523913D01*
X97908898Y-81424596D01*
X97837456Y-81337544D01*
X97750404Y-81266102D01*
X97651087Y-81213016D01*
X97543322Y-81180326D01*
X97431250Y-81169288D01*
X97059196Y-81169288D01*
X96729000Y-80839093D01*
X96729000Y-80655712D01*
X97050000Y-80655712D01*
X97119396Y-80648877D01*
X97186125Y-80628635D01*
X97247623Y-80595764D01*
X97301526Y-80551526D01*
X97345764Y-80497623D01*
X97378635Y-80436125D01*
X97398877Y-80369396D01*
X97405712Y-80300000D01*
X97405712Y-79603999D01*
X97751592Y-79603999D01*
X98344657Y-80197065D01*
X98359657Y-80215343D01*
X98402417Y-80250435D01*
X98432594Y-80275200D01*
X98515806Y-80319678D01*
X98515808Y-80319679D01*
X98598703Y-80344825D01*
X98601123Y-80369396D01*
X98621365Y-80436125D01*
X98654236Y-80497623D01*
X98698474Y-80551526D01*
X98752377Y-80595764D01*
X98813875Y-80628635D01*
X98880604Y-80648877D01*
X98950000Y-80655712D01*
X100550000Y-80655712D01*
X100619396Y-80648877D01*
X100686125Y-80628635D01*
X100747623Y-80595764D01*
X100801526Y-80551526D01*
X100845764Y-80497623D01*
X100878635Y-80436125D01*
X100898877Y-80369396D01*
X100905712Y-80300000D01*
X100905712Y-79450000D01*
X100898877Y-79380604D01*
X100878635Y-79313875D01*
X100845764Y-79252377D01*
X100801526Y-79198474D01*
X100747623Y-79154236D01*
X100686125Y-79121365D01*
X100619396Y-79101123D01*
X100550000Y-79094288D01*
X98950000Y-79094288D01*
X98880604Y-79101123D01*
X98813875Y-79121365D01*
X98752377Y-79154236D01*
X98699796Y-79197389D01*
X98305346Y-78802939D01*
X98290342Y-78784656D01*
X98217404Y-78724799D01*
X98134191Y-78680320D01*
X98043899Y-78652930D01*
X97973525Y-78645999D01*
X97973522Y-78645999D01*
X97949999Y-78643682D01*
X97926476Y-78645999D01*
X97390807Y-78645999D01*
X97398877Y-78619396D01*
X97405712Y-78550000D01*
X98594287Y-78550000D01*
X98601122Y-78619396D01*
X98621364Y-78686125D01*
X98654235Y-78747624D01*
X98698473Y-78801527D01*
X98752376Y-78845765D01*
X98813875Y-78878636D01*
X98880604Y-78898878D01*
X98950000Y-78905713D01*
X99659900Y-78904000D01*
X99748400Y-78815500D01*
X99748400Y-78126600D01*
X99751600Y-78126600D01*
X99751600Y-78815500D01*
X99840100Y-78904000D01*
X100550000Y-78905713D01*
X100619396Y-78898878D01*
X100686125Y-78878636D01*
X100747624Y-78845765D01*
X100801527Y-78801527D01*
X100845765Y-78747624D01*
X100878636Y-78686125D01*
X100898878Y-78619396D01*
X100905713Y-78550000D01*
X100904000Y-78215100D01*
X100815500Y-78126600D01*
X99751600Y-78126600D01*
X99748400Y-78126600D01*
X98684500Y-78126600D01*
X98596000Y-78215100D01*
X98594287Y-78550000D01*
X97405712Y-78550000D01*
X97405712Y-77700000D01*
X98594287Y-77700000D01*
X98596000Y-78034900D01*
X98684500Y-78123400D01*
X99748400Y-78123400D01*
X99748400Y-77434500D01*
X99751600Y-77434500D01*
X99751600Y-78123400D01*
X100815500Y-78123400D01*
X100904000Y-78034900D01*
X100905713Y-77700000D01*
X100898878Y-77630604D01*
X100878636Y-77563875D01*
X100845765Y-77502376D01*
X100801527Y-77448473D01*
X100747624Y-77404235D01*
X100686125Y-77371364D01*
X100619396Y-77351122D01*
X100550000Y-77344287D01*
X99840100Y-77346000D01*
X99751600Y-77434500D01*
X99748400Y-77434500D01*
X99659900Y-77346000D01*
X98950000Y-77344287D01*
X98880604Y-77351122D01*
X98813875Y-77371364D01*
X98752376Y-77404235D01*
X98698473Y-77448473D01*
X98654235Y-77502376D01*
X98621364Y-77563875D01*
X98601122Y-77630604D01*
X98594287Y-77700000D01*
X97405712Y-77700000D01*
X97398877Y-77630604D01*
X97378635Y-77563875D01*
X97345764Y-77502377D01*
X97301526Y-77448474D01*
X97247623Y-77404236D01*
X97186125Y-77371365D01*
X97119396Y-77351123D01*
X97050000Y-77344288D01*
X95450000Y-77344288D01*
X95380604Y-77351123D01*
X95313875Y-77371365D01*
X95252377Y-77404236D01*
X95198474Y-77448474D01*
X95154236Y-77502377D01*
X95121365Y-77563875D01*
X95101123Y-77630604D01*
X95099607Y-77646000D01*
X84898523Y-77646000D01*
X84875000Y-77643683D01*
X84851477Y-77646000D01*
X84851474Y-77646000D01*
X84781100Y-77652931D01*
X84690808Y-77680321D01*
X84607594Y-77724800D01*
X84577417Y-77749565D01*
X84534657Y-77784657D01*
X84519657Y-77802935D01*
X82926593Y-79396000D01*
X73900393Y-79396000D01*
X73898877Y-79380604D01*
X73878635Y-79313875D01*
X73845764Y-79252377D01*
X73801526Y-79198474D01*
X73747623Y-79154236D01*
X73686125Y-79121365D01*
X73619396Y-79101123D01*
X73550000Y-79094288D01*
X71950000Y-79094288D01*
X71880604Y-79101123D01*
X71813875Y-79121365D01*
X71752377Y-79154236D01*
X71698474Y-79198474D01*
X71654236Y-79252377D01*
X71621365Y-79313875D01*
X71601123Y-79380604D01*
X71594288Y-79450000D01*
X71594288Y-80300000D01*
X71601123Y-80369396D01*
X71621365Y-80436125D01*
X71654236Y-80497623D01*
X71698474Y-80551526D01*
X71752377Y-80595764D01*
X71813875Y-80628635D01*
X71880604Y-80648877D01*
X71950000Y-80655712D01*
X73550000Y-80655712D01*
X73619396Y-80648877D01*
X73686125Y-80628635D01*
X73747623Y-80595764D01*
X73801526Y-80551526D01*
X73845764Y-80497623D01*
X73878635Y-80436125D01*
X73898877Y-80369396D01*
X73900393Y-80354000D01*
X82605002Y-80354000D01*
X80063004Y-82895999D01*
X71221525Y-82895999D01*
X71198004Y-82893682D01*
X71174483Y-82895999D01*
X71174479Y-82895999D01*
X71104105Y-82902930D01*
X71013813Y-82930320D01*
X70988570Y-82943813D01*
X70948228Y-82965376D01*
X70918186Y-82892847D01*
X70835670Y-82769353D01*
X70777762Y-82711445D01*
X70837456Y-82662456D01*
X70908898Y-82575404D01*
X70961984Y-82476087D01*
X70994674Y-82368322D01*
X70994766Y-82367389D01*
X70994287Y-82475000D01*
X71001122Y-82544396D01*
X71021364Y-82611125D01*
X71054235Y-82672624D01*
X71098473Y-82726527D01*
X71152376Y-82770765D01*
X71213875Y-82803636D01*
X71280604Y-82823878D01*
X71350000Y-82830713D01*
X71697400Y-82829000D01*
X71785900Y-82740500D01*
X71785900Y-82001600D01*
X71789100Y-82001600D01*
X71789100Y-82740500D01*
X71877600Y-82829000D01*
X72225000Y-82830713D01*
X72294396Y-82823878D01*
X72361125Y-82803636D01*
X72422624Y-82770765D01*
X72476527Y-82726527D01*
X72520765Y-82672624D01*
X72553636Y-82611125D01*
X72573878Y-82544396D01*
X72580713Y-82475000D01*
X72579000Y-82090100D01*
X72490500Y-82001600D01*
X71789100Y-82001600D01*
X71785900Y-82001600D01*
X71765900Y-82001600D01*
X71765900Y-81998400D01*
X71785900Y-81998400D01*
X71785900Y-81259500D01*
X71789100Y-81259500D01*
X71789100Y-81998400D01*
X72490500Y-81998400D01*
X72579000Y-81909900D01*
X72580713Y-81525000D01*
X72573878Y-81455604D01*
X72553636Y-81388875D01*
X72520765Y-81327376D01*
X72476527Y-81273473D01*
X72422624Y-81229235D01*
X72361125Y-81196364D01*
X72294396Y-81176122D01*
X72225000Y-81169287D01*
X71877600Y-81171000D01*
X71789100Y-81259500D01*
X71785900Y-81259500D01*
X71697400Y-81171000D01*
X71350000Y-81169287D01*
X71280604Y-81176122D01*
X71213875Y-81196364D01*
X71152376Y-81229235D01*
X71098473Y-81273473D01*
X71054235Y-81327376D01*
X71021364Y-81388875D01*
X71001122Y-81455604D01*
X70994287Y-81525000D01*
X70994766Y-81632611D01*
X70994674Y-81631678D01*
X70961984Y-81523913D01*
X70908898Y-81424596D01*
X70837456Y-81337544D01*
X70750404Y-81266102D01*
X70651087Y-81213016D01*
X70543322Y-81180326D01*
X70431250Y-81169288D01*
X70059195Y-81169288D01*
X69729000Y-80839093D01*
X69729000Y-80655712D01*
X70050000Y-80655712D01*
X70119396Y-80648877D01*
X70186125Y-80628635D01*
X70247623Y-80595764D01*
X70301526Y-80551526D01*
X70345764Y-80497623D01*
X70378635Y-80436125D01*
X70398877Y-80369396D01*
X70405712Y-80300000D01*
X70405712Y-79450000D01*
X70398877Y-79380604D01*
X70378635Y-79313875D01*
X70345764Y-79252377D01*
X70301526Y-79198474D01*
X70247623Y-79154236D01*
X70186125Y-79121365D01*
X70119396Y-79101123D01*
X70050000Y-79094288D01*
X68450000Y-79094288D01*
X68380604Y-79101123D01*
X68313875Y-79121365D01*
X68252377Y-79154236D01*
X68198474Y-79198474D01*
X68154236Y-79252377D01*
X68121365Y-79313875D01*
X68101123Y-79380604D01*
X68094288Y-79450000D01*
X68094288Y-80300000D01*
X68101123Y-80369396D01*
X68121365Y-80436125D01*
X68154236Y-80497623D01*
X68198474Y-80551526D01*
X68252377Y-80595764D01*
X68313875Y-80628635D01*
X68380604Y-80648877D01*
X68450000Y-80655712D01*
X68771001Y-80655712D01*
X68771001Y-81013967D01*
X68768683Y-81037500D01*
X68777932Y-81131400D01*
X68805322Y-81221692D01*
X68849800Y-81304905D01*
X68868242Y-81327376D01*
X68909658Y-81377843D01*
X68927936Y-81392843D01*
X69419288Y-81884196D01*
X69419288Y-82256250D01*
X69430326Y-82368322D01*
X69463016Y-82476087D01*
X69516102Y-82575404D01*
X69587544Y-82662456D01*
X69674596Y-82733898D01*
X69691011Y-82742672D01*
X69664330Y-82769353D01*
X69581814Y-82892847D01*
X69551771Y-82965376D01*
X69486187Y-82930320D01*
X69395895Y-82902930D01*
X69325521Y-82895999D01*
X69325518Y-82895999D01*
X69301995Y-82893682D01*
X69278472Y-82895999D01*
X57073524Y-82895999D01*
X57050001Y-82893682D01*
X57026478Y-82895999D01*
X57026475Y-82895999D01*
X56956101Y-82902930D01*
X56873681Y-82927932D01*
X56865809Y-82930320D01*
X56782595Y-82974799D01*
X56773096Y-82982595D01*
X56709658Y-83034656D01*
X56694661Y-83052931D01*
X56300204Y-83447389D01*
X56247623Y-83404236D01*
X56186125Y-83371365D01*
X56119396Y-83351123D01*
X56050000Y-83344288D01*
X54450000Y-83344288D01*
X54380604Y-83351123D01*
X54313875Y-83371365D01*
X54252377Y-83404236D01*
X54198474Y-83448474D01*
X54154236Y-83502377D01*
X54121365Y-83563875D01*
X54101123Y-83630604D01*
X54094288Y-83700000D01*
X51979000Y-83700000D01*
X51979000Y-73450000D01*
X54094288Y-73450000D01*
X54094288Y-74300000D01*
X54101123Y-74369396D01*
X54121365Y-74436125D01*
X54154236Y-74497623D01*
X54198474Y-74551526D01*
X54252377Y-74595764D01*
X54313875Y-74628635D01*
X54380604Y-74648877D01*
X54450000Y-74655712D01*
X54771001Y-74655712D01*
X54771001Y-75013967D01*
X54768683Y-75037500D01*
X54777932Y-75131400D01*
X54805322Y-75221692D01*
X54849800Y-75304905D01*
X54868242Y-75327376D01*
X54909658Y-75377843D01*
X54927936Y-75392843D01*
X55419288Y-75884196D01*
X55419288Y-76256250D01*
X55430326Y-76368322D01*
X55463016Y-76476087D01*
X55516102Y-76575404D01*
X55587544Y-76662456D01*
X55674596Y-76733898D01*
X55691011Y-76742672D01*
X55664330Y-76769353D01*
X55581814Y-76892847D01*
X55524976Y-77030066D01*
X55496000Y-77175738D01*
X55496000Y-77324262D01*
X55524976Y-77469934D01*
X55581814Y-77607153D01*
X55664330Y-77730647D01*
X55769353Y-77835670D01*
X55892847Y-77918186D01*
X56030066Y-77975024D01*
X56175738Y-78004000D01*
X56324262Y-78004000D01*
X56469934Y-77975024D01*
X56607153Y-77918186D01*
X56730647Y-77835670D01*
X56835670Y-77730647D01*
X56918186Y-77607153D01*
X56975024Y-77469934D01*
X57004000Y-77324262D01*
X57004000Y-77175738D01*
X56975024Y-77030066D01*
X56918186Y-76892847D01*
X56835670Y-76769353D01*
X56777762Y-76711445D01*
X56837456Y-76662456D01*
X56908898Y-76575404D01*
X56961984Y-76476087D01*
X56994674Y-76368322D01*
X56994766Y-76367389D01*
X56994287Y-76475000D01*
X57001122Y-76544396D01*
X57021364Y-76611125D01*
X57054235Y-76672624D01*
X57098473Y-76726527D01*
X57152376Y-76770765D01*
X57213875Y-76803636D01*
X57280604Y-76823878D01*
X57350000Y-76830713D01*
X57697400Y-76829000D01*
X57785900Y-76740500D01*
X57785900Y-76001600D01*
X57789100Y-76001600D01*
X57789100Y-76740500D01*
X57877600Y-76829000D01*
X58225000Y-76830713D01*
X58294396Y-76823878D01*
X58361125Y-76803636D01*
X58422624Y-76770765D01*
X58476527Y-76726527D01*
X58520765Y-76672624D01*
X58553636Y-76611125D01*
X58573878Y-76544396D01*
X58580713Y-76475000D01*
X58579000Y-76090100D01*
X58490500Y-76001600D01*
X57789100Y-76001600D01*
X57785900Y-76001600D01*
X57765900Y-76001600D01*
X57765900Y-75998400D01*
X57785900Y-75998400D01*
X57785900Y-75259500D01*
X57789100Y-75259500D01*
X57789100Y-75998400D01*
X58490500Y-75998400D01*
X58579000Y-75909900D01*
X58580713Y-75525000D01*
X58573878Y-75455604D01*
X58553636Y-75388875D01*
X58520765Y-75327376D01*
X58476527Y-75273473D01*
X58422624Y-75229235D01*
X58361125Y-75196364D01*
X58294396Y-75176122D01*
X58225000Y-75169287D01*
X57877600Y-75171000D01*
X57789100Y-75259500D01*
X57785900Y-75259500D01*
X57697400Y-75171000D01*
X57350000Y-75169287D01*
X57280604Y-75176122D01*
X57213875Y-75196364D01*
X57152376Y-75229235D01*
X57098473Y-75273473D01*
X57054235Y-75327376D01*
X57021364Y-75388875D01*
X57001122Y-75455604D01*
X56994287Y-75525000D01*
X56994766Y-75632611D01*
X56994674Y-75631678D01*
X56961984Y-75523913D01*
X56908898Y-75424596D01*
X56837456Y-75337544D01*
X56750404Y-75266102D01*
X56651087Y-75213016D01*
X56543322Y-75180326D01*
X56431250Y-75169288D01*
X56059195Y-75169288D01*
X55729000Y-74839093D01*
X55729000Y-74655712D01*
X56050000Y-74655712D01*
X56119396Y-74648877D01*
X56186125Y-74628635D01*
X56247623Y-74595764D01*
X56301526Y-74551526D01*
X56345764Y-74497623D01*
X56378635Y-74436125D01*
X56398877Y-74369396D01*
X56405712Y-74300000D01*
X56405712Y-73450000D01*
X57594288Y-73450000D01*
X57594288Y-74300000D01*
X57601123Y-74369396D01*
X57621365Y-74436125D01*
X57654236Y-74497623D01*
X57698474Y-74551526D01*
X57752377Y-74595764D01*
X57813875Y-74628635D01*
X57880604Y-74648877D01*
X57950000Y-74655712D01*
X59550000Y-74655712D01*
X59619396Y-74648877D01*
X59686125Y-74628635D01*
X59747623Y-74595764D01*
X59801526Y-74551526D01*
X59845764Y-74497623D01*
X59878635Y-74436125D01*
X59898877Y-74369396D01*
X59900393Y-74354000D01*
X70101477Y-74354000D01*
X70125000Y-74356317D01*
X70148523Y-74354000D01*
X70148526Y-74354000D01*
X70218900Y-74347069D01*
X70309192Y-74319679D01*
X70392405Y-74275200D01*
X70465343Y-74215343D01*
X70480347Y-74197060D01*
X72073408Y-72604000D01*
X81099607Y-72604000D01*
X81101123Y-72619396D01*
X81109193Y-72645999D01*
X73148524Y-72645999D01*
X73125001Y-72643682D01*
X73101478Y-72645999D01*
X73101475Y-72645999D01*
X73031101Y-72652930D01*
X72940809Y-72680320D01*
X72929949Y-72686125D01*
X72857595Y-72724799D01*
X72829784Y-72747623D01*
X72784658Y-72784656D01*
X72769658Y-72802934D01*
X68927940Y-76644653D01*
X68909657Y-76659657D01*
X68849800Y-76732595D01*
X68805321Y-76815809D01*
X68777931Y-76906101D01*
X68774091Y-76945095D01*
X68768683Y-77000000D01*
X68771000Y-77023524D01*
X68771000Y-77344288D01*
X68450000Y-77344288D01*
X68380604Y-77351123D01*
X68313875Y-77371365D01*
X68252377Y-77404236D01*
X68198474Y-77448474D01*
X68154236Y-77502377D01*
X68121365Y-77563875D01*
X68101123Y-77630604D01*
X68094288Y-77700000D01*
X68094288Y-78550000D01*
X68101123Y-78619396D01*
X68121365Y-78686125D01*
X68154236Y-78747623D01*
X68198474Y-78801526D01*
X68252377Y-78845764D01*
X68313875Y-78878635D01*
X68380604Y-78898877D01*
X68450000Y-78905712D01*
X70050000Y-78905712D01*
X70119396Y-78898877D01*
X70186125Y-78878635D01*
X70247623Y-78845764D01*
X70301526Y-78801526D01*
X70345764Y-78747623D01*
X70378635Y-78686125D01*
X70398877Y-78619396D01*
X70405712Y-78550000D01*
X71594287Y-78550000D01*
X71601122Y-78619396D01*
X71621364Y-78686125D01*
X71654235Y-78747624D01*
X71698473Y-78801527D01*
X71752376Y-78845765D01*
X71813875Y-78878636D01*
X71880604Y-78898878D01*
X71950000Y-78905713D01*
X72659900Y-78904000D01*
X72748400Y-78815500D01*
X72748400Y-78126600D01*
X72751600Y-78126600D01*
X72751600Y-78815500D01*
X72840100Y-78904000D01*
X73550000Y-78905713D01*
X73619396Y-78898878D01*
X73686125Y-78878636D01*
X73747624Y-78845765D01*
X73801527Y-78801527D01*
X73845765Y-78747624D01*
X73878636Y-78686125D01*
X73898878Y-78619396D01*
X73905713Y-78550000D01*
X73904000Y-78215100D01*
X73815500Y-78126600D01*
X72751600Y-78126600D01*
X72748400Y-78126600D01*
X71684500Y-78126600D01*
X71596000Y-78215100D01*
X71594287Y-78550000D01*
X70405712Y-78550000D01*
X70405712Y-77700000D01*
X71594287Y-77700000D01*
X71596000Y-78034900D01*
X71684500Y-78123400D01*
X72748400Y-78123400D01*
X72748400Y-77434500D01*
X72751600Y-77434500D01*
X72751600Y-78123400D01*
X73815500Y-78123400D01*
X73904000Y-78034900D01*
X73905713Y-77700000D01*
X73898878Y-77630604D01*
X73878636Y-77563875D01*
X73845765Y-77502376D01*
X73801527Y-77448473D01*
X73747624Y-77404235D01*
X73686125Y-77371364D01*
X73619396Y-77351122D01*
X73550000Y-77344287D01*
X72840100Y-77346000D01*
X72751600Y-77434500D01*
X72748400Y-77434500D01*
X72659900Y-77346000D01*
X71950000Y-77344287D01*
X71880604Y-77351122D01*
X71813875Y-77371364D01*
X71752376Y-77404235D01*
X71698473Y-77448473D01*
X71654235Y-77502376D01*
X71621364Y-77563875D01*
X71601122Y-77630604D01*
X71594287Y-77700000D01*
X70405712Y-77700000D01*
X70398877Y-77630604D01*
X70378635Y-77563875D01*
X70345764Y-77502377D01*
X70301526Y-77448474D01*
X70247623Y-77404236D01*
X70186125Y-77371365D01*
X70119396Y-77351123D01*
X70050000Y-77344288D01*
X69729000Y-77344288D01*
X69729000Y-77198407D01*
X73323409Y-73603999D01*
X81094288Y-73603999D01*
X81094288Y-74300000D01*
X81101123Y-74369396D01*
X81121365Y-74436125D01*
X81154236Y-74497623D01*
X81198474Y-74551526D01*
X81252377Y-74595764D01*
X81313875Y-74628635D01*
X81380604Y-74648877D01*
X81450000Y-74655712D01*
X81771001Y-74655712D01*
X81771001Y-75013967D01*
X81768683Y-75037500D01*
X81777932Y-75131400D01*
X81805322Y-75221692D01*
X81849800Y-75304905D01*
X81868242Y-75327376D01*
X81909658Y-75377843D01*
X81927936Y-75392843D01*
X82419288Y-75884196D01*
X82419288Y-76256250D01*
X82430326Y-76368322D01*
X82463016Y-76476087D01*
X82516102Y-76575404D01*
X82587544Y-76662456D01*
X82674596Y-76733898D01*
X82691011Y-76742672D01*
X82664330Y-76769353D01*
X82581814Y-76892847D01*
X82524976Y-77030066D01*
X82496000Y-77175738D01*
X82496000Y-77324262D01*
X82524976Y-77469934D01*
X82581814Y-77607153D01*
X82664330Y-77730647D01*
X82769353Y-77835670D01*
X82892847Y-77918186D01*
X83030066Y-77975024D01*
X83175738Y-78004000D01*
X83324262Y-78004000D01*
X83469934Y-77975024D01*
X83607153Y-77918186D01*
X83730647Y-77835670D01*
X83835670Y-77730647D01*
X83918186Y-77607153D01*
X83975024Y-77469934D01*
X84004000Y-77324262D01*
X84004000Y-77175738D01*
X83975024Y-77030066D01*
X83918186Y-76892847D01*
X83835670Y-76769353D01*
X83777762Y-76711445D01*
X83837456Y-76662456D01*
X83908898Y-76575404D01*
X83961984Y-76476087D01*
X83994674Y-76368322D01*
X83994766Y-76367389D01*
X83994287Y-76475000D01*
X84001122Y-76544396D01*
X84021364Y-76611125D01*
X84054235Y-76672624D01*
X84098473Y-76726527D01*
X84152376Y-76770765D01*
X84213875Y-76803636D01*
X84280604Y-76823878D01*
X84350000Y-76830713D01*
X84697400Y-76829000D01*
X84785900Y-76740500D01*
X84785900Y-76001600D01*
X84789100Y-76001600D01*
X84789100Y-76740500D01*
X84877600Y-76829000D01*
X85225000Y-76830713D01*
X85294396Y-76823878D01*
X85361125Y-76803636D01*
X85422624Y-76770765D01*
X85476527Y-76726527D01*
X85520765Y-76672624D01*
X85553636Y-76611125D01*
X85573878Y-76544396D01*
X85580713Y-76475000D01*
X85579000Y-76090100D01*
X85490500Y-76001600D01*
X84789100Y-76001600D01*
X84785900Y-76001600D01*
X84765900Y-76001600D01*
X84765900Y-75998400D01*
X84785900Y-75998400D01*
X84785900Y-75259500D01*
X84789100Y-75259500D01*
X84789100Y-75998400D01*
X85490500Y-75998400D01*
X85579000Y-75909900D01*
X85580713Y-75525000D01*
X85573878Y-75455604D01*
X85553636Y-75388875D01*
X85520765Y-75327376D01*
X85476527Y-75273473D01*
X85422624Y-75229235D01*
X85361125Y-75196364D01*
X85294396Y-75176122D01*
X85225000Y-75169287D01*
X84877600Y-75171000D01*
X84789100Y-75259500D01*
X84785900Y-75259500D01*
X84697400Y-75171000D01*
X84350000Y-75169287D01*
X84280604Y-75176122D01*
X84213875Y-75196364D01*
X84152376Y-75229235D01*
X84098473Y-75273473D01*
X84054235Y-75327376D01*
X84021364Y-75388875D01*
X84001122Y-75455604D01*
X83994287Y-75525000D01*
X83994766Y-75632611D01*
X83994674Y-75631678D01*
X83961984Y-75523913D01*
X83908898Y-75424596D01*
X83837456Y-75337544D01*
X83750404Y-75266102D01*
X83651087Y-75213016D01*
X83543322Y-75180326D01*
X83431250Y-75169288D01*
X83059195Y-75169288D01*
X82729000Y-74839093D01*
X82729000Y-74655712D01*
X83050000Y-74655712D01*
X83119396Y-74648877D01*
X83186125Y-74628635D01*
X83247623Y-74595764D01*
X83301526Y-74551526D01*
X83345764Y-74497623D01*
X83378635Y-74436125D01*
X83398877Y-74369396D01*
X83405712Y-74300000D01*
X83405712Y-73603999D01*
X83751592Y-73603999D01*
X84344657Y-74197065D01*
X84359657Y-74215343D01*
X84402417Y-74250435D01*
X84432594Y-74275200D01*
X84515806Y-74319678D01*
X84515808Y-74319679D01*
X84598703Y-74344825D01*
X84601123Y-74369396D01*
X84621365Y-74436125D01*
X84654236Y-74497623D01*
X84698474Y-74551526D01*
X84752377Y-74595764D01*
X84813875Y-74628635D01*
X84880604Y-74648877D01*
X84950000Y-74655712D01*
X86550000Y-74655712D01*
X86619396Y-74648877D01*
X86686125Y-74628635D01*
X86747623Y-74595764D01*
X86801526Y-74551526D01*
X86845764Y-74497623D01*
X86878635Y-74436125D01*
X86898877Y-74369396D01*
X86905712Y-74300000D01*
X86905712Y-73450000D01*
X86898877Y-73380604D01*
X86878635Y-73313875D01*
X86845764Y-73252377D01*
X86801526Y-73198474D01*
X86747623Y-73154236D01*
X86686125Y-73121365D01*
X86619396Y-73101123D01*
X86550000Y-73094288D01*
X84950000Y-73094288D01*
X84880604Y-73101123D01*
X84813875Y-73121365D01*
X84752377Y-73154236D01*
X84699796Y-73197389D01*
X84305346Y-72802939D01*
X84290342Y-72784656D01*
X84217404Y-72724799D01*
X84134191Y-72680320D01*
X84043899Y-72652930D01*
X83973525Y-72645999D01*
X83973522Y-72645999D01*
X83949999Y-72643682D01*
X83926476Y-72645999D01*
X83390807Y-72645999D01*
X83398877Y-72619396D01*
X83405712Y-72550000D01*
X84594287Y-72550000D01*
X84601122Y-72619396D01*
X84621364Y-72686125D01*
X84654235Y-72747624D01*
X84698473Y-72801527D01*
X84752376Y-72845765D01*
X84813875Y-72878636D01*
X84880604Y-72898878D01*
X84950000Y-72905713D01*
X85659900Y-72904000D01*
X85748400Y-72815500D01*
X85748400Y-72126600D01*
X85751600Y-72126600D01*
X85751600Y-72815500D01*
X85840100Y-72904000D01*
X86550000Y-72905713D01*
X86619396Y-72898878D01*
X86686125Y-72878636D01*
X86747624Y-72845765D01*
X86801527Y-72801527D01*
X86845765Y-72747624D01*
X86878636Y-72686125D01*
X86898878Y-72619396D01*
X86905713Y-72550000D01*
X86904000Y-72215100D01*
X86815500Y-72126600D01*
X85751600Y-72126600D01*
X85748400Y-72126600D01*
X84684500Y-72126600D01*
X84596000Y-72215100D01*
X84594287Y-72550000D01*
X83405712Y-72550000D01*
X83405712Y-71700000D01*
X84594287Y-71700000D01*
X84596000Y-72034900D01*
X84684500Y-72123400D01*
X85748400Y-72123400D01*
X85748400Y-71434500D01*
X85751600Y-71434500D01*
X85751600Y-72123400D01*
X86815500Y-72123400D01*
X86904000Y-72034900D01*
X86905713Y-71700000D01*
X86898878Y-71630604D01*
X86878636Y-71563875D01*
X86845765Y-71502376D01*
X86801527Y-71448473D01*
X86747624Y-71404235D01*
X86686125Y-71371364D01*
X86619396Y-71351122D01*
X86550000Y-71344287D01*
X85840100Y-71346000D01*
X85751600Y-71434500D01*
X85748400Y-71434500D01*
X85659900Y-71346000D01*
X84950000Y-71344287D01*
X84880604Y-71351122D01*
X84813875Y-71371364D01*
X84752376Y-71404235D01*
X84698473Y-71448473D01*
X84654235Y-71502376D01*
X84621364Y-71563875D01*
X84601122Y-71630604D01*
X84594287Y-71700000D01*
X83405712Y-71700000D01*
X83398877Y-71630604D01*
X83378635Y-71563875D01*
X83345764Y-71502377D01*
X83301526Y-71448474D01*
X83247623Y-71404236D01*
X83186125Y-71371365D01*
X83119396Y-71351123D01*
X83050000Y-71344288D01*
X81450000Y-71344288D01*
X81380604Y-71351123D01*
X81313875Y-71371365D01*
X81252377Y-71404236D01*
X81198474Y-71448474D01*
X81154236Y-71502377D01*
X81121365Y-71563875D01*
X81101123Y-71630604D01*
X81099607Y-71646000D01*
X71898523Y-71646000D01*
X71875000Y-71643683D01*
X71851477Y-71646000D01*
X71851474Y-71646000D01*
X71781100Y-71652931D01*
X71690808Y-71680321D01*
X71607594Y-71724800D01*
X71577417Y-71749565D01*
X71534657Y-71784657D01*
X71519657Y-71802935D01*
X69926593Y-73396000D01*
X59900393Y-73396000D01*
X59898877Y-73380604D01*
X59878635Y-73313875D01*
X59845764Y-73252377D01*
X59801526Y-73198474D01*
X59747623Y-73154236D01*
X59686125Y-73121365D01*
X59619396Y-73101123D01*
X59550000Y-73094288D01*
X57950000Y-73094288D01*
X57880604Y-73101123D01*
X57813875Y-73121365D01*
X57752377Y-73154236D01*
X57698474Y-73198474D01*
X57654236Y-73252377D01*
X57621365Y-73313875D01*
X57601123Y-73380604D01*
X57594288Y-73450000D01*
X56405712Y-73450000D01*
X56398877Y-73380604D01*
X56378635Y-73313875D01*
X56345764Y-73252377D01*
X56301526Y-73198474D01*
X56247623Y-73154236D01*
X56186125Y-73121365D01*
X56119396Y-73101123D01*
X56050000Y-73094288D01*
X54450000Y-73094288D01*
X54380604Y-73101123D01*
X54313875Y-73121365D01*
X54252377Y-73154236D01*
X54198474Y-73198474D01*
X54154236Y-73252377D01*
X54121365Y-73313875D01*
X54101123Y-73380604D01*
X54094288Y-73450000D01*
X51979000Y-73450000D01*
X51979000Y-67448407D01*
X55323408Y-64104000D01*
X62000000Y-64104000D01*
X62069062Y-64097198D01*
X62135470Y-64077053D01*
X62196672Y-64044340D01*
X62250316Y-64000316D01*
X62294340Y-63946672D01*
X62327053Y-63885470D01*
X62347198Y-63819062D01*
X62354000Y-63750000D01*
X62354000Y-59629000D01*
X69621000Y-59629000D01*
X69621001Y-62981380D01*
M02*
