G04 #@! TF.GenerationSoftware,KiCad,Pcbnew,(5.1.4)-1*
G04 #@! TF.CreationDate,2019-10-14T20:14:25-04:00*
G04 #@! TF.ProjectId,badger-badge,62616467-6572-42d6-9261-6467652e6b69,rev?*
G04 #@! TF.SameCoordinates,Original*
G04 #@! TF.FileFunction,Soldermask,Top*
G04 #@! TF.FilePolarity,Negative*
%FSLAX46Y46*%
G04 Gerber Fmt 4.6, Leading zero omitted, Abs format (unit mm)*
G04 Created by KiCad (PCBNEW (5.1.4)-1) date 2019-10-14 20:14:25*
%MOMM*%
%LPD*%
G04 APERTURE LIST*
%ADD10C,0.100000*%
G04 APERTURE END LIST*
D10*
G36*
X58129591Y-99478085D02*
G01*
X58163569Y-99488393D01*
X58194890Y-99505134D01*
X58222339Y-99527661D01*
X58244866Y-99555110D01*
X58261607Y-99586431D01*
X58271915Y-99620409D01*
X58276000Y-99661890D01*
X58276000Y-100338110D01*
X58271915Y-100379591D01*
X58261607Y-100413569D01*
X58244866Y-100444890D01*
X58222339Y-100472339D01*
X58194890Y-100494866D01*
X58163569Y-100511607D01*
X58129591Y-100521915D01*
X58088110Y-100526000D01*
X57486890Y-100526000D01*
X57445409Y-100521915D01*
X57411431Y-100511607D01*
X57380110Y-100494866D01*
X57352661Y-100472339D01*
X57330134Y-100444890D01*
X57313393Y-100413569D01*
X57303085Y-100379591D01*
X57299000Y-100338110D01*
X57299000Y-99661890D01*
X57303085Y-99620409D01*
X57313393Y-99586431D01*
X57330134Y-99555110D01*
X57352661Y-99527661D01*
X57380110Y-99505134D01*
X57411431Y-99488393D01*
X57445409Y-99478085D01*
X57486890Y-99474000D01*
X58088110Y-99474000D01*
X58129591Y-99478085D01*
X58129591Y-99478085D01*
G37*
G36*
X56554591Y-99478085D02*
G01*
X56588569Y-99488393D01*
X56619890Y-99505134D01*
X56647339Y-99527661D01*
X56669866Y-99555110D01*
X56686607Y-99586431D01*
X56696915Y-99620409D01*
X56701000Y-99661890D01*
X56701000Y-100338110D01*
X56696915Y-100379591D01*
X56686607Y-100413569D01*
X56669866Y-100444890D01*
X56647339Y-100472339D01*
X56619890Y-100494866D01*
X56588569Y-100511607D01*
X56554591Y-100521915D01*
X56513110Y-100526000D01*
X55911890Y-100526000D01*
X55870409Y-100521915D01*
X55836431Y-100511607D01*
X55805110Y-100494866D01*
X55777661Y-100472339D01*
X55755134Y-100444890D01*
X55738393Y-100413569D01*
X55728085Y-100379591D01*
X55724000Y-100338110D01*
X55724000Y-99661890D01*
X55728085Y-99620409D01*
X55738393Y-99586431D01*
X55755134Y-99555110D01*
X55777661Y-99527661D01*
X55805110Y-99505134D01*
X55836431Y-99488393D01*
X55870409Y-99478085D01*
X55911890Y-99474000D01*
X56513110Y-99474000D01*
X56554591Y-99478085D01*
X56554591Y-99478085D01*
G37*
G36*
X85129591Y-99478085D02*
G01*
X85163569Y-99488393D01*
X85194890Y-99505134D01*
X85222339Y-99527661D01*
X85244866Y-99555110D01*
X85261607Y-99586431D01*
X85271915Y-99620409D01*
X85276000Y-99661890D01*
X85276000Y-100338110D01*
X85271915Y-100379591D01*
X85261607Y-100413569D01*
X85244866Y-100444890D01*
X85222339Y-100472339D01*
X85194890Y-100494866D01*
X85163569Y-100511607D01*
X85129591Y-100521915D01*
X85088110Y-100526000D01*
X84486890Y-100526000D01*
X84445409Y-100521915D01*
X84411431Y-100511607D01*
X84380110Y-100494866D01*
X84352661Y-100472339D01*
X84330134Y-100444890D01*
X84313393Y-100413569D01*
X84303085Y-100379591D01*
X84299000Y-100338110D01*
X84299000Y-99661890D01*
X84303085Y-99620409D01*
X84313393Y-99586431D01*
X84330134Y-99555110D01*
X84352661Y-99527661D01*
X84380110Y-99505134D01*
X84411431Y-99488393D01*
X84445409Y-99478085D01*
X84486890Y-99474000D01*
X85088110Y-99474000D01*
X85129591Y-99478085D01*
X85129591Y-99478085D01*
G37*
G36*
X83554591Y-99478085D02*
G01*
X83588569Y-99488393D01*
X83619890Y-99505134D01*
X83647339Y-99527661D01*
X83669866Y-99555110D01*
X83686607Y-99586431D01*
X83696915Y-99620409D01*
X83701000Y-99661890D01*
X83701000Y-100338110D01*
X83696915Y-100379591D01*
X83686607Y-100413569D01*
X83669866Y-100444890D01*
X83647339Y-100472339D01*
X83619890Y-100494866D01*
X83588569Y-100511607D01*
X83554591Y-100521915D01*
X83513110Y-100526000D01*
X82911890Y-100526000D01*
X82870409Y-100521915D01*
X82836431Y-100511607D01*
X82805110Y-100494866D01*
X82777661Y-100472339D01*
X82755134Y-100444890D01*
X82738393Y-100413569D01*
X82728085Y-100379591D01*
X82724000Y-100338110D01*
X82724000Y-99661890D01*
X82728085Y-99620409D01*
X82738393Y-99586431D01*
X82755134Y-99555110D01*
X82777661Y-99527661D01*
X82805110Y-99505134D01*
X82836431Y-99488393D01*
X82870409Y-99478085D01*
X82911890Y-99474000D01*
X83513110Y-99474000D01*
X83554591Y-99478085D01*
X83554591Y-99478085D01*
G37*
G36*
X86601000Y-98351000D02*
G01*
X84899000Y-98351000D01*
X84899000Y-97399000D01*
X86601000Y-97399000D01*
X86601000Y-98351000D01*
X86601000Y-98351000D01*
G37*
G36*
X56101000Y-98351000D02*
G01*
X54399000Y-98351000D01*
X54399000Y-97399000D01*
X56101000Y-97399000D01*
X56101000Y-98351000D01*
X56101000Y-98351000D01*
G37*
G36*
X59601000Y-98351000D02*
G01*
X57899000Y-98351000D01*
X57899000Y-97399000D01*
X59601000Y-97399000D01*
X59601000Y-98351000D01*
X59601000Y-98351000D01*
G37*
G36*
X83101000Y-98351000D02*
G01*
X81399000Y-98351000D01*
X81399000Y-97399000D01*
X83101000Y-97399000D01*
X83101000Y-98351000D01*
X83101000Y-98351000D01*
G37*
G36*
X56101000Y-96601000D02*
G01*
X54399000Y-96601000D01*
X54399000Y-95649000D01*
X56101000Y-95649000D01*
X56101000Y-96601000D01*
X56101000Y-96601000D01*
G37*
G36*
X86601000Y-96601000D02*
G01*
X84899000Y-96601000D01*
X84899000Y-95649000D01*
X86601000Y-95649000D01*
X86601000Y-96601000D01*
X86601000Y-96601000D01*
G37*
G36*
X59601000Y-96601000D02*
G01*
X57899000Y-96601000D01*
X57899000Y-95649000D01*
X59601000Y-95649000D01*
X59601000Y-96601000D01*
X59601000Y-96601000D01*
G37*
G36*
X83101000Y-96601000D02*
G01*
X81399000Y-96601000D01*
X81399000Y-95649000D01*
X83101000Y-95649000D01*
X83101000Y-96601000D01*
X83101000Y-96601000D01*
G37*
G36*
X70554591Y-93478085D02*
G01*
X70588569Y-93488393D01*
X70619890Y-93505134D01*
X70647339Y-93527661D01*
X70669866Y-93555110D01*
X70686607Y-93586431D01*
X70696915Y-93620409D01*
X70701000Y-93661890D01*
X70701000Y-94338110D01*
X70696915Y-94379591D01*
X70686607Y-94413569D01*
X70669866Y-94444890D01*
X70647339Y-94472339D01*
X70619890Y-94494866D01*
X70588569Y-94511607D01*
X70554591Y-94521915D01*
X70513110Y-94526000D01*
X69911890Y-94526000D01*
X69870409Y-94521915D01*
X69836431Y-94511607D01*
X69805110Y-94494866D01*
X69777661Y-94472339D01*
X69755134Y-94444890D01*
X69738393Y-94413569D01*
X69728085Y-94379591D01*
X69724000Y-94338110D01*
X69724000Y-93661890D01*
X69728085Y-93620409D01*
X69738393Y-93586431D01*
X69755134Y-93555110D01*
X69777661Y-93527661D01*
X69805110Y-93505134D01*
X69836431Y-93488393D01*
X69870409Y-93478085D01*
X69911890Y-93474000D01*
X70513110Y-93474000D01*
X70554591Y-93478085D01*
X70554591Y-93478085D01*
G37*
G36*
X72129591Y-93478085D02*
G01*
X72163569Y-93488393D01*
X72194890Y-93505134D01*
X72222339Y-93527661D01*
X72244866Y-93555110D01*
X72261607Y-93586431D01*
X72271915Y-93620409D01*
X72276000Y-93661890D01*
X72276000Y-94338110D01*
X72271915Y-94379591D01*
X72261607Y-94413569D01*
X72244866Y-94444890D01*
X72222339Y-94472339D01*
X72194890Y-94494866D01*
X72163569Y-94511607D01*
X72129591Y-94521915D01*
X72088110Y-94526000D01*
X71486890Y-94526000D01*
X71445409Y-94521915D01*
X71411431Y-94511607D01*
X71380110Y-94494866D01*
X71352661Y-94472339D01*
X71330134Y-94444890D01*
X71313393Y-94413569D01*
X71303085Y-94379591D01*
X71299000Y-94338110D01*
X71299000Y-93661890D01*
X71303085Y-93620409D01*
X71313393Y-93586431D01*
X71330134Y-93555110D01*
X71352661Y-93527661D01*
X71380110Y-93505134D01*
X71411431Y-93488393D01*
X71445409Y-93478085D01*
X71486890Y-93474000D01*
X72088110Y-93474000D01*
X72129591Y-93478085D01*
X72129591Y-93478085D01*
G37*
G36*
X99129591Y-93478085D02*
G01*
X99163569Y-93488393D01*
X99194890Y-93505134D01*
X99222339Y-93527661D01*
X99244866Y-93555110D01*
X99261607Y-93586431D01*
X99271915Y-93620409D01*
X99276000Y-93661890D01*
X99276000Y-94338110D01*
X99271915Y-94379591D01*
X99261607Y-94413569D01*
X99244866Y-94444890D01*
X99222339Y-94472339D01*
X99194890Y-94494866D01*
X99163569Y-94511607D01*
X99129591Y-94521915D01*
X99088110Y-94526000D01*
X98486890Y-94526000D01*
X98445409Y-94521915D01*
X98411431Y-94511607D01*
X98380110Y-94494866D01*
X98352661Y-94472339D01*
X98330134Y-94444890D01*
X98313393Y-94413569D01*
X98303085Y-94379591D01*
X98299000Y-94338110D01*
X98299000Y-93661890D01*
X98303085Y-93620409D01*
X98313393Y-93586431D01*
X98330134Y-93555110D01*
X98352661Y-93527661D01*
X98380110Y-93505134D01*
X98411431Y-93488393D01*
X98445409Y-93478085D01*
X98486890Y-93474000D01*
X99088110Y-93474000D01*
X99129591Y-93478085D01*
X99129591Y-93478085D01*
G37*
G36*
X97554591Y-93478085D02*
G01*
X97588569Y-93488393D01*
X97619890Y-93505134D01*
X97647339Y-93527661D01*
X97669866Y-93555110D01*
X97686607Y-93586431D01*
X97696915Y-93620409D01*
X97701000Y-93661890D01*
X97701000Y-94338110D01*
X97696915Y-94379591D01*
X97686607Y-94413569D01*
X97669866Y-94444890D01*
X97647339Y-94472339D01*
X97619890Y-94494866D01*
X97588569Y-94511607D01*
X97554591Y-94521915D01*
X97513110Y-94526000D01*
X96911890Y-94526000D01*
X96870409Y-94521915D01*
X96836431Y-94511607D01*
X96805110Y-94494866D01*
X96777661Y-94472339D01*
X96755134Y-94444890D01*
X96738393Y-94413569D01*
X96728085Y-94379591D01*
X96724000Y-94338110D01*
X96724000Y-93661890D01*
X96728085Y-93620409D01*
X96738393Y-93586431D01*
X96755134Y-93555110D01*
X96777661Y-93527661D01*
X96805110Y-93505134D01*
X96836431Y-93488393D01*
X96870409Y-93478085D01*
X96911890Y-93474000D01*
X97513110Y-93474000D01*
X97554591Y-93478085D01*
X97554591Y-93478085D01*
G37*
G36*
X100601000Y-92351000D02*
G01*
X98899000Y-92351000D01*
X98899000Y-91399000D01*
X100601000Y-91399000D01*
X100601000Y-92351000D01*
X100601000Y-92351000D01*
G37*
G36*
X97101000Y-92351000D02*
G01*
X95399000Y-92351000D01*
X95399000Y-91399000D01*
X97101000Y-91399000D01*
X97101000Y-92351000D01*
X97101000Y-92351000D01*
G37*
G36*
X73601000Y-92351000D02*
G01*
X71899000Y-92351000D01*
X71899000Y-91399000D01*
X73601000Y-91399000D01*
X73601000Y-92351000D01*
X73601000Y-92351000D01*
G37*
G36*
X70101000Y-92351000D02*
G01*
X68399000Y-92351000D01*
X68399000Y-91399000D01*
X70101000Y-91399000D01*
X70101000Y-92351000D01*
X70101000Y-92351000D01*
G37*
G36*
X100601000Y-90601000D02*
G01*
X98899000Y-90601000D01*
X98899000Y-89649000D01*
X100601000Y-89649000D01*
X100601000Y-90601000D01*
X100601000Y-90601000D01*
G37*
G36*
X97101000Y-90601000D02*
G01*
X95399000Y-90601000D01*
X95399000Y-89649000D01*
X97101000Y-89649000D01*
X97101000Y-90601000D01*
X97101000Y-90601000D01*
G37*
G36*
X73601000Y-90601000D02*
G01*
X71899000Y-90601000D01*
X71899000Y-89649000D01*
X73601000Y-89649000D01*
X73601000Y-90601000D01*
X73601000Y-90601000D01*
G37*
G36*
X70101000Y-90601000D02*
G01*
X68399000Y-90601000D01*
X68399000Y-89649000D01*
X70101000Y-89649000D01*
X70101000Y-90601000D01*
X70101000Y-90601000D01*
G37*
G36*
X83554591Y-87478085D02*
G01*
X83588569Y-87488393D01*
X83619890Y-87505134D01*
X83647339Y-87527661D01*
X83669866Y-87555110D01*
X83686607Y-87586431D01*
X83696915Y-87620409D01*
X83701000Y-87661890D01*
X83701000Y-88338110D01*
X83696915Y-88379591D01*
X83686607Y-88413569D01*
X83669866Y-88444890D01*
X83647339Y-88472339D01*
X83619890Y-88494866D01*
X83588569Y-88511607D01*
X83554591Y-88521915D01*
X83513110Y-88526000D01*
X82911890Y-88526000D01*
X82870409Y-88521915D01*
X82836431Y-88511607D01*
X82805110Y-88494866D01*
X82777661Y-88472339D01*
X82755134Y-88444890D01*
X82738393Y-88413569D01*
X82728085Y-88379591D01*
X82724000Y-88338110D01*
X82724000Y-87661890D01*
X82728085Y-87620409D01*
X82738393Y-87586431D01*
X82755134Y-87555110D01*
X82777661Y-87527661D01*
X82805110Y-87505134D01*
X82836431Y-87488393D01*
X82870409Y-87478085D01*
X82911890Y-87474000D01*
X83513110Y-87474000D01*
X83554591Y-87478085D01*
X83554591Y-87478085D01*
G37*
G36*
X85129591Y-87478085D02*
G01*
X85163569Y-87488393D01*
X85194890Y-87505134D01*
X85222339Y-87527661D01*
X85244866Y-87555110D01*
X85261607Y-87586431D01*
X85271915Y-87620409D01*
X85276000Y-87661890D01*
X85276000Y-88338110D01*
X85271915Y-88379591D01*
X85261607Y-88413569D01*
X85244866Y-88444890D01*
X85222339Y-88472339D01*
X85194890Y-88494866D01*
X85163569Y-88511607D01*
X85129591Y-88521915D01*
X85088110Y-88526000D01*
X84486890Y-88526000D01*
X84445409Y-88521915D01*
X84411431Y-88511607D01*
X84380110Y-88494866D01*
X84352661Y-88472339D01*
X84330134Y-88444890D01*
X84313393Y-88413569D01*
X84303085Y-88379591D01*
X84299000Y-88338110D01*
X84299000Y-87661890D01*
X84303085Y-87620409D01*
X84313393Y-87586431D01*
X84330134Y-87555110D01*
X84352661Y-87527661D01*
X84380110Y-87505134D01*
X84411431Y-87488393D01*
X84445409Y-87478085D01*
X84486890Y-87474000D01*
X85088110Y-87474000D01*
X85129591Y-87478085D01*
X85129591Y-87478085D01*
G37*
G36*
X58129591Y-87478085D02*
G01*
X58163569Y-87488393D01*
X58194890Y-87505134D01*
X58222339Y-87527661D01*
X58244866Y-87555110D01*
X58261607Y-87586431D01*
X58271915Y-87620409D01*
X58276000Y-87661890D01*
X58276000Y-88338110D01*
X58271915Y-88379591D01*
X58261607Y-88413569D01*
X58244866Y-88444890D01*
X58222339Y-88472339D01*
X58194890Y-88494866D01*
X58163569Y-88511607D01*
X58129591Y-88521915D01*
X58088110Y-88526000D01*
X57486890Y-88526000D01*
X57445409Y-88521915D01*
X57411431Y-88511607D01*
X57380110Y-88494866D01*
X57352661Y-88472339D01*
X57330134Y-88444890D01*
X57313393Y-88413569D01*
X57303085Y-88379591D01*
X57299000Y-88338110D01*
X57299000Y-87661890D01*
X57303085Y-87620409D01*
X57313393Y-87586431D01*
X57330134Y-87555110D01*
X57352661Y-87527661D01*
X57380110Y-87505134D01*
X57411431Y-87488393D01*
X57445409Y-87478085D01*
X57486890Y-87474000D01*
X58088110Y-87474000D01*
X58129591Y-87478085D01*
X58129591Y-87478085D01*
G37*
G36*
X56554591Y-87478085D02*
G01*
X56588569Y-87488393D01*
X56619890Y-87505134D01*
X56647339Y-87527661D01*
X56669866Y-87555110D01*
X56686607Y-87586431D01*
X56696915Y-87620409D01*
X56701000Y-87661890D01*
X56701000Y-88338110D01*
X56696915Y-88379591D01*
X56686607Y-88413569D01*
X56669866Y-88444890D01*
X56647339Y-88472339D01*
X56619890Y-88494866D01*
X56588569Y-88511607D01*
X56554591Y-88521915D01*
X56513110Y-88526000D01*
X55911890Y-88526000D01*
X55870409Y-88521915D01*
X55836431Y-88511607D01*
X55805110Y-88494866D01*
X55777661Y-88472339D01*
X55755134Y-88444890D01*
X55738393Y-88413569D01*
X55728085Y-88379591D01*
X55724000Y-88338110D01*
X55724000Y-87661890D01*
X55728085Y-87620409D01*
X55738393Y-87586431D01*
X55755134Y-87555110D01*
X55777661Y-87527661D01*
X55805110Y-87505134D01*
X55836431Y-87488393D01*
X55870409Y-87478085D01*
X55911890Y-87474000D01*
X56513110Y-87474000D01*
X56554591Y-87478085D01*
X56554591Y-87478085D01*
G37*
G36*
X56101000Y-86351000D02*
G01*
X54399000Y-86351000D01*
X54399000Y-85399000D01*
X56101000Y-85399000D01*
X56101000Y-86351000D01*
X56101000Y-86351000D01*
G37*
G36*
X59601000Y-86351000D02*
G01*
X57899000Y-86351000D01*
X57899000Y-85399000D01*
X59601000Y-85399000D01*
X59601000Y-86351000D01*
X59601000Y-86351000D01*
G37*
G36*
X86601000Y-86351000D02*
G01*
X84899000Y-86351000D01*
X84899000Y-85399000D01*
X86601000Y-85399000D01*
X86601000Y-86351000D01*
X86601000Y-86351000D01*
G37*
G36*
X83101000Y-86351000D02*
G01*
X81399000Y-86351000D01*
X81399000Y-85399000D01*
X83101000Y-85399000D01*
X83101000Y-86351000D01*
X83101000Y-86351000D01*
G37*
G36*
X86601000Y-84601000D02*
G01*
X84899000Y-84601000D01*
X84899000Y-83649000D01*
X86601000Y-83649000D01*
X86601000Y-84601000D01*
X86601000Y-84601000D01*
G37*
G36*
X83101000Y-84601000D02*
G01*
X81399000Y-84601000D01*
X81399000Y-83649000D01*
X83101000Y-83649000D01*
X83101000Y-84601000D01*
X83101000Y-84601000D01*
G37*
G36*
X59601000Y-84601000D02*
G01*
X57899000Y-84601000D01*
X57899000Y-83649000D01*
X59601000Y-83649000D01*
X59601000Y-84601000D01*
X59601000Y-84601000D01*
G37*
G36*
X56101000Y-84601000D02*
G01*
X54399000Y-84601000D01*
X54399000Y-83649000D01*
X56101000Y-83649000D01*
X56101000Y-84601000D01*
X56101000Y-84601000D01*
G37*
G36*
X99129591Y-81478085D02*
G01*
X99163569Y-81488393D01*
X99194890Y-81505134D01*
X99222339Y-81527661D01*
X99244866Y-81555110D01*
X99261607Y-81586431D01*
X99271915Y-81620409D01*
X99276000Y-81661890D01*
X99276000Y-82338110D01*
X99271915Y-82379591D01*
X99261607Y-82413569D01*
X99244866Y-82444890D01*
X99222339Y-82472339D01*
X99194890Y-82494866D01*
X99163569Y-82511607D01*
X99129591Y-82521915D01*
X99088110Y-82526000D01*
X98486890Y-82526000D01*
X98445409Y-82521915D01*
X98411431Y-82511607D01*
X98380110Y-82494866D01*
X98352661Y-82472339D01*
X98330134Y-82444890D01*
X98313393Y-82413569D01*
X98303085Y-82379591D01*
X98299000Y-82338110D01*
X98299000Y-81661890D01*
X98303085Y-81620409D01*
X98313393Y-81586431D01*
X98330134Y-81555110D01*
X98352661Y-81527661D01*
X98380110Y-81505134D01*
X98411431Y-81488393D01*
X98445409Y-81478085D01*
X98486890Y-81474000D01*
X99088110Y-81474000D01*
X99129591Y-81478085D01*
X99129591Y-81478085D01*
G37*
G36*
X97554591Y-81478085D02*
G01*
X97588569Y-81488393D01*
X97619890Y-81505134D01*
X97647339Y-81527661D01*
X97669866Y-81555110D01*
X97686607Y-81586431D01*
X97696915Y-81620409D01*
X97701000Y-81661890D01*
X97701000Y-82338110D01*
X97696915Y-82379591D01*
X97686607Y-82413569D01*
X97669866Y-82444890D01*
X97647339Y-82472339D01*
X97619890Y-82494866D01*
X97588569Y-82511607D01*
X97554591Y-82521915D01*
X97513110Y-82526000D01*
X96911890Y-82526000D01*
X96870409Y-82521915D01*
X96836431Y-82511607D01*
X96805110Y-82494866D01*
X96777661Y-82472339D01*
X96755134Y-82444890D01*
X96738393Y-82413569D01*
X96728085Y-82379591D01*
X96724000Y-82338110D01*
X96724000Y-81661890D01*
X96728085Y-81620409D01*
X96738393Y-81586431D01*
X96755134Y-81555110D01*
X96777661Y-81527661D01*
X96805110Y-81505134D01*
X96836431Y-81488393D01*
X96870409Y-81478085D01*
X96911890Y-81474000D01*
X97513110Y-81474000D01*
X97554591Y-81478085D01*
X97554591Y-81478085D01*
G37*
G36*
X72129591Y-81478085D02*
G01*
X72163569Y-81488393D01*
X72194890Y-81505134D01*
X72222339Y-81527661D01*
X72244866Y-81555110D01*
X72261607Y-81586431D01*
X72271915Y-81620409D01*
X72276000Y-81661890D01*
X72276000Y-82338110D01*
X72271915Y-82379591D01*
X72261607Y-82413569D01*
X72244866Y-82444890D01*
X72222339Y-82472339D01*
X72194890Y-82494866D01*
X72163569Y-82511607D01*
X72129591Y-82521915D01*
X72088110Y-82526000D01*
X71486890Y-82526000D01*
X71445409Y-82521915D01*
X71411431Y-82511607D01*
X71380110Y-82494866D01*
X71352661Y-82472339D01*
X71330134Y-82444890D01*
X71313393Y-82413569D01*
X71303085Y-82379591D01*
X71299000Y-82338110D01*
X71299000Y-81661890D01*
X71303085Y-81620409D01*
X71313393Y-81586431D01*
X71330134Y-81555110D01*
X71352661Y-81527661D01*
X71380110Y-81505134D01*
X71411431Y-81488393D01*
X71445409Y-81478085D01*
X71486890Y-81474000D01*
X72088110Y-81474000D01*
X72129591Y-81478085D01*
X72129591Y-81478085D01*
G37*
G36*
X70554591Y-81478085D02*
G01*
X70588569Y-81488393D01*
X70619890Y-81505134D01*
X70647339Y-81527661D01*
X70669866Y-81555110D01*
X70686607Y-81586431D01*
X70696915Y-81620409D01*
X70701000Y-81661890D01*
X70701000Y-82338110D01*
X70696915Y-82379591D01*
X70686607Y-82413569D01*
X70669866Y-82444890D01*
X70647339Y-82472339D01*
X70619890Y-82494866D01*
X70588569Y-82511607D01*
X70554591Y-82521915D01*
X70513110Y-82526000D01*
X69911890Y-82526000D01*
X69870409Y-82521915D01*
X69836431Y-82511607D01*
X69805110Y-82494866D01*
X69777661Y-82472339D01*
X69755134Y-82444890D01*
X69738393Y-82413569D01*
X69728085Y-82379591D01*
X69724000Y-82338110D01*
X69724000Y-81661890D01*
X69728085Y-81620409D01*
X69738393Y-81586431D01*
X69755134Y-81555110D01*
X69777661Y-81527661D01*
X69805110Y-81505134D01*
X69836431Y-81488393D01*
X69870409Y-81478085D01*
X69911890Y-81474000D01*
X70513110Y-81474000D01*
X70554591Y-81478085D01*
X70554591Y-81478085D01*
G37*
G36*
X73601000Y-80351000D02*
G01*
X71899000Y-80351000D01*
X71899000Y-79399000D01*
X73601000Y-79399000D01*
X73601000Y-80351000D01*
X73601000Y-80351000D01*
G37*
G36*
X70101000Y-80351000D02*
G01*
X68399000Y-80351000D01*
X68399000Y-79399000D01*
X70101000Y-79399000D01*
X70101000Y-80351000D01*
X70101000Y-80351000D01*
G37*
G36*
X97101000Y-80351000D02*
G01*
X95399000Y-80351000D01*
X95399000Y-79399000D01*
X97101000Y-79399000D01*
X97101000Y-80351000D01*
X97101000Y-80351000D01*
G37*
G36*
X100601000Y-80351000D02*
G01*
X98899000Y-80351000D01*
X98899000Y-79399000D01*
X100601000Y-79399000D01*
X100601000Y-80351000D01*
X100601000Y-80351000D01*
G37*
G36*
X70101000Y-78601000D02*
G01*
X68399000Y-78601000D01*
X68399000Y-77649000D01*
X70101000Y-77649000D01*
X70101000Y-78601000D01*
X70101000Y-78601000D01*
G37*
G36*
X73601000Y-78601000D02*
G01*
X71899000Y-78601000D01*
X71899000Y-77649000D01*
X73601000Y-77649000D01*
X73601000Y-78601000D01*
X73601000Y-78601000D01*
G37*
G36*
X100601000Y-78601000D02*
G01*
X98899000Y-78601000D01*
X98899000Y-77649000D01*
X100601000Y-77649000D01*
X100601000Y-78601000D01*
X100601000Y-78601000D01*
G37*
G36*
X97101000Y-78601000D02*
G01*
X95399000Y-78601000D01*
X95399000Y-77649000D01*
X97101000Y-77649000D01*
X97101000Y-78601000D01*
X97101000Y-78601000D01*
G37*
G36*
X83554591Y-75478085D02*
G01*
X83588569Y-75488393D01*
X83619890Y-75505134D01*
X83647339Y-75527661D01*
X83669866Y-75555110D01*
X83686607Y-75586431D01*
X83696915Y-75620409D01*
X83701000Y-75661890D01*
X83701000Y-76338110D01*
X83696915Y-76379591D01*
X83686607Y-76413569D01*
X83669866Y-76444890D01*
X83647339Y-76472339D01*
X83619890Y-76494866D01*
X83588569Y-76511607D01*
X83554591Y-76521915D01*
X83513110Y-76526000D01*
X82911890Y-76526000D01*
X82870409Y-76521915D01*
X82836431Y-76511607D01*
X82805110Y-76494866D01*
X82777661Y-76472339D01*
X82755134Y-76444890D01*
X82738393Y-76413569D01*
X82728085Y-76379591D01*
X82724000Y-76338110D01*
X82724000Y-75661890D01*
X82728085Y-75620409D01*
X82738393Y-75586431D01*
X82755134Y-75555110D01*
X82777661Y-75527661D01*
X82805110Y-75505134D01*
X82836431Y-75488393D01*
X82870409Y-75478085D01*
X82911890Y-75474000D01*
X83513110Y-75474000D01*
X83554591Y-75478085D01*
X83554591Y-75478085D01*
G37*
G36*
X85129591Y-75478085D02*
G01*
X85163569Y-75488393D01*
X85194890Y-75505134D01*
X85222339Y-75527661D01*
X85244866Y-75555110D01*
X85261607Y-75586431D01*
X85271915Y-75620409D01*
X85276000Y-75661890D01*
X85276000Y-76338110D01*
X85271915Y-76379591D01*
X85261607Y-76413569D01*
X85244866Y-76444890D01*
X85222339Y-76472339D01*
X85194890Y-76494866D01*
X85163569Y-76511607D01*
X85129591Y-76521915D01*
X85088110Y-76526000D01*
X84486890Y-76526000D01*
X84445409Y-76521915D01*
X84411431Y-76511607D01*
X84380110Y-76494866D01*
X84352661Y-76472339D01*
X84330134Y-76444890D01*
X84313393Y-76413569D01*
X84303085Y-76379591D01*
X84299000Y-76338110D01*
X84299000Y-75661890D01*
X84303085Y-75620409D01*
X84313393Y-75586431D01*
X84330134Y-75555110D01*
X84352661Y-75527661D01*
X84380110Y-75505134D01*
X84411431Y-75488393D01*
X84445409Y-75478085D01*
X84486890Y-75474000D01*
X85088110Y-75474000D01*
X85129591Y-75478085D01*
X85129591Y-75478085D01*
G37*
G36*
X56554591Y-75478085D02*
G01*
X56588569Y-75488393D01*
X56619890Y-75505134D01*
X56647339Y-75527661D01*
X56669866Y-75555110D01*
X56686607Y-75586431D01*
X56696915Y-75620409D01*
X56701000Y-75661890D01*
X56701000Y-76338110D01*
X56696915Y-76379591D01*
X56686607Y-76413569D01*
X56669866Y-76444890D01*
X56647339Y-76472339D01*
X56619890Y-76494866D01*
X56588569Y-76511607D01*
X56554591Y-76521915D01*
X56513110Y-76526000D01*
X55911890Y-76526000D01*
X55870409Y-76521915D01*
X55836431Y-76511607D01*
X55805110Y-76494866D01*
X55777661Y-76472339D01*
X55755134Y-76444890D01*
X55738393Y-76413569D01*
X55728085Y-76379591D01*
X55724000Y-76338110D01*
X55724000Y-75661890D01*
X55728085Y-75620409D01*
X55738393Y-75586431D01*
X55755134Y-75555110D01*
X55777661Y-75527661D01*
X55805110Y-75505134D01*
X55836431Y-75488393D01*
X55870409Y-75478085D01*
X55911890Y-75474000D01*
X56513110Y-75474000D01*
X56554591Y-75478085D01*
X56554591Y-75478085D01*
G37*
G36*
X58129591Y-75478085D02*
G01*
X58163569Y-75488393D01*
X58194890Y-75505134D01*
X58222339Y-75527661D01*
X58244866Y-75555110D01*
X58261607Y-75586431D01*
X58271915Y-75620409D01*
X58276000Y-75661890D01*
X58276000Y-76338110D01*
X58271915Y-76379591D01*
X58261607Y-76413569D01*
X58244866Y-76444890D01*
X58222339Y-76472339D01*
X58194890Y-76494866D01*
X58163569Y-76511607D01*
X58129591Y-76521915D01*
X58088110Y-76526000D01*
X57486890Y-76526000D01*
X57445409Y-76521915D01*
X57411431Y-76511607D01*
X57380110Y-76494866D01*
X57352661Y-76472339D01*
X57330134Y-76444890D01*
X57313393Y-76413569D01*
X57303085Y-76379591D01*
X57299000Y-76338110D01*
X57299000Y-75661890D01*
X57303085Y-75620409D01*
X57313393Y-75586431D01*
X57330134Y-75555110D01*
X57352661Y-75527661D01*
X57380110Y-75505134D01*
X57411431Y-75488393D01*
X57445409Y-75478085D01*
X57486890Y-75474000D01*
X58088110Y-75474000D01*
X58129591Y-75478085D01*
X58129591Y-75478085D01*
G37*
G36*
X56101000Y-74351000D02*
G01*
X54399000Y-74351000D01*
X54399000Y-73399000D01*
X56101000Y-73399000D01*
X56101000Y-74351000D01*
X56101000Y-74351000D01*
G37*
G36*
X59601000Y-74351000D02*
G01*
X57899000Y-74351000D01*
X57899000Y-73399000D01*
X59601000Y-73399000D01*
X59601000Y-74351000D01*
X59601000Y-74351000D01*
G37*
G36*
X86601000Y-74351000D02*
G01*
X84899000Y-74351000D01*
X84899000Y-73399000D01*
X86601000Y-73399000D01*
X86601000Y-74351000D01*
X86601000Y-74351000D01*
G37*
G36*
X83101000Y-74351000D02*
G01*
X81399000Y-74351000D01*
X81399000Y-73399000D01*
X83101000Y-73399000D01*
X83101000Y-74351000D01*
X83101000Y-74351000D01*
G37*
G36*
X86601000Y-72601000D02*
G01*
X84899000Y-72601000D01*
X84899000Y-71649000D01*
X86601000Y-71649000D01*
X86601000Y-72601000D01*
X86601000Y-72601000D01*
G37*
G36*
X56101000Y-72601000D02*
G01*
X54399000Y-72601000D01*
X54399000Y-71649000D01*
X56101000Y-71649000D01*
X56101000Y-72601000D01*
X56101000Y-72601000D01*
G37*
G36*
X59601000Y-72601000D02*
G01*
X57899000Y-72601000D01*
X57899000Y-71649000D01*
X59601000Y-71649000D01*
X59601000Y-72601000D01*
X59601000Y-72601000D01*
G37*
G36*
X83101000Y-72601000D02*
G01*
X81399000Y-72601000D01*
X81399000Y-71649000D01*
X83101000Y-71649000D01*
X83101000Y-72601000D01*
X83101000Y-72601000D01*
G37*
G36*
X70000000Y-63750000D02*
G01*
X55000000Y-63750000D01*
X55000000Y-59250000D01*
X70000000Y-59250000D01*
X70000000Y-63750000D01*
X70000000Y-63750000D01*
G37*
G36*
X100000000Y-63750000D02*
G01*
X85000000Y-63750000D01*
X85000000Y-59250000D01*
X100000000Y-59250000D01*
X100000000Y-63750000D01*
X100000000Y-63750000D01*
G37*
M02*
