M48
INCH,TZ
T1C0.0157
T2C0.0197
T3C0.0433
T4C0.0669
%
G90
G05
T1
X23780Y-41732
X24803Y-43689
X24803Y-44646
X28642Y-44094
X31398Y-22638
X33661Y-23917
X33957Y-28839
X39213Y-39685
T2
X33209Y-35433
X34709Y-35433
T3
X24209Y-32433
X24209Y-33433
X24209Y-34433
X24209Y-35433
X24209Y-36433
X24209Y-37433
X24209Y-38433
X25209Y-32433
X25209Y-38433
X26209Y-32433
X26209Y-38433
X27209Y-32433
X27209Y-38433
X28209Y-32433
X28209Y-38433
X29209Y-32433
X29209Y-38433
X30209Y-32433
X30209Y-38433
X31209Y-32433
X31209Y-38433
X32209Y-32433
X32209Y-37433
X32209Y-38433
X33209Y-32433
X33209Y-37433
X33209Y-38433
X34209Y-32433
X34209Y-37433
X34209Y-38433
X35209Y-32433
X35209Y-38433
X36209Y-32433
X36209Y-37433
X36209Y-38433
X37209Y-32433
X37209Y-38433
T4
X36024Y-46850
X38780Y-46850
X36024Y-42126
X38780Y-42126
T0
M30
