G04 #@! TF.GenerationSoftware,KiCad,Pcbnew,(5.1.4)-1*
G04 #@! TF.CreationDate,2019-10-14T19:51:17-04:00*
G04 #@! TF.ProjectId,badger-badge,62616467-6572-42d6-9261-6467652e6b69,rev?*
G04 #@! TF.SameCoordinates,Original*
G04 #@! TF.FileFunction,Legend,Top*
G04 #@! TF.FilePolarity,Positive*
%FSLAX46Y46*%
G04 Gerber Fmt 4.6, Leading zero omitted, Abs format (unit mm)*
G04 Created by KiCad (PCBNEW (5.1.4)-1) date 2019-10-14 19:51:17*
%MOMM*%
%LPD*%
G04 APERTURE LIST*
%ADD10C,0.150000*%
%ADD11C,0.100000*%
%ADD12C,0.120000*%
%ADD13C,0.254000*%
%ADD14C,0.127000*%
%ADD15C,2.002000*%
%ADD16R,1.702000X1.702000*%
%ADD17C,1.702000*%
%ADD18R,1.882000X2.102000*%
%ADD19C,0.977000*%
%ADD20C,1.802000*%
%ADD21R,2.902000X2.902000*%
%ADD22R,2.302000X2.902000*%
%ADD23R,1.302000X1.002000*%
%ADD24R,1.277000X2.002000*%
%ADD25R,2.477000X2.002000*%
%ADD26R,1.577000X2.202000*%
%ADD27R,0.552000X1.482000*%
%ADD28R,0.752000X1.162000*%
%ADD29R,1.602000X1.602000*%
%ADD30R,0.902000X1.002000*%
%ADD31R,2.512000X2.812000*%
%ADD32C,1.077000*%
%ADD33C,0.200000*%
G04 APERTURE END LIST*
D10*
X87547619Y-123652380D02*
X87547619Y-122652380D01*
X87880952Y-123366666D01*
X88214285Y-122652380D01*
X88214285Y-123652380D01*
X88690476Y-123652380D02*
X88690476Y-122652380D01*
X89166666Y-123652380D02*
X89166666Y-122652380D01*
X89404761Y-122652380D01*
X89547619Y-122700000D01*
X89642857Y-122795238D01*
X89690476Y-122890476D01*
X89738095Y-123080952D01*
X89738095Y-123223809D01*
X89690476Y-123414285D01*
X89642857Y-123509523D01*
X89547619Y-123604761D01*
X89404761Y-123652380D01*
X89166666Y-123652380D01*
X90166666Y-123652380D02*
X90166666Y-122652380D01*
X91404761Y-123652380D02*
X91404761Y-122652380D01*
X91880952Y-123652380D02*
X91880952Y-122652380D01*
X92452380Y-123652380D01*
X92452380Y-122652380D01*
X87480952Y-111652380D02*
X87480952Y-110652380D01*
X87814285Y-111366666D01*
X88147619Y-110652380D01*
X88147619Y-111652380D01*
X88623809Y-111652380D02*
X88623809Y-110652380D01*
X89100000Y-111652380D02*
X89100000Y-110652380D01*
X89338095Y-110652380D01*
X89480952Y-110700000D01*
X89576190Y-110795238D01*
X89623809Y-110890476D01*
X89671428Y-111080952D01*
X89671428Y-111223809D01*
X89623809Y-111414285D01*
X89576190Y-111509523D01*
X89480952Y-111604761D01*
X89338095Y-111652380D01*
X89100000Y-111652380D01*
X90100000Y-111652380D02*
X90100000Y-110652380D01*
X91528571Y-110652380D02*
X91719047Y-110652380D01*
X91814285Y-110700000D01*
X91909523Y-110795238D01*
X91957142Y-110985714D01*
X91957142Y-111319047D01*
X91909523Y-111509523D01*
X91814285Y-111604761D01*
X91719047Y-111652380D01*
X91528571Y-111652380D01*
X91433333Y-111604761D01*
X91338095Y-111509523D01*
X91290476Y-111319047D01*
X91290476Y-110985714D01*
X91338095Y-110795238D01*
X91433333Y-110700000D01*
X91528571Y-110652380D01*
X92385714Y-110652380D02*
X92385714Y-111461904D01*
X92433333Y-111557142D01*
X92480952Y-111604761D01*
X92576190Y-111652380D01*
X92766666Y-111652380D01*
X92861904Y-111604761D01*
X92909523Y-111557142D01*
X92957142Y-111461904D01*
X92957142Y-110652380D01*
X93290476Y-110652380D02*
X93861904Y-110652380D01*
X93576190Y-111652380D02*
X93576190Y-110652380D01*
D11*
G36*
X73174000Y-87079000D02*
G01*
X73428000Y-87333000D01*
X73047000Y-87587000D01*
X72793000Y-87333000D01*
X73174000Y-87079000D01*
G37*
X73174000Y-87079000D02*
X73428000Y-87333000D01*
X73047000Y-87587000D01*
X72793000Y-87333000D01*
X73174000Y-87079000D01*
G36*
X74190000Y-86317000D02*
G01*
X74444000Y-86571000D01*
X74063000Y-86825000D01*
X73809000Y-86571000D01*
X74190000Y-86317000D01*
G37*
X74190000Y-86317000D02*
X74444000Y-86571000D01*
X74063000Y-86825000D01*
X73809000Y-86571000D01*
X74190000Y-86317000D01*
G36*
X73428000Y-85555000D02*
G01*
X73682000Y-85809000D01*
X73301000Y-86063000D01*
X73047000Y-85809000D01*
X73428000Y-85555000D01*
G37*
X73428000Y-85555000D02*
X73682000Y-85809000D01*
X73301000Y-86063000D01*
X73047000Y-85809000D01*
X73428000Y-85555000D01*
G36*
X73555000Y-87460000D02*
G01*
X73809000Y-87714000D01*
X73428000Y-87968000D01*
X73174000Y-87714000D01*
X73555000Y-87460000D01*
G37*
X73555000Y-87460000D02*
X73809000Y-87714000D01*
X73428000Y-87968000D01*
X73174000Y-87714000D01*
X73555000Y-87460000D01*
G36*
X73809000Y-85936000D02*
G01*
X74063000Y-86190000D01*
X73682000Y-86444000D01*
X73428000Y-86190000D01*
X73809000Y-85936000D01*
G37*
X73809000Y-85936000D02*
X74063000Y-86190000D01*
X73682000Y-86444000D01*
X73428000Y-86190000D01*
X73809000Y-85936000D01*
G36*
X73047000Y-87841000D02*
G01*
X73301000Y-88095000D01*
X72920000Y-88349000D01*
X72666000Y-88095000D01*
X73047000Y-87841000D01*
G37*
X73047000Y-87841000D02*
X73301000Y-88095000D01*
X72920000Y-88349000D01*
X72666000Y-88095000D01*
X73047000Y-87841000D01*
G36*
X73682000Y-86698000D02*
G01*
X73936000Y-86952000D01*
X73555000Y-87206000D01*
X73301000Y-86952000D01*
X73682000Y-86698000D01*
G37*
X73682000Y-86698000D02*
X73936000Y-86952000D01*
X73555000Y-87206000D01*
X73301000Y-86952000D01*
X73682000Y-86698000D01*
G36*
X74063000Y-87079000D02*
G01*
X74317000Y-87333000D01*
X73936000Y-87587000D01*
X73682000Y-87333000D01*
X74063000Y-87079000D01*
G37*
X74063000Y-87079000D02*
X74317000Y-87333000D01*
X73936000Y-87587000D01*
X73682000Y-87333000D01*
X74063000Y-87079000D01*
D10*
X95780000Y-81110000D02*
X95780000Y-98890000D01*
X60220000Y-81110000D02*
X95780000Y-81110000D01*
X60220000Y-98890000D02*
X60220000Y-81110000D01*
X95780000Y-98890000D02*
X60220000Y-98890000D01*
X69110000Y-84920000D02*
X78000000Y-84920000D01*
X69110000Y-95080000D02*
X78000000Y-95080000D01*
X78000000Y-95080000D02*
X78000000Y-84920000D01*
X69110000Y-84920000D02*
X69110000Y-95080000D01*
X65300000Y-92540000D02*
X62760000Y-92540000D01*
X65300000Y-87460000D02*
X65300000Y-92540000D01*
X62760000Y-87460000D02*
X65300000Y-87460000D01*
X62760000Y-92540000D02*
X62760000Y-87460000D01*
X89430000Y-87460000D02*
X89430000Y-84920000D01*
X86890000Y-87460000D02*
X89430000Y-87460000D01*
X86890000Y-84920000D02*
X86890000Y-87460000D01*
X89430000Y-84920000D02*
X86890000Y-84920000D01*
X90700000Y-86190000D02*
X95780000Y-86190000D01*
X90700000Y-93810000D02*
X95780000Y-93810000D01*
X90700000Y-86190000D02*
X90700000Y-93810000D01*
X84350000Y-87460000D02*
X84350000Y-84920000D01*
X80540000Y-87460000D02*
X84350000Y-87460000D01*
X80540000Y-84920000D02*
X80540000Y-87460000D01*
X84350000Y-84920000D02*
X80540000Y-84920000D01*
X97050000Y-93810000D02*
X95780000Y-93810000D01*
X97050000Y-86190000D02*
X97050000Y-93810000D01*
X95780000Y-86190000D02*
X97050000Y-86190000D01*
D12*
X75130000Y-115765000D02*
X75130000Y-118000000D01*
X82870000Y-115765000D02*
X75130000Y-115765000D01*
X82870000Y-122235000D02*
X82870000Y-115765000D01*
X75130000Y-122235000D02*
X82870000Y-122235000D01*
X75130000Y-120000000D02*
X75130000Y-122235000D01*
X75130000Y-118000000D02*
G75*
G02X75130000Y-120000000I0J-1000000D01*
G01*
X81162779Y-111490000D02*
X80837221Y-111490000D01*
X81162779Y-112510000D02*
X80837221Y-112510000D01*
X85510000Y-105162779D02*
X85510000Y-104837221D01*
X84490000Y-105162779D02*
X84490000Y-104837221D01*
X85510000Y-116162779D02*
X85510000Y-115837221D01*
X84490000Y-116162779D02*
X84490000Y-115837221D01*
X84490000Y-108837221D02*
X84490000Y-109162779D01*
X85510000Y-108837221D02*
X85510000Y-109162779D01*
X98300000Y-115900000D02*
X98300000Y-113900000D01*
X100900000Y-115900000D02*
X100900000Y-113900000D01*
X91800000Y-115900000D02*
X98300000Y-115900000D01*
X87400000Y-115900000D02*
X88600000Y-115900000D01*
X87400000Y-122100000D02*
X87400000Y-115900000D01*
X96300000Y-122100000D02*
X87400000Y-122100000D01*
X102100000Y-122100000D02*
X98900000Y-122100000D01*
X102100000Y-121600000D02*
X102100000Y-122100000D01*
X104600000Y-121600000D02*
X102100000Y-121600000D01*
X104600000Y-116400000D02*
X104600000Y-121600000D01*
X102100000Y-116400000D02*
X104600000Y-116400000D01*
X102100000Y-115900000D02*
X102100000Y-116400000D01*
X100900000Y-115900000D02*
X102100000Y-115900000D01*
X98300000Y-103900000D02*
X98300000Y-101900000D01*
X100900000Y-103900000D02*
X100900000Y-101900000D01*
X91800000Y-103900000D02*
X98300000Y-103900000D01*
X87400000Y-103900000D02*
X88600000Y-103900000D01*
X87400000Y-110100000D02*
X87400000Y-103900000D01*
X96300000Y-110100000D02*
X87400000Y-110100000D01*
X102100000Y-110100000D02*
X98900000Y-110100000D01*
X102100000Y-109600000D02*
X102100000Y-110100000D01*
X104600000Y-109600000D02*
X102100000Y-109600000D01*
X104600000Y-104400000D02*
X104600000Y-109600000D01*
X102100000Y-104400000D02*
X104600000Y-104400000D01*
X102100000Y-103900000D02*
X102100000Y-104400000D01*
X100900000Y-103900000D02*
X102100000Y-103900000D01*
X86000000Y-118750000D02*
X86000000Y-122650000D01*
X84000000Y-118750000D02*
X84000000Y-122650000D01*
X86000000Y-118750000D02*
X84000000Y-118750000D01*
X76837221Y-112510000D02*
X77162779Y-112510000D01*
X76837221Y-111490000D02*
X77162779Y-111490000D01*
X81310000Y-50150000D02*
X81310000Y-50410000D01*
X81310000Y-52690000D02*
X81310000Y-54460000D01*
X81310000Y-54460000D02*
X80930000Y-54460000D01*
X73690000Y-54460000D02*
X73690000Y-52690000D01*
X73690000Y-50410000D02*
X73690000Y-50150000D01*
X73690000Y-54460000D02*
X74070000Y-54460000D01*
X61390000Y-110100000D02*
X61390000Y-112550000D01*
X64610000Y-111900000D02*
X64610000Y-110100000D01*
X52940000Y-54850000D02*
X52940000Y-51150000D01*
X59060000Y-54850000D02*
X52940000Y-54850000D01*
X59060000Y-51150000D02*
X59060000Y-54850000D01*
X52940000Y-51150000D02*
X59060000Y-51150000D01*
X63940000Y-54850000D02*
X63940000Y-51150000D01*
X70060000Y-54850000D02*
X63940000Y-54850000D01*
X70060000Y-51150000D02*
X70060000Y-54850000D01*
X63940000Y-51150000D02*
X70060000Y-51150000D01*
X84940000Y-54850000D02*
X84940000Y-51150000D01*
X91060000Y-54850000D02*
X84940000Y-54850000D01*
X91060000Y-51150000D02*
X91060000Y-54850000D01*
X84940000Y-51150000D02*
X91060000Y-51150000D01*
X95940000Y-54850000D02*
X95940000Y-51150000D01*
X102060000Y-54850000D02*
X95940000Y-54850000D01*
X102060000Y-51150000D02*
X102060000Y-54850000D01*
X95940000Y-51150000D02*
X102060000Y-51150000D01*
X71412779Y-113240000D02*
X71087221Y-113240000D01*
X71412779Y-114260000D02*
X71087221Y-114260000D01*
X86837221Y-75010000D02*
X87162779Y-75010000D01*
X86837221Y-73990000D02*
X87162779Y-73990000D01*
X71412779Y-107740000D02*
X71087221Y-107740000D01*
X71412779Y-108760000D02*
X71087221Y-108760000D01*
X86837221Y-80510000D02*
X87162779Y-80510000D01*
X86837221Y-79490000D02*
X87162779Y-79490000D01*
X63490000Y-114837221D02*
X63490000Y-115162779D01*
X64510000Y-114837221D02*
X64510000Y-115162779D01*
X65490000Y-106837221D02*
X65490000Y-107162779D01*
X66510000Y-106837221D02*
X66510000Y-107162779D01*
X63740000Y-85837221D02*
X63740000Y-86162779D01*
X64760000Y-85837221D02*
X64760000Y-86162779D01*
X66240000Y-85837221D02*
X66240000Y-86162779D01*
X67260000Y-85837221D02*
X67260000Y-86162779D01*
X68740000Y-85837221D02*
X68740000Y-86162779D01*
X69760000Y-85837221D02*
X69760000Y-86162779D01*
X71240000Y-85837221D02*
X71240000Y-86162779D01*
X72260000Y-85837221D02*
X72260000Y-86162779D01*
X69670000Y-111760000D02*
X69670000Y-110300000D01*
X72830000Y-111760000D02*
X72830000Y-109600000D01*
X72830000Y-111760000D02*
X71900000Y-111760000D01*
X69670000Y-111760000D02*
X70600000Y-111760000D01*
X88580000Y-76490000D02*
X88580000Y-77950000D01*
X85420000Y-76490000D02*
X85420000Y-78650000D01*
X85420000Y-76490000D02*
X86350000Y-76490000D01*
X88580000Y-76490000D02*
X87650000Y-76490000D01*
D13*
X56200000Y-117500000D02*
G75*
G03X56200000Y-117500000I-200000J0D01*
G01*
D14*
X50000000Y-108400000D02*
X50000000Y-113600000D01*
X52300000Y-108400000D02*
X50000000Y-108400000D01*
X50000000Y-113600000D02*
X52300000Y-113600000D01*
D12*
X62710000Y-107258578D02*
X62710000Y-106741422D01*
X61290000Y-107258578D02*
X61290000Y-106741422D01*
X64510000Y-107162779D02*
X64510000Y-106837221D01*
X63490000Y-107162779D02*
X63490000Y-106837221D01*
X66510000Y-115162779D02*
X66510000Y-114837221D01*
X65490000Y-115162779D02*
X65490000Y-114837221D01*
D10*
X77238095Y-99612380D02*
X77238095Y-100421904D01*
X77285714Y-100517142D01*
X77333333Y-100564761D01*
X77428571Y-100612380D01*
X77619047Y-100612380D01*
X77714285Y-100564761D01*
X77761904Y-100517142D01*
X77809523Y-100421904D01*
X77809523Y-99612380D01*
X78809523Y-100612380D02*
X78238095Y-100612380D01*
X78523809Y-100612380D02*
X78523809Y-99612380D01*
X78428571Y-99755238D01*
X78333333Y-99850476D01*
X78238095Y-99898095D01*
X69338333Y-91840666D02*
X69338333Y-91140666D01*
X69571666Y-91640666D01*
X69805000Y-91140666D01*
X69805000Y-91840666D01*
X70138333Y-91840666D02*
X70138333Y-91140666D01*
X70538333Y-91840666D02*
X70238333Y-91440666D01*
X70538333Y-91140666D02*
X70138333Y-91540666D01*
X70805000Y-91207333D02*
X70838333Y-91174000D01*
X70905000Y-91140666D01*
X71071666Y-91140666D01*
X71138333Y-91174000D01*
X71171666Y-91207333D01*
X71205000Y-91274000D01*
X71205000Y-91340666D01*
X71171666Y-91440666D01*
X70771666Y-91840666D01*
X71205000Y-91840666D01*
X71638333Y-91140666D02*
X71705000Y-91140666D01*
X71771666Y-91174000D01*
X71805000Y-91207333D01*
X71838333Y-91274000D01*
X71871666Y-91407333D01*
X71871666Y-91574000D01*
X71838333Y-91707333D01*
X71805000Y-91774000D01*
X71771666Y-91807333D01*
X71705000Y-91840666D01*
X71638333Y-91840666D01*
X71571666Y-91807333D01*
X71538333Y-91774000D01*
X71505000Y-91707333D01*
X71471666Y-91574000D01*
X71471666Y-91407333D01*
X71505000Y-91274000D01*
X71538333Y-91207333D01*
X71571666Y-91174000D01*
X71638333Y-91140666D01*
X72171666Y-91840666D02*
X72171666Y-91140666D01*
X72338333Y-91140666D01*
X72438333Y-91174000D01*
X72505000Y-91240666D01*
X72538333Y-91307333D01*
X72571666Y-91440666D01*
X72571666Y-91540666D01*
X72538333Y-91674000D01*
X72505000Y-91740666D01*
X72438333Y-91807333D01*
X72338333Y-91840666D01*
X72171666Y-91840666D01*
X72805000Y-91140666D02*
X73271666Y-91840666D01*
X73271666Y-91140666D02*
X72805000Y-91840666D01*
X73905000Y-91840666D02*
X73505000Y-91840666D01*
X73705000Y-91840666D02*
X73705000Y-91140666D01*
X73638333Y-91240666D01*
X73571666Y-91307333D01*
X73505000Y-91340666D01*
X74171666Y-91207333D02*
X74205000Y-91174000D01*
X74271666Y-91140666D01*
X74438333Y-91140666D01*
X74505000Y-91174000D01*
X74538333Y-91207333D01*
X74571666Y-91274000D01*
X74571666Y-91340666D01*
X74538333Y-91440666D01*
X74138333Y-91840666D01*
X74571666Y-91840666D01*
X74971666Y-91440666D02*
X74905000Y-91407333D01*
X74871666Y-91374000D01*
X74838333Y-91307333D01*
X74838333Y-91274000D01*
X74871666Y-91207333D01*
X74905000Y-91174000D01*
X74971666Y-91140666D01*
X75105000Y-91140666D01*
X75171666Y-91174000D01*
X75205000Y-91207333D01*
X75238333Y-91274000D01*
X75238333Y-91307333D01*
X75205000Y-91374000D01*
X75171666Y-91407333D01*
X75105000Y-91440666D01*
X74971666Y-91440666D01*
X74905000Y-91474000D01*
X74871666Y-91507333D01*
X74838333Y-91574000D01*
X74838333Y-91707333D01*
X74871666Y-91774000D01*
X74905000Y-91807333D01*
X74971666Y-91840666D01*
X75105000Y-91840666D01*
X75171666Y-91807333D01*
X75205000Y-91774000D01*
X75238333Y-91707333D01*
X75238333Y-91574000D01*
X75205000Y-91507333D01*
X75171666Y-91474000D01*
X75105000Y-91440666D01*
X75438333Y-91140666D02*
X75671666Y-91840666D01*
X75905000Y-91140666D01*
X76471666Y-91840666D02*
X76138333Y-91840666D01*
X76138333Y-91140666D01*
X76705000Y-91840666D02*
X76705000Y-91140666D01*
X76705000Y-91474000D02*
X77105000Y-91474000D01*
X77105000Y-91840666D02*
X77105000Y-91140666D01*
X77771666Y-91140666D02*
X77438333Y-91140666D01*
X77405000Y-91474000D01*
X77438333Y-91440666D01*
X77505000Y-91407333D01*
X77671666Y-91407333D01*
X77738333Y-91440666D01*
X77771666Y-91474000D01*
X77805000Y-91540666D01*
X77805000Y-91707333D01*
X77771666Y-91774000D01*
X77738333Y-91807333D01*
X77671666Y-91840666D01*
X77505000Y-91840666D01*
X77438333Y-91807333D01*
X77405000Y-91774000D01*
X69821666Y-90570666D02*
X69821666Y-89870666D01*
X70055000Y-90370666D01*
X70288333Y-89870666D01*
X70288333Y-90570666D01*
X70621666Y-90570666D02*
X70621666Y-89870666D01*
X71021666Y-90570666D02*
X70721666Y-90170666D01*
X71021666Y-89870666D02*
X70621666Y-90270666D01*
X71655000Y-90570666D02*
X71321666Y-90570666D01*
X71321666Y-89870666D01*
X71855000Y-89937333D02*
X71888333Y-89904000D01*
X71955000Y-89870666D01*
X72121666Y-89870666D01*
X72188333Y-89904000D01*
X72221666Y-89937333D01*
X72255000Y-90004000D01*
X72255000Y-90070666D01*
X72221666Y-90170666D01*
X71821666Y-90570666D01*
X72255000Y-90570666D01*
X72855000Y-89870666D02*
X72721666Y-89870666D01*
X72655000Y-89904000D01*
X72621666Y-89937333D01*
X72555000Y-90037333D01*
X72521666Y-90170666D01*
X72521666Y-90437333D01*
X72555000Y-90504000D01*
X72588333Y-90537333D01*
X72655000Y-90570666D01*
X72788333Y-90570666D01*
X72855000Y-90537333D01*
X72888333Y-90504000D01*
X72921666Y-90437333D01*
X72921666Y-90270666D01*
X72888333Y-90204000D01*
X72855000Y-90170666D01*
X72788333Y-90137333D01*
X72655000Y-90137333D01*
X72588333Y-90170666D01*
X72555000Y-90204000D01*
X72521666Y-90270666D01*
X73155000Y-89870666D02*
X73621666Y-89870666D01*
X73155000Y-90570666D01*
X73621666Y-90570666D01*
X74188333Y-89870666D02*
X74055000Y-89870666D01*
X73988333Y-89904000D01*
X73955000Y-89937333D01*
X73888333Y-90037333D01*
X73855000Y-90170666D01*
X73855000Y-90437333D01*
X73888333Y-90504000D01*
X73921666Y-90537333D01*
X73988333Y-90570666D01*
X74121666Y-90570666D01*
X74188333Y-90537333D01*
X74221666Y-90504000D01*
X74255000Y-90437333D01*
X74255000Y-90270666D01*
X74221666Y-90204000D01*
X74188333Y-90170666D01*
X74121666Y-90137333D01*
X73988333Y-90137333D01*
X73921666Y-90170666D01*
X73888333Y-90204000D01*
X73855000Y-90270666D01*
X74855000Y-90104000D02*
X74855000Y-90570666D01*
X74688333Y-89837333D02*
X74521666Y-90337333D01*
X74955000Y-90337333D01*
X75121666Y-89870666D02*
X75355000Y-90570666D01*
X75588333Y-89870666D01*
X76055000Y-90204000D02*
X75821666Y-90204000D01*
X75821666Y-90570666D02*
X75821666Y-89870666D01*
X76155000Y-89870666D01*
X76321666Y-89870666D02*
X76721666Y-89870666D01*
X76521666Y-90570666D02*
X76521666Y-89870666D01*
X77255000Y-90104000D02*
X77255000Y-90570666D01*
X77088333Y-89837333D02*
X76921666Y-90337333D01*
X77355000Y-90337333D01*
X69338333Y-93110666D02*
X69338333Y-92410666D01*
X69571666Y-92910666D01*
X69805000Y-92410666D01*
X69805000Y-93110666D01*
X70138333Y-93110666D02*
X70138333Y-92410666D01*
X70538333Y-93110666D02*
X70238333Y-92710666D01*
X70538333Y-92410666D02*
X70138333Y-92810666D01*
X70805000Y-92477333D02*
X70838333Y-92444000D01*
X70905000Y-92410666D01*
X71071666Y-92410666D01*
X71138333Y-92444000D01*
X71171666Y-92477333D01*
X71205000Y-92544000D01*
X71205000Y-92610666D01*
X71171666Y-92710666D01*
X70771666Y-93110666D01*
X71205000Y-93110666D01*
X71638333Y-92410666D02*
X71705000Y-92410666D01*
X71771666Y-92444000D01*
X71805000Y-92477333D01*
X71838333Y-92544000D01*
X71871666Y-92677333D01*
X71871666Y-92844000D01*
X71838333Y-92977333D01*
X71805000Y-93044000D01*
X71771666Y-93077333D01*
X71705000Y-93110666D01*
X71638333Y-93110666D01*
X71571666Y-93077333D01*
X71538333Y-93044000D01*
X71505000Y-92977333D01*
X71471666Y-92844000D01*
X71471666Y-92677333D01*
X71505000Y-92544000D01*
X71538333Y-92477333D01*
X71571666Y-92444000D01*
X71638333Y-92410666D01*
X72171666Y-93110666D02*
X72171666Y-92410666D01*
X72338333Y-92410666D01*
X72438333Y-92444000D01*
X72505000Y-92510666D01*
X72538333Y-92577333D01*
X72571666Y-92710666D01*
X72571666Y-92810666D01*
X72538333Y-92944000D01*
X72505000Y-93010666D01*
X72438333Y-93077333D01*
X72338333Y-93110666D01*
X72171666Y-93110666D01*
X72805000Y-92410666D02*
X73271666Y-93110666D01*
X73271666Y-92410666D02*
X72805000Y-93110666D01*
X73505000Y-92477333D02*
X73538333Y-92444000D01*
X73605000Y-92410666D01*
X73771666Y-92410666D01*
X73838333Y-92444000D01*
X73871666Y-92477333D01*
X73905000Y-92544000D01*
X73905000Y-92610666D01*
X73871666Y-92710666D01*
X73471666Y-93110666D01*
X73905000Y-93110666D01*
X74538333Y-92410666D02*
X74205000Y-92410666D01*
X74171666Y-92744000D01*
X74205000Y-92710666D01*
X74271666Y-92677333D01*
X74438333Y-92677333D01*
X74505000Y-92710666D01*
X74538333Y-92744000D01*
X74571666Y-92810666D01*
X74571666Y-92977333D01*
X74538333Y-93044000D01*
X74505000Y-93077333D01*
X74438333Y-93110666D01*
X74271666Y-93110666D01*
X74205000Y-93077333D01*
X74171666Y-93044000D01*
X75171666Y-92410666D02*
X75038333Y-92410666D01*
X74971666Y-92444000D01*
X74938333Y-92477333D01*
X74871666Y-92577333D01*
X74838333Y-92710666D01*
X74838333Y-92977333D01*
X74871666Y-93044000D01*
X74905000Y-93077333D01*
X74971666Y-93110666D01*
X75105000Y-93110666D01*
X75171666Y-93077333D01*
X75205000Y-93044000D01*
X75238333Y-92977333D01*
X75238333Y-92810666D01*
X75205000Y-92744000D01*
X75171666Y-92710666D01*
X75105000Y-92677333D01*
X74971666Y-92677333D01*
X74905000Y-92710666D01*
X74871666Y-92744000D01*
X74838333Y-92810666D01*
X75438333Y-92410666D02*
X75671666Y-93110666D01*
X75905000Y-92410666D01*
X76471666Y-93110666D02*
X76138333Y-93110666D01*
X76138333Y-92410666D01*
X76705000Y-93110666D02*
X76705000Y-92410666D01*
X76705000Y-92744000D02*
X77105000Y-92744000D01*
X77105000Y-93110666D02*
X77105000Y-92410666D01*
X77371666Y-92410666D02*
X77838333Y-92410666D01*
X77538333Y-93110666D01*
X83802380Y-94016190D02*
X83802380Y-93444761D01*
X84802380Y-93730476D02*
X83802380Y-93730476D01*
X83802380Y-93206666D02*
X83802380Y-92587619D01*
X84183333Y-92920952D01*
X84183333Y-92778095D01*
X84230952Y-92682857D01*
X84278571Y-92635238D01*
X84373809Y-92587619D01*
X84611904Y-92587619D01*
X84707142Y-92635238D01*
X84754761Y-92682857D01*
X84802380Y-92778095D01*
X84802380Y-93063809D01*
X84754761Y-93159047D01*
X84707142Y-93206666D01*
X84707142Y-92159047D02*
X84754761Y-92111428D01*
X84802380Y-92159047D01*
X84754761Y-92206666D01*
X84707142Y-92159047D01*
X84802380Y-92159047D01*
X84802380Y-91159047D02*
X84802380Y-91730476D01*
X84802380Y-91444761D02*
X83802380Y-91444761D01*
X83945238Y-91540000D01*
X84040476Y-91635238D01*
X84088095Y-91730476D01*
X87612380Y-94016190D02*
X87612380Y-93444761D01*
X88612380Y-93730476D02*
X87612380Y-93730476D01*
X87612380Y-93206666D02*
X87612380Y-92587619D01*
X87993333Y-92920952D01*
X87993333Y-92778095D01*
X88040952Y-92682857D01*
X88088571Y-92635238D01*
X88183809Y-92587619D01*
X88421904Y-92587619D01*
X88517142Y-92635238D01*
X88564761Y-92682857D01*
X88612380Y-92778095D01*
X88612380Y-93063809D01*
X88564761Y-93159047D01*
X88517142Y-93206666D01*
X88517142Y-92159047D02*
X88564761Y-92111428D01*
X88612380Y-92159047D01*
X88564761Y-92206666D01*
X88517142Y-92159047D01*
X88612380Y-92159047D01*
X87707619Y-91730476D02*
X87660000Y-91682857D01*
X87612380Y-91587619D01*
X87612380Y-91349523D01*
X87660000Y-91254285D01*
X87707619Y-91206666D01*
X87802857Y-91159047D01*
X87898095Y-91159047D01*
X88040952Y-91206666D01*
X88612380Y-91778095D01*
X88612380Y-91159047D01*
X73582380Y-119761904D02*
X74391904Y-119761904D01*
X74487142Y-119714285D01*
X74534761Y-119666666D01*
X74582380Y-119571428D01*
X74582380Y-119380952D01*
X74534761Y-119285714D01*
X74487142Y-119238095D01*
X74391904Y-119190476D01*
X73582380Y-119190476D01*
X73582380Y-118809523D02*
X73582380Y-118190476D01*
X73963333Y-118523809D01*
X73963333Y-118380952D01*
X74010952Y-118285714D01*
X74058571Y-118238095D01*
X74153809Y-118190476D01*
X74391904Y-118190476D01*
X74487142Y-118238095D01*
X74534761Y-118285714D01*
X74582380Y-118380952D01*
X74582380Y-118666666D01*
X74534761Y-118761904D01*
X74487142Y-118809523D01*
X80357142Y-111052380D02*
X80023809Y-110576190D01*
X79785714Y-111052380D02*
X79785714Y-110052380D01*
X80166666Y-110052380D01*
X80261904Y-110100000D01*
X80309523Y-110147619D01*
X80357142Y-110242857D01*
X80357142Y-110385714D01*
X80309523Y-110480952D01*
X80261904Y-110528571D01*
X80166666Y-110576190D01*
X79785714Y-110576190D01*
X81309523Y-111052380D02*
X80738095Y-111052380D01*
X81023809Y-111052380D02*
X81023809Y-110052380D01*
X80928571Y-110195238D01*
X80833333Y-110290476D01*
X80738095Y-110338095D01*
X82166666Y-110385714D02*
X82166666Y-111052380D01*
X81928571Y-110004761D02*
X81690476Y-110719047D01*
X82309523Y-110719047D01*
X84022380Y-105642857D02*
X83546190Y-105976190D01*
X84022380Y-106214285D02*
X83022380Y-106214285D01*
X83022380Y-105833333D01*
X83070000Y-105738095D01*
X83117619Y-105690476D01*
X83212857Y-105642857D01*
X83355714Y-105642857D01*
X83450952Y-105690476D01*
X83498571Y-105738095D01*
X83546190Y-105833333D01*
X83546190Y-106214285D01*
X84022380Y-104690476D02*
X84022380Y-105261904D01*
X84022380Y-104976190D02*
X83022380Y-104976190D01*
X83165238Y-105071428D01*
X83260476Y-105166666D01*
X83308095Y-105261904D01*
X83022380Y-104357142D02*
X83022380Y-103738095D01*
X83403333Y-104071428D01*
X83403333Y-103928571D01*
X83450952Y-103833333D01*
X83498571Y-103785714D01*
X83593809Y-103738095D01*
X83831904Y-103738095D01*
X83927142Y-103785714D01*
X83974761Y-103833333D01*
X84022380Y-103928571D01*
X84022380Y-104214285D01*
X83974761Y-104309523D01*
X83927142Y-104357142D01*
X84357142Y-114252380D02*
X84023809Y-113776190D01*
X83785714Y-114252380D02*
X83785714Y-113252380D01*
X84166666Y-113252380D01*
X84261904Y-113300000D01*
X84309523Y-113347619D01*
X84357142Y-113442857D01*
X84357142Y-113585714D01*
X84309523Y-113680952D01*
X84261904Y-113728571D01*
X84166666Y-113776190D01*
X83785714Y-113776190D01*
X85309523Y-114252380D02*
X84738095Y-114252380D01*
X85023809Y-114252380D02*
X85023809Y-113252380D01*
X84928571Y-113395238D01*
X84833333Y-113490476D01*
X84738095Y-113538095D01*
X85690476Y-113347619D02*
X85738095Y-113300000D01*
X85833333Y-113252380D01*
X86071428Y-113252380D01*
X86166666Y-113300000D01*
X86214285Y-113347619D01*
X86261904Y-113442857D01*
X86261904Y-113538095D01*
X86214285Y-113680952D01*
X85642857Y-114252380D01*
X86261904Y-114252380D01*
X84052380Y-109642857D02*
X83576190Y-109976190D01*
X84052380Y-110214285D02*
X83052380Y-110214285D01*
X83052380Y-109833333D01*
X83100000Y-109738095D01*
X83147619Y-109690476D01*
X83242857Y-109642857D01*
X83385714Y-109642857D01*
X83480952Y-109690476D01*
X83528571Y-109738095D01*
X83576190Y-109833333D01*
X83576190Y-110214285D01*
X84052380Y-108690476D02*
X84052380Y-109261904D01*
X84052380Y-108976190D02*
X83052380Y-108976190D01*
X83195238Y-109071428D01*
X83290476Y-109166666D01*
X83338095Y-109261904D01*
X84052380Y-107738095D02*
X84052380Y-108309523D01*
X84052380Y-108023809D02*
X83052380Y-108023809D01*
X83195238Y-108119047D01*
X83290476Y-108214285D01*
X83338095Y-108309523D01*
X103466666Y-122052380D02*
X103466666Y-122766666D01*
X103419047Y-122909523D01*
X103323809Y-123004761D01*
X103180952Y-123052380D01*
X103085714Y-123052380D01*
X103847619Y-122052380D02*
X104466666Y-122052380D01*
X104133333Y-122433333D01*
X104276190Y-122433333D01*
X104371428Y-122480952D01*
X104419047Y-122528571D01*
X104466666Y-122623809D01*
X104466666Y-122861904D01*
X104419047Y-122957142D01*
X104371428Y-123004761D01*
X104276190Y-123052380D01*
X103990476Y-123052380D01*
X103895238Y-123004761D01*
X103847619Y-122957142D01*
X103466666Y-110052380D02*
X103466666Y-110766666D01*
X103419047Y-110909523D01*
X103323809Y-111004761D01*
X103180952Y-111052380D01*
X103085714Y-111052380D01*
X103895238Y-110147619D02*
X103942857Y-110100000D01*
X104038095Y-110052380D01*
X104276190Y-110052380D01*
X104371428Y-110100000D01*
X104419047Y-110147619D01*
X104466666Y-110242857D01*
X104466666Y-110338095D01*
X104419047Y-110480952D01*
X103847619Y-111052380D01*
X104466666Y-111052380D01*
X84261904Y-124652380D02*
X84261904Y-123652380D01*
X84500000Y-123652380D01*
X84642857Y-123700000D01*
X84738095Y-123795238D01*
X84785714Y-123890476D01*
X84833333Y-124080952D01*
X84833333Y-124223809D01*
X84785714Y-124414285D01*
X84738095Y-124509523D01*
X84642857Y-124604761D01*
X84500000Y-124652380D01*
X84261904Y-124652380D01*
X85785714Y-124652380D02*
X85214285Y-124652380D01*
X85500000Y-124652380D02*
X85500000Y-123652380D01*
X85404761Y-123795238D01*
X85309523Y-123890476D01*
X85214285Y-123938095D01*
X76833333Y-110927142D02*
X76785714Y-110974761D01*
X76642857Y-111022380D01*
X76547619Y-111022380D01*
X76404761Y-110974761D01*
X76309523Y-110879523D01*
X76261904Y-110784285D01*
X76214285Y-110593809D01*
X76214285Y-110450952D01*
X76261904Y-110260476D01*
X76309523Y-110165238D01*
X76404761Y-110070000D01*
X76547619Y-110022380D01*
X76642857Y-110022380D01*
X76785714Y-110070000D01*
X76833333Y-110117619D01*
X77690476Y-110355714D02*
X77690476Y-111022380D01*
X77452380Y-109974761D02*
X77214285Y-110689047D01*
X77833333Y-110689047D01*
X77166666Y-55502380D02*
X77166666Y-56216666D01*
X77119047Y-56359523D01*
X77023809Y-56454761D01*
X76880952Y-56502380D01*
X76785714Y-56502380D01*
X78166666Y-56502380D02*
X77595238Y-56502380D01*
X77880952Y-56502380D02*
X77880952Y-55502380D01*
X77785714Y-55645238D01*
X77690476Y-55740476D01*
X77595238Y-55788095D01*
X65202380Y-111761904D02*
X66011904Y-111761904D01*
X66107142Y-111714285D01*
X66154761Y-111666666D01*
X66202380Y-111571428D01*
X66202380Y-111380952D01*
X66154761Y-111285714D01*
X66107142Y-111238095D01*
X66011904Y-111190476D01*
X65202380Y-111190476D01*
X65297619Y-110761904D02*
X65250000Y-110714285D01*
X65202380Y-110619047D01*
X65202380Y-110380952D01*
X65250000Y-110285714D01*
X65297619Y-110238095D01*
X65392857Y-110190476D01*
X65488095Y-110190476D01*
X65630952Y-110238095D01*
X66202380Y-110809523D01*
X66202380Y-110190476D01*
X54666666Y-56404761D02*
X54809523Y-56452380D01*
X55047619Y-56452380D01*
X55142857Y-56404761D01*
X55190476Y-56357142D01*
X55238095Y-56261904D01*
X55238095Y-56166666D01*
X55190476Y-56071428D01*
X55142857Y-56023809D01*
X55047619Y-55976190D01*
X54857142Y-55928571D01*
X54761904Y-55880952D01*
X54714285Y-55833333D01*
X54666666Y-55738095D01*
X54666666Y-55642857D01*
X54714285Y-55547619D01*
X54761904Y-55500000D01*
X54857142Y-55452380D01*
X55095238Y-55452380D01*
X55238095Y-55500000D01*
X55571428Y-55452380D02*
X55809523Y-56452380D01*
X56000000Y-55738095D01*
X56190476Y-56452380D01*
X56428571Y-55452380D01*
X57238095Y-55785714D02*
X57238095Y-56452380D01*
X57000000Y-55404761D02*
X56761904Y-56119047D01*
X57380952Y-56119047D01*
X65666666Y-56404761D02*
X65809523Y-56452380D01*
X66047619Y-56452380D01*
X66142857Y-56404761D01*
X66190476Y-56357142D01*
X66238095Y-56261904D01*
X66238095Y-56166666D01*
X66190476Y-56071428D01*
X66142857Y-56023809D01*
X66047619Y-55976190D01*
X65857142Y-55928571D01*
X65761904Y-55880952D01*
X65714285Y-55833333D01*
X65666666Y-55738095D01*
X65666666Y-55642857D01*
X65714285Y-55547619D01*
X65761904Y-55500000D01*
X65857142Y-55452380D01*
X66095238Y-55452380D01*
X66238095Y-55500000D01*
X66571428Y-55452380D02*
X66809523Y-56452380D01*
X67000000Y-55738095D01*
X67190476Y-56452380D01*
X67428571Y-55452380D01*
X67714285Y-55452380D02*
X68333333Y-55452380D01*
X68000000Y-55833333D01*
X68142857Y-55833333D01*
X68238095Y-55880952D01*
X68285714Y-55928571D01*
X68333333Y-56023809D01*
X68333333Y-56261904D01*
X68285714Y-56357142D01*
X68238095Y-56404761D01*
X68142857Y-56452380D01*
X67857142Y-56452380D01*
X67761904Y-56404761D01*
X67714285Y-56357142D01*
X86666666Y-56404761D02*
X86809523Y-56452380D01*
X87047619Y-56452380D01*
X87142857Y-56404761D01*
X87190476Y-56357142D01*
X87238095Y-56261904D01*
X87238095Y-56166666D01*
X87190476Y-56071428D01*
X87142857Y-56023809D01*
X87047619Y-55976190D01*
X86857142Y-55928571D01*
X86761904Y-55880952D01*
X86714285Y-55833333D01*
X86666666Y-55738095D01*
X86666666Y-55642857D01*
X86714285Y-55547619D01*
X86761904Y-55500000D01*
X86857142Y-55452380D01*
X87095238Y-55452380D01*
X87238095Y-55500000D01*
X87571428Y-55452380D02*
X87809523Y-56452380D01*
X88000000Y-55738095D01*
X88190476Y-56452380D01*
X88428571Y-55452380D01*
X88761904Y-55547619D02*
X88809523Y-55500000D01*
X88904761Y-55452380D01*
X89142857Y-55452380D01*
X89238095Y-55500000D01*
X89285714Y-55547619D01*
X89333333Y-55642857D01*
X89333333Y-55738095D01*
X89285714Y-55880952D01*
X88714285Y-56452380D01*
X89333333Y-56452380D01*
X97666666Y-56404761D02*
X97809523Y-56452380D01*
X98047619Y-56452380D01*
X98142857Y-56404761D01*
X98190476Y-56357142D01*
X98238095Y-56261904D01*
X98238095Y-56166666D01*
X98190476Y-56071428D01*
X98142857Y-56023809D01*
X98047619Y-55976190D01*
X97857142Y-55928571D01*
X97761904Y-55880952D01*
X97714285Y-55833333D01*
X97666666Y-55738095D01*
X97666666Y-55642857D01*
X97714285Y-55547619D01*
X97761904Y-55500000D01*
X97857142Y-55452380D01*
X98095238Y-55452380D01*
X98238095Y-55500000D01*
X98571428Y-55452380D02*
X98809523Y-56452380D01*
X99000000Y-55738095D01*
X99190476Y-56452380D01*
X99428571Y-55452380D01*
X100333333Y-56452380D02*
X99761904Y-56452380D01*
X100047619Y-56452380D02*
X100047619Y-55452380D01*
X99952380Y-55595238D01*
X99857142Y-55690476D01*
X99761904Y-55738095D01*
X70557142Y-115852380D02*
X70223809Y-115376190D01*
X69985714Y-115852380D02*
X69985714Y-114852380D01*
X70366666Y-114852380D01*
X70461904Y-114900000D01*
X70509523Y-114947619D01*
X70557142Y-115042857D01*
X70557142Y-115185714D01*
X70509523Y-115280952D01*
X70461904Y-115328571D01*
X70366666Y-115376190D01*
X69985714Y-115376190D01*
X71509523Y-115852380D02*
X70938095Y-115852380D01*
X71223809Y-115852380D02*
X71223809Y-114852380D01*
X71128571Y-114995238D01*
X71033333Y-115090476D01*
X70938095Y-115138095D01*
X72128571Y-114852380D02*
X72223809Y-114852380D01*
X72319047Y-114900000D01*
X72366666Y-114947619D01*
X72414285Y-115042857D01*
X72461904Y-115233333D01*
X72461904Y-115471428D01*
X72414285Y-115661904D01*
X72366666Y-115757142D01*
X72319047Y-115804761D01*
X72223809Y-115852380D01*
X72128571Y-115852380D01*
X72033333Y-115804761D01*
X71985714Y-115757142D01*
X71938095Y-115661904D01*
X71890476Y-115471428D01*
X71890476Y-115233333D01*
X71938095Y-115042857D01*
X71985714Y-114947619D01*
X72033333Y-114900000D01*
X72128571Y-114852380D01*
X84083333Y-74952380D02*
X83750000Y-74476190D01*
X83511904Y-74952380D02*
X83511904Y-73952380D01*
X83892857Y-73952380D01*
X83988095Y-74000000D01*
X84035714Y-74047619D01*
X84083333Y-74142857D01*
X84083333Y-74285714D01*
X84035714Y-74380952D01*
X83988095Y-74428571D01*
X83892857Y-74476190D01*
X83511904Y-74476190D01*
X84559523Y-74952380D02*
X84750000Y-74952380D01*
X84845238Y-74904761D01*
X84892857Y-74857142D01*
X84988095Y-74714285D01*
X85035714Y-74523809D01*
X85035714Y-74142857D01*
X84988095Y-74047619D01*
X84940476Y-74000000D01*
X84845238Y-73952380D01*
X84654761Y-73952380D01*
X84559523Y-74000000D01*
X84511904Y-74047619D01*
X84464285Y-74142857D01*
X84464285Y-74380952D01*
X84511904Y-74476190D01*
X84559523Y-74523809D01*
X84654761Y-74571428D01*
X84845238Y-74571428D01*
X84940476Y-74523809D01*
X84988095Y-74476190D01*
X85035714Y-74380952D01*
X74083333Y-108702380D02*
X73750000Y-108226190D01*
X73511904Y-108702380D02*
X73511904Y-107702380D01*
X73892857Y-107702380D01*
X73988095Y-107750000D01*
X74035714Y-107797619D01*
X74083333Y-107892857D01*
X74083333Y-108035714D01*
X74035714Y-108130952D01*
X73988095Y-108178571D01*
X73892857Y-108226190D01*
X73511904Y-108226190D01*
X74654761Y-108130952D02*
X74559523Y-108083333D01*
X74511904Y-108035714D01*
X74464285Y-107940476D01*
X74464285Y-107892857D01*
X74511904Y-107797619D01*
X74559523Y-107750000D01*
X74654761Y-107702380D01*
X74845238Y-107702380D01*
X74940476Y-107750000D01*
X74988095Y-107797619D01*
X75035714Y-107892857D01*
X75035714Y-107940476D01*
X74988095Y-108035714D01*
X74940476Y-108083333D01*
X74845238Y-108130952D01*
X74654761Y-108130952D01*
X74559523Y-108178571D01*
X74511904Y-108226190D01*
X74464285Y-108321428D01*
X74464285Y-108511904D01*
X74511904Y-108607142D01*
X74559523Y-108654761D01*
X74654761Y-108702380D01*
X74845238Y-108702380D01*
X74940476Y-108654761D01*
X74988095Y-108607142D01*
X75035714Y-108511904D01*
X75035714Y-108321428D01*
X74988095Y-108226190D01*
X74940476Y-108178571D01*
X74845238Y-108130952D01*
X84083333Y-80452380D02*
X83750000Y-79976190D01*
X83511904Y-80452380D02*
X83511904Y-79452380D01*
X83892857Y-79452380D01*
X83988095Y-79500000D01*
X84035714Y-79547619D01*
X84083333Y-79642857D01*
X84083333Y-79785714D01*
X84035714Y-79880952D01*
X83988095Y-79928571D01*
X83892857Y-79976190D01*
X83511904Y-79976190D01*
X84416666Y-79452380D02*
X85083333Y-79452380D01*
X84654761Y-80452380D01*
X64452380Y-117916666D02*
X63976190Y-118250000D01*
X64452380Y-118488095D02*
X63452380Y-118488095D01*
X63452380Y-118107142D01*
X63500000Y-118011904D01*
X63547619Y-117964285D01*
X63642857Y-117916666D01*
X63785714Y-117916666D01*
X63880952Y-117964285D01*
X63928571Y-118011904D01*
X63976190Y-118107142D01*
X63976190Y-118488095D01*
X63452380Y-117059523D02*
X63452380Y-117250000D01*
X63500000Y-117345238D01*
X63547619Y-117392857D01*
X63690476Y-117488095D01*
X63880952Y-117535714D01*
X64261904Y-117535714D01*
X64357142Y-117488095D01*
X64404761Y-117440476D01*
X64452380Y-117345238D01*
X64452380Y-117154761D01*
X64404761Y-117059523D01*
X64357142Y-117011904D01*
X64261904Y-116964285D01*
X64023809Y-116964285D01*
X63928571Y-117011904D01*
X63880952Y-117059523D01*
X63833333Y-117154761D01*
X63833333Y-117345238D01*
X63880952Y-117440476D01*
X63928571Y-117488095D01*
X64023809Y-117535714D01*
X66452380Y-104416666D02*
X65976190Y-104750000D01*
X66452380Y-104988095D02*
X65452380Y-104988095D01*
X65452380Y-104607142D01*
X65500000Y-104511904D01*
X65547619Y-104464285D01*
X65642857Y-104416666D01*
X65785714Y-104416666D01*
X65880952Y-104464285D01*
X65928571Y-104511904D01*
X65976190Y-104607142D01*
X65976190Y-104988095D01*
X65452380Y-103511904D02*
X65452380Y-103988095D01*
X65928571Y-104035714D01*
X65880952Y-103988095D01*
X65833333Y-103892857D01*
X65833333Y-103654761D01*
X65880952Y-103559523D01*
X65928571Y-103511904D01*
X66023809Y-103464285D01*
X66261904Y-103464285D01*
X66357142Y-103511904D01*
X66404761Y-103559523D01*
X66452380Y-103654761D01*
X66452380Y-103892857D01*
X66404761Y-103988095D01*
X66357142Y-104035714D01*
X64702380Y-88916666D02*
X64226190Y-89250000D01*
X64702380Y-89488095D02*
X63702380Y-89488095D01*
X63702380Y-89107142D01*
X63750000Y-89011904D01*
X63797619Y-88964285D01*
X63892857Y-88916666D01*
X64035714Y-88916666D01*
X64130952Y-88964285D01*
X64178571Y-89011904D01*
X64226190Y-89107142D01*
X64226190Y-89488095D01*
X64035714Y-88059523D02*
X64702380Y-88059523D01*
X63654761Y-88297619D02*
X64369047Y-88535714D01*
X64369047Y-87916666D01*
X67202380Y-88916666D02*
X66726190Y-89250000D01*
X67202380Y-89488095D02*
X66202380Y-89488095D01*
X66202380Y-89107142D01*
X66250000Y-89011904D01*
X66297619Y-88964285D01*
X66392857Y-88916666D01*
X66535714Y-88916666D01*
X66630952Y-88964285D01*
X66678571Y-89011904D01*
X66726190Y-89107142D01*
X66726190Y-89488095D01*
X66202380Y-88583333D02*
X66202380Y-87964285D01*
X66583333Y-88297619D01*
X66583333Y-88154761D01*
X66630952Y-88059523D01*
X66678571Y-88011904D01*
X66773809Y-87964285D01*
X67011904Y-87964285D01*
X67107142Y-88011904D01*
X67154761Y-88059523D01*
X67202380Y-88154761D01*
X67202380Y-88440476D01*
X67154761Y-88535714D01*
X67107142Y-88583333D01*
X69702380Y-88916666D02*
X69226190Y-89250000D01*
X69702380Y-89488095D02*
X68702380Y-89488095D01*
X68702380Y-89107142D01*
X68750000Y-89011904D01*
X68797619Y-88964285D01*
X68892857Y-88916666D01*
X69035714Y-88916666D01*
X69130952Y-88964285D01*
X69178571Y-89011904D01*
X69226190Y-89107142D01*
X69226190Y-89488095D01*
X68797619Y-88535714D02*
X68750000Y-88488095D01*
X68702380Y-88392857D01*
X68702380Y-88154761D01*
X68750000Y-88059523D01*
X68797619Y-88011904D01*
X68892857Y-87964285D01*
X68988095Y-87964285D01*
X69130952Y-88011904D01*
X69702380Y-88583333D01*
X69702380Y-87964285D01*
X72202380Y-88916666D02*
X71726190Y-89250000D01*
X72202380Y-89488095D02*
X71202380Y-89488095D01*
X71202380Y-89107142D01*
X71250000Y-89011904D01*
X71297619Y-88964285D01*
X71392857Y-88916666D01*
X71535714Y-88916666D01*
X71630952Y-88964285D01*
X71678571Y-89011904D01*
X71726190Y-89107142D01*
X71726190Y-89488095D01*
X72202380Y-87964285D02*
X72202380Y-88535714D01*
X72202380Y-88250000D02*
X71202380Y-88250000D01*
X71345238Y-88345238D01*
X71440476Y-88440476D01*
X71488095Y-88535714D01*
X74154761Y-111547619D02*
X74059523Y-111500000D01*
X73964285Y-111404761D01*
X73821428Y-111261904D01*
X73726190Y-111214285D01*
X73630952Y-111214285D01*
X73678571Y-111452380D02*
X73583333Y-111404761D01*
X73488095Y-111309523D01*
X73440476Y-111119047D01*
X73440476Y-110785714D01*
X73488095Y-110595238D01*
X73583333Y-110500000D01*
X73678571Y-110452380D01*
X73869047Y-110452380D01*
X73964285Y-110500000D01*
X74059523Y-110595238D01*
X74107142Y-110785714D01*
X74107142Y-111119047D01*
X74059523Y-111309523D01*
X73964285Y-111404761D01*
X73869047Y-111452380D01*
X73678571Y-111452380D01*
X74488095Y-110547619D02*
X74535714Y-110500000D01*
X74630952Y-110452380D01*
X74869047Y-110452380D01*
X74964285Y-110500000D01*
X75011904Y-110547619D01*
X75059523Y-110642857D01*
X75059523Y-110738095D01*
X75011904Y-110880952D01*
X74440476Y-111452380D01*
X75059523Y-111452380D01*
X84154761Y-77797619D02*
X84059523Y-77750000D01*
X83964285Y-77654761D01*
X83821428Y-77511904D01*
X83726190Y-77464285D01*
X83630952Y-77464285D01*
X83678571Y-77702380D02*
X83583333Y-77654761D01*
X83488095Y-77559523D01*
X83440476Y-77369047D01*
X83440476Y-77035714D01*
X83488095Y-76845238D01*
X83583333Y-76750000D01*
X83678571Y-76702380D01*
X83869047Y-76702380D01*
X83964285Y-76750000D01*
X84059523Y-76845238D01*
X84107142Y-77035714D01*
X84107142Y-77369047D01*
X84059523Y-77559523D01*
X83964285Y-77654761D01*
X83869047Y-77702380D01*
X83678571Y-77702380D01*
X85059523Y-77702380D02*
X84488095Y-77702380D01*
X84773809Y-77702380D02*
X84773809Y-76702380D01*
X84678571Y-76845238D01*
X84583333Y-76940476D01*
X84488095Y-76988095D01*
X61952380Y-116142857D02*
X61952380Y-116619047D01*
X60952380Y-116619047D01*
X61904761Y-115857142D02*
X61952380Y-115714285D01*
X61952380Y-115476190D01*
X61904761Y-115380952D01*
X61857142Y-115333333D01*
X61761904Y-115285714D01*
X61666666Y-115285714D01*
X61571428Y-115333333D01*
X61523809Y-115380952D01*
X61476190Y-115476190D01*
X61428571Y-115666666D01*
X61380952Y-115761904D01*
X61333333Y-115809523D01*
X61238095Y-115857142D01*
X61142857Y-115857142D01*
X61047619Y-115809523D01*
X61000000Y-115761904D01*
X60952380Y-115666666D01*
X60952380Y-115428571D01*
X61000000Y-115285714D01*
X61952380Y-114333333D02*
X61952380Y-114904761D01*
X61952380Y-114619047D02*
X60952380Y-114619047D01*
X61095238Y-114714285D01*
X61190476Y-114809523D01*
X61238095Y-114904761D01*
X62357142Y-104416666D02*
X62404761Y-104464285D01*
X62452380Y-104607142D01*
X62452380Y-104702380D01*
X62404761Y-104845238D01*
X62309523Y-104940476D01*
X62214285Y-104988095D01*
X62023809Y-105035714D01*
X61880952Y-105035714D01*
X61690476Y-104988095D01*
X61595238Y-104940476D01*
X61500000Y-104845238D01*
X61452380Y-104702380D01*
X61452380Y-104607142D01*
X61500000Y-104464285D01*
X61547619Y-104416666D01*
X61452380Y-104083333D02*
X61452380Y-103464285D01*
X61833333Y-103797619D01*
X61833333Y-103654761D01*
X61880952Y-103559523D01*
X61928571Y-103511904D01*
X62023809Y-103464285D01*
X62261904Y-103464285D01*
X62357142Y-103511904D01*
X62404761Y-103559523D01*
X62452380Y-103654761D01*
X62452380Y-103940476D01*
X62404761Y-104035714D01*
X62357142Y-104083333D01*
X64357142Y-104416666D02*
X64404761Y-104464285D01*
X64452380Y-104607142D01*
X64452380Y-104702380D01*
X64404761Y-104845238D01*
X64309523Y-104940476D01*
X64214285Y-104988095D01*
X64023809Y-105035714D01*
X63880952Y-105035714D01*
X63690476Y-104988095D01*
X63595238Y-104940476D01*
X63500000Y-104845238D01*
X63452380Y-104702380D01*
X63452380Y-104607142D01*
X63500000Y-104464285D01*
X63547619Y-104416666D01*
X63547619Y-104035714D02*
X63500000Y-103988095D01*
X63452380Y-103892857D01*
X63452380Y-103654761D01*
X63500000Y-103559523D01*
X63547619Y-103511904D01*
X63642857Y-103464285D01*
X63738095Y-103464285D01*
X63880952Y-103511904D01*
X64452380Y-104083333D01*
X64452380Y-103464285D01*
X66357142Y-117916666D02*
X66404761Y-117964285D01*
X66452380Y-118107142D01*
X66452380Y-118202380D01*
X66404761Y-118345238D01*
X66309523Y-118440476D01*
X66214285Y-118488095D01*
X66023809Y-118535714D01*
X65880952Y-118535714D01*
X65690476Y-118488095D01*
X65595238Y-118440476D01*
X65500000Y-118345238D01*
X65452380Y-118202380D01*
X65452380Y-118107142D01*
X65500000Y-117964285D01*
X65547619Y-117916666D01*
X66452380Y-116964285D02*
X66452380Y-117535714D01*
X66452380Y-117250000D02*
X65452380Y-117250000D01*
X65595238Y-117345238D01*
X65690476Y-117440476D01*
X65738095Y-117535714D01*
%LPC*%
D15*
X88160000Y-90000000D03*
X84350000Y-90000000D03*
D16*
X94510000Y-82380000D03*
D17*
X91970000Y-82380000D03*
X89430000Y-82380000D03*
X86890000Y-82380000D03*
X84350000Y-82380000D03*
X81810000Y-82380000D03*
X79270000Y-82380000D03*
X76730000Y-82380000D03*
X74190000Y-82380000D03*
X71650000Y-82380000D03*
X69110000Y-82380000D03*
X66570000Y-82380000D03*
X64030000Y-82380000D03*
X81810000Y-95080000D03*
X84350000Y-95080000D03*
X86890000Y-95080000D03*
X91970000Y-95080000D03*
X94510000Y-97620000D03*
X91970000Y-97620000D03*
X89430000Y-97620000D03*
X86890000Y-97620000D03*
X84350000Y-97620000D03*
X81810000Y-97620000D03*
X79270000Y-97620000D03*
X76730000Y-97620000D03*
X74190000Y-97620000D03*
X71650000Y-97620000D03*
X69110000Y-97620000D03*
X66570000Y-97620000D03*
X64030000Y-97620000D03*
X61490000Y-82380000D03*
X61490000Y-84920000D03*
X61490000Y-87460000D03*
X61490000Y-97620000D03*
X61490000Y-95080000D03*
X61490000Y-92540000D03*
X61490000Y-90000000D03*
D18*
X76460000Y-114235000D03*
X81540000Y-123765000D03*
X79000000Y-114235000D03*
X79000000Y-123765000D03*
X81540000Y-114235000D03*
X76460000Y-123765000D03*
D11*
G36*
X80480691Y-111475176D02*
G01*
X80504401Y-111478693D01*
X80527652Y-111484517D01*
X80550220Y-111492592D01*
X80571889Y-111502841D01*
X80592448Y-111515164D01*
X80611701Y-111529442D01*
X80629461Y-111545539D01*
X80645558Y-111563299D01*
X80659836Y-111582552D01*
X80672159Y-111603111D01*
X80682408Y-111624780D01*
X80690483Y-111647348D01*
X80696307Y-111670599D01*
X80699824Y-111694309D01*
X80701000Y-111718250D01*
X80701000Y-112281750D01*
X80699824Y-112305691D01*
X80696307Y-112329401D01*
X80690483Y-112352652D01*
X80682408Y-112375220D01*
X80672159Y-112396889D01*
X80659836Y-112417448D01*
X80645558Y-112436701D01*
X80629461Y-112454461D01*
X80611701Y-112470558D01*
X80592448Y-112484836D01*
X80571889Y-112497159D01*
X80550220Y-112507408D01*
X80527652Y-112515483D01*
X80504401Y-112521307D01*
X80480691Y-112524824D01*
X80456750Y-112526000D01*
X79968250Y-112526000D01*
X79944309Y-112524824D01*
X79920599Y-112521307D01*
X79897348Y-112515483D01*
X79874780Y-112507408D01*
X79853111Y-112497159D01*
X79832552Y-112484836D01*
X79813299Y-112470558D01*
X79795539Y-112454461D01*
X79779442Y-112436701D01*
X79765164Y-112417448D01*
X79752841Y-112396889D01*
X79742592Y-112375220D01*
X79734517Y-112352652D01*
X79728693Y-112329401D01*
X79725176Y-112305691D01*
X79724000Y-112281750D01*
X79724000Y-111718250D01*
X79725176Y-111694309D01*
X79728693Y-111670599D01*
X79734517Y-111647348D01*
X79742592Y-111624780D01*
X79752841Y-111603111D01*
X79765164Y-111582552D01*
X79779442Y-111563299D01*
X79795539Y-111545539D01*
X79813299Y-111529442D01*
X79832552Y-111515164D01*
X79853111Y-111502841D01*
X79874780Y-111492592D01*
X79897348Y-111484517D01*
X79920599Y-111478693D01*
X79944309Y-111475176D01*
X79968250Y-111474000D01*
X80456750Y-111474000D01*
X80480691Y-111475176D01*
X80480691Y-111475176D01*
G37*
D19*
X80212500Y-112000000D03*
D11*
G36*
X82055691Y-111475176D02*
G01*
X82079401Y-111478693D01*
X82102652Y-111484517D01*
X82125220Y-111492592D01*
X82146889Y-111502841D01*
X82167448Y-111515164D01*
X82186701Y-111529442D01*
X82204461Y-111545539D01*
X82220558Y-111563299D01*
X82234836Y-111582552D01*
X82247159Y-111603111D01*
X82257408Y-111624780D01*
X82265483Y-111647348D01*
X82271307Y-111670599D01*
X82274824Y-111694309D01*
X82276000Y-111718250D01*
X82276000Y-112281750D01*
X82274824Y-112305691D01*
X82271307Y-112329401D01*
X82265483Y-112352652D01*
X82257408Y-112375220D01*
X82247159Y-112396889D01*
X82234836Y-112417448D01*
X82220558Y-112436701D01*
X82204461Y-112454461D01*
X82186701Y-112470558D01*
X82167448Y-112484836D01*
X82146889Y-112497159D01*
X82125220Y-112507408D01*
X82102652Y-112515483D01*
X82079401Y-112521307D01*
X82055691Y-112524824D01*
X82031750Y-112526000D01*
X81543250Y-112526000D01*
X81519309Y-112524824D01*
X81495599Y-112521307D01*
X81472348Y-112515483D01*
X81449780Y-112507408D01*
X81428111Y-112497159D01*
X81407552Y-112484836D01*
X81388299Y-112470558D01*
X81370539Y-112454461D01*
X81354442Y-112436701D01*
X81340164Y-112417448D01*
X81327841Y-112396889D01*
X81317592Y-112375220D01*
X81309517Y-112352652D01*
X81303693Y-112329401D01*
X81300176Y-112305691D01*
X81299000Y-112281750D01*
X81299000Y-111718250D01*
X81300176Y-111694309D01*
X81303693Y-111670599D01*
X81309517Y-111647348D01*
X81317592Y-111624780D01*
X81327841Y-111603111D01*
X81340164Y-111582552D01*
X81354442Y-111563299D01*
X81370539Y-111545539D01*
X81388299Y-111529442D01*
X81407552Y-111515164D01*
X81428111Y-111502841D01*
X81449780Y-111492592D01*
X81472348Y-111484517D01*
X81495599Y-111478693D01*
X81519309Y-111475176D01*
X81543250Y-111474000D01*
X82031750Y-111474000D01*
X82055691Y-111475176D01*
X82055691Y-111475176D01*
G37*
D19*
X81787500Y-112000000D03*
D11*
G36*
X85305691Y-103725176D02*
G01*
X85329401Y-103728693D01*
X85352652Y-103734517D01*
X85375220Y-103742592D01*
X85396889Y-103752841D01*
X85417448Y-103765164D01*
X85436701Y-103779442D01*
X85454461Y-103795539D01*
X85470558Y-103813299D01*
X85484836Y-103832552D01*
X85497159Y-103853111D01*
X85507408Y-103874780D01*
X85515483Y-103897348D01*
X85521307Y-103920599D01*
X85524824Y-103944309D01*
X85526000Y-103968250D01*
X85526000Y-104456750D01*
X85524824Y-104480691D01*
X85521307Y-104504401D01*
X85515483Y-104527652D01*
X85507408Y-104550220D01*
X85497159Y-104571889D01*
X85484836Y-104592448D01*
X85470558Y-104611701D01*
X85454461Y-104629461D01*
X85436701Y-104645558D01*
X85417448Y-104659836D01*
X85396889Y-104672159D01*
X85375220Y-104682408D01*
X85352652Y-104690483D01*
X85329401Y-104696307D01*
X85305691Y-104699824D01*
X85281750Y-104701000D01*
X84718250Y-104701000D01*
X84694309Y-104699824D01*
X84670599Y-104696307D01*
X84647348Y-104690483D01*
X84624780Y-104682408D01*
X84603111Y-104672159D01*
X84582552Y-104659836D01*
X84563299Y-104645558D01*
X84545539Y-104629461D01*
X84529442Y-104611701D01*
X84515164Y-104592448D01*
X84502841Y-104571889D01*
X84492592Y-104550220D01*
X84484517Y-104527652D01*
X84478693Y-104504401D01*
X84475176Y-104480691D01*
X84474000Y-104456750D01*
X84474000Y-103968250D01*
X84475176Y-103944309D01*
X84478693Y-103920599D01*
X84484517Y-103897348D01*
X84492592Y-103874780D01*
X84502841Y-103853111D01*
X84515164Y-103832552D01*
X84529442Y-103813299D01*
X84545539Y-103795539D01*
X84563299Y-103779442D01*
X84582552Y-103765164D01*
X84603111Y-103752841D01*
X84624780Y-103742592D01*
X84647348Y-103734517D01*
X84670599Y-103728693D01*
X84694309Y-103725176D01*
X84718250Y-103724000D01*
X85281750Y-103724000D01*
X85305691Y-103725176D01*
X85305691Y-103725176D01*
G37*
D19*
X85000000Y-104212500D03*
D11*
G36*
X85305691Y-105300176D02*
G01*
X85329401Y-105303693D01*
X85352652Y-105309517D01*
X85375220Y-105317592D01*
X85396889Y-105327841D01*
X85417448Y-105340164D01*
X85436701Y-105354442D01*
X85454461Y-105370539D01*
X85470558Y-105388299D01*
X85484836Y-105407552D01*
X85497159Y-105428111D01*
X85507408Y-105449780D01*
X85515483Y-105472348D01*
X85521307Y-105495599D01*
X85524824Y-105519309D01*
X85526000Y-105543250D01*
X85526000Y-106031750D01*
X85524824Y-106055691D01*
X85521307Y-106079401D01*
X85515483Y-106102652D01*
X85507408Y-106125220D01*
X85497159Y-106146889D01*
X85484836Y-106167448D01*
X85470558Y-106186701D01*
X85454461Y-106204461D01*
X85436701Y-106220558D01*
X85417448Y-106234836D01*
X85396889Y-106247159D01*
X85375220Y-106257408D01*
X85352652Y-106265483D01*
X85329401Y-106271307D01*
X85305691Y-106274824D01*
X85281750Y-106276000D01*
X84718250Y-106276000D01*
X84694309Y-106274824D01*
X84670599Y-106271307D01*
X84647348Y-106265483D01*
X84624780Y-106257408D01*
X84603111Y-106247159D01*
X84582552Y-106234836D01*
X84563299Y-106220558D01*
X84545539Y-106204461D01*
X84529442Y-106186701D01*
X84515164Y-106167448D01*
X84502841Y-106146889D01*
X84492592Y-106125220D01*
X84484517Y-106102652D01*
X84478693Y-106079401D01*
X84475176Y-106055691D01*
X84474000Y-106031750D01*
X84474000Y-105543250D01*
X84475176Y-105519309D01*
X84478693Y-105495599D01*
X84484517Y-105472348D01*
X84492592Y-105449780D01*
X84502841Y-105428111D01*
X84515164Y-105407552D01*
X84529442Y-105388299D01*
X84545539Y-105370539D01*
X84563299Y-105354442D01*
X84582552Y-105340164D01*
X84603111Y-105327841D01*
X84624780Y-105317592D01*
X84647348Y-105309517D01*
X84670599Y-105303693D01*
X84694309Y-105300176D01*
X84718250Y-105299000D01*
X85281750Y-105299000D01*
X85305691Y-105300176D01*
X85305691Y-105300176D01*
G37*
D19*
X85000000Y-105787500D03*
D11*
G36*
X85305691Y-114725176D02*
G01*
X85329401Y-114728693D01*
X85352652Y-114734517D01*
X85375220Y-114742592D01*
X85396889Y-114752841D01*
X85417448Y-114765164D01*
X85436701Y-114779442D01*
X85454461Y-114795539D01*
X85470558Y-114813299D01*
X85484836Y-114832552D01*
X85497159Y-114853111D01*
X85507408Y-114874780D01*
X85515483Y-114897348D01*
X85521307Y-114920599D01*
X85524824Y-114944309D01*
X85526000Y-114968250D01*
X85526000Y-115456750D01*
X85524824Y-115480691D01*
X85521307Y-115504401D01*
X85515483Y-115527652D01*
X85507408Y-115550220D01*
X85497159Y-115571889D01*
X85484836Y-115592448D01*
X85470558Y-115611701D01*
X85454461Y-115629461D01*
X85436701Y-115645558D01*
X85417448Y-115659836D01*
X85396889Y-115672159D01*
X85375220Y-115682408D01*
X85352652Y-115690483D01*
X85329401Y-115696307D01*
X85305691Y-115699824D01*
X85281750Y-115701000D01*
X84718250Y-115701000D01*
X84694309Y-115699824D01*
X84670599Y-115696307D01*
X84647348Y-115690483D01*
X84624780Y-115682408D01*
X84603111Y-115672159D01*
X84582552Y-115659836D01*
X84563299Y-115645558D01*
X84545539Y-115629461D01*
X84529442Y-115611701D01*
X84515164Y-115592448D01*
X84502841Y-115571889D01*
X84492592Y-115550220D01*
X84484517Y-115527652D01*
X84478693Y-115504401D01*
X84475176Y-115480691D01*
X84474000Y-115456750D01*
X84474000Y-114968250D01*
X84475176Y-114944309D01*
X84478693Y-114920599D01*
X84484517Y-114897348D01*
X84492592Y-114874780D01*
X84502841Y-114853111D01*
X84515164Y-114832552D01*
X84529442Y-114813299D01*
X84545539Y-114795539D01*
X84563299Y-114779442D01*
X84582552Y-114765164D01*
X84603111Y-114752841D01*
X84624780Y-114742592D01*
X84647348Y-114734517D01*
X84670599Y-114728693D01*
X84694309Y-114725176D01*
X84718250Y-114724000D01*
X85281750Y-114724000D01*
X85305691Y-114725176D01*
X85305691Y-114725176D01*
G37*
D19*
X85000000Y-115212500D03*
D11*
G36*
X85305691Y-116300176D02*
G01*
X85329401Y-116303693D01*
X85352652Y-116309517D01*
X85375220Y-116317592D01*
X85396889Y-116327841D01*
X85417448Y-116340164D01*
X85436701Y-116354442D01*
X85454461Y-116370539D01*
X85470558Y-116388299D01*
X85484836Y-116407552D01*
X85497159Y-116428111D01*
X85507408Y-116449780D01*
X85515483Y-116472348D01*
X85521307Y-116495599D01*
X85524824Y-116519309D01*
X85526000Y-116543250D01*
X85526000Y-117031750D01*
X85524824Y-117055691D01*
X85521307Y-117079401D01*
X85515483Y-117102652D01*
X85507408Y-117125220D01*
X85497159Y-117146889D01*
X85484836Y-117167448D01*
X85470558Y-117186701D01*
X85454461Y-117204461D01*
X85436701Y-117220558D01*
X85417448Y-117234836D01*
X85396889Y-117247159D01*
X85375220Y-117257408D01*
X85352652Y-117265483D01*
X85329401Y-117271307D01*
X85305691Y-117274824D01*
X85281750Y-117276000D01*
X84718250Y-117276000D01*
X84694309Y-117274824D01*
X84670599Y-117271307D01*
X84647348Y-117265483D01*
X84624780Y-117257408D01*
X84603111Y-117247159D01*
X84582552Y-117234836D01*
X84563299Y-117220558D01*
X84545539Y-117204461D01*
X84529442Y-117186701D01*
X84515164Y-117167448D01*
X84502841Y-117146889D01*
X84492592Y-117125220D01*
X84484517Y-117102652D01*
X84478693Y-117079401D01*
X84475176Y-117055691D01*
X84474000Y-117031750D01*
X84474000Y-116543250D01*
X84475176Y-116519309D01*
X84478693Y-116495599D01*
X84484517Y-116472348D01*
X84492592Y-116449780D01*
X84502841Y-116428111D01*
X84515164Y-116407552D01*
X84529442Y-116388299D01*
X84545539Y-116370539D01*
X84563299Y-116354442D01*
X84582552Y-116340164D01*
X84603111Y-116327841D01*
X84624780Y-116317592D01*
X84647348Y-116309517D01*
X84670599Y-116303693D01*
X84694309Y-116300176D01*
X84718250Y-116299000D01*
X85281750Y-116299000D01*
X85305691Y-116300176D01*
X85305691Y-116300176D01*
G37*
D19*
X85000000Y-116787500D03*
D11*
G36*
X85305691Y-109300176D02*
G01*
X85329401Y-109303693D01*
X85352652Y-109309517D01*
X85375220Y-109317592D01*
X85396889Y-109327841D01*
X85417448Y-109340164D01*
X85436701Y-109354442D01*
X85454461Y-109370539D01*
X85470558Y-109388299D01*
X85484836Y-109407552D01*
X85497159Y-109428111D01*
X85507408Y-109449780D01*
X85515483Y-109472348D01*
X85521307Y-109495599D01*
X85524824Y-109519309D01*
X85526000Y-109543250D01*
X85526000Y-110031750D01*
X85524824Y-110055691D01*
X85521307Y-110079401D01*
X85515483Y-110102652D01*
X85507408Y-110125220D01*
X85497159Y-110146889D01*
X85484836Y-110167448D01*
X85470558Y-110186701D01*
X85454461Y-110204461D01*
X85436701Y-110220558D01*
X85417448Y-110234836D01*
X85396889Y-110247159D01*
X85375220Y-110257408D01*
X85352652Y-110265483D01*
X85329401Y-110271307D01*
X85305691Y-110274824D01*
X85281750Y-110276000D01*
X84718250Y-110276000D01*
X84694309Y-110274824D01*
X84670599Y-110271307D01*
X84647348Y-110265483D01*
X84624780Y-110257408D01*
X84603111Y-110247159D01*
X84582552Y-110234836D01*
X84563299Y-110220558D01*
X84545539Y-110204461D01*
X84529442Y-110186701D01*
X84515164Y-110167448D01*
X84502841Y-110146889D01*
X84492592Y-110125220D01*
X84484517Y-110102652D01*
X84478693Y-110079401D01*
X84475176Y-110055691D01*
X84474000Y-110031750D01*
X84474000Y-109543250D01*
X84475176Y-109519309D01*
X84478693Y-109495599D01*
X84484517Y-109472348D01*
X84492592Y-109449780D01*
X84502841Y-109428111D01*
X84515164Y-109407552D01*
X84529442Y-109388299D01*
X84545539Y-109370539D01*
X84563299Y-109354442D01*
X84582552Y-109340164D01*
X84603111Y-109327841D01*
X84624780Y-109317592D01*
X84647348Y-109309517D01*
X84670599Y-109303693D01*
X84694309Y-109300176D01*
X84718250Y-109299000D01*
X85281750Y-109299000D01*
X85305691Y-109300176D01*
X85305691Y-109300176D01*
G37*
D19*
X85000000Y-109787500D03*
D11*
G36*
X85305691Y-107725176D02*
G01*
X85329401Y-107728693D01*
X85352652Y-107734517D01*
X85375220Y-107742592D01*
X85396889Y-107752841D01*
X85417448Y-107765164D01*
X85436701Y-107779442D01*
X85454461Y-107795539D01*
X85470558Y-107813299D01*
X85484836Y-107832552D01*
X85497159Y-107853111D01*
X85507408Y-107874780D01*
X85515483Y-107897348D01*
X85521307Y-107920599D01*
X85524824Y-107944309D01*
X85526000Y-107968250D01*
X85526000Y-108456750D01*
X85524824Y-108480691D01*
X85521307Y-108504401D01*
X85515483Y-108527652D01*
X85507408Y-108550220D01*
X85497159Y-108571889D01*
X85484836Y-108592448D01*
X85470558Y-108611701D01*
X85454461Y-108629461D01*
X85436701Y-108645558D01*
X85417448Y-108659836D01*
X85396889Y-108672159D01*
X85375220Y-108682408D01*
X85352652Y-108690483D01*
X85329401Y-108696307D01*
X85305691Y-108699824D01*
X85281750Y-108701000D01*
X84718250Y-108701000D01*
X84694309Y-108699824D01*
X84670599Y-108696307D01*
X84647348Y-108690483D01*
X84624780Y-108682408D01*
X84603111Y-108672159D01*
X84582552Y-108659836D01*
X84563299Y-108645558D01*
X84545539Y-108629461D01*
X84529442Y-108611701D01*
X84515164Y-108592448D01*
X84502841Y-108571889D01*
X84492592Y-108550220D01*
X84484517Y-108527652D01*
X84478693Y-108504401D01*
X84475176Y-108480691D01*
X84474000Y-108456750D01*
X84474000Y-107968250D01*
X84475176Y-107944309D01*
X84478693Y-107920599D01*
X84484517Y-107897348D01*
X84492592Y-107874780D01*
X84502841Y-107853111D01*
X84515164Y-107832552D01*
X84529442Y-107813299D01*
X84545539Y-107795539D01*
X84563299Y-107779442D01*
X84582552Y-107765164D01*
X84603111Y-107752841D01*
X84624780Y-107742592D01*
X84647348Y-107734517D01*
X84670599Y-107728693D01*
X84694309Y-107725176D01*
X84718250Y-107724000D01*
X85281750Y-107724000D01*
X85305691Y-107725176D01*
X85305691Y-107725176D01*
G37*
D19*
X85000000Y-108212500D03*
D20*
X91500000Y-119000000D03*
X98500000Y-119000000D03*
D21*
X90200000Y-115300000D03*
D22*
X99600000Y-115300000D03*
X97600000Y-122700000D03*
D20*
X91500000Y-107000000D03*
X98500000Y-107000000D03*
D21*
X90200000Y-103300000D03*
D22*
X99600000Y-103300000D03*
X97600000Y-110700000D03*
D23*
X85000000Y-122650000D03*
X85000000Y-119350000D03*
D11*
G36*
X78055691Y-111475176D02*
G01*
X78079401Y-111478693D01*
X78102652Y-111484517D01*
X78125220Y-111492592D01*
X78146889Y-111502841D01*
X78167448Y-111515164D01*
X78186701Y-111529442D01*
X78204461Y-111545539D01*
X78220558Y-111563299D01*
X78234836Y-111582552D01*
X78247159Y-111603111D01*
X78257408Y-111624780D01*
X78265483Y-111647348D01*
X78271307Y-111670599D01*
X78274824Y-111694309D01*
X78276000Y-111718250D01*
X78276000Y-112281750D01*
X78274824Y-112305691D01*
X78271307Y-112329401D01*
X78265483Y-112352652D01*
X78257408Y-112375220D01*
X78247159Y-112396889D01*
X78234836Y-112417448D01*
X78220558Y-112436701D01*
X78204461Y-112454461D01*
X78186701Y-112470558D01*
X78167448Y-112484836D01*
X78146889Y-112497159D01*
X78125220Y-112507408D01*
X78102652Y-112515483D01*
X78079401Y-112521307D01*
X78055691Y-112524824D01*
X78031750Y-112526000D01*
X77543250Y-112526000D01*
X77519309Y-112524824D01*
X77495599Y-112521307D01*
X77472348Y-112515483D01*
X77449780Y-112507408D01*
X77428111Y-112497159D01*
X77407552Y-112484836D01*
X77388299Y-112470558D01*
X77370539Y-112454461D01*
X77354442Y-112436701D01*
X77340164Y-112417448D01*
X77327841Y-112396889D01*
X77317592Y-112375220D01*
X77309517Y-112352652D01*
X77303693Y-112329401D01*
X77300176Y-112305691D01*
X77299000Y-112281750D01*
X77299000Y-111718250D01*
X77300176Y-111694309D01*
X77303693Y-111670599D01*
X77309517Y-111647348D01*
X77317592Y-111624780D01*
X77327841Y-111603111D01*
X77340164Y-111582552D01*
X77354442Y-111563299D01*
X77370539Y-111545539D01*
X77388299Y-111529442D01*
X77407552Y-111515164D01*
X77428111Y-111502841D01*
X77449780Y-111492592D01*
X77472348Y-111484517D01*
X77495599Y-111478693D01*
X77519309Y-111475176D01*
X77543250Y-111474000D01*
X78031750Y-111474000D01*
X78055691Y-111475176D01*
X78055691Y-111475176D01*
G37*
D19*
X77787500Y-112000000D03*
D11*
G36*
X76480691Y-111475176D02*
G01*
X76504401Y-111478693D01*
X76527652Y-111484517D01*
X76550220Y-111492592D01*
X76571889Y-111502841D01*
X76592448Y-111515164D01*
X76611701Y-111529442D01*
X76629461Y-111545539D01*
X76645558Y-111563299D01*
X76659836Y-111582552D01*
X76672159Y-111603111D01*
X76682408Y-111624780D01*
X76690483Y-111647348D01*
X76696307Y-111670599D01*
X76699824Y-111694309D01*
X76701000Y-111718250D01*
X76701000Y-112281750D01*
X76699824Y-112305691D01*
X76696307Y-112329401D01*
X76690483Y-112352652D01*
X76682408Y-112375220D01*
X76672159Y-112396889D01*
X76659836Y-112417448D01*
X76645558Y-112436701D01*
X76629461Y-112454461D01*
X76611701Y-112470558D01*
X76592448Y-112484836D01*
X76571889Y-112497159D01*
X76550220Y-112507408D01*
X76527652Y-112515483D01*
X76504401Y-112521307D01*
X76480691Y-112524824D01*
X76456750Y-112526000D01*
X75968250Y-112526000D01*
X75944309Y-112524824D01*
X75920599Y-112521307D01*
X75897348Y-112515483D01*
X75874780Y-112507408D01*
X75853111Y-112497159D01*
X75832552Y-112484836D01*
X75813299Y-112470558D01*
X75795539Y-112454461D01*
X75779442Y-112436701D01*
X75765164Y-112417448D01*
X75752841Y-112396889D01*
X75742592Y-112375220D01*
X75734517Y-112352652D01*
X75728693Y-112329401D01*
X75725176Y-112305691D01*
X75724000Y-112281750D01*
X75724000Y-111718250D01*
X75725176Y-111694309D01*
X75728693Y-111670599D01*
X75734517Y-111647348D01*
X75742592Y-111624780D01*
X75752841Y-111603111D01*
X75765164Y-111582552D01*
X75779442Y-111563299D01*
X75795539Y-111545539D01*
X75813299Y-111529442D01*
X75832552Y-111515164D01*
X75853111Y-111502841D01*
X75874780Y-111492592D01*
X75897348Y-111484517D01*
X75920599Y-111478693D01*
X75944309Y-111475176D01*
X75968250Y-111474000D01*
X76456750Y-111474000D01*
X76480691Y-111475176D01*
X76480691Y-111475176D01*
G37*
D19*
X76212500Y-112000000D03*
D24*
X76660000Y-51550000D03*
X78340000Y-51550000D03*
D25*
X74590000Y-51550000D03*
X80410000Y-51550000D03*
D26*
X75037500Y-53850000D03*
X79962500Y-53850000D03*
D27*
X76200000Y-54210000D03*
X76850000Y-54210000D03*
X77500000Y-54210000D03*
X78150000Y-54210000D03*
X78800000Y-54210000D03*
D28*
X63000000Y-109900000D03*
X62050000Y-109900000D03*
X63950000Y-109900000D03*
X63950000Y-112100000D03*
X63000000Y-112100000D03*
X62050000Y-112100000D03*
D29*
X59900000Y-53000000D03*
X52100000Y-53000000D03*
X70900000Y-53000000D03*
X63100000Y-53000000D03*
X91900000Y-53000000D03*
X84100000Y-53000000D03*
X102900000Y-53000000D03*
X95100000Y-53000000D03*
D11*
G36*
X70730691Y-113225176D02*
G01*
X70754401Y-113228693D01*
X70777652Y-113234517D01*
X70800220Y-113242592D01*
X70821889Y-113252841D01*
X70842448Y-113265164D01*
X70861701Y-113279442D01*
X70879461Y-113295539D01*
X70895558Y-113313299D01*
X70909836Y-113332552D01*
X70922159Y-113353111D01*
X70932408Y-113374780D01*
X70940483Y-113397348D01*
X70946307Y-113420599D01*
X70949824Y-113444309D01*
X70951000Y-113468250D01*
X70951000Y-114031750D01*
X70949824Y-114055691D01*
X70946307Y-114079401D01*
X70940483Y-114102652D01*
X70932408Y-114125220D01*
X70922159Y-114146889D01*
X70909836Y-114167448D01*
X70895558Y-114186701D01*
X70879461Y-114204461D01*
X70861701Y-114220558D01*
X70842448Y-114234836D01*
X70821889Y-114247159D01*
X70800220Y-114257408D01*
X70777652Y-114265483D01*
X70754401Y-114271307D01*
X70730691Y-114274824D01*
X70706750Y-114276000D01*
X70218250Y-114276000D01*
X70194309Y-114274824D01*
X70170599Y-114271307D01*
X70147348Y-114265483D01*
X70124780Y-114257408D01*
X70103111Y-114247159D01*
X70082552Y-114234836D01*
X70063299Y-114220558D01*
X70045539Y-114204461D01*
X70029442Y-114186701D01*
X70015164Y-114167448D01*
X70002841Y-114146889D01*
X69992592Y-114125220D01*
X69984517Y-114102652D01*
X69978693Y-114079401D01*
X69975176Y-114055691D01*
X69974000Y-114031750D01*
X69974000Y-113468250D01*
X69975176Y-113444309D01*
X69978693Y-113420599D01*
X69984517Y-113397348D01*
X69992592Y-113374780D01*
X70002841Y-113353111D01*
X70015164Y-113332552D01*
X70029442Y-113313299D01*
X70045539Y-113295539D01*
X70063299Y-113279442D01*
X70082552Y-113265164D01*
X70103111Y-113252841D01*
X70124780Y-113242592D01*
X70147348Y-113234517D01*
X70170599Y-113228693D01*
X70194309Y-113225176D01*
X70218250Y-113224000D01*
X70706750Y-113224000D01*
X70730691Y-113225176D01*
X70730691Y-113225176D01*
G37*
D19*
X70462500Y-113750000D03*
D11*
G36*
X72305691Y-113225176D02*
G01*
X72329401Y-113228693D01*
X72352652Y-113234517D01*
X72375220Y-113242592D01*
X72396889Y-113252841D01*
X72417448Y-113265164D01*
X72436701Y-113279442D01*
X72454461Y-113295539D01*
X72470558Y-113313299D01*
X72484836Y-113332552D01*
X72497159Y-113353111D01*
X72507408Y-113374780D01*
X72515483Y-113397348D01*
X72521307Y-113420599D01*
X72524824Y-113444309D01*
X72526000Y-113468250D01*
X72526000Y-114031750D01*
X72524824Y-114055691D01*
X72521307Y-114079401D01*
X72515483Y-114102652D01*
X72507408Y-114125220D01*
X72497159Y-114146889D01*
X72484836Y-114167448D01*
X72470558Y-114186701D01*
X72454461Y-114204461D01*
X72436701Y-114220558D01*
X72417448Y-114234836D01*
X72396889Y-114247159D01*
X72375220Y-114257408D01*
X72352652Y-114265483D01*
X72329401Y-114271307D01*
X72305691Y-114274824D01*
X72281750Y-114276000D01*
X71793250Y-114276000D01*
X71769309Y-114274824D01*
X71745599Y-114271307D01*
X71722348Y-114265483D01*
X71699780Y-114257408D01*
X71678111Y-114247159D01*
X71657552Y-114234836D01*
X71638299Y-114220558D01*
X71620539Y-114204461D01*
X71604442Y-114186701D01*
X71590164Y-114167448D01*
X71577841Y-114146889D01*
X71567592Y-114125220D01*
X71559517Y-114102652D01*
X71553693Y-114079401D01*
X71550176Y-114055691D01*
X71549000Y-114031750D01*
X71549000Y-113468250D01*
X71550176Y-113444309D01*
X71553693Y-113420599D01*
X71559517Y-113397348D01*
X71567592Y-113374780D01*
X71577841Y-113353111D01*
X71590164Y-113332552D01*
X71604442Y-113313299D01*
X71620539Y-113295539D01*
X71638299Y-113279442D01*
X71657552Y-113265164D01*
X71678111Y-113252841D01*
X71699780Y-113242592D01*
X71722348Y-113234517D01*
X71745599Y-113228693D01*
X71769309Y-113225176D01*
X71793250Y-113224000D01*
X72281750Y-113224000D01*
X72305691Y-113225176D01*
X72305691Y-113225176D01*
G37*
D19*
X72037500Y-113750000D03*
D11*
G36*
X88055691Y-73975176D02*
G01*
X88079401Y-73978693D01*
X88102652Y-73984517D01*
X88125220Y-73992592D01*
X88146889Y-74002841D01*
X88167448Y-74015164D01*
X88186701Y-74029442D01*
X88204461Y-74045539D01*
X88220558Y-74063299D01*
X88234836Y-74082552D01*
X88247159Y-74103111D01*
X88257408Y-74124780D01*
X88265483Y-74147348D01*
X88271307Y-74170599D01*
X88274824Y-74194309D01*
X88276000Y-74218250D01*
X88276000Y-74781750D01*
X88274824Y-74805691D01*
X88271307Y-74829401D01*
X88265483Y-74852652D01*
X88257408Y-74875220D01*
X88247159Y-74896889D01*
X88234836Y-74917448D01*
X88220558Y-74936701D01*
X88204461Y-74954461D01*
X88186701Y-74970558D01*
X88167448Y-74984836D01*
X88146889Y-74997159D01*
X88125220Y-75007408D01*
X88102652Y-75015483D01*
X88079401Y-75021307D01*
X88055691Y-75024824D01*
X88031750Y-75026000D01*
X87543250Y-75026000D01*
X87519309Y-75024824D01*
X87495599Y-75021307D01*
X87472348Y-75015483D01*
X87449780Y-75007408D01*
X87428111Y-74997159D01*
X87407552Y-74984836D01*
X87388299Y-74970558D01*
X87370539Y-74954461D01*
X87354442Y-74936701D01*
X87340164Y-74917448D01*
X87327841Y-74896889D01*
X87317592Y-74875220D01*
X87309517Y-74852652D01*
X87303693Y-74829401D01*
X87300176Y-74805691D01*
X87299000Y-74781750D01*
X87299000Y-74218250D01*
X87300176Y-74194309D01*
X87303693Y-74170599D01*
X87309517Y-74147348D01*
X87317592Y-74124780D01*
X87327841Y-74103111D01*
X87340164Y-74082552D01*
X87354442Y-74063299D01*
X87370539Y-74045539D01*
X87388299Y-74029442D01*
X87407552Y-74015164D01*
X87428111Y-74002841D01*
X87449780Y-73992592D01*
X87472348Y-73984517D01*
X87495599Y-73978693D01*
X87519309Y-73975176D01*
X87543250Y-73974000D01*
X88031750Y-73974000D01*
X88055691Y-73975176D01*
X88055691Y-73975176D01*
G37*
D19*
X87787500Y-74500000D03*
D11*
G36*
X86480691Y-73975176D02*
G01*
X86504401Y-73978693D01*
X86527652Y-73984517D01*
X86550220Y-73992592D01*
X86571889Y-74002841D01*
X86592448Y-74015164D01*
X86611701Y-74029442D01*
X86629461Y-74045539D01*
X86645558Y-74063299D01*
X86659836Y-74082552D01*
X86672159Y-74103111D01*
X86682408Y-74124780D01*
X86690483Y-74147348D01*
X86696307Y-74170599D01*
X86699824Y-74194309D01*
X86701000Y-74218250D01*
X86701000Y-74781750D01*
X86699824Y-74805691D01*
X86696307Y-74829401D01*
X86690483Y-74852652D01*
X86682408Y-74875220D01*
X86672159Y-74896889D01*
X86659836Y-74917448D01*
X86645558Y-74936701D01*
X86629461Y-74954461D01*
X86611701Y-74970558D01*
X86592448Y-74984836D01*
X86571889Y-74997159D01*
X86550220Y-75007408D01*
X86527652Y-75015483D01*
X86504401Y-75021307D01*
X86480691Y-75024824D01*
X86456750Y-75026000D01*
X85968250Y-75026000D01*
X85944309Y-75024824D01*
X85920599Y-75021307D01*
X85897348Y-75015483D01*
X85874780Y-75007408D01*
X85853111Y-74997159D01*
X85832552Y-74984836D01*
X85813299Y-74970558D01*
X85795539Y-74954461D01*
X85779442Y-74936701D01*
X85765164Y-74917448D01*
X85752841Y-74896889D01*
X85742592Y-74875220D01*
X85734517Y-74852652D01*
X85728693Y-74829401D01*
X85725176Y-74805691D01*
X85724000Y-74781750D01*
X85724000Y-74218250D01*
X85725176Y-74194309D01*
X85728693Y-74170599D01*
X85734517Y-74147348D01*
X85742592Y-74124780D01*
X85752841Y-74103111D01*
X85765164Y-74082552D01*
X85779442Y-74063299D01*
X85795539Y-74045539D01*
X85813299Y-74029442D01*
X85832552Y-74015164D01*
X85853111Y-74002841D01*
X85874780Y-73992592D01*
X85897348Y-73984517D01*
X85920599Y-73978693D01*
X85944309Y-73975176D01*
X85968250Y-73974000D01*
X86456750Y-73974000D01*
X86480691Y-73975176D01*
X86480691Y-73975176D01*
G37*
D19*
X86212500Y-74500000D03*
D11*
G36*
X70730691Y-107725176D02*
G01*
X70754401Y-107728693D01*
X70777652Y-107734517D01*
X70800220Y-107742592D01*
X70821889Y-107752841D01*
X70842448Y-107765164D01*
X70861701Y-107779442D01*
X70879461Y-107795539D01*
X70895558Y-107813299D01*
X70909836Y-107832552D01*
X70922159Y-107853111D01*
X70932408Y-107874780D01*
X70940483Y-107897348D01*
X70946307Y-107920599D01*
X70949824Y-107944309D01*
X70951000Y-107968250D01*
X70951000Y-108531750D01*
X70949824Y-108555691D01*
X70946307Y-108579401D01*
X70940483Y-108602652D01*
X70932408Y-108625220D01*
X70922159Y-108646889D01*
X70909836Y-108667448D01*
X70895558Y-108686701D01*
X70879461Y-108704461D01*
X70861701Y-108720558D01*
X70842448Y-108734836D01*
X70821889Y-108747159D01*
X70800220Y-108757408D01*
X70777652Y-108765483D01*
X70754401Y-108771307D01*
X70730691Y-108774824D01*
X70706750Y-108776000D01*
X70218250Y-108776000D01*
X70194309Y-108774824D01*
X70170599Y-108771307D01*
X70147348Y-108765483D01*
X70124780Y-108757408D01*
X70103111Y-108747159D01*
X70082552Y-108734836D01*
X70063299Y-108720558D01*
X70045539Y-108704461D01*
X70029442Y-108686701D01*
X70015164Y-108667448D01*
X70002841Y-108646889D01*
X69992592Y-108625220D01*
X69984517Y-108602652D01*
X69978693Y-108579401D01*
X69975176Y-108555691D01*
X69974000Y-108531750D01*
X69974000Y-107968250D01*
X69975176Y-107944309D01*
X69978693Y-107920599D01*
X69984517Y-107897348D01*
X69992592Y-107874780D01*
X70002841Y-107853111D01*
X70015164Y-107832552D01*
X70029442Y-107813299D01*
X70045539Y-107795539D01*
X70063299Y-107779442D01*
X70082552Y-107765164D01*
X70103111Y-107752841D01*
X70124780Y-107742592D01*
X70147348Y-107734517D01*
X70170599Y-107728693D01*
X70194309Y-107725176D01*
X70218250Y-107724000D01*
X70706750Y-107724000D01*
X70730691Y-107725176D01*
X70730691Y-107725176D01*
G37*
D19*
X70462500Y-108250000D03*
D11*
G36*
X72305691Y-107725176D02*
G01*
X72329401Y-107728693D01*
X72352652Y-107734517D01*
X72375220Y-107742592D01*
X72396889Y-107752841D01*
X72417448Y-107765164D01*
X72436701Y-107779442D01*
X72454461Y-107795539D01*
X72470558Y-107813299D01*
X72484836Y-107832552D01*
X72497159Y-107853111D01*
X72507408Y-107874780D01*
X72515483Y-107897348D01*
X72521307Y-107920599D01*
X72524824Y-107944309D01*
X72526000Y-107968250D01*
X72526000Y-108531750D01*
X72524824Y-108555691D01*
X72521307Y-108579401D01*
X72515483Y-108602652D01*
X72507408Y-108625220D01*
X72497159Y-108646889D01*
X72484836Y-108667448D01*
X72470558Y-108686701D01*
X72454461Y-108704461D01*
X72436701Y-108720558D01*
X72417448Y-108734836D01*
X72396889Y-108747159D01*
X72375220Y-108757408D01*
X72352652Y-108765483D01*
X72329401Y-108771307D01*
X72305691Y-108774824D01*
X72281750Y-108776000D01*
X71793250Y-108776000D01*
X71769309Y-108774824D01*
X71745599Y-108771307D01*
X71722348Y-108765483D01*
X71699780Y-108757408D01*
X71678111Y-108747159D01*
X71657552Y-108734836D01*
X71638299Y-108720558D01*
X71620539Y-108704461D01*
X71604442Y-108686701D01*
X71590164Y-108667448D01*
X71577841Y-108646889D01*
X71567592Y-108625220D01*
X71559517Y-108602652D01*
X71553693Y-108579401D01*
X71550176Y-108555691D01*
X71549000Y-108531750D01*
X71549000Y-107968250D01*
X71550176Y-107944309D01*
X71553693Y-107920599D01*
X71559517Y-107897348D01*
X71567592Y-107874780D01*
X71577841Y-107853111D01*
X71590164Y-107832552D01*
X71604442Y-107813299D01*
X71620539Y-107795539D01*
X71638299Y-107779442D01*
X71657552Y-107765164D01*
X71678111Y-107752841D01*
X71699780Y-107742592D01*
X71722348Y-107734517D01*
X71745599Y-107728693D01*
X71769309Y-107725176D01*
X71793250Y-107724000D01*
X72281750Y-107724000D01*
X72305691Y-107725176D01*
X72305691Y-107725176D01*
G37*
D19*
X72037500Y-108250000D03*
D11*
G36*
X88055691Y-79475176D02*
G01*
X88079401Y-79478693D01*
X88102652Y-79484517D01*
X88125220Y-79492592D01*
X88146889Y-79502841D01*
X88167448Y-79515164D01*
X88186701Y-79529442D01*
X88204461Y-79545539D01*
X88220558Y-79563299D01*
X88234836Y-79582552D01*
X88247159Y-79603111D01*
X88257408Y-79624780D01*
X88265483Y-79647348D01*
X88271307Y-79670599D01*
X88274824Y-79694309D01*
X88276000Y-79718250D01*
X88276000Y-80281750D01*
X88274824Y-80305691D01*
X88271307Y-80329401D01*
X88265483Y-80352652D01*
X88257408Y-80375220D01*
X88247159Y-80396889D01*
X88234836Y-80417448D01*
X88220558Y-80436701D01*
X88204461Y-80454461D01*
X88186701Y-80470558D01*
X88167448Y-80484836D01*
X88146889Y-80497159D01*
X88125220Y-80507408D01*
X88102652Y-80515483D01*
X88079401Y-80521307D01*
X88055691Y-80524824D01*
X88031750Y-80526000D01*
X87543250Y-80526000D01*
X87519309Y-80524824D01*
X87495599Y-80521307D01*
X87472348Y-80515483D01*
X87449780Y-80507408D01*
X87428111Y-80497159D01*
X87407552Y-80484836D01*
X87388299Y-80470558D01*
X87370539Y-80454461D01*
X87354442Y-80436701D01*
X87340164Y-80417448D01*
X87327841Y-80396889D01*
X87317592Y-80375220D01*
X87309517Y-80352652D01*
X87303693Y-80329401D01*
X87300176Y-80305691D01*
X87299000Y-80281750D01*
X87299000Y-79718250D01*
X87300176Y-79694309D01*
X87303693Y-79670599D01*
X87309517Y-79647348D01*
X87317592Y-79624780D01*
X87327841Y-79603111D01*
X87340164Y-79582552D01*
X87354442Y-79563299D01*
X87370539Y-79545539D01*
X87388299Y-79529442D01*
X87407552Y-79515164D01*
X87428111Y-79502841D01*
X87449780Y-79492592D01*
X87472348Y-79484517D01*
X87495599Y-79478693D01*
X87519309Y-79475176D01*
X87543250Y-79474000D01*
X88031750Y-79474000D01*
X88055691Y-79475176D01*
X88055691Y-79475176D01*
G37*
D19*
X87787500Y-80000000D03*
D11*
G36*
X86480691Y-79475176D02*
G01*
X86504401Y-79478693D01*
X86527652Y-79484517D01*
X86550220Y-79492592D01*
X86571889Y-79502841D01*
X86592448Y-79515164D01*
X86611701Y-79529442D01*
X86629461Y-79545539D01*
X86645558Y-79563299D01*
X86659836Y-79582552D01*
X86672159Y-79603111D01*
X86682408Y-79624780D01*
X86690483Y-79647348D01*
X86696307Y-79670599D01*
X86699824Y-79694309D01*
X86701000Y-79718250D01*
X86701000Y-80281750D01*
X86699824Y-80305691D01*
X86696307Y-80329401D01*
X86690483Y-80352652D01*
X86682408Y-80375220D01*
X86672159Y-80396889D01*
X86659836Y-80417448D01*
X86645558Y-80436701D01*
X86629461Y-80454461D01*
X86611701Y-80470558D01*
X86592448Y-80484836D01*
X86571889Y-80497159D01*
X86550220Y-80507408D01*
X86527652Y-80515483D01*
X86504401Y-80521307D01*
X86480691Y-80524824D01*
X86456750Y-80526000D01*
X85968250Y-80526000D01*
X85944309Y-80524824D01*
X85920599Y-80521307D01*
X85897348Y-80515483D01*
X85874780Y-80507408D01*
X85853111Y-80497159D01*
X85832552Y-80484836D01*
X85813299Y-80470558D01*
X85795539Y-80454461D01*
X85779442Y-80436701D01*
X85765164Y-80417448D01*
X85752841Y-80396889D01*
X85742592Y-80375220D01*
X85734517Y-80352652D01*
X85728693Y-80329401D01*
X85725176Y-80305691D01*
X85724000Y-80281750D01*
X85724000Y-79718250D01*
X85725176Y-79694309D01*
X85728693Y-79670599D01*
X85734517Y-79647348D01*
X85742592Y-79624780D01*
X85752841Y-79603111D01*
X85765164Y-79582552D01*
X85779442Y-79563299D01*
X85795539Y-79545539D01*
X85813299Y-79529442D01*
X85832552Y-79515164D01*
X85853111Y-79502841D01*
X85874780Y-79492592D01*
X85897348Y-79484517D01*
X85920599Y-79478693D01*
X85944309Y-79475176D01*
X85968250Y-79474000D01*
X86456750Y-79474000D01*
X86480691Y-79475176D01*
X86480691Y-79475176D01*
G37*
D19*
X86212500Y-80000000D03*
D11*
G36*
X64305691Y-115300176D02*
G01*
X64329401Y-115303693D01*
X64352652Y-115309517D01*
X64375220Y-115317592D01*
X64396889Y-115327841D01*
X64417448Y-115340164D01*
X64436701Y-115354442D01*
X64454461Y-115370539D01*
X64470558Y-115388299D01*
X64484836Y-115407552D01*
X64497159Y-115428111D01*
X64507408Y-115449780D01*
X64515483Y-115472348D01*
X64521307Y-115495599D01*
X64524824Y-115519309D01*
X64526000Y-115543250D01*
X64526000Y-116031750D01*
X64524824Y-116055691D01*
X64521307Y-116079401D01*
X64515483Y-116102652D01*
X64507408Y-116125220D01*
X64497159Y-116146889D01*
X64484836Y-116167448D01*
X64470558Y-116186701D01*
X64454461Y-116204461D01*
X64436701Y-116220558D01*
X64417448Y-116234836D01*
X64396889Y-116247159D01*
X64375220Y-116257408D01*
X64352652Y-116265483D01*
X64329401Y-116271307D01*
X64305691Y-116274824D01*
X64281750Y-116276000D01*
X63718250Y-116276000D01*
X63694309Y-116274824D01*
X63670599Y-116271307D01*
X63647348Y-116265483D01*
X63624780Y-116257408D01*
X63603111Y-116247159D01*
X63582552Y-116234836D01*
X63563299Y-116220558D01*
X63545539Y-116204461D01*
X63529442Y-116186701D01*
X63515164Y-116167448D01*
X63502841Y-116146889D01*
X63492592Y-116125220D01*
X63484517Y-116102652D01*
X63478693Y-116079401D01*
X63475176Y-116055691D01*
X63474000Y-116031750D01*
X63474000Y-115543250D01*
X63475176Y-115519309D01*
X63478693Y-115495599D01*
X63484517Y-115472348D01*
X63492592Y-115449780D01*
X63502841Y-115428111D01*
X63515164Y-115407552D01*
X63529442Y-115388299D01*
X63545539Y-115370539D01*
X63563299Y-115354442D01*
X63582552Y-115340164D01*
X63603111Y-115327841D01*
X63624780Y-115317592D01*
X63647348Y-115309517D01*
X63670599Y-115303693D01*
X63694309Y-115300176D01*
X63718250Y-115299000D01*
X64281750Y-115299000D01*
X64305691Y-115300176D01*
X64305691Y-115300176D01*
G37*
D19*
X64000000Y-115787500D03*
D11*
G36*
X64305691Y-113725176D02*
G01*
X64329401Y-113728693D01*
X64352652Y-113734517D01*
X64375220Y-113742592D01*
X64396889Y-113752841D01*
X64417448Y-113765164D01*
X64436701Y-113779442D01*
X64454461Y-113795539D01*
X64470558Y-113813299D01*
X64484836Y-113832552D01*
X64497159Y-113853111D01*
X64507408Y-113874780D01*
X64515483Y-113897348D01*
X64521307Y-113920599D01*
X64524824Y-113944309D01*
X64526000Y-113968250D01*
X64526000Y-114456750D01*
X64524824Y-114480691D01*
X64521307Y-114504401D01*
X64515483Y-114527652D01*
X64507408Y-114550220D01*
X64497159Y-114571889D01*
X64484836Y-114592448D01*
X64470558Y-114611701D01*
X64454461Y-114629461D01*
X64436701Y-114645558D01*
X64417448Y-114659836D01*
X64396889Y-114672159D01*
X64375220Y-114682408D01*
X64352652Y-114690483D01*
X64329401Y-114696307D01*
X64305691Y-114699824D01*
X64281750Y-114701000D01*
X63718250Y-114701000D01*
X63694309Y-114699824D01*
X63670599Y-114696307D01*
X63647348Y-114690483D01*
X63624780Y-114682408D01*
X63603111Y-114672159D01*
X63582552Y-114659836D01*
X63563299Y-114645558D01*
X63545539Y-114629461D01*
X63529442Y-114611701D01*
X63515164Y-114592448D01*
X63502841Y-114571889D01*
X63492592Y-114550220D01*
X63484517Y-114527652D01*
X63478693Y-114504401D01*
X63475176Y-114480691D01*
X63474000Y-114456750D01*
X63474000Y-113968250D01*
X63475176Y-113944309D01*
X63478693Y-113920599D01*
X63484517Y-113897348D01*
X63492592Y-113874780D01*
X63502841Y-113853111D01*
X63515164Y-113832552D01*
X63529442Y-113813299D01*
X63545539Y-113795539D01*
X63563299Y-113779442D01*
X63582552Y-113765164D01*
X63603111Y-113752841D01*
X63624780Y-113742592D01*
X63647348Y-113734517D01*
X63670599Y-113728693D01*
X63694309Y-113725176D01*
X63718250Y-113724000D01*
X64281750Y-113724000D01*
X64305691Y-113725176D01*
X64305691Y-113725176D01*
G37*
D19*
X64000000Y-114212500D03*
D11*
G36*
X66305691Y-107300176D02*
G01*
X66329401Y-107303693D01*
X66352652Y-107309517D01*
X66375220Y-107317592D01*
X66396889Y-107327841D01*
X66417448Y-107340164D01*
X66436701Y-107354442D01*
X66454461Y-107370539D01*
X66470558Y-107388299D01*
X66484836Y-107407552D01*
X66497159Y-107428111D01*
X66507408Y-107449780D01*
X66515483Y-107472348D01*
X66521307Y-107495599D01*
X66524824Y-107519309D01*
X66526000Y-107543250D01*
X66526000Y-108031750D01*
X66524824Y-108055691D01*
X66521307Y-108079401D01*
X66515483Y-108102652D01*
X66507408Y-108125220D01*
X66497159Y-108146889D01*
X66484836Y-108167448D01*
X66470558Y-108186701D01*
X66454461Y-108204461D01*
X66436701Y-108220558D01*
X66417448Y-108234836D01*
X66396889Y-108247159D01*
X66375220Y-108257408D01*
X66352652Y-108265483D01*
X66329401Y-108271307D01*
X66305691Y-108274824D01*
X66281750Y-108276000D01*
X65718250Y-108276000D01*
X65694309Y-108274824D01*
X65670599Y-108271307D01*
X65647348Y-108265483D01*
X65624780Y-108257408D01*
X65603111Y-108247159D01*
X65582552Y-108234836D01*
X65563299Y-108220558D01*
X65545539Y-108204461D01*
X65529442Y-108186701D01*
X65515164Y-108167448D01*
X65502841Y-108146889D01*
X65492592Y-108125220D01*
X65484517Y-108102652D01*
X65478693Y-108079401D01*
X65475176Y-108055691D01*
X65474000Y-108031750D01*
X65474000Y-107543250D01*
X65475176Y-107519309D01*
X65478693Y-107495599D01*
X65484517Y-107472348D01*
X65492592Y-107449780D01*
X65502841Y-107428111D01*
X65515164Y-107407552D01*
X65529442Y-107388299D01*
X65545539Y-107370539D01*
X65563299Y-107354442D01*
X65582552Y-107340164D01*
X65603111Y-107327841D01*
X65624780Y-107317592D01*
X65647348Y-107309517D01*
X65670599Y-107303693D01*
X65694309Y-107300176D01*
X65718250Y-107299000D01*
X66281750Y-107299000D01*
X66305691Y-107300176D01*
X66305691Y-107300176D01*
G37*
D19*
X66000000Y-107787500D03*
D11*
G36*
X66305691Y-105725176D02*
G01*
X66329401Y-105728693D01*
X66352652Y-105734517D01*
X66375220Y-105742592D01*
X66396889Y-105752841D01*
X66417448Y-105765164D01*
X66436701Y-105779442D01*
X66454461Y-105795539D01*
X66470558Y-105813299D01*
X66484836Y-105832552D01*
X66497159Y-105853111D01*
X66507408Y-105874780D01*
X66515483Y-105897348D01*
X66521307Y-105920599D01*
X66524824Y-105944309D01*
X66526000Y-105968250D01*
X66526000Y-106456750D01*
X66524824Y-106480691D01*
X66521307Y-106504401D01*
X66515483Y-106527652D01*
X66507408Y-106550220D01*
X66497159Y-106571889D01*
X66484836Y-106592448D01*
X66470558Y-106611701D01*
X66454461Y-106629461D01*
X66436701Y-106645558D01*
X66417448Y-106659836D01*
X66396889Y-106672159D01*
X66375220Y-106682408D01*
X66352652Y-106690483D01*
X66329401Y-106696307D01*
X66305691Y-106699824D01*
X66281750Y-106701000D01*
X65718250Y-106701000D01*
X65694309Y-106699824D01*
X65670599Y-106696307D01*
X65647348Y-106690483D01*
X65624780Y-106682408D01*
X65603111Y-106672159D01*
X65582552Y-106659836D01*
X65563299Y-106645558D01*
X65545539Y-106629461D01*
X65529442Y-106611701D01*
X65515164Y-106592448D01*
X65502841Y-106571889D01*
X65492592Y-106550220D01*
X65484517Y-106527652D01*
X65478693Y-106504401D01*
X65475176Y-106480691D01*
X65474000Y-106456750D01*
X65474000Y-105968250D01*
X65475176Y-105944309D01*
X65478693Y-105920599D01*
X65484517Y-105897348D01*
X65492592Y-105874780D01*
X65502841Y-105853111D01*
X65515164Y-105832552D01*
X65529442Y-105813299D01*
X65545539Y-105795539D01*
X65563299Y-105779442D01*
X65582552Y-105765164D01*
X65603111Y-105752841D01*
X65624780Y-105742592D01*
X65647348Y-105734517D01*
X65670599Y-105728693D01*
X65694309Y-105725176D01*
X65718250Y-105724000D01*
X66281750Y-105724000D01*
X66305691Y-105725176D01*
X66305691Y-105725176D01*
G37*
D19*
X66000000Y-106212500D03*
D11*
G36*
X64555691Y-86300176D02*
G01*
X64579401Y-86303693D01*
X64602652Y-86309517D01*
X64625220Y-86317592D01*
X64646889Y-86327841D01*
X64667448Y-86340164D01*
X64686701Y-86354442D01*
X64704461Y-86370539D01*
X64720558Y-86388299D01*
X64734836Y-86407552D01*
X64747159Y-86428111D01*
X64757408Y-86449780D01*
X64765483Y-86472348D01*
X64771307Y-86495599D01*
X64774824Y-86519309D01*
X64776000Y-86543250D01*
X64776000Y-87031750D01*
X64774824Y-87055691D01*
X64771307Y-87079401D01*
X64765483Y-87102652D01*
X64757408Y-87125220D01*
X64747159Y-87146889D01*
X64734836Y-87167448D01*
X64720558Y-87186701D01*
X64704461Y-87204461D01*
X64686701Y-87220558D01*
X64667448Y-87234836D01*
X64646889Y-87247159D01*
X64625220Y-87257408D01*
X64602652Y-87265483D01*
X64579401Y-87271307D01*
X64555691Y-87274824D01*
X64531750Y-87276000D01*
X63968250Y-87276000D01*
X63944309Y-87274824D01*
X63920599Y-87271307D01*
X63897348Y-87265483D01*
X63874780Y-87257408D01*
X63853111Y-87247159D01*
X63832552Y-87234836D01*
X63813299Y-87220558D01*
X63795539Y-87204461D01*
X63779442Y-87186701D01*
X63765164Y-87167448D01*
X63752841Y-87146889D01*
X63742592Y-87125220D01*
X63734517Y-87102652D01*
X63728693Y-87079401D01*
X63725176Y-87055691D01*
X63724000Y-87031750D01*
X63724000Y-86543250D01*
X63725176Y-86519309D01*
X63728693Y-86495599D01*
X63734517Y-86472348D01*
X63742592Y-86449780D01*
X63752841Y-86428111D01*
X63765164Y-86407552D01*
X63779442Y-86388299D01*
X63795539Y-86370539D01*
X63813299Y-86354442D01*
X63832552Y-86340164D01*
X63853111Y-86327841D01*
X63874780Y-86317592D01*
X63897348Y-86309517D01*
X63920599Y-86303693D01*
X63944309Y-86300176D01*
X63968250Y-86299000D01*
X64531750Y-86299000D01*
X64555691Y-86300176D01*
X64555691Y-86300176D01*
G37*
D19*
X64250000Y-86787500D03*
D11*
G36*
X64555691Y-84725176D02*
G01*
X64579401Y-84728693D01*
X64602652Y-84734517D01*
X64625220Y-84742592D01*
X64646889Y-84752841D01*
X64667448Y-84765164D01*
X64686701Y-84779442D01*
X64704461Y-84795539D01*
X64720558Y-84813299D01*
X64734836Y-84832552D01*
X64747159Y-84853111D01*
X64757408Y-84874780D01*
X64765483Y-84897348D01*
X64771307Y-84920599D01*
X64774824Y-84944309D01*
X64776000Y-84968250D01*
X64776000Y-85456750D01*
X64774824Y-85480691D01*
X64771307Y-85504401D01*
X64765483Y-85527652D01*
X64757408Y-85550220D01*
X64747159Y-85571889D01*
X64734836Y-85592448D01*
X64720558Y-85611701D01*
X64704461Y-85629461D01*
X64686701Y-85645558D01*
X64667448Y-85659836D01*
X64646889Y-85672159D01*
X64625220Y-85682408D01*
X64602652Y-85690483D01*
X64579401Y-85696307D01*
X64555691Y-85699824D01*
X64531750Y-85701000D01*
X63968250Y-85701000D01*
X63944309Y-85699824D01*
X63920599Y-85696307D01*
X63897348Y-85690483D01*
X63874780Y-85682408D01*
X63853111Y-85672159D01*
X63832552Y-85659836D01*
X63813299Y-85645558D01*
X63795539Y-85629461D01*
X63779442Y-85611701D01*
X63765164Y-85592448D01*
X63752841Y-85571889D01*
X63742592Y-85550220D01*
X63734517Y-85527652D01*
X63728693Y-85504401D01*
X63725176Y-85480691D01*
X63724000Y-85456750D01*
X63724000Y-84968250D01*
X63725176Y-84944309D01*
X63728693Y-84920599D01*
X63734517Y-84897348D01*
X63742592Y-84874780D01*
X63752841Y-84853111D01*
X63765164Y-84832552D01*
X63779442Y-84813299D01*
X63795539Y-84795539D01*
X63813299Y-84779442D01*
X63832552Y-84765164D01*
X63853111Y-84752841D01*
X63874780Y-84742592D01*
X63897348Y-84734517D01*
X63920599Y-84728693D01*
X63944309Y-84725176D01*
X63968250Y-84724000D01*
X64531750Y-84724000D01*
X64555691Y-84725176D01*
X64555691Y-84725176D01*
G37*
D19*
X64250000Y-85212500D03*
D11*
G36*
X67055691Y-86300176D02*
G01*
X67079401Y-86303693D01*
X67102652Y-86309517D01*
X67125220Y-86317592D01*
X67146889Y-86327841D01*
X67167448Y-86340164D01*
X67186701Y-86354442D01*
X67204461Y-86370539D01*
X67220558Y-86388299D01*
X67234836Y-86407552D01*
X67247159Y-86428111D01*
X67257408Y-86449780D01*
X67265483Y-86472348D01*
X67271307Y-86495599D01*
X67274824Y-86519309D01*
X67276000Y-86543250D01*
X67276000Y-87031750D01*
X67274824Y-87055691D01*
X67271307Y-87079401D01*
X67265483Y-87102652D01*
X67257408Y-87125220D01*
X67247159Y-87146889D01*
X67234836Y-87167448D01*
X67220558Y-87186701D01*
X67204461Y-87204461D01*
X67186701Y-87220558D01*
X67167448Y-87234836D01*
X67146889Y-87247159D01*
X67125220Y-87257408D01*
X67102652Y-87265483D01*
X67079401Y-87271307D01*
X67055691Y-87274824D01*
X67031750Y-87276000D01*
X66468250Y-87276000D01*
X66444309Y-87274824D01*
X66420599Y-87271307D01*
X66397348Y-87265483D01*
X66374780Y-87257408D01*
X66353111Y-87247159D01*
X66332552Y-87234836D01*
X66313299Y-87220558D01*
X66295539Y-87204461D01*
X66279442Y-87186701D01*
X66265164Y-87167448D01*
X66252841Y-87146889D01*
X66242592Y-87125220D01*
X66234517Y-87102652D01*
X66228693Y-87079401D01*
X66225176Y-87055691D01*
X66224000Y-87031750D01*
X66224000Y-86543250D01*
X66225176Y-86519309D01*
X66228693Y-86495599D01*
X66234517Y-86472348D01*
X66242592Y-86449780D01*
X66252841Y-86428111D01*
X66265164Y-86407552D01*
X66279442Y-86388299D01*
X66295539Y-86370539D01*
X66313299Y-86354442D01*
X66332552Y-86340164D01*
X66353111Y-86327841D01*
X66374780Y-86317592D01*
X66397348Y-86309517D01*
X66420599Y-86303693D01*
X66444309Y-86300176D01*
X66468250Y-86299000D01*
X67031750Y-86299000D01*
X67055691Y-86300176D01*
X67055691Y-86300176D01*
G37*
D19*
X66750000Y-86787500D03*
D11*
G36*
X67055691Y-84725176D02*
G01*
X67079401Y-84728693D01*
X67102652Y-84734517D01*
X67125220Y-84742592D01*
X67146889Y-84752841D01*
X67167448Y-84765164D01*
X67186701Y-84779442D01*
X67204461Y-84795539D01*
X67220558Y-84813299D01*
X67234836Y-84832552D01*
X67247159Y-84853111D01*
X67257408Y-84874780D01*
X67265483Y-84897348D01*
X67271307Y-84920599D01*
X67274824Y-84944309D01*
X67276000Y-84968250D01*
X67276000Y-85456750D01*
X67274824Y-85480691D01*
X67271307Y-85504401D01*
X67265483Y-85527652D01*
X67257408Y-85550220D01*
X67247159Y-85571889D01*
X67234836Y-85592448D01*
X67220558Y-85611701D01*
X67204461Y-85629461D01*
X67186701Y-85645558D01*
X67167448Y-85659836D01*
X67146889Y-85672159D01*
X67125220Y-85682408D01*
X67102652Y-85690483D01*
X67079401Y-85696307D01*
X67055691Y-85699824D01*
X67031750Y-85701000D01*
X66468250Y-85701000D01*
X66444309Y-85699824D01*
X66420599Y-85696307D01*
X66397348Y-85690483D01*
X66374780Y-85682408D01*
X66353111Y-85672159D01*
X66332552Y-85659836D01*
X66313299Y-85645558D01*
X66295539Y-85629461D01*
X66279442Y-85611701D01*
X66265164Y-85592448D01*
X66252841Y-85571889D01*
X66242592Y-85550220D01*
X66234517Y-85527652D01*
X66228693Y-85504401D01*
X66225176Y-85480691D01*
X66224000Y-85456750D01*
X66224000Y-84968250D01*
X66225176Y-84944309D01*
X66228693Y-84920599D01*
X66234517Y-84897348D01*
X66242592Y-84874780D01*
X66252841Y-84853111D01*
X66265164Y-84832552D01*
X66279442Y-84813299D01*
X66295539Y-84795539D01*
X66313299Y-84779442D01*
X66332552Y-84765164D01*
X66353111Y-84752841D01*
X66374780Y-84742592D01*
X66397348Y-84734517D01*
X66420599Y-84728693D01*
X66444309Y-84725176D01*
X66468250Y-84724000D01*
X67031750Y-84724000D01*
X67055691Y-84725176D01*
X67055691Y-84725176D01*
G37*
D19*
X66750000Y-85212500D03*
D11*
G36*
X69555691Y-86300176D02*
G01*
X69579401Y-86303693D01*
X69602652Y-86309517D01*
X69625220Y-86317592D01*
X69646889Y-86327841D01*
X69667448Y-86340164D01*
X69686701Y-86354442D01*
X69704461Y-86370539D01*
X69720558Y-86388299D01*
X69734836Y-86407552D01*
X69747159Y-86428111D01*
X69757408Y-86449780D01*
X69765483Y-86472348D01*
X69771307Y-86495599D01*
X69774824Y-86519309D01*
X69776000Y-86543250D01*
X69776000Y-87031750D01*
X69774824Y-87055691D01*
X69771307Y-87079401D01*
X69765483Y-87102652D01*
X69757408Y-87125220D01*
X69747159Y-87146889D01*
X69734836Y-87167448D01*
X69720558Y-87186701D01*
X69704461Y-87204461D01*
X69686701Y-87220558D01*
X69667448Y-87234836D01*
X69646889Y-87247159D01*
X69625220Y-87257408D01*
X69602652Y-87265483D01*
X69579401Y-87271307D01*
X69555691Y-87274824D01*
X69531750Y-87276000D01*
X68968250Y-87276000D01*
X68944309Y-87274824D01*
X68920599Y-87271307D01*
X68897348Y-87265483D01*
X68874780Y-87257408D01*
X68853111Y-87247159D01*
X68832552Y-87234836D01*
X68813299Y-87220558D01*
X68795539Y-87204461D01*
X68779442Y-87186701D01*
X68765164Y-87167448D01*
X68752841Y-87146889D01*
X68742592Y-87125220D01*
X68734517Y-87102652D01*
X68728693Y-87079401D01*
X68725176Y-87055691D01*
X68724000Y-87031750D01*
X68724000Y-86543250D01*
X68725176Y-86519309D01*
X68728693Y-86495599D01*
X68734517Y-86472348D01*
X68742592Y-86449780D01*
X68752841Y-86428111D01*
X68765164Y-86407552D01*
X68779442Y-86388299D01*
X68795539Y-86370539D01*
X68813299Y-86354442D01*
X68832552Y-86340164D01*
X68853111Y-86327841D01*
X68874780Y-86317592D01*
X68897348Y-86309517D01*
X68920599Y-86303693D01*
X68944309Y-86300176D01*
X68968250Y-86299000D01*
X69531750Y-86299000D01*
X69555691Y-86300176D01*
X69555691Y-86300176D01*
G37*
D19*
X69250000Y-86787500D03*
D11*
G36*
X69555691Y-84725176D02*
G01*
X69579401Y-84728693D01*
X69602652Y-84734517D01*
X69625220Y-84742592D01*
X69646889Y-84752841D01*
X69667448Y-84765164D01*
X69686701Y-84779442D01*
X69704461Y-84795539D01*
X69720558Y-84813299D01*
X69734836Y-84832552D01*
X69747159Y-84853111D01*
X69757408Y-84874780D01*
X69765483Y-84897348D01*
X69771307Y-84920599D01*
X69774824Y-84944309D01*
X69776000Y-84968250D01*
X69776000Y-85456750D01*
X69774824Y-85480691D01*
X69771307Y-85504401D01*
X69765483Y-85527652D01*
X69757408Y-85550220D01*
X69747159Y-85571889D01*
X69734836Y-85592448D01*
X69720558Y-85611701D01*
X69704461Y-85629461D01*
X69686701Y-85645558D01*
X69667448Y-85659836D01*
X69646889Y-85672159D01*
X69625220Y-85682408D01*
X69602652Y-85690483D01*
X69579401Y-85696307D01*
X69555691Y-85699824D01*
X69531750Y-85701000D01*
X68968250Y-85701000D01*
X68944309Y-85699824D01*
X68920599Y-85696307D01*
X68897348Y-85690483D01*
X68874780Y-85682408D01*
X68853111Y-85672159D01*
X68832552Y-85659836D01*
X68813299Y-85645558D01*
X68795539Y-85629461D01*
X68779442Y-85611701D01*
X68765164Y-85592448D01*
X68752841Y-85571889D01*
X68742592Y-85550220D01*
X68734517Y-85527652D01*
X68728693Y-85504401D01*
X68725176Y-85480691D01*
X68724000Y-85456750D01*
X68724000Y-84968250D01*
X68725176Y-84944309D01*
X68728693Y-84920599D01*
X68734517Y-84897348D01*
X68742592Y-84874780D01*
X68752841Y-84853111D01*
X68765164Y-84832552D01*
X68779442Y-84813299D01*
X68795539Y-84795539D01*
X68813299Y-84779442D01*
X68832552Y-84765164D01*
X68853111Y-84752841D01*
X68874780Y-84742592D01*
X68897348Y-84734517D01*
X68920599Y-84728693D01*
X68944309Y-84725176D01*
X68968250Y-84724000D01*
X69531750Y-84724000D01*
X69555691Y-84725176D01*
X69555691Y-84725176D01*
G37*
D19*
X69250000Y-85212500D03*
D11*
G36*
X72055691Y-86300176D02*
G01*
X72079401Y-86303693D01*
X72102652Y-86309517D01*
X72125220Y-86317592D01*
X72146889Y-86327841D01*
X72167448Y-86340164D01*
X72186701Y-86354442D01*
X72204461Y-86370539D01*
X72220558Y-86388299D01*
X72234836Y-86407552D01*
X72247159Y-86428111D01*
X72257408Y-86449780D01*
X72265483Y-86472348D01*
X72271307Y-86495599D01*
X72274824Y-86519309D01*
X72276000Y-86543250D01*
X72276000Y-87031750D01*
X72274824Y-87055691D01*
X72271307Y-87079401D01*
X72265483Y-87102652D01*
X72257408Y-87125220D01*
X72247159Y-87146889D01*
X72234836Y-87167448D01*
X72220558Y-87186701D01*
X72204461Y-87204461D01*
X72186701Y-87220558D01*
X72167448Y-87234836D01*
X72146889Y-87247159D01*
X72125220Y-87257408D01*
X72102652Y-87265483D01*
X72079401Y-87271307D01*
X72055691Y-87274824D01*
X72031750Y-87276000D01*
X71468250Y-87276000D01*
X71444309Y-87274824D01*
X71420599Y-87271307D01*
X71397348Y-87265483D01*
X71374780Y-87257408D01*
X71353111Y-87247159D01*
X71332552Y-87234836D01*
X71313299Y-87220558D01*
X71295539Y-87204461D01*
X71279442Y-87186701D01*
X71265164Y-87167448D01*
X71252841Y-87146889D01*
X71242592Y-87125220D01*
X71234517Y-87102652D01*
X71228693Y-87079401D01*
X71225176Y-87055691D01*
X71224000Y-87031750D01*
X71224000Y-86543250D01*
X71225176Y-86519309D01*
X71228693Y-86495599D01*
X71234517Y-86472348D01*
X71242592Y-86449780D01*
X71252841Y-86428111D01*
X71265164Y-86407552D01*
X71279442Y-86388299D01*
X71295539Y-86370539D01*
X71313299Y-86354442D01*
X71332552Y-86340164D01*
X71353111Y-86327841D01*
X71374780Y-86317592D01*
X71397348Y-86309517D01*
X71420599Y-86303693D01*
X71444309Y-86300176D01*
X71468250Y-86299000D01*
X72031750Y-86299000D01*
X72055691Y-86300176D01*
X72055691Y-86300176D01*
G37*
D19*
X71750000Y-86787500D03*
D11*
G36*
X72055691Y-84725176D02*
G01*
X72079401Y-84728693D01*
X72102652Y-84734517D01*
X72125220Y-84742592D01*
X72146889Y-84752841D01*
X72167448Y-84765164D01*
X72186701Y-84779442D01*
X72204461Y-84795539D01*
X72220558Y-84813299D01*
X72234836Y-84832552D01*
X72247159Y-84853111D01*
X72257408Y-84874780D01*
X72265483Y-84897348D01*
X72271307Y-84920599D01*
X72274824Y-84944309D01*
X72276000Y-84968250D01*
X72276000Y-85456750D01*
X72274824Y-85480691D01*
X72271307Y-85504401D01*
X72265483Y-85527652D01*
X72257408Y-85550220D01*
X72247159Y-85571889D01*
X72234836Y-85592448D01*
X72220558Y-85611701D01*
X72204461Y-85629461D01*
X72186701Y-85645558D01*
X72167448Y-85659836D01*
X72146889Y-85672159D01*
X72125220Y-85682408D01*
X72102652Y-85690483D01*
X72079401Y-85696307D01*
X72055691Y-85699824D01*
X72031750Y-85701000D01*
X71468250Y-85701000D01*
X71444309Y-85699824D01*
X71420599Y-85696307D01*
X71397348Y-85690483D01*
X71374780Y-85682408D01*
X71353111Y-85672159D01*
X71332552Y-85659836D01*
X71313299Y-85645558D01*
X71295539Y-85629461D01*
X71279442Y-85611701D01*
X71265164Y-85592448D01*
X71252841Y-85571889D01*
X71242592Y-85550220D01*
X71234517Y-85527652D01*
X71228693Y-85504401D01*
X71225176Y-85480691D01*
X71224000Y-85456750D01*
X71224000Y-84968250D01*
X71225176Y-84944309D01*
X71228693Y-84920599D01*
X71234517Y-84897348D01*
X71242592Y-84874780D01*
X71252841Y-84853111D01*
X71265164Y-84832552D01*
X71279442Y-84813299D01*
X71295539Y-84795539D01*
X71313299Y-84779442D01*
X71332552Y-84765164D01*
X71353111Y-84752841D01*
X71374780Y-84742592D01*
X71397348Y-84734517D01*
X71420599Y-84728693D01*
X71444309Y-84725176D01*
X71468250Y-84724000D01*
X72031750Y-84724000D01*
X72055691Y-84725176D01*
X72055691Y-84725176D01*
G37*
D19*
X71750000Y-85212500D03*
D30*
X71250000Y-112000000D03*
X70300000Y-110000000D03*
X72200000Y-110000000D03*
X87000000Y-76250000D03*
X87950000Y-78250000D03*
X86050000Y-78250000D03*
D31*
X56000000Y-106850000D03*
X56000000Y-115150000D03*
D11*
G36*
X62508141Y-105525297D02*
G01*
X62534278Y-105529174D01*
X62559909Y-105535594D01*
X62584788Y-105544495D01*
X62608674Y-105555793D01*
X62631337Y-105569377D01*
X62652560Y-105585117D01*
X62672139Y-105602861D01*
X62689883Y-105622440D01*
X62705623Y-105643663D01*
X62719207Y-105666326D01*
X62730505Y-105690212D01*
X62739406Y-105715091D01*
X62745826Y-105740722D01*
X62749703Y-105766859D01*
X62751000Y-105793250D01*
X62751000Y-106331750D01*
X62749703Y-106358141D01*
X62745826Y-106384278D01*
X62739406Y-106409909D01*
X62730505Y-106434788D01*
X62719207Y-106458674D01*
X62705623Y-106481337D01*
X62689883Y-106502560D01*
X62672139Y-106522139D01*
X62652560Y-106539883D01*
X62631337Y-106555623D01*
X62608674Y-106569207D01*
X62584788Y-106580505D01*
X62559909Y-106589406D01*
X62534278Y-106595826D01*
X62508141Y-106599703D01*
X62481750Y-106601000D01*
X61518250Y-106601000D01*
X61491859Y-106599703D01*
X61465722Y-106595826D01*
X61440091Y-106589406D01*
X61415212Y-106580505D01*
X61391326Y-106569207D01*
X61368663Y-106555623D01*
X61347440Y-106539883D01*
X61327861Y-106522139D01*
X61310117Y-106502560D01*
X61294377Y-106481337D01*
X61280793Y-106458674D01*
X61269495Y-106434788D01*
X61260594Y-106409909D01*
X61254174Y-106384278D01*
X61250297Y-106358141D01*
X61249000Y-106331750D01*
X61249000Y-105793250D01*
X61250297Y-105766859D01*
X61254174Y-105740722D01*
X61260594Y-105715091D01*
X61269495Y-105690212D01*
X61280793Y-105666326D01*
X61294377Y-105643663D01*
X61310117Y-105622440D01*
X61327861Y-105602861D01*
X61347440Y-105585117D01*
X61368663Y-105569377D01*
X61391326Y-105555793D01*
X61415212Y-105544495D01*
X61440091Y-105535594D01*
X61465722Y-105529174D01*
X61491859Y-105525297D01*
X61518250Y-105524000D01*
X62481750Y-105524000D01*
X62508141Y-105525297D01*
X62508141Y-105525297D01*
G37*
D32*
X62000000Y-106062500D03*
D11*
G36*
X62508141Y-107400297D02*
G01*
X62534278Y-107404174D01*
X62559909Y-107410594D01*
X62584788Y-107419495D01*
X62608674Y-107430793D01*
X62631337Y-107444377D01*
X62652560Y-107460117D01*
X62672139Y-107477861D01*
X62689883Y-107497440D01*
X62705623Y-107518663D01*
X62719207Y-107541326D01*
X62730505Y-107565212D01*
X62739406Y-107590091D01*
X62745826Y-107615722D01*
X62749703Y-107641859D01*
X62751000Y-107668250D01*
X62751000Y-108206750D01*
X62749703Y-108233141D01*
X62745826Y-108259278D01*
X62739406Y-108284909D01*
X62730505Y-108309788D01*
X62719207Y-108333674D01*
X62705623Y-108356337D01*
X62689883Y-108377560D01*
X62672139Y-108397139D01*
X62652560Y-108414883D01*
X62631337Y-108430623D01*
X62608674Y-108444207D01*
X62584788Y-108455505D01*
X62559909Y-108464406D01*
X62534278Y-108470826D01*
X62508141Y-108474703D01*
X62481750Y-108476000D01*
X61518250Y-108476000D01*
X61491859Y-108474703D01*
X61465722Y-108470826D01*
X61440091Y-108464406D01*
X61415212Y-108455505D01*
X61391326Y-108444207D01*
X61368663Y-108430623D01*
X61347440Y-108414883D01*
X61327861Y-108397139D01*
X61310117Y-108377560D01*
X61294377Y-108356337D01*
X61280793Y-108333674D01*
X61269495Y-108309788D01*
X61260594Y-108284909D01*
X61254174Y-108259278D01*
X61250297Y-108233141D01*
X61249000Y-108206750D01*
X61249000Y-107668250D01*
X61250297Y-107641859D01*
X61254174Y-107615722D01*
X61260594Y-107590091D01*
X61269495Y-107565212D01*
X61280793Y-107541326D01*
X61294377Y-107518663D01*
X61310117Y-107497440D01*
X61327861Y-107477861D01*
X61347440Y-107460117D01*
X61368663Y-107444377D01*
X61391326Y-107430793D01*
X61415212Y-107419495D01*
X61440091Y-107410594D01*
X61465722Y-107404174D01*
X61491859Y-107400297D01*
X61518250Y-107399000D01*
X62481750Y-107399000D01*
X62508141Y-107400297D01*
X62508141Y-107400297D01*
G37*
D32*
X62000000Y-107937500D03*
D11*
G36*
X64305691Y-105725176D02*
G01*
X64329401Y-105728693D01*
X64352652Y-105734517D01*
X64375220Y-105742592D01*
X64396889Y-105752841D01*
X64417448Y-105765164D01*
X64436701Y-105779442D01*
X64454461Y-105795539D01*
X64470558Y-105813299D01*
X64484836Y-105832552D01*
X64497159Y-105853111D01*
X64507408Y-105874780D01*
X64515483Y-105897348D01*
X64521307Y-105920599D01*
X64524824Y-105944309D01*
X64526000Y-105968250D01*
X64526000Y-106456750D01*
X64524824Y-106480691D01*
X64521307Y-106504401D01*
X64515483Y-106527652D01*
X64507408Y-106550220D01*
X64497159Y-106571889D01*
X64484836Y-106592448D01*
X64470558Y-106611701D01*
X64454461Y-106629461D01*
X64436701Y-106645558D01*
X64417448Y-106659836D01*
X64396889Y-106672159D01*
X64375220Y-106682408D01*
X64352652Y-106690483D01*
X64329401Y-106696307D01*
X64305691Y-106699824D01*
X64281750Y-106701000D01*
X63718250Y-106701000D01*
X63694309Y-106699824D01*
X63670599Y-106696307D01*
X63647348Y-106690483D01*
X63624780Y-106682408D01*
X63603111Y-106672159D01*
X63582552Y-106659836D01*
X63563299Y-106645558D01*
X63545539Y-106629461D01*
X63529442Y-106611701D01*
X63515164Y-106592448D01*
X63502841Y-106571889D01*
X63492592Y-106550220D01*
X63484517Y-106527652D01*
X63478693Y-106504401D01*
X63475176Y-106480691D01*
X63474000Y-106456750D01*
X63474000Y-105968250D01*
X63475176Y-105944309D01*
X63478693Y-105920599D01*
X63484517Y-105897348D01*
X63492592Y-105874780D01*
X63502841Y-105853111D01*
X63515164Y-105832552D01*
X63529442Y-105813299D01*
X63545539Y-105795539D01*
X63563299Y-105779442D01*
X63582552Y-105765164D01*
X63603111Y-105752841D01*
X63624780Y-105742592D01*
X63647348Y-105734517D01*
X63670599Y-105728693D01*
X63694309Y-105725176D01*
X63718250Y-105724000D01*
X64281750Y-105724000D01*
X64305691Y-105725176D01*
X64305691Y-105725176D01*
G37*
D19*
X64000000Y-106212500D03*
D11*
G36*
X64305691Y-107300176D02*
G01*
X64329401Y-107303693D01*
X64352652Y-107309517D01*
X64375220Y-107317592D01*
X64396889Y-107327841D01*
X64417448Y-107340164D01*
X64436701Y-107354442D01*
X64454461Y-107370539D01*
X64470558Y-107388299D01*
X64484836Y-107407552D01*
X64497159Y-107428111D01*
X64507408Y-107449780D01*
X64515483Y-107472348D01*
X64521307Y-107495599D01*
X64524824Y-107519309D01*
X64526000Y-107543250D01*
X64526000Y-108031750D01*
X64524824Y-108055691D01*
X64521307Y-108079401D01*
X64515483Y-108102652D01*
X64507408Y-108125220D01*
X64497159Y-108146889D01*
X64484836Y-108167448D01*
X64470558Y-108186701D01*
X64454461Y-108204461D01*
X64436701Y-108220558D01*
X64417448Y-108234836D01*
X64396889Y-108247159D01*
X64375220Y-108257408D01*
X64352652Y-108265483D01*
X64329401Y-108271307D01*
X64305691Y-108274824D01*
X64281750Y-108276000D01*
X63718250Y-108276000D01*
X63694309Y-108274824D01*
X63670599Y-108271307D01*
X63647348Y-108265483D01*
X63624780Y-108257408D01*
X63603111Y-108247159D01*
X63582552Y-108234836D01*
X63563299Y-108220558D01*
X63545539Y-108204461D01*
X63529442Y-108186701D01*
X63515164Y-108167448D01*
X63502841Y-108146889D01*
X63492592Y-108125220D01*
X63484517Y-108102652D01*
X63478693Y-108079401D01*
X63475176Y-108055691D01*
X63474000Y-108031750D01*
X63474000Y-107543250D01*
X63475176Y-107519309D01*
X63478693Y-107495599D01*
X63484517Y-107472348D01*
X63492592Y-107449780D01*
X63502841Y-107428111D01*
X63515164Y-107407552D01*
X63529442Y-107388299D01*
X63545539Y-107370539D01*
X63563299Y-107354442D01*
X63582552Y-107340164D01*
X63603111Y-107327841D01*
X63624780Y-107317592D01*
X63647348Y-107309517D01*
X63670599Y-107303693D01*
X63694309Y-107300176D01*
X63718250Y-107299000D01*
X64281750Y-107299000D01*
X64305691Y-107300176D01*
X64305691Y-107300176D01*
G37*
D19*
X64000000Y-107787500D03*
D11*
G36*
X66305691Y-113725176D02*
G01*
X66329401Y-113728693D01*
X66352652Y-113734517D01*
X66375220Y-113742592D01*
X66396889Y-113752841D01*
X66417448Y-113765164D01*
X66436701Y-113779442D01*
X66454461Y-113795539D01*
X66470558Y-113813299D01*
X66484836Y-113832552D01*
X66497159Y-113853111D01*
X66507408Y-113874780D01*
X66515483Y-113897348D01*
X66521307Y-113920599D01*
X66524824Y-113944309D01*
X66526000Y-113968250D01*
X66526000Y-114456750D01*
X66524824Y-114480691D01*
X66521307Y-114504401D01*
X66515483Y-114527652D01*
X66507408Y-114550220D01*
X66497159Y-114571889D01*
X66484836Y-114592448D01*
X66470558Y-114611701D01*
X66454461Y-114629461D01*
X66436701Y-114645558D01*
X66417448Y-114659836D01*
X66396889Y-114672159D01*
X66375220Y-114682408D01*
X66352652Y-114690483D01*
X66329401Y-114696307D01*
X66305691Y-114699824D01*
X66281750Y-114701000D01*
X65718250Y-114701000D01*
X65694309Y-114699824D01*
X65670599Y-114696307D01*
X65647348Y-114690483D01*
X65624780Y-114682408D01*
X65603111Y-114672159D01*
X65582552Y-114659836D01*
X65563299Y-114645558D01*
X65545539Y-114629461D01*
X65529442Y-114611701D01*
X65515164Y-114592448D01*
X65502841Y-114571889D01*
X65492592Y-114550220D01*
X65484517Y-114527652D01*
X65478693Y-114504401D01*
X65475176Y-114480691D01*
X65474000Y-114456750D01*
X65474000Y-113968250D01*
X65475176Y-113944309D01*
X65478693Y-113920599D01*
X65484517Y-113897348D01*
X65492592Y-113874780D01*
X65502841Y-113853111D01*
X65515164Y-113832552D01*
X65529442Y-113813299D01*
X65545539Y-113795539D01*
X65563299Y-113779442D01*
X65582552Y-113765164D01*
X65603111Y-113752841D01*
X65624780Y-113742592D01*
X65647348Y-113734517D01*
X65670599Y-113728693D01*
X65694309Y-113725176D01*
X65718250Y-113724000D01*
X66281750Y-113724000D01*
X66305691Y-113725176D01*
X66305691Y-113725176D01*
G37*
D19*
X66000000Y-114212500D03*
D11*
G36*
X66305691Y-115300176D02*
G01*
X66329401Y-115303693D01*
X66352652Y-115309517D01*
X66375220Y-115317592D01*
X66396889Y-115327841D01*
X66417448Y-115340164D01*
X66436701Y-115354442D01*
X66454461Y-115370539D01*
X66470558Y-115388299D01*
X66484836Y-115407552D01*
X66497159Y-115428111D01*
X66507408Y-115449780D01*
X66515483Y-115472348D01*
X66521307Y-115495599D01*
X66524824Y-115519309D01*
X66526000Y-115543250D01*
X66526000Y-116031750D01*
X66524824Y-116055691D01*
X66521307Y-116079401D01*
X66515483Y-116102652D01*
X66507408Y-116125220D01*
X66497159Y-116146889D01*
X66484836Y-116167448D01*
X66470558Y-116186701D01*
X66454461Y-116204461D01*
X66436701Y-116220558D01*
X66417448Y-116234836D01*
X66396889Y-116247159D01*
X66375220Y-116257408D01*
X66352652Y-116265483D01*
X66329401Y-116271307D01*
X66305691Y-116274824D01*
X66281750Y-116276000D01*
X65718250Y-116276000D01*
X65694309Y-116274824D01*
X65670599Y-116271307D01*
X65647348Y-116265483D01*
X65624780Y-116257408D01*
X65603111Y-116247159D01*
X65582552Y-116234836D01*
X65563299Y-116220558D01*
X65545539Y-116204461D01*
X65529442Y-116186701D01*
X65515164Y-116167448D01*
X65502841Y-116146889D01*
X65492592Y-116125220D01*
X65484517Y-116102652D01*
X65478693Y-116079401D01*
X65475176Y-116055691D01*
X65474000Y-116031750D01*
X65474000Y-115543250D01*
X65475176Y-115519309D01*
X65478693Y-115495599D01*
X65484517Y-115472348D01*
X65492592Y-115449780D01*
X65502841Y-115428111D01*
X65515164Y-115407552D01*
X65529442Y-115388299D01*
X65545539Y-115370539D01*
X65563299Y-115354442D01*
X65582552Y-115340164D01*
X65603111Y-115327841D01*
X65624780Y-115317592D01*
X65647348Y-115309517D01*
X65670599Y-115303693D01*
X65694309Y-115300176D01*
X65718250Y-115299000D01*
X66281750Y-115299000D01*
X66305691Y-115300176D01*
X66305691Y-115300176D01*
G37*
D19*
X66000000Y-115787500D03*
D33*
G36*
X99900000Y-62150000D02*
G01*
X85100000Y-62150000D01*
X85100000Y-59350000D01*
X99900000Y-59350000D01*
X99900000Y-62150000D01*
X99900000Y-62150000D01*
G37*
X99900000Y-62150000D02*
X85100000Y-62150000D01*
X85100000Y-59350000D01*
X99900000Y-59350000D01*
X99900000Y-62150000D01*
G36*
X69900000Y-62150000D02*
G01*
X55100000Y-62150000D01*
X55100000Y-59350000D01*
X69900000Y-59350000D01*
X69900000Y-62150000D01*
X69900000Y-62150000D01*
G37*
X69900000Y-62150000D02*
X55100000Y-62150000D01*
X55100000Y-59350000D01*
X69900000Y-59350000D01*
X69900000Y-62150000D01*
G36*
X69903363Y-133150000D02*
G01*
X55103363Y-133150000D01*
X55103363Y-130350000D01*
X69903363Y-130350000D01*
X69903363Y-133150000D01*
X69903363Y-133150000D01*
G37*
X69903363Y-133150000D02*
X55103363Y-133150000D01*
X55103363Y-130350000D01*
X69903363Y-130350000D01*
X69903363Y-133150000D01*
G36*
X99900000Y-133150000D02*
G01*
X85100000Y-133150000D01*
X85100000Y-130350000D01*
X99900000Y-130350000D01*
X99900000Y-133150000D01*
X99900000Y-133150000D01*
G37*
X99900000Y-133150000D02*
X85100000Y-133150000D01*
X85100000Y-130350000D01*
X99900000Y-130350000D01*
X99900000Y-133150000D01*
M02*
