G04 #@! TF.GenerationSoftware,KiCad,Pcbnew,(5.1.4)-1*
G04 #@! TF.CreationDate,2019-10-14T19:51:17-04:00*
G04 #@! TF.ProjectId,badger-badge,62616467-6572-42d6-9261-6467652e6b69,rev?*
G04 #@! TF.SameCoordinates,Original*
G04 #@! TF.FileFunction,Soldermask,Bot*
G04 #@! TF.FilePolarity,Negative*
%FSLAX46Y46*%
G04 Gerber Fmt 4.6, Leading zero omitted, Abs format (unit mm)*
G04 Created by KiCad (PCBNEW (5.1.4)-1) date 2019-10-14 19:51:17*
%MOMM*%
%LPD*%
G04 APERTURE LIST*
%ADD10C,0.100000*%
G04 APERTURE END LIST*
D10*
G36*
X98613512Y-118103927D02*
G01*
X98762812Y-118133624D01*
X98926784Y-118201544D01*
X99074354Y-118300147D01*
X99199853Y-118425646D01*
X99298456Y-118573216D01*
X99366376Y-118737188D01*
X99401000Y-118911259D01*
X99401000Y-119088741D01*
X99366376Y-119262812D01*
X99298456Y-119426784D01*
X99199853Y-119574354D01*
X99074354Y-119699853D01*
X98926784Y-119798456D01*
X98762812Y-119866376D01*
X98613512Y-119896073D01*
X98588742Y-119901000D01*
X98411258Y-119901000D01*
X98386488Y-119896073D01*
X98237188Y-119866376D01*
X98073216Y-119798456D01*
X97925646Y-119699853D01*
X97800147Y-119574354D01*
X97701544Y-119426784D01*
X97633624Y-119262812D01*
X97599000Y-119088741D01*
X97599000Y-118911259D01*
X97633624Y-118737188D01*
X97701544Y-118573216D01*
X97800147Y-118425646D01*
X97925646Y-118300147D01*
X98073216Y-118201544D01*
X98237188Y-118133624D01*
X98386488Y-118103927D01*
X98411258Y-118099000D01*
X98588742Y-118099000D01*
X98613512Y-118103927D01*
X98613512Y-118103927D01*
G37*
G36*
X91613512Y-118103927D02*
G01*
X91762812Y-118133624D01*
X91926784Y-118201544D01*
X92074354Y-118300147D01*
X92199853Y-118425646D01*
X92298456Y-118573216D01*
X92366376Y-118737188D01*
X92401000Y-118911259D01*
X92401000Y-119088741D01*
X92366376Y-119262812D01*
X92298456Y-119426784D01*
X92199853Y-119574354D01*
X92074354Y-119699853D01*
X91926784Y-119798456D01*
X91762812Y-119866376D01*
X91613512Y-119896073D01*
X91588742Y-119901000D01*
X91411258Y-119901000D01*
X91386488Y-119896073D01*
X91237188Y-119866376D01*
X91073216Y-119798456D01*
X90925646Y-119699853D01*
X90800147Y-119574354D01*
X90701544Y-119426784D01*
X90633624Y-119262812D01*
X90599000Y-119088741D01*
X90599000Y-118911259D01*
X90633624Y-118737188D01*
X90701544Y-118573216D01*
X90800147Y-118425646D01*
X90925646Y-118300147D01*
X91073216Y-118201544D01*
X91237188Y-118133624D01*
X91386488Y-118103927D01*
X91411258Y-118099000D01*
X91588742Y-118099000D01*
X91613512Y-118103927D01*
X91613512Y-118103927D01*
G37*
G36*
X91613512Y-106103927D02*
G01*
X91762812Y-106133624D01*
X91926784Y-106201544D01*
X92074354Y-106300147D01*
X92199853Y-106425646D01*
X92298456Y-106573216D01*
X92366376Y-106737188D01*
X92401000Y-106911259D01*
X92401000Y-107088741D01*
X92366376Y-107262812D01*
X92298456Y-107426784D01*
X92199853Y-107574354D01*
X92074354Y-107699853D01*
X91926784Y-107798456D01*
X91762812Y-107866376D01*
X91613512Y-107896073D01*
X91588742Y-107901000D01*
X91411258Y-107901000D01*
X91386488Y-107896073D01*
X91237188Y-107866376D01*
X91073216Y-107798456D01*
X90925646Y-107699853D01*
X90800147Y-107574354D01*
X90701544Y-107426784D01*
X90633624Y-107262812D01*
X90599000Y-107088741D01*
X90599000Y-106911259D01*
X90633624Y-106737188D01*
X90701544Y-106573216D01*
X90800147Y-106425646D01*
X90925646Y-106300147D01*
X91073216Y-106201544D01*
X91237188Y-106133624D01*
X91386488Y-106103927D01*
X91411258Y-106099000D01*
X91588742Y-106099000D01*
X91613512Y-106103927D01*
X91613512Y-106103927D01*
G37*
G36*
X98613512Y-106103927D02*
G01*
X98762812Y-106133624D01*
X98926784Y-106201544D01*
X99074354Y-106300147D01*
X99199853Y-106425646D01*
X99298456Y-106573216D01*
X99366376Y-106737188D01*
X99401000Y-106911259D01*
X99401000Y-107088741D01*
X99366376Y-107262812D01*
X99298456Y-107426784D01*
X99199853Y-107574354D01*
X99074354Y-107699853D01*
X98926784Y-107798456D01*
X98762812Y-107866376D01*
X98613512Y-107896073D01*
X98588742Y-107901000D01*
X98411258Y-107901000D01*
X98386488Y-107896073D01*
X98237188Y-107866376D01*
X98073216Y-107798456D01*
X97925646Y-107699853D01*
X97800147Y-107574354D01*
X97701544Y-107426784D01*
X97633624Y-107262812D01*
X97599000Y-107088741D01*
X97599000Y-106911259D01*
X97633624Y-106737188D01*
X97701544Y-106573216D01*
X97800147Y-106425646D01*
X97925646Y-106300147D01*
X98073216Y-106201544D01*
X98237188Y-106133624D01*
X98386488Y-106103927D01*
X98411258Y-106099000D01*
X98588742Y-106099000D01*
X98613512Y-106103927D01*
X98613512Y-106103927D01*
G37*
G36*
X76978228Y-96801703D02*
G01*
X77133100Y-96865853D01*
X77272481Y-96958985D01*
X77391015Y-97077519D01*
X77484147Y-97216900D01*
X77548297Y-97371772D01*
X77581000Y-97536184D01*
X77581000Y-97703816D01*
X77548297Y-97868228D01*
X77484147Y-98023100D01*
X77391015Y-98162481D01*
X77272481Y-98281015D01*
X77133100Y-98374147D01*
X76978228Y-98438297D01*
X76813816Y-98471000D01*
X76646184Y-98471000D01*
X76481772Y-98438297D01*
X76326900Y-98374147D01*
X76187519Y-98281015D01*
X76068985Y-98162481D01*
X75975853Y-98023100D01*
X75911703Y-97868228D01*
X75879000Y-97703816D01*
X75879000Y-97536184D01*
X75911703Y-97371772D01*
X75975853Y-97216900D01*
X76068985Y-97077519D01*
X76187519Y-96958985D01*
X76326900Y-96865853D01*
X76481772Y-96801703D01*
X76646184Y-96769000D01*
X76813816Y-96769000D01*
X76978228Y-96801703D01*
X76978228Y-96801703D01*
G37*
G36*
X61738228Y-96801703D02*
G01*
X61893100Y-96865853D01*
X62032481Y-96958985D01*
X62151015Y-97077519D01*
X62244147Y-97216900D01*
X62308297Y-97371772D01*
X62341000Y-97536184D01*
X62341000Y-97703816D01*
X62308297Y-97868228D01*
X62244147Y-98023100D01*
X62151015Y-98162481D01*
X62032481Y-98281015D01*
X61893100Y-98374147D01*
X61738228Y-98438297D01*
X61573816Y-98471000D01*
X61406184Y-98471000D01*
X61241772Y-98438297D01*
X61086900Y-98374147D01*
X60947519Y-98281015D01*
X60828985Y-98162481D01*
X60735853Y-98023100D01*
X60671703Y-97868228D01*
X60639000Y-97703816D01*
X60639000Y-97536184D01*
X60671703Y-97371772D01*
X60735853Y-97216900D01*
X60828985Y-97077519D01*
X60947519Y-96958985D01*
X61086900Y-96865853D01*
X61241772Y-96801703D01*
X61406184Y-96769000D01*
X61573816Y-96769000D01*
X61738228Y-96801703D01*
X61738228Y-96801703D01*
G37*
G36*
X64278228Y-96801703D02*
G01*
X64433100Y-96865853D01*
X64572481Y-96958985D01*
X64691015Y-97077519D01*
X64784147Y-97216900D01*
X64848297Y-97371772D01*
X64881000Y-97536184D01*
X64881000Y-97703816D01*
X64848297Y-97868228D01*
X64784147Y-98023100D01*
X64691015Y-98162481D01*
X64572481Y-98281015D01*
X64433100Y-98374147D01*
X64278228Y-98438297D01*
X64113816Y-98471000D01*
X63946184Y-98471000D01*
X63781772Y-98438297D01*
X63626900Y-98374147D01*
X63487519Y-98281015D01*
X63368985Y-98162481D01*
X63275853Y-98023100D01*
X63211703Y-97868228D01*
X63179000Y-97703816D01*
X63179000Y-97536184D01*
X63211703Y-97371772D01*
X63275853Y-97216900D01*
X63368985Y-97077519D01*
X63487519Y-96958985D01*
X63626900Y-96865853D01*
X63781772Y-96801703D01*
X63946184Y-96769000D01*
X64113816Y-96769000D01*
X64278228Y-96801703D01*
X64278228Y-96801703D01*
G37*
G36*
X66818228Y-96801703D02*
G01*
X66973100Y-96865853D01*
X67112481Y-96958985D01*
X67231015Y-97077519D01*
X67324147Y-97216900D01*
X67388297Y-97371772D01*
X67421000Y-97536184D01*
X67421000Y-97703816D01*
X67388297Y-97868228D01*
X67324147Y-98023100D01*
X67231015Y-98162481D01*
X67112481Y-98281015D01*
X66973100Y-98374147D01*
X66818228Y-98438297D01*
X66653816Y-98471000D01*
X66486184Y-98471000D01*
X66321772Y-98438297D01*
X66166900Y-98374147D01*
X66027519Y-98281015D01*
X65908985Y-98162481D01*
X65815853Y-98023100D01*
X65751703Y-97868228D01*
X65719000Y-97703816D01*
X65719000Y-97536184D01*
X65751703Y-97371772D01*
X65815853Y-97216900D01*
X65908985Y-97077519D01*
X66027519Y-96958985D01*
X66166900Y-96865853D01*
X66321772Y-96801703D01*
X66486184Y-96769000D01*
X66653816Y-96769000D01*
X66818228Y-96801703D01*
X66818228Y-96801703D01*
G37*
G36*
X69358228Y-96801703D02*
G01*
X69513100Y-96865853D01*
X69652481Y-96958985D01*
X69771015Y-97077519D01*
X69864147Y-97216900D01*
X69928297Y-97371772D01*
X69961000Y-97536184D01*
X69961000Y-97703816D01*
X69928297Y-97868228D01*
X69864147Y-98023100D01*
X69771015Y-98162481D01*
X69652481Y-98281015D01*
X69513100Y-98374147D01*
X69358228Y-98438297D01*
X69193816Y-98471000D01*
X69026184Y-98471000D01*
X68861772Y-98438297D01*
X68706900Y-98374147D01*
X68567519Y-98281015D01*
X68448985Y-98162481D01*
X68355853Y-98023100D01*
X68291703Y-97868228D01*
X68259000Y-97703816D01*
X68259000Y-97536184D01*
X68291703Y-97371772D01*
X68355853Y-97216900D01*
X68448985Y-97077519D01*
X68567519Y-96958985D01*
X68706900Y-96865853D01*
X68861772Y-96801703D01*
X69026184Y-96769000D01*
X69193816Y-96769000D01*
X69358228Y-96801703D01*
X69358228Y-96801703D01*
G37*
G36*
X71898228Y-96801703D02*
G01*
X72053100Y-96865853D01*
X72192481Y-96958985D01*
X72311015Y-97077519D01*
X72404147Y-97216900D01*
X72468297Y-97371772D01*
X72501000Y-97536184D01*
X72501000Y-97703816D01*
X72468297Y-97868228D01*
X72404147Y-98023100D01*
X72311015Y-98162481D01*
X72192481Y-98281015D01*
X72053100Y-98374147D01*
X71898228Y-98438297D01*
X71733816Y-98471000D01*
X71566184Y-98471000D01*
X71401772Y-98438297D01*
X71246900Y-98374147D01*
X71107519Y-98281015D01*
X70988985Y-98162481D01*
X70895853Y-98023100D01*
X70831703Y-97868228D01*
X70799000Y-97703816D01*
X70799000Y-97536184D01*
X70831703Y-97371772D01*
X70895853Y-97216900D01*
X70988985Y-97077519D01*
X71107519Y-96958985D01*
X71246900Y-96865853D01*
X71401772Y-96801703D01*
X71566184Y-96769000D01*
X71733816Y-96769000D01*
X71898228Y-96801703D01*
X71898228Y-96801703D01*
G37*
G36*
X74438228Y-96801703D02*
G01*
X74593100Y-96865853D01*
X74732481Y-96958985D01*
X74851015Y-97077519D01*
X74944147Y-97216900D01*
X75008297Y-97371772D01*
X75041000Y-97536184D01*
X75041000Y-97703816D01*
X75008297Y-97868228D01*
X74944147Y-98023100D01*
X74851015Y-98162481D01*
X74732481Y-98281015D01*
X74593100Y-98374147D01*
X74438228Y-98438297D01*
X74273816Y-98471000D01*
X74106184Y-98471000D01*
X73941772Y-98438297D01*
X73786900Y-98374147D01*
X73647519Y-98281015D01*
X73528985Y-98162481D01*
X73435853Y-98023100D01*
X73371703Y-97868228D01*
X73339000Y-97703816D01*
X73339000Y-97536184D01*
X73371703Y-97371772D01*
X73435853Y-97216900D01*
X73528985Y-97077519D01*
X73647519Y-96958985D01*
X73786900Y-96865853D01*
X73941772Y-96801703D01*
X74106184Y-96769000D01*
X74273816Y-96769000D01*
X74438228Y-96801703D01*
X74438228Y-96801703D01*
G37*
G36*
X79518228Y-96801703D02*
G01*
X79673100Y-96865853D01*
X79812481Y-96958985D01*
X79931015Y-97077519D01*
X80024147Y-97216900D01*
X80088297Y-97371772D01*
X80121000Y-97536184D01*
X80121000Y-97703816D01*
X80088297Y-97868228D01*
X80024147Y-98023100D01*
X79931015Y-98162481D01*
X79812481Y-98281015D01*
X79673100Y-98374147D01*
X79518228Y-98438297D01*
X79353816Y-98471000D01*
X79186184Y-98471000D01*
X79021772Y-98438297D01*
X78866900Y-98374147D01*
X78727519Y-98281015D01*
X78608985Y-98162481D01*
X78515853Y-98023100D01*
X78451703Y-97868228D01*
X78419000Y-97703816D01*
X78419000Y-97536184D01*
X78451703Y-97371772D01*
X78515853Y-97216900D01*
X78608985Y-97077519D01*
X78727519Y-96958985D01*
X78866900Y-96865853D01*
X79021772Y-96801703D01*
X79186184Y-96769000D01*
X79353816Y-96769000D01*
X79518228Y-96801703D01*
X79518228Y-96801703D01*
G37*
G36*
X82058228Y-96801703D02*
G01*
X82213100Y-96865853D01*
X82352481Y-96958985D01*
X82471015Y-97077519D01*
X82564147Y-97216900D01*
X82628297Y-97371772D01*
X82661000Y-97536184D01*
X82661000Y-97703816D01*
X82628297Y-97868228D01*
X82564147Y-98023100D01*
X82471015Y-98162481D01*
X82352481Y-98281015D01*
X82213100Y-98374147D01*
X82058228Y-98438297D01*
X81893816Y-98471000D01*
X81726184Y-98471000D01*
X81561772Y-98438297D01*
X81406900Y-98374147D01*
X81267519Y-98281015D01*
X81148985Y-98162481D01*
X81055853Y-98023100D01*
X80991703Y-97868228D01*
X80959000Y-97703816D01*
X80959000Y-97536184D01*
X80991703Y-97371772D01*
X81055853Y-97216900D01*
X81148985Y-97077519D01*
X81267519Y-96958985D01*
X81406900Y-96865853D01*
X81561772Y-96801703D01*
X81726184Y-96769000D01*
X81893816Y-96769000D01*
X82058228Y-96801703D01*
X82058228Y-96801703D01*
G37*
G36*
X84598228Y-96801703D02*
G01*
X84753100Y-96865853D01*
X84892481Y-96958985D01*
X85011015Y-97077519D01*
X85104147Y-97216900D01*
X85168297Y-97371772D01*
X85201000Y-97536184D01*
X85201000Y-97703816D01*
X85168297Y-97868228D01*
X85104147Y-98023100D01*
X85011015Y-98162481D01*
X84892481Y-98281015D01*
X84753100Y-98374147D01*
X84598228Y-98438297D01*
X84433816Y-98471000D01*
X84266184Y-98471000D01*
X84101772Y-98438297D01*
X83946900Y-98374147D01*
X83807519Y-98281015D01*
X83688985Y-98162481D01*
X83595853Y-98023100D01*
X83531703Y-97868228D01*
X83499000Y-97703816D01*
X83499000Y-97536184D01*
X83531703Y-97371772D01*
X83595853Y-97216900D01*
X83688985Y-97077519D01*
X83807519Y-96958985D01*
X83946900Y-96865853D01*
X84101772Y-96801703D01*
X84266184Y-96769000D01*
X84433816Y-96769000D01*
X84598228Y-96801703D01*
X84598228Y-96801703D01*
G37*
G36*
X89678228Y-96801703D02*
G01*
X89833100Y-96865853D01*
X89972481Y-96958985D01*
X90091015Y-97077519D01*
X90184147Y-97216900D01*
X90248297Y-97371772D01*
X90281000Y-97536184D01*
X90281000Y-97703816D01*
X90248297Y-97868228D01*
X90184147Y-98023100D01*
X90091015Y-98162481D01*
X89972481Y-98281015D01*
X89833100Y-98374147D01*
X89678228Y-98438297D01*
X89513816Y-98471000D01*
X89346184Y-98471000D01*
X89181772Y-98438297D01*
X89026900Y-98374147D01*
X88887519Y-98281015D01*
X88768985Y-98162481D01*
X88675853Y-98023100D01*
X88611703Y-97868228D01*
X88579000Y-97703816D01*
X88579000Y-97536184D01*
X88611703Y-97371772D01*
X88675853Y-97216900D01*
X88768985Y-97077519D01*
X88887519Y-96958985D01*
X89026900Y-96865853D01*
X89181772Y-96801703D01*
X89346184Y-96769000D01*
X89513816Y-96769000D01*
X89678228Y-96801703D01*
X89678228Y-96801703D01*
G37*
G36*
X92218228Y-96801703D02*
G01*
X92373100Y-96865853D01*
X92512481Y-96958985D01*
X92631015Y-97077519D01*
X92724147Y-97216900D01*
X92788297Y-97371772D01*
X92821000Y-97536184D01*
X92821000Y-97703816D01*
X92788297Y-97868228D01*
X92724147Y-98023100D01*
X92631015Y-98162481D01*
X92512481Y-98281015D01*
X92373100Y-98374147D01*
X92218228Y-98438297D01*
X92053816Y-98471000D01*
X91886184Y-98471000D01*
X91721772Y-98438297D01*
X91566900Y-98374147D01*
X91427519Y-98281015D01*
X91308985Y-98162481D01*
X91215853Y-98023100D01*
X91151703Y-97868228D01*
X91119000Y-97703816D01*
X91119000Y-97536184D01*
X91151703Y-97371772D01*
X91215853Y-97216900D01*
X91308985Y-97077519D01*
X91427519Y-96958985D01*
X91566900Y-96865853D01*
X91721772Y-96801703D01*
X91886184Y-96769000D01*
X92053816Y-96769000D01*
X92218228Y-96801703D01*
X92218228Y-96801703D01*
G37*
G36*
X87138228Y-96801703D02*
G01*
X87293100Y-96865853D01*
X87432481Y-96958985D01*
X87551015Y-97077519D01*
X87644147Y-97216900D01*
X87708297Y-97371772D01*
X87741000Y-97536184D01*
X87741000Y-97703816D01*
X87708297Y-97868228D01*
X87644147Y-98023100D01*
X87551015Y-98162481D01*
X87432481Y-98281015D01*
X87293100Y-98374147D01*
X87138228Y-98438297D01*
X86973816Y-98471000D01*
X86806184Y-98471000D01*
X86641772Y-98438297D01*
X86486900Y-98374147D01*
X86347519Y-98281015D01*
X86228985Y-98162481D01*
X86135853Y-98023100D01*
X86071703Y-97868228D01*
X86039000Y-97703816D01*
X86039000Y-97536184D01*
X86071703Y-97371772D01*
X86135853Y-97216900D01*
X86228985Y-97077519D01*
X86347519Y-96958985D01*
X86486900Y-96865853D01*
X86641772Y-96801703D01*
X86806184Y-96769000D01*
X86973816Y-96769000D01*
X87138228Y-96801703D01*
X87138228Y-96801703D01*
G37*
G36*
X94758228Y-96801703D02*
G01*
X94913100Y-96865853D01*
X95052481Y-96958985D01*
X95171015Y-97077519D01*
X95264147Y-97216900D01*
X95328297Y-97371772D01*
X95361000Y-97536184D01*
X95361000Y-97703816D01*
X95328297Y-97868228D01*
X95264147Y-98023100D01*
X95171015Y-98162481D01*
X95052481Y-98281015D01*
X94913100Y-98374147D01*
X94758228Y-98438297D01*
X94593816Y-98471000D01*
X94426184Y-98471000D01*
X94261772Y-98438297D01*
X94106900Y-98374147D01*
X93967519Y-98281015D01*
X93848985Y-98162481D01*
X93755853Y-98023100D01*
X93691703Y-97868228D01*
X93659000Y-97703816D01*
X93659000Y-97536184D01*
X93691703Y-97371772D01*
X93755853Y-97216900D01*
X93848985Y-97077519D01*
X93967519Y-96958985D01*
X94106900Y-96865853D01*
X94261772Y-96801703D01*
X94426184Y-96769000D01*
X94593816Y-96769000D01*
X94758228Y-96801703D01*
X94758228Y-96801703D01*
G37*
G36*
X87138228Y-94261703D02*
G01*
X87293100Y-94325853D01*
X87432481Y-94418985D01*
X87551015Y-94537519D01*
X87644147Y-94676900D01*
X87708297Y-94831772D01*
X87741000Y-94996184D01*
X87741000Y-95163816D01*
X87708297Y-95328228D01*
X87644147Y-95483100D01*
X87551015Y-95622481D01*
X87432481Y-95741015D01*
X87293100Y-95834147D01*
X87138228Y-95898297D01*
X86973816Y-95931000D01*
X86806184Y-95931000D01*
X86641772Y-95898297D01*
X86486900Y-95834147D01*
X86347519Y-95741015D01*
X86228985Y-95622481D01*
X86135853Y-95483100D01*
X86071703Y-95328228D01*
X86039000Y-95163816D01*
X86039000Y-94996184D01*
X86071703Y-94831772D01*
X86135853Y-94676900D01*
X86228985Y-94537519D01*
X86347519Y-94418985D01*
X86486900Y-94325853D01*
X86641772Y-94261703D01*
X86806184Y-94229000D01*
X86973816Y-94229000D01*
X87138228Y-94261703D01*
X87138228Y-94261703D01*
G37*
G36*
X92218228Y-94261703D02*
G01*
X92373100Y-94325853D01*
X92512481Y-94418985D01*
X92631015Y-94537519D01*
X92724147Y-94676900D01*
X92788297Y-94831772D01*
X92821000Y-94996184D01*
X92821000Y-95163816D01*
X92788297Y-95328228D01*
X92724147Y-95483100D01*
X92631015Y-95622481D01*
X92512481Y-95741015D01*
X92373100Y-95834147D01*
X92218228Y-95898297D01*
X92053816Y-95931000D01*
X91886184Y-95931000D01*
X91721772Y-95898297D01*
X91566900Y-95834147D01*
X91427519Y-95741015D01*
X91308985Y-95622481D01*
X91215853Y-95483100D01*
X91151703Y-95328228D01*
X91119000Y-95163816D01*
X91119000Y-94996184D01*
X91151703Y-94831772D01*
X91215853Y-94676900D01*
X91308985Y-94537519D01*
X91427519Y-94418985D01*
X91566900Y-94325853D01*
X91721772Y-94261703D01*
X91886184Y-94229000D01*
X92053816Y-94229000D01*
X92218228Y-94261703D01*
X92218228Y-94261703D01*
G37*
G36*
X82058228Y-94261703D02*
G01*
X82213100Y-94325853D01*
X82352481Y-94418985D01*
X82471015Y-94537519D01*
X82564147Y-94676900D01*
X82628297Y-94831772D01*
X82661000Y-94996184D01*
X82661000Y-95163816D01*
X82628297Y-95328228D01*
X82564147Y-95483100D01*
X82471015Y-95622481D01*
X82352481Y-95741015D01*
X82213100Y-95834147D01*
X82058228Y-95898297D01*
X81893816Y-95931000D01*
X81726184Y-95931000D01*
X81561772Y-95898297D01*
X81406900Y-95834147D01*
X81267519Y-95741015D01*
X81148985Y-95622481D01*
X81055853Y-95483100D01*
X80991703Y-95328228D01*
X80959000Y-95163816D01*
X80959000Y-94996184D01*
X80991703Y-94831772D01*
X81055853Y-94676900D01*
X81148985Y-94537519D01*
X81267519Y-94418985D01*
X81406900Y-94325853D01*
X81561772Y-94261703D01*
X81726184Y-94229000D01*
X81893816Y-94229000D01*
X82058228Y-94261703D01*
X82058228Y-94261703D01*
G37*
G36*
X84598228Y-94261703D02*
G01*
X84753100Y-94325853D01*
X84892481Y-94418985D01*
X85011015Y-94537519D01*
X85104147Y-94676900D01*
X85168297Y-94831772D01*
X85201000Y-94996184D01*
X85201000Y-95163816D01*
X85168297Y-95328228D01*
X85104147Y-95483100D01*
X85011015Y-95622481D01*
X84892481Y-95741015D01*
X84753100Y-95834147D01*
X84598228Y-95898297D01*
X84433816Y-95931000D01*
X84266184Y-95931000D01*
X84101772Y-95898297D01*
X83946900Y-95834147D01*
X83807519Y-95741015D01*
X83688985Y-95622481D01*
X83595853Y-95483100D01*
X83531703Y-95328228D01*
X83499000Y-95163816D01*
X83499000Y-94996184D01*
X83531703Y-94831772D01*
X83595853Y-94676900D01*
X83688985Y-94537519D01*
X83807519Y-94418985D01*
X83946900Y-94325853D01*
X84101772Y-94261703D01*
X84266184Y-94229000D01*
X84433816Y-94229000D01*
X84598228Y-94261703D01*
X84598228Y-94261703D01*
G37*
G36*
X61738228Y-94261703D02*
G01*
X61893100Y-94325853D01*
X62032481Y-94418985D01*
X62151015Y-94537519D01*
X62244147Y-94676900D01*
X62308297Y-94831772D01*
X62341000Y-94996184D01*
X62341000Y-95163816D01*
X62308297Y-95328228D01*
X62244147Y-95483100D01*
X62151015Y-95622481D01*
X62032481Y-95741015D01*
X61893100Y-95834147D01*
X61738228Y-95898297D01*
X61573816Y-95931000D01*
X61406184Y-95931000D01*
X61241772Y-95898297D01*
X61086900Y-95834147D01*
X60947519Y-95741015D01*
X60828985Y-95622481D01*
X60735853Y-95483100D01*
X60671703Y-95328228D01*
X60639000Y-95163816D01*
X60639000Y-94996184D01*
X60671703Y-94831772D01*
X60735853Y-94676900D01*
X60828985Y-94537519D01*
X60947519Y-94418985D01*
X61086900Y-94325853D01*
X61241772Y-94261703D01*
X61406184Y-94229000D01*
X61573816Y-94229000D01*
X61738228Y-94261703D01*
X61738228Y-94261703D01*
G37*
G36*
X61738228Y-91721703D02*
G01*
X61893100Y-91785853D01*
X62032481Y-91878985D01*
X62151015Y-91997519D01*
X62244147Y-92136900D01*
X62308297Y-92291772D01*
X62341000Y-92456184D01*
X62341000Y-92623816D01*
X62308297Y-92788228D01*
X62244147Y-92943100D01*
X62151015Y-93082481D01*
X62032481Y-93201015D01*
X61893100Y-93294147D01*
X61738228Y-93358297D01*
X61573816Y-93391000D01*
X61406184Y-93391000D01*
X61241772Y-93358297D01*
X61086900Y-93294147D01*
X60947519Y-93201015D01*
X60828985Y-93082481D01*
X60735853Y-92943100D01*
X60671703Y-92788228D01*
X60639000Y-92623816D01*
X60639000Y-92456184D01*
X60671703Y-92291772D01*
X60735853Y-92136900D01*
X60828985Y-91997519D01*
X60947519Y-91878985D01*
X61086900Y-91785853D01*
X61241772Y-91721703D01*
X61406184Y-91689000D01*
X61573816Y-91689000D01*
X61738228Y-91721703D01*
X61738228Y-91721703D01*
G37*
G36*
X88355285Y-89018234D02*
G01*
X88451981Y-89037468D01*
X88634151Y-89112926D01*
X88798100Y-89222473D01*
X88937527Y-89361900D01*
X89047074Y-89525849D01*
X89122532Y-89708019D01*
X89161000Y-89901410D01*
X89161000Y-90098590D01*
X89122532Y-90291981D01*
X89047074Y-90474151D01*
X88937527Y-90638100D01*
X88798100Y-90777527D01*
X88634151Y-90887074D01*
X88451981Y-90962532D01*
X88258591Y-91001000D01*
X88061409Y-91001000D01*
X87868019Y-90962532D01*
X87685849Y-90887074D01*
X87521900Y-90777527D01*
X87382473Y-90638100D01*
X87272926Y-90474151D01*
X87197468Y-90291981D01*
X87159000Y-90098590D01*
X87159000Y-89901410D01*
X87197468Y-89708019D01*
X87272926Y-89525849D01*
X87382473Y-89361900D01*
X87521900Y-89222473D01*
X87685849Y-89112926D01*
X87868019Y-89037468D01*
X87964715Y-89018234D01*
X88061409Y-88999000D01*
X88258591Y-88999000D01*
X88355285Y-89018234D01*
X88355285Y-89018234D01*
G37*
G36*
X84545285Y-89018234D02*
G01*
X84641981Y-89037468D01*
X84824151Y-89112926D01*
X84988100Y-89222473D01*
X85127527Y-89361900D01*
X85237074Y-89525849D01*
X85312532Y-89708019D01*
X85351000Y-89901410D01*
X85351000Y-90098590D01*
X85312532Y-90291981D01*
X85237074Y-90474151D01*
X85127527Y-90638100D01*
X84988100Y-90777527D01*
X84824151Y-90887074D01*
X84641981Y-90962532D01*
X84448591Y-91001000D01*
X84251409Y-91001000D01*
X84058019Y-90962532D01*
X83875849Y-90887074D01*
X83711900Y-90777527D01*
X83572473Y-90638100D01*
X83462926Y-90474151D01*
X83387468Y-90291981D01*
X83349000Y-90098590D01*
X83349000Y-89901410D01*
X83387468Y-89708019D01*
X83462926Y-89525849D01*
X83572473Y-89361900D01*
X83711900Y-89222473D01*
X83875849Y-89112926D01*
X84058019Y-89037468D01*
X84154715Y-89018234D01*
X84251409Y-88999000D01*
X84448591Y-88999000D01*
X84545285Y-89018234D01*
X84545285Y-89018234D01*
G37*
G36*
X61738228Y-89181703D02*
G01*
X61893100Y-89245853D01*
X62032481Y-89338985D01*
X62151015Y-89457519D01*
X62244147Y-89596900D01*
X62308297Y-89751772D01*
X62341000Y-89916184D01*
X62341000Y-90083816D01*
X62308297Y-90248228D01*
X62244147Y-90403100D01*
X62151015Y-90542481D01*
X62032481Y-90661015D01*
X61893100Y-90754147D01*
X61738228Y-90818297D01*
X61573816Y-90851000D01*
X61406184Y-90851000D01*
X61241772Y-90818297D01*
X61086900Y-90754147D01*
X60947519Y-90661015D01*
X60828985Y-90542481D01*
X60735853Y-90403100D01*
X60671703Y-90248228D01*
X60639000Y-90083816D01*
X60639000Y-89916184D01*
X60671703Y-89751772D01*
X60735853Y-89596900D01*
X60828985Y-89457519D01*
X60947519Y-89338985D01*
X61086900Y-89245853D01*
X61241772Y-89181703D01*
X61406184Y-89149000D01*
X61573816Y-89149000D01*
X61738228Y-89181703D01*
X61738228Y-89181703D01*
G37*
G36*
X61738228Y-86641703D02*
G01*
X61893100Y-86705853D01*
X62032481Y-86798985D01*
X62151015Y-86917519D01*
X62244147Y-87056900D01*
X62308297Y-87211772D01*
X62341000Y-87376184D01*
X62341000Y-87543816D01*
X62308297Y-87708228D01*
X62244147Y-87863100D01*
X62151015Y-88002481D01*
X62032481Y-88121015D01*
X61893100Y-88214147D01*
X61738228Y-88278297D01*
X61573816Y-88311000D01*
X61406184Y-88311000D01*
X61241772Y-88278297D01*
X61086900Y-88214147D01*
X60947519Y-88121015D01*
X60828985Y-88002481D01*
X60735853Y-87863100D01*
X60671703Y-87708228D01*
X60639000Y-87543816D01*
X60639000Y-87376184D01*
X60671703Y-87211772D01*
X60735853Y-87056900D01*
X60828985Y-86917519D01*
X60947519Y-86798985D01*
X61086900Y-86705853D01*
X61241772Y-86641703D01*
X61406184Y-86609000D01*
X61573816Y-86609000D01*
X61738228Y-86641703D01*
X61738228Y-86641703D01*
G37*
G36*
X61738228Y-84101703D02*
G01*
X61893100Y-84165853D01*
X62032481Y-84258985D01*
X62151015Y-84377519D01*
X62244147Y-84516900D01*
X62308297Y-84671772D01*
X62341000Y-84836184D01*
X62341000Y-85003816D01*
X62308297Y-85168228D01*
X62244147Y-85323100D01*
X62151015Y-85462481D01*
X62032481Y-85581015D01*
X61893100Y-85674147D01*
X61738228Y-85738297D01*
X61573816Y-85771000D01*
X61406184Y-85771000D01*
X61241772Y-85738297D01*
X61086900Y-85674147D01*
X60947519Y-85581015D01*
X60828985Y-85462481D01*
X60735853Y-85323100D01*
X60671703Y-85168228D01*
X60639000Y-85003816D01*
X60639000Y-84836184D01*
X60671703Y-84671772D01*
X60735853Y-84516900D01*
X60828985Y-84377519D01*
X60947519Y-84258985D01*
X61086900Y-84165853D01*
X61241772Y-84101703D01*
X61406184Y-84069000D01*
X61573816Y-84069000D01*
X61738228Y-84101703D01*
X61738228Y-84101703D01*
G37*
G36*
X64278228Y-81561703D02*
G01*
X64433100Y-81625853D01*
X64572481Y-81718985D01*
X64691015Y-81837519D01*
X64784147Y-81976900D01*
X64848297Y-82131772D01*
X64881000Y-82296184D01*
X64881000Y-82463816D01*
X64848297Y-82628228D01*
X64784147Y-82783100D01*
X64691015Y-82922481D01*
X64572481Y-83041015D01*
X64433100Y-83134147D01*
X64278228Y-83198297D01*
X64113816Y-83231000D01*
X63946184Y-83231000D01*
X63781772Y-83198297D01*
X63626900Y-83134147D01*
X63487519Y-83041015D01*
X63368985Y-82922481D01*
X63275853Y-82783100D01*
X63211703Y-82628228D01*
X63179000Y-82463816D01*
X63179000Y-82296184D01*
X63211703Y-82131772D01*
X63275853Y-81976900D01*
X63368985Y-81837519D01*
X63487519Y-81718985D01*
X63626900Y-81625853D01*
X63781772Y-81561703D01*
X63946184Y-81529000D01*
X64113816Y-81529000D01*
X64278228Y-81561703D01*
X64278228Y-81561703D01*
G37*
G36*
X66818228Y-81561703D02*
G01*
X66973100Y-81625853D01*
X67112481Y-81718985D01*
X67231015Y-81837519D01*
X67324147Y-81976900D01*
X67388297Y-82131772D01*
X67421000Y-82296184D01*
X67421000Y-82463816D01*
X67388297Y-82628228D01*
X67324147Y-82783100D01*
X67231015Y-82922481D01*
X67112481Y-83041015D01*
X66973100Y-83134147D01*
X66818228Y-83198297D01*
X66653816Y-83231000D01*
X66486184Y-83231000D01*
X66321772Y-83198297D01*
X66166900Y-83134147D01*
X66027519Y-83041015D01*
X65908985Y-82922481D01*
X65815853Y-82783100D01*
X65751703Y-82628228D01*
X65719000Y-82463816D01*
X65719000Y-82296184D01*
X65751703Y-82131772D01*
X65815853Y-81976900D01*
X65908985Y-81837519D01*
X66027519Y-81718985D01*
X66166900Y-81625853D01*
X66321772Y-81561703D01*
X66486184Y-81529000D01*
X66653816Y-81529000D01*
X66818228Y-81561703D01*
X66818228Y-81561703D01*
G37*
G36*
X71898228Y-81561703D02*
G01*
X72053100Y-81625853D01*
X72192481Y-81718985D01*
X72311015Y-81837519D01*
X72404147Y-81976900D01*
X72468297Y-82131772D01*
X72501000Y-82296184D01*
X72501000Y-82463816D01*
X72468297Y-82628228D01*
X72404147Y-82783100D01*
X72311015Y-82922481D01*
X72192481Y-83041015D01*
X72053100Y-83134147D01*
X71898228Y-83198297D01*
X71733816Y-83231000D01*
X71566184Y-83231000D01*
X71401772Y-83198297D01*
X71246900Y-83134147D01*
X71107519Y-83041015D01*
X70988985Y-82922481D01*
X70895853Y-82783100D01*
X70831703Y-82628228D01*
X70799000Y-82463816D01*
X70799000Y-82296184D01*
X70831703Y-82131772D01*
X70895853Y-81976900D01*
X70988985Y-81837519D01*
X71107519Y-81718985D01*
X71246900Y-81625853D01*
X71401772Y-81561703D01*
X71566184Y-81529000D01*
X71733816Y-81529000D01*
X71898228Y-81561703D01*
X71898228Y-81561703D01*
G37*
G36*
X74438228Y-81561703D02*
G01*
X74593100Y-81625853D01*
X74732481Y-81718985D01*
X74851015Y-81837519D01*
X74944147Y-81976900D01*
X75008297Y-82131772D01*
X75041000Y-82296184D01*
X75041000Y-82463816D01*
X75008297Y-82628228D01*
X74944147Y-82783100D01*
X74851015Y-82922481D01*
X74732481Y-83041015D01*
X74593100Y-83134147D01*
X74438228Y-83198297D01*
X74273816Y-83231000D01*
X74106184Y-83231000D01*
X73941772Y-83198297D01*
X73786900Y-83134147D01*
X73647519Y-83041015D01*
X73528985Y-82922481D01*
X73435853Y-82783100D01*
X73371703Y-82628228D01*
X73339000Y-82463816D01*
X73339000Y-82296184D01*
X73371703Y-82131772D01*
X73435853Y-81976900D01*
X73528985Y-81837519D01*
X73647519Y-81718985D01*
X73786900Y-81625853D01*
X73941772Y-81561703D01*
X74106184Y-81529000D01*
X74273816Y-81529000D01*
X74438228Y-81561703D01*
X74438228Y-81561703D01*
G37*
G36*
X76978228Y-81561703D02*
G01*
X77133100Y-81625853D01*
X77272481Y-81718985D01*
X77391015Y-81837519D01*
X77484147Y-81976900D01*
X77548297Y-82131772D01*
X77581000Y-82296184D01*
X77581000Y-82463816D01*
X77548297Y-82628228D01*
X77484147Y-82783100D01*
X77391015Y-82922481D01*
X77272481Y-83041015D01*
X77133100Y-83134147D01*
X76978228Y-83198297D01*
X76813816Y-83231000D01*
X76646184Y-83231000D01*
X76481772Y-83198297D01*
X76326900Y-83134147D01*
X76187519Y-83041015D01*
X76068985Y-82922481D01*
X75975853Y-82783100D01*
X75911703Y-82628228D01*
X75879000Y-82463816D01*
X75879000Y-82296184D01*
X75911703Y-82131772D01*
X75975853Y-81976900D01*
X76068985Y-81837519D01*
X76187519Y-81718985D01*
X76326900Y-81625853D01*
X76481772Y-81561703D01*
X76646184Y-81529000D01*
X76813816Y-81529000D01*
X76978228Y-81561703D01*
X76978228Y-81561703D01*
G37*
G36*
X79518228Y-81561703D02*
G01*
X79673100Y-81625853D01*
X79812481Y-81718985D01*
X79931015Y-81837519D01*
X80024147Y-81976900D01*
X80088297Y-82131772D01*
X80121000Y-82296184D01*
X80121000Y-82463816D01*
X80088297Y-82628228D01*
X80024147Y-82783100D01*
X79931015Y-82922481D01*
X79812481Y-83041015D01*
X79673100Y-83134147D01*
X79518228Y-83198297D01*
X79353816Y-83231000D01*
X79186184Y-83231000D01*
X79021772Y-83198297D01*
X78866900Y-83134147D01*
X78727519Y-83041015D01*
X78608985Y-82922481D01*
X78515853Y-82783100D01*
X78451703Y-82628228D01*
X78419000Y-82463816D01*
X78419000Y-82296184D01*
X78451703Y-82131772D01*
X78515853Y-81976900D01*
X78608985Y-81837519D01*
X78727519Y-81718985D01*
X78866900Y-81625853D01*
X79021772Y-81561703D01*
X79186184Y-81529000D01*
X79353816Y-81529000D01*
X79518228Y-81561703D01*
X79518228Y-81561703D01*
G37*
G36*
X61738228Y-81561703D02*
G01*
X61893100Y-81625853D01*
X62032481Y-81718985D01*
X62151015Y-81837519D01*
X62244147Y-81976900D01*
X62308297Y-82131772D01*
X62341000Y-82296184D01*
X62341000Y-82463816D01*
X62308297Y-82628228D01*
X62244147Y-82783100D01*
X62151015Y-82922481D01*
X62032481Y-83041015D01*
X61893100Y-83134147D01*
X61738228Y-83198297D01*
X61573816Y-83231000D01*
X61406184Y-83231000D01*
X61241772Y-83198297D01*
X61086900Y-83134147D01*
X60947519Y-83041015D01*
X60828985Y-82922481D01*
X60735853Y-82783100D01*
X60671703Y-82628228D01*
X60639000Y-82463816D01*
X60639000Y-82296184D01*
X60671703Y-82131772D01*
X60735853Y-81976900D01*
X60828985Y-81837519D01*
X60947519Y-81718985D01*
X61086900Y-81625853D01*
X61241772Y-81561703D01*
X61406184Y-81529000D01*
X61573816Y-81529000D01*
X61738228Y-81561703D01*
X61738228Y-81561703D01*
G37*
G36*
X82058228Y-81561703D02*
G01*
X82213100Y-81625853D01*
X82352481Y-81718985D01*
X82471015Y-81837519D01*
X82564147Y-81976900D01*
X82628297Y-82131772D01*
X82661000Y-82296184D01*
X82661000Y-82463816D01*
X82628297Y-82628228D01*
X82564147Y-82783100D01*
X82471015Y-82922481D01*
X82352481Y-83041015D01*
X82213100Y-83134147D01*
X82058228Y-83198297D01*
X81893816Y-83231000D01*
X81726184Y-83231000D01*
X81561772Y-83198297D01*
X81406900Y-83134147D01*
X81267519Y-83041015D01*
X81148985Y-82922481D01*
X81055853Y-82783100D01*
X80991703Y-82628228D01*
X80959000Y-82463816D01*
X80959000Y-82296184D01*
X80991703Y-82131772D01*
X81055853Y-81976900D01*
X81148985Y-81837519D01*
X81267519Y-81718985D01*
X81406900Y-81625853D01*
X81561772Y-81561703D01*
X81726184Y-81529000D01*
X81893816Y-81529000D01*
X82058228Y-81561703D01*
X82058228Y-81561703D01*
G37*
G36*
X84598228Y-81561703D02*
G01*
X84753100Y-81625853D01*
X84892481Y-81718985D01*
X85011015Y-81837519D01*
X85104147Y-81976900D01*
X85168297Y-82131772D01*
X85201000Y-82296184D01*
X85201000Y-82463816D01*
X85168297Y-82628228D01*
X85104147Y-82783100D01*
X85011015Y-82922481D01*
X84892481Y-83041015D01*
X84753100Y-83134147D01*
X84598228Y-83198297D01*
X84433816Y-83231000D01*
X84266184Y-83231000D01*
X84101772Y-83198297D01*
X83946900Y-83134147D01*
X83807519Y-83041015D01*
X83688985Y-82922481D01*
X83595853Y-82783100D01*
X83531703Y-82628228D01*
X83499000Y-82463816D01*
X83499000Y-82296184D01*
X83531703Y-82131772D01*
X83595853Y-81976900D01*
X83688985Y-81837519D01*
X83807519Y-81718985D01*
X83946900Y-81625853D01*
X84101772Y-81561703D01*
X84266184Y-81529000D01*
X84433816Y-81529000D01*
X84598228Y-81561703D01*
X84598228Y-81561703D01*
G37*
G36*
X87138228Y-81561703D02*
G01*
X87293100Y-81625853D01*
X87432481Y-81718985D01*
X87551015Y-81837519D01*
X87644147Y-81976900D01*
X87708297Y-82131772D01*
X87741000Y-82296184D01*
X87741000Y-82463816D01*
X87708297Y-82628228D01*
X87644147Y-82783100D01*
X87551015Y-82922481D01*
X87432481Y-83041015D01*
X87293100Y-83134147D01*
X87138228Y-83198297D01*
X86973816Y-83231000D01*
X86806184Y-83231000D01*
X86641772Y-83198297D01*
X86486900Y-83134147D01*
X86347519Y-83041015D01*
X86228985Y-82922481D01*
X86135853Y-82783100D01*
X86071703Y-82628228D01*
X86039000Y-82463816D01*
X86039000Y-82296184D01*
X86071703Y-82131772D01*
X86135853Y-81976900D01*
X86228985Y-81837519D01*
X86347519Y-81718985D01*
X86486900Y-81625853D01*
X86641772Y-81561703D01*
X86806184Y-81529000D01*
X86973816Y-81529000D01*
X87138228Y-81561703D01*
X87138228Y-81561703D01*
G37*
G36*
X89678228Y-81561703D02*
G01*
X89833100Y-81625853D01*
X89972481Y-81718985D01*
X90091015Y-81837519D01*
X90184147Y-81976900D01*
X90248297Y-82131772D01*
X90281000Y-82296184D01*
X90281000Y-82463816D01*
X90248297Y-82628228D01*
X90184147Y-82783100D01*
X90091015Y-82922481D01*
X89972481Y-83041015D01*
X89833100Y-83134147D01*
X89678228Y-83198297D01*
X89513816Y-83231000D01*
X89346184Y-83231000D01*
X89181772Y-83198297D01*
X89026900Y-83134147D01*
X88887519Y-83041015D01*
X88768985Y-82922481D01*
X88675853Y-82783100D01*
X88611703Y-82628228D01*
X88579000Y-82463816D01*
X88579000Y-82296184D01*
X88611703Y-82131772D01*
X88675853Y-81976900D01*
X88768985Y-81837519D01*
X88887519Y-81718985D01*
X89026900Y-81625853D01*
X89181772Y-81561703D01*
X89346184Y-81529000D01*
X89513816Y-81529000D01*
X89678228Y-81561703D01*
X89678228Y-81561703D01*
G37*
G36*
X92218228Y-81561703D02*
G01*
X92373100Y-81625853D01*
X92512481Y-81718985D01*
X92631015Y-81837519D01*
X92724147Y-81976900D01*
X92788297Y-82131772D01*
X92821000Y-82296184D01*
X92821000Y-82463816D01*
X92788297Y-82628228D01*
X92724147Y-82783100D01*
X92631015Y-82922481D01*
X92512481Y-83041015D01*
X92373100Y-83134147D01*
X92218228Y-83198297D01*
X92053816Y-83231000D01*
X91886184Y-83231000D01*
X91721772Y-83198297D01*
X91566900Y-83134147D01*
X91427519Y-83041015D01*
X91308985Y-82922481D01*
X91215853Y-82783100D01*
X91151703Y-82628228D01*
X91119000Y-82463816D01*
X91119000Y-82296184D01*
X91151703Y-82131772D01*
X91215853Y-81976900D01*
X91308985Y-81837519D01*
X91427519Y-81718985D01*
X91566900Y-81625853D01*
X91721772Y-81561703D01*
X91886184Y-81529000D01*
X92053816Y-81529000D01*
X92218228Y-81561703D01*
X92218228Y-81561703D01*
G37*
G36*
X95361000Y-83231000D02*
G01*
X93659000Y-83231000D01*
X93659000Y-81529000D01*
X95361000Y-81529000D01*
X95361000Y-83231000D01*
X95361000Y-83231000D01*
G37*
G36*
X69358228Y-81561703D02*
G01*
X69513100Y-81625853D01*
X69652481Y-81718985D01*
X69771015Y-81837519D01*
X69864147Y-81976900D01*
X69928297Y-82131772D01*
X69961000Y-82296184D01*
X69961000Y-82463816D01*
X69928297Y-82628228D01*
X69864147Y-82783100D01*
X69771015Y-82922481D01*
X69652481Y-83041015D01*
X69513100Y-83134147D01*
X69358228Y-83198297D01*
X69193816Y-83231000D01*
X69026184Y-83231000D01*
X68861772Y-83198297D01*
X68706900Y-83134147D01*
X68567519Y-83041015D01*
X68448985Y-82922481D01*
X68355853Y-82783100D01*
X68291703Y-82628228D01*
X68259000Y-82463816D01*
X68259000Y-82296184D01*
X68291703Y-82131772D01*
X68355853Y-81976900D01*
X68448985Y-81837519D01*
X68567519Y-81718985D01*
X68706900Y-81625853D01*
X68861772Y-81561703D01*
X69026184Y-81529000D01*
X69193816Y-81529000D01*
X69358228Y-81561703D01*
X69358228Y-81561703D01*
G37*
M02*
