G04 #@! TF.GenerationSoftware,KiCad,Pcbnew,(5.1.4)-1*
G04 #@! TF.CreationDate,2019-10-14T19:51:17-04:00*
G04 #@! TF.ProjectId,badger-badge,62616467-6572-42d6-9261-6467652e6b69,rev?*
G04 #@! TF.SameCoordinates,Original*
G04 #@! TF.FileFunction,Legend,Bot*
G04 #@! TF.FilePolarity,Positive*
%FSLAX46Y46*%
G04 Gerber Fmt 4.6, Leading zero omitted, Abs format (unit mm)*
G04 Created by KiCad (PCBNEW (5.1.4)-1) date 2019-10-14 19:51:17*
%MOMM*%
%LPD*%
G04 APERTURE LIST*
%ADD10C,2.002000*%
%ADD11R,1.702000X1.702000*%
%ADD12C,1.702000*%
%ADD13C,1.802000*%
G04 APERTURE END LIST*
%LPC*%
D10*
X88160000Y-90000000D03*
X84350000Y-90000000D03*
D11*
X94510000Y-82380000D03*
D12*
X91970000Y-82380000D03*
X89430000Y-82380000D03*
X86890000Y-82380000D03*
X84350000Y-82380000D03*
X81810000Y-82380000D03*
X79270000Y-82380000D03*
X76730000Y-82380000D03*
X74190000Y-82380000D03*
X71650000Y-82380000D03*
X69110000Y-82380000D03*
X66570000Y-82380000D03*
X64030000Y-82380000D03*
X81810000Y-95080000D03*
X84350000Y-95080000D03*
X86890000Y-95080000D03*
X91970000Y-95080000D03*
X94510000Y-97620000D03*
X91970000Y-97620000D03*
X89430000Y-97620000D03*
X86890000Y-97620000D03*
X84350000Y-97620000D03*
X81810000Y-97620000D03*
X79270000Y-97620000D03*
X76730000Y-97620000D03*
X74190000Y-97620000D03*
X71650000Y-97620000D03*
X69110000Y-97620000D03*
X66570000Y-97620000D03*
X64030000Y-97620000D03*
X61490000Y-82380000D03*
X61490000Y-84920000D03*
X61490000Y-87460000D03*
X61490000Y-97620000D03*
X61490000Y-95080000D03*
X61490000Y-92540000D03*
X61490000Y-90000000D03*
D13*
X91500000Y-119000000D03*
X98500000Y-119000000D03*
X91500000Y-107000000D03*
X98500000Y-107000000D03*
M02*
