  0
SECTION
  2
HEADER
  9
$ANGBASE
  50
0.0
  9
$ANGDIR
  70
1
  9
$MEASUREMENT
  70
0
  0
ENDSEC
  0
SECTION
  2
TABLES
  0
TABLE
  2
LTYPE
  70
4
  0
LTYPE
  5
40F
  2
CONTINUOUS
  70
0
  3
Solid line
  72
65
  73
0
  40
0.0
  0
LTYPE
  5
410
  2
DASHDOT
 70
0
  3
Dash Dot ____ _ ____ _
 72
65
 73
4
 40
2.0
 49
1.25
 49
-0.25
 49
0.25
 49
-0.25
  0
LTYPE
  5
411
  2
DASHED
 70
0
  3
Dashed __ __ __ __ __
 72
65
 73
2
 40
0.75
 49
0.5
 49
-0.25
  0
LTYPE
  5
43B
  2
DOTTED
 70
0
  3
Dotted .  .  .  .
 72
65
 73
2
 40
0.2
 49
0.0
 49
-0.2
  0
ENDTAB
  0
TABLE
  2
STYLE
  70
4
  0
STYLE
  2
KICAD
  70
0
  40
0
  41
1
  42
1
  50
0
  71
0
  3
isocp.shx
  0
STYLE
  2
KICADB
  70
0
  40
0
  41
1
  42
1
  50
0
  71
0
  3
isocp.shx
  0
STYLE
  2
KICADI
  70
0
  40
0
  41
1
  42
1
  50
15
  71
0
  3
isocp.shx
  0
STYLE
  2
KICADBI
  70
0
  40
0
  41
1
  42
1
  50
15
  71
0
  3
isocp.shx
  0
ENDTAB
  0
TABLE
  2
LAYER
  70
1
  0
LAYER
  2
BLACK
  70
0
  62
7
  6
CONTINUOUS
  0
ENDTAB
  0
ENDSEC
  0
SECTION
  2
ENTITIES
0
LINE
8
BLACK
6
CONTINUOUS
10
6.27559
20
-6.76772
11
6.27559
21
-8.02756
0
LINE
8
BLACK
6
CONTINUOUS
10
6.27559
20
-8.02756
11
10.5276
21
-8.02756
0
LINE
8
BLACK
6
CONTINUOUS
10
10.5276
20
-8.02756
11
10.5276
21
-6.76772
0
LINE
8
BLACK
6
CONTINUOUS
10
10.5276
20
-6.76772
11
6.27559
21
-6.76772
0
LINE
8
BLACK
6
CONTINUOUS
10
0.393701
20
-0.393701
11
0.393701
21
-8.1063
0
LINE
8
BLACK
6
CONTINUOUS
10
0.393701
20
-8.1063
11
10.6063
21
-8.1063
0
LINE
8
BLACK
6
CONTINUOUS
10
10.6063
20
-8.1063
11
10.6063
21
-0.393701
0
LINE
8
BLACK
6
CONTINUOUS
10
10.6063
20
-0.393701
11
0.393701
21
-0.393701
0
LINE
8
BLACK
6
CONTINUOUS
10
0.472441
20
-0.472441
11
0.472441
21
-8.02756
0
LINE
8
BLACK
6
CONTINUOUS
10
0.472441
20
-8.02756
11
10.5276
21
-8.02756
0
LINE
8
BLACK
6
CONTINUOUS
10
10.5276
20
-8.02756
11
10.5276
21
-0.472441
0
LINE
8
BLACK
6
CONTINUOUS
10
10.5276
20
-0.472441
11
0.472441
21
-0.472441
0
LINE
8
BLACK
6
CONTINUOUS
10
2.3622
20
-0.472441
11
2.3622
21
-0.393701
0
LINE
8
BLACK
6
CONTINUOUS
10
4.33071
20
-0.472441
11
4.33071
21
-0.393701
0
LINE
8
BLACK
6
CONTINUOUS
10
6.29921
20
-0.472441
11
6.29921
21
-0.393701
0
LINE
8
BLACK
6
CONTINUOUS
10
8.26772
20
-0.472441
11
8.26772
21
-0.393701
0
LINE
8
BLACK
6
CONTINUOUS
10
10.2362
20
-0.472441
11
10.2362
21
-0.393701
0
LINE
8
BLACK
6
CONTINUOUS
10
1.4199
20
-0.456224
11
1.39065
21
-0.456224
0
LINE
8
BLACK
6
CONTINUOUS
10
1.40528
20
-0.456224
11
1.40528
21
-0.405043
0
LINE
8
BLACK
6
CONTINUOUS
10
1.40528
20
-0.405043
11
1.4004
21
-0.412355
0
LINE
8
BLACK
6
CONTINUOUS
10
1.4004
20
-0.412355
11
1.39553
21
-0.417229
0
LINE
8
BLACK
6
CONTINUOUS
10
1.39553
20
-0.417229
11
1.39065
21
-0.419666
0
LINE
8
BLACK
6
CONTINUOUS
10
3.35916
20
-0.409917
11
3.3616
21
-0.40748
0
LINE
8
BLACK
6
CONTINUOUS
10
3.3616
20
-0.40748
11
3.36647
21
-0.405043
0
LINE
8
BLACK
6
CONTINUOUS
10
3.36647
20
-0.405043
11
3.37866
21
-0.405043
0
LINE
8
BLACK
6
CONTINUOUS
10
3.37866
20
-0.405043
11
3.38353
21
-0.40748
0
LINE
8
BLACK
6
CONTINUOUS
10
3.38353
20
-0.40748
11
3.38597
21
-0.409917
0
LINE
8
BLACK
6
CONTINUOUS
10
3.38597
20
-0.409917
11
3.3884
21
-0.414792
0
LINE
8
BLACK
6
CONTINUOUS
10
3.3884
20
-0.414792
11
3.3884
21
-0.419666
0
LINE
8
BLACK
6
CONTINUOUS
10
3.3884
20
-0.419666
11
3.38597
21
-0.426978
0
LINE
8
BLACK
6
CONTINUOUS
10
3.38597
20
-0.426978
11
3.35672
21
-0.456224
0
LINE
8
BLACK
6
CONTINUOUS
10
3.35672
20
-0.456224
11
3.3884
21
-0.456224
0
LINE
8
BLACK
6
CONTINUOUS
10
5.32522
20
-0.405043
11
5.35691
21
-0.405043
0
LINE
8
BLACK
6
CONTINUOUS
10
5.35691
20
-0.405043
11
5.33985
21
-0.424541
0
LINE
8
BLACK
6
CONTINUOUS
10
5.33985
20
-0.424541
11
5.34716
21
-0.424541
0
LINE
8
BLACK
6
CONTINUOUS
10
5.34716
20
-0.424541
11
5.35203
21
-0.426978
0
LINE
8
BLACK
6
CONTINUOUS
10
5.35203
20
-0.426978
11
5.35447
21
-0.429415
0
LINE
8
BLACK
6
CONTINUOUS
10
5.35447
20
-0.429415
11
5.35691
21
-0.434289
0
LINE
8
BLACK
6
CONTINUOUS
10
5.35691
20
-0.434289
11
5.35691
21
-0.446475
0
LINE
8
BLACK
6
CONTINUOUS
10
5.35691
20
-0.446475
11
5.35447
21
-0.45135
0
LINE
8
BLACK
6
CONTINUOUS
10
5.35447
20
-0.45135
11
5.35203
21
-0.453787
0
LINE
8
BLACK
6
CONTINUOUS
10
5.35203
20
-0.453787
11
5.34716
21
-0.456224
0
LINE
8
BLACK
6
CONTINUOUS
10
5.34716
20
-0.456224
11
5.33254
21
-0.456224
0
LINE
8
BLACK
6
CONTINUOUS
10
5.33254
20
-0.456224
11
5.32766
21
-0.453787
0
LINE
8
BLACK
6
CONTINUOUS
10
5.32766
20
-0.453787
11
5.32522
21
-0.45135
0
LINE
8
BLACK
6
CONTINUOUS
10
7.32054
20
-0.422103
11
7.32054
21
-0.456224
0
LINE
8
BLACK
6
CONTINUOUS
10
7.30835
20
-0.402606
11
7.29617
21
-0.439164
0
LINE
8
BLACK
6
CONTINUOUS
10
7.29617
20
-0.439164
11
7.32785
21
-0.439164
0
LINE
8
BLACK
6
CONTINUOUS
10
9.29148
20
-0.405043
11
9.26711
21
-0.405043
0
LINE
8
BLACK
6
CONTINUOUS
10
9.26711
20
-0.405043
11
9.26467
21
-0.429415
0
LINE
8
BLACK
6
CONTINUOUS
10
9.26467
20
-0.429415
11
9.26711
21
-0.426978
0
LINE
8
BLACK
6
CONTINUOUS
10
9.26711
20
-0.426978
11
9.27198
21
-0.424541
0
LINE
8
BLACK
6
CONTINUOUS
10
9.27198
20
-0.424541
11
9.28417
21
-0.424541
0
LINE
8
BLACK
6
CONTINUOUS
10
9.28417
20
-0.424541
11
9.28904
21
-0.426978
0
LINE
8
BLACK
6
CONTINUOUS
10
9.28904
20
-0.426978
11
9.29148
21
-0.429415
0
LINE
8
BLACK
6
CONTINUOUS
10
9.29148
20
-0.429415
11
9.29392
21
-0.434289
0
LINE
8
BLACK
6
CONTINUOUS
10
9.29392
20
-0.434289
11
9.29392
21
-0.446475
0
LINE
8
BLACK
6
CONTINUOUS
10
9.29392
20
-0.446475
11
9.29148
21
-0.45135
0
LINE
8
BLACK
6
CONTINUOUS
10
9.29148
20
-0.45135
11
9.28904
21
-0.453787
0
LINE
8
BLACK
6
CONTINUOUS
10
9.28904
20
-0.453787
11
9.28417
21
-0.456224
0
LINE
8
BLACK
6
CONTINUOUS
10
9.28417
20
-0.456224
11
9.27198
21
-0.456224
0
LINE
8
BLACK
6
CONTINUOUS
10
9.27198
20
-0.456224
11
9.26711
21
-0.453787
0
LINE
8
BLACK
6
CONTINUOUS
10
9.26711
20
-0.453787
11
9.26467
21
-0.45135
0
LINE
8
BLACK
6
CONTINUOUS
10
2.3622
20
-8.02756
11
2.3622
21
-8.1063
0
LINE
8
BLACK
6
CONTINUOUS
10
4.33071
20
-8.02756
11
4.33071
21
-8.1063
0
LINE
8
BLACK
6
CONTINUOUS
10
6.29921
20
-8.02756
11
6.29921
21
-8.1063
0
LINE
8
BLACK
6
CONTINUOUS
10
8.26772
20
-8.02756
11
8.26772
21
-8.1063
0
LINE
8
BLACK
6
CONTINUOUS
10
10.2362
20
-8.02756
11
10.2362
21
-8.1063
0
LINE
8
BLACK
6
CONTINUOUS
10
1.4199
20
-8.09008
11
1.39065
21
-8.09008
0
LINE
8
BLACK
6
CONTINUOUS
10
1.40528
20
-8.09008
11
1.40528
21
-8.0389
0
LINE
8
BLACK
6
CONTINUOUS
10
1.40528
20
-8.0389
11
1.4004
21
-8.04621
0
LINE
8
BLACK
6
CONTINUOUS
10
1.4004
20
-8.04621
11
1.39553
21
-8.05109
0
LINE
8
BLACK
6
CONTINUOUS
10
1.39553
20
-8.05109
11
1.39065
21
-8.05352
0
LINE
8
BLACK
6
CONTINUOUS
10
3.35916
20
-8.04378
11
3.3616
21
-8.04134
0
LINE
8
BLACK
6
CONTINUOUS
10
3.3616
20
-8.04134
11
3.36647
21
-8.0389
0
LINE
8
BLACK
6
CONTINUOUS
10
3.36647
20
-8.0389
11
3.37866
21
-8.0389
0
LINE
8
BLACK
6
CONTINUOUS
10
3.37866
20
-8.0389
11
3.38353
21
-8.04134
0
LINE
8
BLACK
6
CONTINUOUS
10
3.38353
20
-8.04134
11
3.38597
21
-8.04378
0
LINE
8
BLACK
6
CONTINUOUS
10
3.38597
20
-8.04378
11
3.3884
21
-8.04865
0
LINE
8
BLACK
6
CONTINUOUS
10
3.3884
20
-8.04865
11
3.3884
21
-8.05352
0
LINE
8
BLACK
6
CONTINUOUS
10
3.3884
20
-8.05352
11
3.38597
21
-8.06084
0
LINE
8
BLACK
6
CONTINUOUS
10
3.38597
20
-8.06084
11
3.35672
21
-8.09008
0
LINE
8
BLACK
6
CONTINUOUS
10
3.35672
20
-8.09008
11
3.3884
21
-8.09008
0
LINE
8
BLACK
6
CONTINUOUS
10
5.32522
20
-8.0389
11
5.35691
21
-8.0389
0
LINE
8
BLACK
6
CONTINUOUS
10
5.35691
20
-8.0389
11
5.33985
21
-8.0584
0
LINE
8
BLACK
6
CONTINUOUS
10
5.33985
20
-8.0584
11
5.34716
21
-8.0584
0
LINE
8
BLACK
6
CONTINUOUS
10
5.34716
20
-8.0584
11
5.35203
21
-8.06084
0
LINE
8
BLACK
6
CONTINUOUS
10
5.35203
20
-8.06084
11
5.35447
21
-8.06327
0
LINE
8
BLACK
6
CONTINUOUS
10
5.35447
20
-8.06327
11
5.35691
21
-8.06815
0
LINE
8
BLACK
6
CONTINUOUS
10
5.35691
20
-8.06815
11
5.35691
21
-8.08033
0
LINE
8
BLACK
6
CONTINUOUS
10
5.35691
20
-8.08033
11
5.35447
21
-8.08521
0
LINE
8
BLACK
6
CONTINUOUS
10
5.35447
20
-8.08521
11
5.35203
21
-8.08765
0
LINE
8
BLACK
6
CONTINUOUS
10
5.35203
20
-8.08765
11
5.34716
21
-8.09008
0
LINE
8
BLACK
6
CONTINUOUS
10
5.34716
20
-8.09008
11
5.33254
21
-8.09008
0
LINE
8
BLACK
6
CONTINUOUS
10
5.33254
20
-8.09008
11
5.32766
21
-8.08765
0
LINE
8
BLACK
6
CONTINUOUS
10
5.32766
20
-8.08765
11
5.32522
21
-8.08521
0
LINE
8
BLACK
6
CONTINUOUS
10
7.32054
20
-8.05596
11
7.32054
21
-8.09008
0
LINE
8
BLACK
6
CONTINUOUS
10
7.30835
20
-8.03646
11
7.29617
21
-8.07302
0
LINE
8
BLACK
6
CONTINUOUS
10
7.29617
20
-8.07302
11
7.32785
21
-8.07302
0
LINE
8
BLACK
6
CONTINUOUS
10
9.29148
20
-8.0389
11
9.26711
21
-8.0389
0
LINE
8
BLACK
6
CONTINUOUS
10
9.26711
20
-8.0389
11
9.26467
21
-8.06327
0
LINE
8
BLACK
6
CONTINUOUS
10
9.26467
20
-8.06327
11
9.26711
21
-8.06084
0
LINE
8
BLACK
6
CONTINUOUS
10
9.26711
20
-8.06084
11
9.27198
21
-8.0584
0
LINE
8
BLACK
6
CONTINUOUS
10
9.27198
20
-8.0584
11
9.28417
21
-8.0584
0
LINE
8
BLACK
6
CONTINUOUS
10
9.28417
20
-8.0584
11
9.28904
21
-8.06084
0
LINE
8
BLACK
6
CONTINUOUS
10
9.28904
20
-8.06084
11
9.29148
21
-8.06327
0
LINE
8
BLACK
6
CONTINUOUS
10
9.29148
20
-8.06327
11
9.29392
21
-8.06815
0
LINE
8
BLACK
6
CONTINUOUS
10
9.29392
20
-8.06815
11
9.29392
21
-8.08033
0
LINE
8
BLACK
6
CONTINUOUS
10
9.29392
20
-8.08033
11
9.29148
21
-8.08521
0
LINE
8
BLACK
6
CONTINUOUS
10
9.29148
20
-8.08521
11
9.28904
21
-8.08765
0
LINE
8
BLACK
6
CONTINUOUS
10
9.28904
20
-8.08765
11
9.28417
21
-8.09008
0
LINE
8
BLACK
6
CONTINUOUS
10
9.28417
20
-8.09008
11
9.27198
21
-8.09008
0
LINE
8
BLACK
6
CONTINUOUS
10
9.27198
20
-8.09008
11
9.26711
21
-8.08765
0
LINE
8
BLACK
6
CONTINUOUS
10
9.26711
20
-8.08765
11
9.26467
21
-8.08521
0
LINE
8
BLACK
6
CONTINUOUS
10
0.393701
20
-2.3622
11
0.472441
21
-2.3622
0
LINE
8
BLACK
6
CONTINUOUS
10
0.393701
20
-4.33071
11
0.472441
21
-4.33071
0
LINE
8
BLACK
6
CONTINUOUS
10
0.393701
20
-6.29921
11
0.472441
21
-6.29921
0
LINE
8
BLACK
6
CONTINUOUS
10
0.420885
20
-1.38648
11
0.445257
21
-1.38648
0
LINE
8
BLACK
6
CONTINUOUS
10
0.41601
20
-1.40111
11
0.433071
21
-1.34993
0
LINE
8
BLACK
6
CONTINUOUS
10
0.433071
20
-1.34993
11
0.450131
21
-1.40111
0
LINE
8
BLACK
6
CONTINUOUS
10
0.436727
20
-3.3428
11
0.444038
21
-3.34524
0
LINE
8
BLACK
6
CONTINUOUS
10
0.444038
20
-3.34524
11
0.446475
21
-3.34768
0
LINE
8
BLACK
6
CONTINUOUS
10
0.446475
20
-3.34768
11
0.448913
21
-3.35255
0
LINE
8
BLACK
6
CONTINUOUS
10
0.448913
20
-3.35255
11
0.448913
21
-3.35986
0
LINE
8
BLACK
6
CONTINUOUS
10
0.448913
20
-3.35986
11
0.446475
21
-3.36474
0
LINE
8
BLACK
6
CONTINUOUS
10
0.446475
20
-3.36474
11
0.444038
21
-3.36717
0
LINE
8
BLACK
6
CONTINUOUS
10
0.444038
20
-3.36717
11
0.439164
21
-3.36961
0
LINE
8
BLACK
6
CONTINUOUS
10
0.439164
20
-3.36961
11
0.419666
21
-3.36961
0
LINE
8
BLACK
6
CONTINUOUS
10
0.419666
20
-3.36961
11
0.419666
21
-3.31843
0
LINE
8
BLACK
6
CONTINUOUS
10
0.419666
20
-3.31843
11
0.436727
21
-3.31843
0
LINE
8
BLACK
6
CONTINUOUS
10
0.436727
20
-3.31843
11
0.441601
21
-3.32087
0
LINE
8
BLACK
6
CONTINUOUS
10
0.441601
20
-3.32087
11
0.444038
21
-3.3233
0
LINE
8
BLACK
6
CONTINUOUS
10
0.444038
20
-3.3233
11
0.446475
21
-3.32818
0
LINE
8
BLACK
6
CONTINUOUS
10
0.446475
20
-3.32818
11
0.446475
21
-3.33305
0
LINE
8
BLACK
6
CONTINUOUS
10
0.446475
20
-3.33305
11
0.444038
21
-3.33793
0
LINE
8
BLACK
6
CONTINUOUS
10
0.444038
20
-3.33793
11
0.441601
21
-3.34036
0
LINE
8
BLACK
6
CONTINUOUS
10
0.441601
20
-3.34036
11
0.436727
21
-3.3428
0
LINE
8
BLACK
6
CONTINUOUS
10
0.436727
20
-3.3428
11
0.419666
21
-3.3428
0
LINE
8
BLACK
6
CONTINUOUS
10
0.448913
20
-5.33324
11
0.446475
21
-5.33568
0
LINE
8
BLACK
6
CONTINUOUS
10
0.446475
20
-5.33568
11
0.439164
21
-5.33811
0
LINE
8
BLACK
6
CONTINUOUS
10
0.439164
20
-5.33811
11
0.434289
21
-5.33811
0
LINE
8
BLACK
6
CONTINUOUS
10
0.434289
20
-5.33811
11
0.426978
21
-5.33568
0
LINE
8
BLACK
6
CONTINUOUS
10
0.426978
20
-5.33568
11
0.422103
21
-5.3308
0
LINE
8
BLACK
6
CONTINUOUS
10
0.422103
20
-5.3308
11
0.419666
21
-5.32593
0
LINE
8
BLACK
6
CONTINUOUS
10
0.419666
20
-5.32593
11
0.417229
21
-5.31618
0
LINE
8
BLACK
6
CONTINUOUS
10
0.417229
20
-5.31618
11
0.417229
21
-5.30887
0
LINE
8
BLACK
6
CONTINUOUS
10
0.417229
20
-5.30887
11
0.419666
21
-5.29912
0
LINE
8
BLACK
6
CONTINUOUS
10
0.419666
20
-5.29912
11
0.422103
21
-5.29424
0
LINE
8
BLACK
6
CONTINUOUS
10
0.422103
20
-5.29424
11
0.426978
21
-5.28937
0
LINE
8
BLACK
6
CONTINUOUS
10
0.426978
20
-5.28937
11
0.434289
21
-5.28693
0
LINE
8
BLACK
6
CONTINUOUS
10
0.434289
20
-5.28693
11
0.439164
21
-5.28693
0
LINE
8
BLACK
6
CONTINUOUS
10
0.439164
20
-5.28693
11
0.446475
21
-5.28937
0
LINE
8
BLACK
6
CONTINUOUS
10
0.446475
20
-5.28937
11
0.448913
21
-5.29181
0
LINE
8
BLACK
6
CONTINUOUS
10
0.419666
20
-7.30662
11
0.419666
21
-7.25544
0
LINE
8
BLACK
6
CONTINUOUS
10
0.419666
20
-7.25544
11
0.431852
21
-7.25544
0
LINE
8
BLACK
6
CONTINUOUS
10
0.431852
20
-7.25544
11
0.439164
21
-7.25787
0
LINE
8
BLACK
6
CONTINUOUS
10
0.439164
20
-7.25787
11
0.444038
21
-7.26275
0
LINE
8
BLACK
6
CONTINUOUS
10
0.444038
20
-7.26275
11
0.446475
21
-7.26762
0
LINE
8
BLACK
6
CONTINUOUS
10
0.446475
20
-7.26762
11
0.448913
21
-7.27737
0
LINE
8
BLACK
6
CONTINUOUS
10
0.448913
20
-7.27737
11
0.448913
21
-7.28468
0
LINE
8
BLACK
6
CONTINUOUS
10
0.448913
20
-7.28468
11
0.446475
21
-7.29443
0
LINE
8
BLACK
6
CONTINUOUS
10
0.446475
20
-7.29443
11
0.444038
21
-7.29931
0
LINE
8
BLACK
6
CONTINUOUS
10
0.444038
20
-7.29931
11
0.439164
21
-7.30418
0
LINE
8
BLACK
6
CONTINUOUS
10
0.439164
20
-7.30418
11
0.431852
21
-7.30662
0
LINE
8
BLACK
6
CONTINUOUS
10
0.431852
20
-7.30662
11
0.419666
21
-7.30662
0
LINE
8
BLACK
6
CONTINUOUS
10
10.6063
20
-2.3622
11
10.5276
21
-2.3622
0
LINE
8
BLACK
6
CONTINUOUS
10
10.6063
20
-4.33071
11
10.5276
21
-4.33071
0
LINE
8
BLACK
6
CONTINUOUS
10
10.6063
20
-6.29921
11
10.5276
21
-6.29921
0
LINE
8
BLACK
6
CONTINUOUS
10
10.5547
20
-1.38648
11
10.5791
21
-1.38648
0
LINE
8
BLACK
6
CONTINUOUS
10
10.5499
20
-1.40111
11
10.5669
21
-1.34993
0
LINE
8
BLACK
6
CONTINUOUS
10
10.5669
20
-1.34993
11
10.584
21
-1.40111
0
LINE
8
BLACK
6
CONTINUOUS
10
10.5706
20
-3.3428
11
10.5779
21
-3.34524
0
LINE
8
BLACK
6
CONTINUOUS
10
10.5779
20
-3.34524
11
10.5803
21
-3.34768
0
LINE
8
BLACK
6
CONTINUOUS
10
10.5803
20
-3.34768
11
10.5828
21
-3.35255
0
LINE
8
BLACK
6
CONTINUOUS
10
10.5828
20
-3.35255
11
10.5828
21
-3.35986
0
LINE
8
BLACK
6
CONTINUOUS
10
10.5828
20
-3.35986
11
10.5803
21
-3.36474
0
LINE
8
BLACK
6
CONTINUOUS
10
10.5803
20
-3.36474
11
10.5779
21
-3.36717
0
LINE
8
BLACK
6
CONTINUOUS
10
10.5779
20
-3.36717
11
10.573
21
-3.36961
0
LINE
8
BLACK
6
CONTINUOUS
10
10.573
20
-3.36961
11
10.5535
21
-3.36961
0
LINE
8
BLACK
6
CONTINUOUS
10
10.5535
20
-3.36961
11
10.5535
21
-3.31843
0
LINE
8
BLACK
6
CONTINUOUS
10
10.5535
20
-3.31843
11
10.5706
21
-3.31843
0
LINE
8
BLACK
6
CONTINUOUS
10
10.5706
20
-3.31843
11
10.5755
21
-3.32087
0
LINE
8
BLACK
6
CONTINUOUS
10
10.5755
20
-3.32087
11
10.5779
21
-3.3233
0
LINE
8
BLACK
6
CONTINUOUS
10
10.5779
20
-3.3233
11
10.5803
21
-3.32818
0
LINE
8
BLACK
6
CONTINUOUS
10
10.5803
20
-3.32818
11
10.5803
21
-3.33305
0
LINE
8
BLACK
6
CONTINUOUS
10
10.5803
20
-3.33305
11
10.5779
21
-3.33793
0
LINE
8
BLACK
6
CONTINUOUS
10
10.5779
20
-3.33793
11
10.5755
21
-3.34036
0
LINE
8
BLACK
6
CONTINUOUS
10
10.5755
20
-3.34036
11
10.5706
21
-3.3428
0
LINE
8
BLACK
6
CONTINUOUS
10
10.5706
20
-3.3428
11
10.5535
21
-3.3428
0
LINE
8
BLACK
6
CONTINUOUS
10
10.5828
20
-5.33324
11
10.5803
21
-5.33568
0
LINE
8
BLACK
6
CONTINUOUS
10
10.5803
20
-5.33568
11
10.573
21
-5.33811
0
LINE
8
BLACK
6
CONTINUOUS
10
10.573
20
-5.33811
11
10.5681
21
-5.33811
0
LINE
8
BLACK
6
CONTINUOUS
10
10.5681
20
-5.33811
11
10.5608
21
-5.33568
0
LINE
8
BLACK
6
CONTINUOUS
10
10.5608
20
-5.33568
11
10.556
21
-5.3308
0
LINE
8
BLACK
6
CONTINUOUS
10
10.556
20
-5.3308
11
10.5535
21
-5.32593
0
LINE
8
BLACK
6
CONTINUOUS
10
10.5535
20
-5.32593
11
10.5511
21
-5.31618
0
LINE
8
BLACK
6
CONTINUOUS
10
10.5511
20
-5.31618
11
10.5511
21
-5.30887
0
LINE
8
BLACK
6
CONTINUOUS
10
10.5511
20
-5.30887
11
10.5535
21
-5.29912
0
LINE
8
BLACK
6
CONTINUOUS
10
10.5535
20
-5.29912
11
10.556
21
-5.29424
0
LINE
8
BLACK
6
CONTINUOUS
10
10.556
20
-5.29424
11
10.5608
21
-5.28937
0
LINE
8
BLACK
6
CONTINUOUS
10
10.5608
20
-5.28937
11
10.5681
21
-5.28693
0
LINE
8
BLACK
6
CONTINUOUS
10
10.5681
20
-5.28693
11
10.573
21
-5.28693
0
LINE
8
BLACK
6
CONTINUOUS
10
10.573
20
-5.28693
11
10.5803
21
-5.28937
0
LINE
8
BLACK
6
CONTINUOUS
10
10.5803
20
-5.28937
11
10.5828
21
-5.29181
0
LINE
8
BLACK
6
CONTINUOUS
10
10.5535
20
-7.30662
11
10.5535
21
-7.25544
0
LINE
8
BLACK
6
CONTINUOUS
10
10.5535
20
-7.25544
11
10.5657
21
-7.25544
0
LINE
8
BLACK
6
CONTINUOUS
10
10.5657
20
-7.25544
11
10.573
21
-7.25787
0
LINE
8
BLACK
6
CONTINUOUS
10
10.573
20
-7.25787
11
10.5779
21
-7.26275
0
LINE
8
BLACK
6
CONTINUOUS
10
10.5779
20
-7.26275
11
10.5803
21
-7.26762
0
LINE
8
BLACK
6
CONTINUOUS
10
10.5803
20
-7.26762
11
10.5828
21
-7.27737
0
LINE
8
BLACK
6
CONTINUOUS
10
10.5828
20
-7.27737
11
10.5828
21
-7.28468
0
LINE
8
BLACK
6
CONTINUOUS
10
10.5828
20
-7.28468
11
10.5803
21
-7.29443
0
LINE
8
BLACK
6
CONTINUOUS
10
10.5803
20
-7.29443
11
10.5779
21
-7.29931
0
LINE
8
BLACK
6
CONTINUOUS
10
10.5779
20
-7.29931
11
10.573
21
-7.30418
0
LINE
8
BLACK
6
CONTINUOUS
10
10.573
20
-7.30418
11
10.5657
21
-7.30662
0
LINE
8
BLACK
6
CONTINUOUS
10
10.5657
20
-7.30662
11
10.5535
21
-7.30662
0
LINE
8
BLACK
6
CONTINUOUS
10
7.19812
20
-7.86136
11
7.19812
21
-7.80231
0
LINE
8
BLACK
6
CONTINUOUS
10
7.19812
20
-7.80231
11
7.21218
21
-7.80231
0
LINE
8
BLACK
6
CONTINUOUS
10
7.21218
20
-7.80231
11
7.22061
21
-7.80512
0
LINE
8
BLACK
6
CONTINUOUS
10
7.22061
20
-7.80512
11
7.22624
21
-7.81074
0
LINE
8
BLACK
6
CONTINUOUS
10
7.22624
20
-7.81074
11
7.22905
21
-7.81637
0
LINE
8
BLACK
6
CONTINUOUS
10
7.22905
20
-7.81637
11
7.23186
21
-7.82762
0
LINE
8
BLACK
6
CONTINUOUS
10
7.23186
20
-7.82762
11
7.23186
21
-7.83605
0
LINE
8
BLACK
6
CONTINUOUS
10
7.23186
20
-7.83605
11
7.22905
21
-7.8473
0
LINE
8
BLACK
6
CONTINUOUS
10
7.22905
20
-7.8473
11
7.22624
21
-7.85292
0
LINE
8
BLACK
6
CONTINUOUS
10
7.22624
20
-7.85292
11
7.22061
21
-7.85855
0
LINE
8
BLACK
6
CONTINUOUS
10
7.22061
20
-7.85855
11
7.21218
21
-7.86136
0
LINE
8
BLACK
6
CONTINUOUS
10
7.21218
20
-7.86136
11
7.19812
21
-7.86136
0
LINE
8
BLACK
6
CONTINUOUS
10
7.28248
20
-7.86136
11
7.28248
21
-7.83043
0
LINE
8
BLACK
6
CONTINUOUS
10
7.28248
20
-7.83043
11
7.27967
21
-7.8248
0
LINE
8
BLACK
6
CONTINUOUS
10
7.27967
20
-7.8248
11
7.27404
21
-7.82199
0
LINE
8
BLACK
6
CONTINUOUS
10
7.27404
20
-7.82199
11
7.2628
21
-7.82199
0
LINE
8
BLACK
6
CONTINUOUS
10
7.2628
20
-7.82199
11
7.25717
21
-7.8248
0
LINE
8
BLACK
6
CONTINUOUS
10
7.28248
20
-7.85855
11
7.27686
21
-7.86136
0
LINE
8
BLACK
6
CONTINUOUS
10
7.27686
20
-7.86136
11
7.2628
21
-7.86136
0
LINE
8
BLACK
6
CONTINUOUS
10
7.2628
20
-7.86136
11
7.25717
21
-7.85855
0
LINE
8
BLACK
6
CONTINUOUS
10
7.25717
20
-7.85855
11
7.25436
21
-7.85292
0
LINE
8
BLACK
6
CONTINUOUS
10
7.25436
20
-7.85292
11
7.25436
21
-7.8473
0
LINE
8
BLACK
6
CONTINUOUS
10
7.25436
20
-7.8473
11
7.25717
21
-7.84168
0
LINE
8
BLACK
6
CONTINUOUS
10
7.25717
20
-7.84168
11
7.2628
21
-7.83886
0
LINE
8
BLACK
6
CONTINUOUS
10
7.2628
20
-7.83886
11
7.27686
21
-7.83886
0
LINE
8
BLACK
6
CONTINUOUS
10
7.27686
20
-7.83886
11
7.28248
21
-7.83605
0
LINE
8
BLACK
6
CONTINUOUS
10
7.30217
20
-7.82199
11
7.32466
21
-7.82199
0
LINE
8
BLACK
6
CONTINUOUS
10
7.3106
20
-7.80231
11
7.3106
21
-7.85292
0
LINE
8
BLACK
6
CONTINUOUS
10
7.3106
20
-7.85292
11
7.31341
21
-7.85855
0
LINE
8
BLACK
6
CONTINUOUS
10
7.31341
20
-7.85855
11
7.31904
21
-7.86136
0
LINE
8
BLACK
6
CONTINUOUS
10
7.31904
20
-7.86136
11
7.32466
21
-7.86136
0
LINE
8
BLACK
6
CONTINUOUS
10
7.36684
20
-7.85855
11
7.36122
21
-7.86136
0
LINE
8
BLACK
6
CONTINUOUS
10
7.36122
20
-7.86136
11
7.34997
21
-7.86136
0
LINE
8
BLACK
6
CONTINUOUS
10
7.34997
20
-7.86136
11
7.34435
21
-7.85855
0
LINE
8
BLACK
6
CONTINUOUS
10
7.34435
20
-7.85855
11
7.34154
21
-7.85292
0
LINE
8
BLACK
6
CONTINUOUS
10
7.34154
20
-7.85292
11
7.34154
21
-7.83043
0
LINE
8
BLACK
6
CONTINUOUS
10
7.34154
20
-7.83043
11
7.34435
21
-7.8248
0
LINE
8
BLACK
6
CONTINUOUS
10
7.34435
20
-7.8248
11
7.34997
21
-7.82199
0
LINE
8
BLACK
6
CONTINUOUS
10
7.34997
20
-7.82199
11
7.36122
21
-7.82199
0
LINE
8
BLACK
6
CONTINUOUS
10
7.36122
20
-7.82199
11
7.36684
21
-7.8248
0
LINE
8
BLACK
6
CONTINUOUS
10
7.36684
20
-7.8248
11
7.36966
21
-7.83043
0
LINE
8
BLACK
6
CONTINUOUS
10
7.36966
20
-7.83043
11
7.36966
21
-7.83605
0
LINE
8
BLACK
6
CONTINUOUS
10
7.36966
20
-7.83605
11
7.34154
21
-7.84168
0
LINE
8
BLACK
6
CONTINUOUS
10
7.39497
20
-7.85574
11
7.39778
21
-7.85855
0
LINE
8
BLACK
6
CONTINUOUS
10
7.39778
20
-7.85855
11
7.39497
21
-7.86136
0
LINE
8
BLACK
6
CONTINUOUS
10
7.39497
20
-7.86136
11
7.39215
21
-7.85855
0
LINE
8
BLACK
6
CONTINUOUS
10
7.39215
20
-7.85855
11
7.39497
21
-7.85574
0
LINE
8
BLACK
6
CONTINUOUS
10
7.39497
20
-7.85574
11
7.39497
21
-7.86136
0
LINE
8
BLACK
6
CONTINUOUS
10
7.39497
20
-7.8248
11
7.39778
21
-7.82762
0
LINE
8
BLACK
6
CONTINUOUS
10
7.39778
20
-7.82762
11
7.39497
21
-7.83043
0
LINE
8
BLACK
6
CONTINUOUS
10
7.39497
20
-7.83043
11
7.39215
21
-7.82762
0
LINE
8
BLACK
6
CONTINUOUS
10
7.39215
20
-7.82762
11
7.39497
21
-7.8248
0
LINE
8
BLACK
6
CONTINUOUS
10
7.39497
20
-7.8248
11
7.39497
21
-7.83043
0
LINE
8
BLACK
6
CONTINUOUS
10
6.27559
20
-7.88976
11
10.5276
21
-7.88976
0
LINE
8
BLACK
6
CONTINUOUS
10
6.33197
20
-7.9716
11
6.33197
21
-7.91254
0
LINE
8
BLACK
6
CONTINUOUS
10
6.36572
20
-7.9716
11
6.34041
21
-7.93785
0
LINE
8
BLACK
6
CONTINUOUS
10
6.36572
20
-7.91254
11
6.33197
21
-7.94629
0
LINE
8
BLACK
6
CONTINUOUS
10
6.39103
20
-7.9716
11
6.39103
21
-7.93223
0
LINE
8
BLACK
6
CONTINUOUS
10
6.39103
20
-7.91254
11
6.38822
21
-7.91535
0
LINE
8
BLACK
6
CONTINUOUS
10
6.38822
20
-7.91535
11
6.39103
21
-7.91817
0
LINE
8
BLACK
6
CONTINUOUS
10
6.39103
20
-7.91817
11
6.39384
21
-7.91535
0
LINE
8
BLACK
6
CONTINUOUS
10
6.39384
20
-7.91535
11
6.39103
21
-7.91254
0
LINE
8
BLACK
6
CONTINUOUS
10
6.39103
20
-7.91254
11
6.39103
21
-7.91817
0
LINE
8
BLACK
6
CONTINUOUS
10
6.4529
20
-7.96597
11
6.45008
21
-7.96879
0
LINE
8
BLACK
6
CONTINUOUS
10
6.45008
20
-7.96879
11
6.44165
21
-7.9716
0
LINE
8
BLACK
6
CONTINUOUS
10
6.44165
20
-7.9716
11
6.43602
21
-7.9716
0
LINE
8
BLACK
6
CONTINUOUS
10
6.43602
20
-7.9716
11
6.42759
21
-7.96879
0
LINE
8
BLACK
6
CONTINUOUS
10
6.42759
20
-7.96879
11
6.42196
21
-7.96316
0
LINE
8
BLACK
6
CONTINUOUS
10
6.42196
20
-7.96316
11
6.41915
21
-7.95754
0
LINE
8
BLACK
6
CONTINUOUS
10
6.41915
20
-7.95754
11
6.41634
21
-7.94629
0
LINE
8
BLACK
6
CONTINUOUS
10
6.41634
20
-7.94629
11
6.41634
21
-7.93785
0
LINE
8
BLACK
6
CONTINUOUS
10
6.41634
20
-7.93785
11
6.41915
21
-7.9266
0
LINE
8
BLACK
6
CONTINUOUS
10
6.41915
20
-7.9266
11
6.42196
21
-7.92098
0
LINE
8
BLACK
6
CONTINUOUS
10
6.42196
20
-7.92098
11
6.42759
21
-7.91535
0
LINE
8
BLACK
6
CONTINUOUS
10
6.42759
20
-7.91535
11
6.43602
21
-7.91254
0
LINE
8
BLACK
6
CONTINUOUS
10
6.43602
20
-7.91254
11
6.44165
21
-7.91254
0
LINE
8
BLACK
6
CONTINUOUS
10
6.44165
20
-7.91254
11
6.45008
21
-7.91535
0
LINE
8
BLACK
6
CONTINUOUS
10
6.45008
20
-7.91535
11
6.4529
21
-7.91817
0
LINE
8
BLACK
6
CONTINUOUS
10
6.50352
20
-7.9716
11
6.50352
21
-7.94066
0
LINE
8
BLACK
6
CONTINUOUS
10
6.50352
20
-7.94066
11
6.5007
21
-7.93504
0
LINE
8
BLACK
6
CONTINUOUS
10
6.5007
20
-7.93504
11
6.49508
21
-7.93223
0
LINE
8
BLACK
6
CONTINUOUS
10
6.49508
20
-7.93223
11
6.48383
21
-7.93223
0
LINE
8
BLACK
6
CONTINUOUS
10
6.48383
20
-7.93223
11
6.47821
21
-7.93504
0
LINE
8
BLACK
6
CONTINUOUS
10
6.50352
20
-7.96879
11
6.49789
21
-7.9716
0
LINE
8
BLACK
6
CONTINUOUS
10
6.49789
20
-7.9716
11
6.48383
21
-7.9716
0
LINE
8
BLACK
6
CONTINUOUS
10
6.48383
20
-7.9716
11
6.47821
21
-7.96879
0
LINE
8
BLACK
6
CONTINUOUS
10
6.47821
20
-7.96879
11
6.47539
21
-7.96316
0
LINE
8
BLACK
6
CONTINUOUS
10
6.47539
20
-7.96316
11
6.47539
21
-7.95754
0
LINE
8
BLACK
6
CONTINUOUS
10
6.47539
20
-7.95754
11
6.47821
21
-7.95191
0
LINE
8
BLACK
6
CONTINUOUS
10
6.47821
20
-7.95191
11
6.48383
21
-7.9491
0
LINE
8
BLACK
6
CONTINUOUS
10
6.48383
20
-7.9491
11
6.49789
21
-7.9491
0
LINE
8
BLACK
6
CONTINUOUS
10
6.49789
20
-7.9491
11
6.50352
21
-7.94629
0
LINE
8
BLACK
6
CONTINUOUS
10
6.55695
20
-7.9716
11
6.55695
21
-7.91254
0
LINE
8
BLACK
6
CONTINUOUS
10
6.55695
20
-7.96879
11
6.55132
21
-7.9716
0
LINE
8
BLACK
6
CONTINUOUS
10
6.55132
20
-7.9716
11
6.54007
21
-7.9716
0
LINE
8
BLACK
6
CONTINUOUS
10
6.54007
20
-7.9716
11
6.53445
21
-7.96879
0
LINE
8
BLACK
6
CONTINUOUS
10
6.53445
20
-7.96879
11
6.53164
21
-7.96597
0
LINE
8
BLACK
6
CONTINUOUS
10
6.53164
20
-7.96597
11
6.52882
21
-7.96035
0
LINE
8
BLACK
6
CONTINUOUS
10
6.52882
20
-7.96035
11
6.52882
21
-7.94348
0
LINE
8
BLACK
6
CONTINUOUS
10
6.52882
20
-7.94348
11
6.53164
21
-7.93785
0
LINE
8
BLACK
6
CONTINUOUS
10
6.53164
20
-7.93785
11
6.53445
21
-7.93504
0
LINE
8
BLACK
6
CONTINUOUS
10
6.53445
20
-7.93504
11
6.54007
21
-7.93223
0
LINE
8
BLACK
6
CONTINUOUS
10
6.54007
20
-7.93223
11
6.55132
21
-7.93223
0
LINE
8
BLACK
6
CONTINUOUS
10
6.55132
20
-7.93223
11
6.55695
21
-7.93504
0
LINE
8
BLACK
6
CONTINUOUS
10
6.63006
20
-7.94066
11
6.64975
21
-7.94066
0
LINE
8
BLACK
6
CONTINUOUS
10
6.65818
20
-7.9716
11
6.63006
21
-7.9716
0
LINE
8
BLACK
6
CONTINUOUS
10
6.63006
20
-7.9716
11
6.63006
21
-7.91254
0
LINE
8
BLACK
6
CONTINUOUS
10
6.63006
20
-7.91254
11
6.65818
21
-7.91254
0
LINE
8
BLACK
6
CONTINUOUS
10
6.68349
20
-7.96597
11
6.6863
21
-7.96879
0
LINE
8
BLACK
6
CONTINUOUS
10
6.6863
20
-7.96879
11
6.68349
21
-7.9716
0
LINE
8
BLACK
6
CONTINUOUS
10
6.68349
20
-7.9716
11
6.68068
21
-7.96879
0
LINE
8
BLACK
6
CONTINUOUS
10
6.68068
20
-7.96879
11
6.68349
21
-7.96597
0
LINE
8
BLACK
6
CONTINUOUS
10
6.68349
20
-7.96597
11
6.68349
21
-7.9716
0
LINE
8
BLACK
6
CONTINUOUS
10
6.71161
20
-7.9716
11
6.71161
21
-7.91254
0
LINE
8
BLACK
6
CONTINUOUS
10
6.71161
20
-7.91254
11
6.72567
21
-7.91254
0
LINE
8
BLACK
6
CONTINUOUS
10
6.72567
20
-7.91254
11
6.73411
21
-7.91535
0
LINE
8
BLACK
6
CONTINUOUS
10
6.73411
20
-7.91535
11
6.73974
21
-7.92098
0
LINE
8
BLACK
6
CONTINUOUS
10
6.73974
20
-7.92098
11
6.74255
21
-7.9266
0
LINE
8
BLACK
6
CONTINUOUS
10
6.74255
20
-7.9266
11
6.74536
21
-7.93785
0
LINE
8
BLACK
6
CONTINUOUS
10
6.74536
20
-7.93785
11
6.74536
21
-7.94629
0
LINE
8
BLACK
6
CONTINUOUS
10
6.74536
20
-7.94629
11
6.74255
21
-7.95754
0
LINE
8
BLACK
6
CONTINUOUS
10
6.74255
20
-7.95754
11
6.73974
21
-7.96316
0
LINE
8
BLACK
6
CONTINUOUS
10
6.73974
20
-7.96316
11
6.73411
21
-7.96879
0
LINE
8
BLACK
6
CONTINUOUS
10
6.73411
20
-7.96879
11
6.72567
21
-7.9716
0
LINE
8
BLACK
6
CONTINUOUS
10
6.72567
20
-7.9716
11
6.71161
21
-7.9716
0
LINE
8
BLACK
6
CONTINUOUS
10
6.77067
20
-7.96597
11
6.77348
21
-7.96879
0
LINE
8
BLACK
6
CONTINUOUS
10
6.77348
20
-7.96879
11
6.77067
21
-7.9716
0
LINE
8
BLACK
6
CONTINUOUS
10
6.77067
20
-7.9716
11
6.76786
21
-7.96879
0
LINE
8
BLACK
6
CONTINUOUS
10
6.76786
20
-7.96879
11
6.77067
21
-7.96597
0
LINE
8
BLACK
6
CONTINUOUS
10
6.77067
20
-7.96597
11
6.77067
21
-7.9716
0
LINE
8
BLACK
6
CONTINUOUS
10
6.79598
20
-7.95472
11
6.8241
21
-7.95472
0
LINE
8
BLACK
6
CONTINUOUS
10
6.79035
20
-7.9716
11
6.81004
21
-7.91254
0
LINE
8
BLACK
6
CONTINUOUS
10
6.81004
20
-7.91254
11
6.82972
21
-7.9716
0
LINE
8
BLACK
6
CONTINUOUS
10
6.84941
20
-7.96597
11
6.85222
21
-7.96879
0
LINE
8
BLACK
6
CONTINUOUS
10
6.85222
20
-7.96879
11
6.84941
21
-7.9716
0
LINE
8
BLACK
6
CONTINUOUS
10
6.84941
20
-7.9716
11
6.8466
21
-7.96879
0
LINE
8
BLACK
6
CONTINUOUS
10
6.8466
20
-7.96879
11
6.84941
21
-7.96597
0
LINE
8
BLACK
6
CONTINUOUS
10
6.84941
20
-7.96597
11
6.84941
21
-7.9716
0
LINE
8
BLACK
6
CONTINUOUS
10
6.96752
20
-7.9716
11
6.96752
21
-7.91254
0
LINE
8
BLACK
6
CONTINUOUS
10
6.97314
20
-7.9491
11
6.99002
21
-7.9716
0
LINE
8
BLACK
6
CONTINUOUS
10
6.99002
20
-7.93223
11
6.96752
21
-7.95472
0
LINE
8
BLACK
6
CONTINUOUS
10
7.01533
20
-7.9716
11
7.01533
21
-7.93223
0
LINE
8
BLACK
6
CONTINUOUS
10
7.01533
20
-7.91254
11
7.01251
21
-7.91535
0
LINE
8
BLACK
6
CONTINUOUS
10
7.01251
20
-7.91535
11
7.01533
21
-7.91817
0
LINE
8
BLACK
6
CONTINUOUS
10
7.01533
20
-7.91817
11
7.01814
21
-7.91535
0
LINE
8
BLACK
6
CONTINUOUS
10
7.01814
20
-7.91535
11
7.01533
21
-7.91254
0
LINE
8
BLACK
6
CONTINUOUS
10
7.01533
20
-7.91254
11
7.01533
21
-7.91817
0
LINE
8
BLACK
6
CONTINUOUS
10
7.06876
20
-7.96879
11
7.06313
21
-7.9716
0
LINE
8
BLACK
6
CONTINUOUS
10
7.06313
20
-7.9716
11
7.05188
21
-7.9716
0
LINE
8
BLACK
6
CONTINUOUS
10
7.05188
20
-7.9716
11
7.04626
21
-7.96879
0
LINE
8
BLACK
6
CONTINUOUS
10
7.04626
20
-7.96879
11
7.04345
21
-7.96597
0
LINE
8
BLACK
6
CONTINUOUS
10
7.04345
20
-7.96597
11
7.04064
21
-7.96035
0
LINE
8
BLACK
6
CONTINUOUS
10
7.04064
20
-7.96035
11
7.04064
21
-7.94348
0
LINE
8
BLACK
6
CONTINUOUS
10
7.04064
20
-7.94348
11
7.04345
21
-7.93785
0
LINE
8
BLACK
6
CONTINUOUS
10
7.04345
20
-7.93785
11
7.04626
21
-7.93504
0
LINE
8
BLACK
6
CONTINUOUS
10
7.04626
20
-7.93504
11
7.05188
21
-7.93223
0
LINE
8
BLACK
6
CONTINUOUS
10
7.05188
20
-7.93223
11
7.06313
21
-7.93223
0
LINE
8
BLACK
6
CONTINUOUS
10
7.06313
20
-7.93223
11
7.06876
21
-7.93504
0
LINE
8
BLACK
6
CONTINUOUS
10
7.11938
20
-7.9716
11
7.11938
21
-7.94066
0
LINE
8
BLACK
6
CONTINUOUS
10
7.11938
20
-7.94066
11
7.11656
21
-7.93504
0
LINE
8
BLACK
6
CONTINUOUS
10
7.11656
20
-7.93504
11
7.11094
21
-7.93223
0
LINE
8
BLACK
6
CONTINUOUS
10
7.11094
20
-7.93223
11
7.09969
21
-7.93223
0
LINE
8
BLACK
6
CONTINUOUS
10
7.09969
20
-7.93223
11
7.09407
21
-7.93504
0
LINE
8
BLACK
6
CONTINUOUS
10
7.11938
20
-7.96879
11
7.11375
21
-7.9716
0
LINE
8
BLACK
6
CONTINUOUS
10
7.11375
20
-7.9716
11
7.09969
21
-7.9716
0
LINE
8
BLACK
6
CONTINUOUS
10
7.09969
20
-7.9716
11
7.09407
21
-7.96879
0
LINE
8
BLACK
6
CONTINUOUS
10
7.09407
20
-7.96879
11
7.09125
21
-7.96316
0
LINE
8
BLACK
6
CONTINUOUS
10
7.09125
20
-7.96316
11
7.09125
21
-7.95754
0
LINE
8
BLACK
6
CONTINUOUS
10
7.09125
20
-7.95754
11
7.09407
21
-7.95191
0
LINE
8
BLACK
6
CONTINUOUS
10
7.09407
20
-7.95191
11
7.09969
21
-7.9491
0
LINE
8
BLACK
6
CONTINUOUS
10
7.09969
20
-7.9491
11
7.11375
21
-7.9491
0
LINE
8
BLACK
6
CONTINUOUS
10
7.11375
20
-7.9491
11
7.11938
21
-7.94629
0
LINE
8
BLACK
6
CONTINUOUS
10
7.17281
20
-7.9716
11
7.17281
21
-7.91254
0
LINE
8
BLACK
6
CONTINUOUS
10
7.17281
20
-7.96879
11
7.16718
21
-7.9716
0
LINE
8
BLACK
6
CONTINUOUS
10
7.16718
20
-7.9716
11
7.15593
21
-7.9716
0
LINE
8
BLACK
6
CONTINUOUS
10
7.15593
20
-7.9716
11
7.15031
21
-7.96879
0
LINE
8
BLACK
6
CONTINUOUS
10
7.15031
20
-7.96879
11
7.1475
21
-7.96597
0
LINE
8
BLACK
6
CONTINUOUS
10
7.1475
20
-7.96597
11
7.14469
21
-7.96035
0
LINE
8
BLACK
6
CONTINUOUS
10
7.14469
20
-7.96035
11
7.14469
21
-7.94348
0
LINE
8
BLACK
6
CONTINUOUS
10
7.14469
20
-7.94348
11
7.1475
21
-7.93785
0
LINE
8
BLACK
6
CONTINUOUS
10
7.1475
20
-7.93785
11
7.15031
21
-7.93504
0
LINE
8
BLACK
6
CONTINUOUS
10
7.15031
20
-7.93504
11
7.15593
21
-7.93223
0
LINE
8
BLACK
6
CONTINUOUS
10
7.15593
20
-7.93223
11
7.16718
21
-7.93223
0
LINE
8
BLACK
6
CONTINUOUS
10
7.16718
20
-7.93223
11
7.17281
21
-7.93504
0
LINE
8
BLACK
6
CONTINUOUS
10
7.2628
20
-7.99409
11
7.25998
21
-7.99128
0
LINE
8
BLACK
6
CONTINUOUS
10
7.25998
20
-7.99128
11
7.25436
21
-7.98285
0
LINE
8
BLACK
6
CONTINUOUS
10
7.25436
20
-7.98285
11
7.25155
21
-7.97722
0
LINE
8
BLACK
6
CONTINUOUS
10
7.25155
20
-7.97722
11
7.24873
21
-7.96879
0
LINE
8
BLACK
6
CONTINUOUS
10
7.24873
20
-7.96879
11
7.24592
21
-7.95472
0
LINE
8
BLACK
6
CONTINUOUS
10
7.24592
20
-7.95472
11
7.24592
21
-7.94348
0
LINE
8
BLACK
6
CONTINUOUS
10
7.24592
20
-7.94348
11
7.24873
21
-7.92942
0
LINE
8
BLACK
6
CONTINUOUS
10
7.24873
20
-7.92942
11
7.25155
21
-7.92098
0
LINE
8
BLACK
6
CONTINUOUS
10
7.25155
20
-7.92098
11
7.25436
21
-7.91535
0
LINE
8
BLACK
6
CONTINUOUS
10
7.25436
20
-7.91535
11
7.25998
21
-7.90692
0
LINE
8
BLACK
6
CONTINUOUS
10
7.25998
20
-7.90692
11
7.2628
21
-7.90411
0
LINE
8
BLACK
6
CONTINUOUS
10
7.31341
20
-7.91254
11
7.28529
21
-7.91254
0
LINE
8
BLACK
6
CONTINUOUS
10
7.28529
20
-7.91254
11
7.28248
21
-7.94066
0
LINE
8
BLACK
6
CONTINUOUS
10
7.28248
20
-7.94066
11
7.28529
21
-7.93785
0
LINE
8
BLACK
6
CONTINUOUS
10
7.28529
20
-7.93785
11
7.29092
21
-7.93504
0
LINE
8
BLACK
6
CONTINUOUS
10
7.29092
20
-7.93504
11
7.30498
21
-7.93504
0
LINE
8
BLACK
6
CONTINUOUS
10
7.30498
20
-7.93504
11
7.3106
21
-7.93785
0
LINE
8
BLACK
6
CONTINUOUS
10
7.3106
20
-7.93785
11
7.31341
21
-7.94066
0
LINE
8
BLACK
6
CONTINUOUS
10
7.31341
20
-7.94066
11
7.31623
21
-7.94629
0
LINE
8
BLACK
6
CONTINUOUS
10
7.31623
20
-7.94629
11
7.31623
21
-7.96035
0
LINE
8
BLACK
6
CONTINUOUS
10
7.31623
20
-7.96035
11
7.31341
21
-7.96597
0
LINE
8
BLACK
6
CONTINUOUS
10
7.31341
20
-7.96597
11
7.3106
21
-7.96879
0
LINE
8
BLACK
6
CONTINUOUS
10
7.3106
20
-7.96879
11
7.30498
21
-7.9716
0
LINE
8
BLACK
6
CONTINUOUS
10
7.30498
20
-7.9716
11
7.29092
21
-7.9716
0
LINE
8
BLACK
6
CONTINUOUS
10
7.29092
20
-7.9716
11
7.28529
21
-7.96879
0
LINE
8
BLACK
6
CONTINUOUS
10
7.28529
20
-7.96879
11
7.28248
21
-7.96597
0
LINE
8
BLACK
6
CONTINUOUS
10
7.34154
20
-7.96597
11
7.34435
21
-7.96879
0
LINE
8
BLACK
6
CONTINUOUS
10
7.34435
20
-7.96879
11
7.34154
21
-7.9716
0
LINE
8
BLACK
6
CONTINUOUS
10
7.34154
20
-7.9716
11
7.33872
21
-7.96879
0
LINE
8
BLACK
6
CONTINUOUS
10
7.33872
20
-7.96879
11
7.34154
21
-7.96597
0
LINE
8
BLACK
6
CONTINUOUS
10
7.34154
20
-7.96597
11
7.34154
21
-7.9716
0
LINE
8
BLACK
6
CONTINUOUS
10
7.40059
20
-7.9716
11
7.36684
21
-7.9716
0
LINE
8
BLACK
6
CONTINUOUS
10
7.38372
20
-7.9716
11
7.38372
21
-7.91254
0
LINE
8
BLACK
6
CONTINUOUS
10
7.38372
20
-7.91254
11
7.37809
21
-7.92098
0
LINE
8
BLACK
6
CONTINUOUS
10
7.37809
20
-7.92098
11
7.37247
21
-7.9266
0
LINE
8
BLACK
6
CONTINUOUS
10
7.37247
20
-7.9266
11
7.36684
21
-7.92942
0
LINE
8
BLACK
6
CONTINUOUS
10
7.4259
20
-7.96597
11
7.42871
21
-7.96879
0
LINE
8
BLACK
6
CONTINUOUS
10
7.42871
20
-7.96879
11
7.4259
21
-7.9716
0
LINE
8
BLACK
6
CONTINUOUS
10
7.4259
20
-7.9716
11
7.42309
21
-7.96879
0
LINE
8
BLACK
6
CONTINUOUS
10
7.42309
20
-7.96879
11
7.4259
21
-7.96597
0
LINE
8
BLACK
6
CONTINUOUS
10
7.4259
20
-7.96597
11
7.4259
21
-7.9716
0
LINE
8
BLACK
6
CONTINUOUS
10
7.47933
20
-7.93223
11
7.47933
21
-7.9716
0
LINE
8
BLACK
6
CONTINUOUS
10
7.46527
20
-7.90973
11
7.45121
21
-7.95191
0
LINE
8
BLACK
6
CONTINUOUS
10
7.45121
20
-7.95191
11
7.48777
21
-7.95191
0
LINE
8
BLACK
6
CONTINUOUS
10
7.50464
20
-7.99409
11
7.50745
21
-7.99128
0
LINE
8
BLACK
6
CONTINUOUS
10
7.50745
20
-7.99128
11
7.51308
21
-7.98285
0
LINE
8
BLACK
6
CONTINUOUS
10
7.51308
20
-7.98285
11
7.51589
21
-7.97722
0
LINE
8
BLACK
6
CONTINUOUS
10
7.51589
20
-7.97722
11
7.5187
21
-7.96879
0
LINE
8
BLACK
6
CONTINUOUS
10
7.5187
20
-7.96879
11
7.52151
21
-7.95472
0
LINE
8
BLACK
6
CONTINUOUS
10
7.52151
20
-7.95472
11
7.52151
21
-7.94348
0
LINE
8
BLACK
6
CONTINUOUS
10
7.52151
20
-7.94348
11
7.5187
21
-7.92942
0
LINE
8
BLACK
6
CONTINUOUS
10
7.5187
20
-7.92942
11
7.51589
21
-7.92098
0
LINE
8
BLACK
6
CONTINUOUS
10
7.51589
20
-7.92098
11
7.51308
21
-7.91535
0
LINE
8
BLACK
6
CONTINUOUS
10
7.51308
20
-7.91535
11
7.50745
21
-7.90692
0
LINE
8
BLACK
6
CONTINUOUS
10
7.50745
20
-7.90692
11
7.50464
21
-7.90411
0
LINE
8
BLACK
6
CONTINUOUS
10
7.54963
20
-7.9491
11
7.59463
21
-7.9491
0
LINE
8
BLACK
6
CONTINUOUS
10
7.65368
20
-7.9716
11
7.61994
21
-7.9716
0
LINE
8
BLACK
6
CONTINUOUS
10
7.63681
20
-7.9716
11
7.63681
21
-7.91254
0
LINE
8
BLACK
6
CONTINUOUS
10
7.63681
20
-7.91254
11
7.63119
21
-7.92098
0
LINE
8
BLACK
6
CONTINUOUS
10
7.63119
20
-7.92098
11
7.62556
21
-7.9266
0
LINE
8
BLACK
6
CONTINUOUS
10
7.62556
20
-7.9266
11
7.61994
21
-7.92942
0
LINE
8
BLACK
6
CONTINUOUS
10
6.27559
20
-7.77165
11
10.5276
21
-7.77165
0
LINE
8
BLACK
6
CONTINUOUS
10
9.7169
20
-7.86136
11
9.69722
21
-7.83324
0
LINE
8
BLACK
6
CONTINUOUS
10
9.68316
20
-7.86136
11
9.68316
21
-7.80231
0
LINE
8
BLACK
6
CONTINUOUS
10
9.68316
20
-7.80231
11
9.70565
21
-7.80231
0
LINE
8
BLACK
6
CONTINUOUS
10
9.70565
20
-7.80231
11
9.71128
21
-7.80512
0
LINE
8
BLACK
6
CONTINUOUS
10
9.71128
20
-7.80512
11
9.71409
21
-7.80793
0
LINE
8
BLACK
6
CONTINUOUS
10
9.71409
20
-7.80793
11
9.7169
21
-7.81355
0
LINE
8
BLACK
6
CONTINUOUS
10
9.7169
20
-7.81355
11
9.7169
21
-7.82199
0
LINE
8
BLACK
6
CONTINUOUS
10
9.7169
20
-7.82199
11
9.71409
21
-7.82762
0
LINE
8
BLACK
6
CONTINUOUS
10
9.71409
20
-7.82762
11
9.71128
21
-7.83043
0
LINE
8
BLACK
6
CONTINUOUS
10
9.71128
20
-7.83043
11
9.70565
21
-7.83324
0
LINE
8
BLACK
6
CONTINUOUS
10
9.70565
20
-7.83324
11
9.68316
21
-7.83324
0
LINE
8
BLACK
6
CONTINUOUS
10
9.76471
20
-7.85855
11
9.75908
21
-7.86136
0
LINE
8
BLACK
6
CONTINUOUS
10
9.75908
20
-7.86136
11
9.74783
21
-7.86136
0
LINE
8
BLACK
6
CONTINUOUS
10
9.74783
20
-7.86136
11
9.74221
21
-7.85855
0
LINE
8
BLACK
6
CONTINUOUS
10
9.74221
20
-7.85855
11
9.7394
21
-7.85292
0
LINE
8
BLACK
6
CONTINUOUS
10
9.7394
20
-7.85292
11
9.7394
21
-7.83043
0
LINE
8
BLACK
6
CONTINUOUS
10
9.7394
20
-7.83043
11
9.74221
21
-7.8248
0
LINE
8
BLACK
6
CONTINUOUS
10
9.74221
20
-7.8248
11
9.74783
21
-7.82199
0
LINE
8
BLACK
6
CONTINUOUS
10
9.74783
20
-7.82199
11
9.75908
21
-7.82199
0
LINE
8
BLACK
6
CONTINUOUS
10
9.75908
20
-7.82199
11
9.76471
21
-7.8248
0
LINE
8
BLACK
6
CONTINUOUS
10
9.76471
20
-7.8248
11
9.76752
21
-7.83043
0
LINE
8
BLACK
6
CONTINUOUS
10
9.76752
20
-7.83043
11
9.76752
21
-7.83605
0
LINE
8
BLACK
6
CONTINUOUS
10
9.76752
20
-7.83605
11
9.7394
21
-7.84168
0
LINE
8
BLACK
6
CONTINUOUS
10
9.7872
20
-7.82199
11
9.80127
21
-7.86136
0
LINE
8
BLACK
6
CONTINUOUS
10
9.80127
20
-7.86136
11
9.81533
21
-7.82199
0
LINE
8
BLACK
6
CONTINUOUS
10
9.83782
20
-7.85574
11
9.84064
21
-7.85855
0
LINE
8
BLACK
6
CONTINUOUS
10
9.84064
20
-7.85855
11
9.83782
21
-7.86136
0
LINE
8
BLACK
6
CONTINUOUS
10
9.83782
20
-7.86136
11
9.83501
21
-7.85855
0
LINE
8
BLACK
6
CONTINUOUS
10
9.83501
20
-7.85855
11
9.83782
21
-7.85574
0
LINE
8
BLACK
6
CONTINUOUS
10
9.83782
20
-7.85574
11
9.83782
21
-7.86136
0
LINE
8
BLACK
6
CONTINUOUS
10
9.83782
20
-7.8248
11
9.84064
21
-7.82762
0
LINE
8
BLACK
6
CONTINUOUS
10
9.84064
20
-7.82762
11
9.83782
21
-7.83043
0
LINE
8
BLACK
6
CONTINUOUS
10
9.83782
20
-7.83043
11
9.83501
21
-7.82762
0
LINE
8
BLACK
6
CONTINUOUS
10
9.83501
20
-7.82762
11
9.83782
21
-7.8248
0
LINE
8
BLACK
6
CONTINUOUS
10
9.83782
20
-7.8248
11
9.83782
21
-7.83043
0
LINE
8
BLACK
6
CONTINUOUS
10
6.32916
20
-7.85855
11
6.3376
21
-7.86136
0
LINE
8
BLACK
6
CONTINUOUS
10
6.3376
20
-7.86136
11
6.35166
21
-7.86136
0
LINE
8
BLACK
6
CONTINUOUS
10
6.35166
20
-7.86136
11
6.35728
21
-7.85855
0
LINE
8
BLACK
6
CONTINUOUS
10
6.35728
20
-7.85855
11
6.3601
21
-7.85574
0
LINE
8
BLACK
6
CONTINUOUS
10
6.3601
20
-7.85574
11
6.36291
21
-7.85011
0
LINE
8
BLACK
6
CONTINUOUS
10
6.36291
20
-7.85011
11
6.36291
21
-7.84449
0
LINE
8
BLACK
6
CONTINUOUS
10
6.36291
20
-7.84449
11
6.3601
21
-7.83886
0
LINE
8
BLACK
6
CONTINUOUS
10
6.3601
20
-7.83886
11
6.35728
21
-7.83605
0
LINE
8
BLACK
6
CONTINUOUS
10
6.35728
20
-7.83605
11
6.35166
21
-7.83324
0
LINE
8
BLACK
6
CONTINUOUS
10
6.35166
20
-7.83324
11
6.34041
21
-7.83043
0
LINE
8
BLACK
6
CONTINUOUS
10
6.34041
20
-7.83043
11
6.33479
21
-7.82762
0
LINE
8
BLACK
6
CONTINUOUS
10
6.33479
20
-7.82762
11
6.33197
21
-7.8248
0
LINE
8
BLACK
6
CONTINUOUS
10
6.33197
20
-7.8248
11
6.32916
21
-7.81918
0
LINE
8
BLACK
6
CONTINUOUS
10
6.32916
20
-7.81918
11
6.32916
21
-7.81355
0
LINE
8
BLACK
6
CONTINUOUS
10
6.32916
20
-7.81355
11
6.33197
21
-7.80793
0
LINE
8
BLACK
6
CONTINUOUS
10
6.33197
20
-7.80793
11
6.33479
21
-7.80512
0
LINE
8
BLACK
6
CONTINUOUS
10
6.33479
20
-7.80512
11
6.34041
21
-7.80231
0
LINE
8
BLACK
6
CONTINUOUS
10
6.34041
20
-7.80231
11
6.35447
21
-7.80231
0
LINE
8
BLACK
6
CONTINUOUS
10
6.35447
20
-7.80231
11
6.36291
21
-7.80512
0
LINE
8
BLACK
6
CONTINUOUS
10
6.38822
20
-7.86136
11
6.38822
21
-7.82199
0
LINE
8
BLACK
6
CONTINUOUS
10
6.38822
20
-7.80231
11
6.3854
21
-7.80512
0
LINE
8
BLACK
6
CONTINUOUS
10
6.3854
20
-7.80512
11
6.38822
21
-7.80793
0
LINE
8
BLACK
6
CONTINUOUS
10
6.38822
20
-7.80793
11
6.39103
21
-7.80512
0
LINE
8
BLACK
6
CONTINUOUS
10
6.39103
20
-7.80512
11
6.38822
21
-7.80231
0
LINE
8
BLACK
6
CONTINUOUS
10
6.38822
20
-7.80231
11
6.38822
21
-7.80793
0
LINE
8
BLACK
6
CONTINUOUS
10
6.41071
20
-7.82199
11
6.44165
21
-7.82199
0
LINE
8
BLACK
6
CONTINUOUS
10
6.44165
20
-7.82199
11
6.41071
21
-7.86136
0
LINE
8
BLACK
6
CONTINUOUS
10
6.41071
20
-7.86136
11
6.44165
21
-7.86136
0
LINE
8
BLACK
6
CONTINUOUS
10
6.48664
20
-7.85855
11
6.48102
21
-7.86136
0
LINE
8
BLACK
6
CONTINUOUS
10
6.48102
20
-7.86136
11
6.46977
21
-7.86136
0
LINE
8
BLACK
6
CONTINUOUS
10
6.46977
20
-7.86136
11
6.46415
21
-7.85855
0
LINE
8
BLACK
6
CONTINUOUS
10
6.46415
20
-7.85855
11
6.46133
21
-7.85292
0
LINE
8
BLACK
6
CONTINUOUS
10
6.46133
20
-7.85292
11
6.46133
21
-7.83043
0
LINE
8
BLACK
6
CONTINUOUS
10
6.46133
20
-7.83043
11
6.46415
21
-7.8248
0
LINE
8
BLACK
6
CONTINUOUS
10
6.46415
20
-7.8248
11
6.46977
21
-7.82199
0
LINE
8
BLACK
6
CONTINUOUS
10
6.46977
20
-7.82199
11
6.48102
21
-7.82199
0
LINE
8
BLACK
6
CONTINUOUS
10
6.48102
20
-7.82199
11
6.48664
21
-7.8248
0
LINE
8
BLACK
6
CONTINUOUS
10
6.48664
20
-7.8248
11
6.48945
21
-7.83043
0
LINE
8
BLACK
6
CONTINUOUS
10
6.48945
20
-7.83043
11
6.48945
21
-7.83605
0
LINE
8
BLACK
6
CONTINUOUS
10
6.48945
20
-7.83605
11
6.46133
21
-7.84168
0
LINE
8
BLACK
6
CONTINUOUS
10
6.51476
20
-7.85574
11
6.51758
21
-7.85855
0
LINE
8
BLACK
6
CONTINUOUS
10
6.51758
20
-7.85855
11
6.51476
21
-7.86136
0
LINE
8
BLACK
6
CONTINUOUS
10
6.51476
20
-7.86136
11
6.51195
21
-7.85855
0
LINE
8
BLACK
6
CONTINUOUS
10
6.51195
20
-7.85855
11
6.51476
21
-7.85574
0
LINE
8
BLACK
6
CONTINUOUS
10
6.51476
20
-7.85574
11
6.51476
21
-7.86136
0
LINE
8
BLACK
6
CONTINUOUS
10
6.51476
20
-7.8248
11
6.51758
21
-7.82762
0
LINE
8
BLACK
6
CONTINUOUS
10
6.51758
20
-7.82762
11
6.51476
21
-7.83043
0
LINE
8
BLACK
6
CONTINUOUS
10
6.51476
20
-7.83043
11
6.51195
21
-7.82762
0
LINE
8
BLACK
6
CONTINUOUS
10
6.51195
20
-7.82762
11
6.51476
21
-7.8248
0
LINE
8
BLACK
6
CONTINUOUS
10
6.51476
20
-7.8248
11
6.51476
21
-7.83043
0
LINE
8
BLACK
6
CONTINUOUS
10
6.58788
20
-7.80231
11
6.58788
21
-7.85011
0
LINE
8
BLACK
6
CONTINUOUS
10
6.58788
20
-7.85011
11
6.59069
21
-7.85574
0
LINE
8
BLACK
6
CONTINUOUS
10
6.59069
20
-7.85574
11
6.5935
21
-7.85855
0
LINE
8
BLACK
6
CONTINUOUS
10
6.5935
20
-7.85855
11
6.59913
21
-7.86136
0
LINE
8
BLACK
6
CONTINUOUS
10
6.59913
20
-7.86136
11
6.61038
21
-7.86136
0
LINE
8
BLACK
6
CONTINUOUS
10
6.61038
20
-7.86136
11
6.616
21
-7.85855
0
LINE
8
BLACK
6
CONTINUOUS
10
6.616
20
-7.85855
11
6.61881
21
-7.85574
0
LINE
8
BLACK
6
CONTINUOUS
10
6.61881
20
-7.85574
11
6.62163
21
-7.85011
0
LINE
8
BLACK
6
CONTINUOUS
10
6.62163
20
-7.85011
11
6.62163
21
-7.80231
0
LINE
8
BLACK
6
CONTINUOUS
10
6.64693
20
-7.85855
11
6.65537
21
-7.86136
0
LINE
8
BLACK
6
CONTINUOUS
10
6.65537
20
-7.86136
11
6.66943
21
-7.86136
0
LINE
8
BLACK
6
CONTINUOUS
10
6.66943
20
-7.86136
11
6.67506
21
-7.85855
0
LINE
8
BLACK
6
CONTINUOUS
10
6.67506
20
-7.85855
11
6.67787
21
-7.85574
0
LINE
8
BLACK
6
CONTINUOUS
10
6.67787
20
-7.85574
11
6.68068
21
-7.85011
0
LINE
8
BLACK
6
CONTINUOUS
10
6.68068
20
-7.85011
11
6.68068
21
-7.84449
0
LINE
8
BLACK
6
CONTINUOUS
10
6.68068
20
-7.84449
11
6.67787
21
-7.83886
0
LINE
8
BLACK
6
CONTINUOUS
10
6.67787
20
-7.83886
11
6.67506
21
-7.83605
0
LINE
8
BLACK
6
CONTINUOUS
10
6.67506
20
-7.83605
11
6.66943
21
-7.83324
0
LINE
8
BLACK
6
CONTINUOUS
10
6.66943
20
-7.83324
11
6.65818
21
-7.83043
0
LINE
8
BLACK
6
CONTINUOUS
10
6.65818
20
-7.83043
11
6.65256
21
-7.82762
0
LINE
8
BLACK
6
CONTINUOUS
10
6.65256
20
-7.82762
11
6.64975
21
-7.8248
0
LINE
8
BLACK
6
CONTINUOUS
10
6.64975
20
-7.8248
11
6.64693
21
-7.81918
0
LINE
8
BLACK
6
CONTINUOUS
10
6.64693
20
-7.81918
11
6.64693
21
-7.81355
0
LINE
8
BLACK
6
CONTINUOUS
10
6.64693
20
-7.81355
11
6.64975
21
-7.80793
0
LINE
8
BLACK
6
CONTINUOUS
10
6.64975
20
-7.80793
11
6.65256
21
-7.80512
0
LINE
8
BLACK
6
CONTINUOUS
10
6.65256
20
-7.80512
11
6.65818
21
-7.80231
0
LINE
8
BLACK
6
CONTINUOUS
10
6.65818
20
-7.80231
11
6.67224
21
-7.80231
0
LINE
8
BLACK
6
CONTINUOUS
10
6.67224
20
-7.80231
11
6.68068
21
-7.80512
0
LINE
8
BLACK
6
CONTINUOUS
10
6.73411
20
-7.86136
11
6.70599
21
-7.86136
0
LINE
8
BLACK
6
CONTINUOUS
10
6.70599
20
-7.86136
11
6.70599
21
-7.80231
0
LINE
8
BLACK
6
CONTINUOUS
10
6.77629
20
-7.85855
11
6.77067
21
-7.86136
0
LINE
8
BLACK
6
CONTINUOUS
10
6.77067
20
-7.86136
11
6.75942
21
-7.86136
0
LINE
8
BLACK
6
CONTINUOUS
10
6.75942
20
-7.86136
11
6.7538
21
-7.85855
0
LINE
8
BLACK
6
CONTINUOUS
10
6.7538
20
-7.85855
11
6.75098
21
-7.85292
0
LINE
8
BLACK
6
CONTINUOUS
10
6.75098
20
-7.85292
11
6.75098
21
-7.83043
0
LINE
8
BLACK
6
CONTINUOUS
10
6.75098
20
-7.83043
11
6.7538
21
-7.8248
0
LINE
8
BLACK
6
CONTINUOUS
10
6.7538
20
-7.8248
11
6.75942
21
-7.82199
0
LINE
8
BLACK
6
CONTINUOUS
10
6.75942
20
-7.82199
11
6.77067
21
-7.82199
0
LINE
8
BLACK
6
CONTINUOUS
10
6.77067
20
-7.82199
11
6.77629
21
-7.8248
0
LINE
8
BLACK
6
CONTINUOUS
10
6.77629
20
-7.8248
11
6.77911
21
-7.83043
0
LINE
8
BLACK
6
CONTINUOUS
10
6.77911
20
-7.83043
11
6.77911
21
-7.83605
0
LINE
8
BLACK
6
CONTINUOUS
10
6.77911
20
-7.83605
11
6.75098
21
-7.84168
0
LINE
8
BLACK
6
CONTINUOUS
10
6.79598
20
-7.82199
11
6.81848
21
-7.82199
0
LINE
8
BLACK
6
CONTINUOUS
10
6.80442
20
-7.80231
11
6.80442
21
-7.85292
0
LINE
8
BLACK
6
CONTINUOUS
10
6.80442
20
-7.85292
11
6.80723
21
-7.85855
0
LINE
8
BLACK
6
CONTINUOUS
10
6.80723
20
-7.85855
11
6.81285
21
-7.86136
0
LINE
8
BLACK
6
CONTINUOUS
10
6.81285
20
-7.86136
11
6.81848
21
-7.86136
0
LINE
8
BLACK
6
CONTINUOUS
10
6.82972
20
-7.82199
11
6.85222
21
-7.82199
0
LINE
8
BLACK
6
CONTINUOUS
10
6.83816
20
-7.80231
11
6.83816
21
-7.85292
0
LINE
8
BLACK
6
CONTINUOUS
10
6.83816
20
-7.85292
11
6.84097
21
-7.85855
0
LINE
8
BLACK
6
CONTINUOUS
10
6.84097
20
-7.85855
11
6.8466
21
-7.86136
0
LINE
8
BLACK
6
CONTINUOUS
10
6.8466
20
-7.86136
11
6.85222
21
-7.86136
0
LINE
8
BLACK
6
CONTINUOUS
10
6.8944
20
-7.85855
11
6.88878
21
-7.86136
0
LINE
8
BLACK
6
CONTINUOUS
10
6.88878
20
-7.86136
11
6.87753
21
-7.86136
0
LINE
8
BLACK
6
CONTINUOUS
10
6.87753
20
-7.86136
11
6.87191
21
-7.85855
0
LINE
8
BLACK
6
CONTINUOUS
10
6.87191
20
-7.85855
11
6.86909
21
-7.85292
0
LINE
8
BLACK
6
CONTINUOUS
10
6.86909
20
-7.85292
11
6.86909
21
-7.83043
0
LINE
8
BLACK
6
CONTINUOUS
10
6.86909
20
-7.83043
11
6.87191
21
-7.8248
0
LINE
8
BLACK
6
CONTINUOUS
10
6.87191
20
-7.8248
11
6.87753
21
-7.82199
0
LINE
8
BLACK
6
CONTINUOUS
10
6.87753
20
-7.82199
11
6.88878
21
-7.82199
0
LINE
8
BLACK
6
CONTINUOUS
10
6.88878
20
-7.82199
11
6.8944
21
-7.8248
0
LINE
8
BLACK
6
CONTINUOUS
10
6.8944
20
-7.8248
11
6.89722
21
-7.83043
0
LINE
8
BLACK
6
CONTINUOUS
10
6.89722
20
-7.83043
11
6.89722
21
-7.83605
0
LINE
8
BLACK
6
CONTINUOUS
10
6.89722
20
-7.83605
11
6.86909
21
-7.84168
0
LINE
8
BLACK
6
CONTINUOUS
10
6.92253
20
-7.86136
11
6.92253
21
-7.82199
0
LINE
8
BLACK
6
CONTINUOUS
10
6.92253
20
-7.83324
11
6.92534
21
-7.82762
0
LINE
8
BLACK
6
CONTINUOUS
10
6.92534
20
-7.82762
11
6.92815
21
-7.8248
0
LINE
8
BLACK
6
CONTINUOUS
10
6.92815
20
-7.8248
11
6.93377
21
-7.82199
0
LINE
8
BLACK
6
CONTINUOUS
10
6.93377
20
-7.82199
11
6.9394
21
-7.82199
0
LINE
8
BLACK
6
CONTINUOUS
10
9.67843
20
-7.9716
11
9.67843
21
-7.91254
0
LINE
8
BLACK
6
CONTINUOUS
10
9.73186
20
-7.9716
11
9.73186
21
-7.91254
0
LINE
8
BLACK
6
CONTINUOUS
10
9.73186
20
-7.96879
11
9.72624
21
-7.9716
0
LINE
8
BLACK
6
CONTINUOUS
10
9.72624
20
-7.9716
11
9.71499
21
-7.9716
0
LINE
8
BLACK
6
CONTINUOUS
10
9.71499
20
-7.9716
11
9.70936
21
-7.96879
0
LINE
8
BLACK
6
CONTINUOUS
10
9.70936
20
-7.96879
11
9.70655
21
-7.96597
0
LINE
8
BLACK
6
CONTINUOUS
10
9.70655
20
-7.96597
11
9.70374
21
-7.96035
0
LINE
8
BLACK
6
CONTINUOUS
10
9.70374
20
-7.96035
11
9.70374
21
-7.94348
0
LINE
8
BLACK
6
CONTINUOUS
10
9.70374
20
-7.94348
11
9.70655
21
-7.93785
0
LINE
8
BLACK
6
CONTINUOUS
10
9.70655
20
-7.93785
11
9.70936
21
-7.93504
0
LINE
8
BLACK
6
CONTINUOUS
10
9.70936
20
-7.93504
11
9.71499
21
-7.93223
0
LINE
8
BLACK
6
CONTINUOUS
10
9.71499
20
-7.93223
11
9.72624
21
-7.93223
0
LINE
8
BLACK
6
CONTINUOUS
10
9.72624
20
-7.93223
11
9.73186
21
-7.93504
0
LINE
8
BLACK
6
CONTINUOUS
10
9.75998
20
-7.96597
11
9.7628
21
-7.96879
0
LINE
8
BLACK
6
CONTINUOUS
10
9.7628
20
-7.96879
11
9.75998
21
-7.9716
0
LINE
8
BLACK
6
CONTINUOUS
10
9.75998
20
-7.9716
11
9.75717
21
-7.96879
0
LINE
8
BLACK
6
CONTINUOUS
10
9.75717
20
-7.96879
11
9.75998
21
-7.96597
0
LINE
8
BLACK
6
CONTINUOUS
10
9.75998
20
-7.96597
11
9.75998
21
-7.9716
0
LINE
8
BLACK
6
CONTINUOUS
10
9.75998
20
-7.93504
11
9.7628
21
-7.93785
0
LINE
8
BLACK
6
CONTINUOUS
10
9.7628
20
-7.93785
11
9.75998
21
-7.94066
0
LINE
8
BLACK
6
CONTINUOUS
10
9.75998
20
-7.94066
11
9.75717
21
-7.93785
0
LINE
8
BLACK
6
CONTINUOUS
10
9.75717
20
-7.93785
11
9.75998
21
-7.93504
0
LINE
8
BLACK
6
CONTINUOUS
10
9.75998
20
-7.93504
11
9.75998
21
-7.94066
0
LINE
8
BLACK
6
CONTINUOUS
10
9.86403
20
-7.9716
11
9.83029
21
-7.9716
0
LINE
8
BLACK
6
CONTINUOUS
10
9.84716
20
-7.9716
11
9.84716
21
-7.91254
0
LINE
8
BLACK
6
CONTINUOUS
10
9.84716
20
-7.91254
11
9.84154
21
-7.92098
0
LINE
8
BLACK
6
CONTINUOUS
10
9.84154
20
-7.92098
11
9.83591
21
-7.9266
0
LINE
8
BLACK
6
CONTINUOUS
10
9.83591
20
-7.9266
11
9.83029
21
-7.92942
0
LINE
8
BLACK
6
CONTINUOUS
10
9.93152
20
-7.90973
11
9.88091
21
-7.98566
0
LINE
8
BLACK
6
CONTINUOUS
10
9.98214
20
-7.9716
11
9.9484
21
-7.9716
0
LINE
8
BLACK
6
CONTINUOUS
10
9.96527
20
-7.9716
11
9.96527
21
-7.91254
0
LINE
8
BLACK
6
CONTINUOUS
10
9.96527
20
-7.91254
11
9.95965
21
-7.92098
0
LINE
8
BLACK
6
CONTINUOUS
10
9.95965
20
-7.92098
11
9.95402
21
-7.9266
0
LINE
8
BLACK
6
CONTINUOUS
10
9.95402
20
-7.9266
11
9.9484
21
-7.92942
0
LINE
8
BLACK
6
CONTINUOUS
10
6.27559
20
-7.61417
11
10.5276
21
-7.61417
0
LINE
8
BLACK
6
CONTINUOUS
10
6.34301
20
-7.64192
11
6.388
21
-7.64192
0
LINE
8
BLACK
6
CONTINUOUS
10
6.35566
20
-7.72066
11
6.3655
21
-7.64192
0
LINE
8
BLACK
6
CONTINUOUS
10
6.40441
20
-7.72066
11
6.41097
21
-7.66817
0
LINE
8
BLACK
6
CONTINUOUS
10
6.41425
20
-7.64192
11
6.41003
21
-7.64567
0
LINE
8
BLACK
6
CONTINUOUS
10
6.41003
20
-7.64567
11
6.41331
21
-7.64942
0
LINE
8
BLACK
6
CONTINUOUS
10
6.41331
20
-7.64942
11
6.41753
21
-7.64567
0
LINE
8
BLACK
6
CONTINUOUS
10
6.41753
20
-7.64567
11
6.41425
21
-7.64192
0
LINE
8
BLACK
6
CONTINUOUS
10
6.41425
20
-7.64192
11
6.41331
21
-7.64942
0
LINE
8
BLACK
6
CONTINUOUS
10
6.43721
20
-7.66817
11
6.46721
21
-7.66817
0
LINE
8
BLACK
6
CONTINUOUS
10
6.45174
20
-7.64192
11
6.44331
21
-7.70941
0
LINE
8
BLACK
6
CONTINUOUS
10
6.44331
20
-7.70941
11
6.44612
21
-7.71691
0
LINE
8
BLACK
6
CONTINUOUS
10
6.44612
20
-7.71691
11
6.45315
21
-7.72066
0
LINE
8
BLACK
6
CONTINUOUS
10
6.45315
20
-7.72066
11
6.46065
21
-7.72066
0
LINE
8
BLACK
6
CONTINUOUS
10
6.49814
20
-7.72066
11
6.49111
21
-7.71691
0
LINE
8
BLACK
6
CONTINUOUS
10
6.49111
20
-7.71691
11
6.4883
21
-7.70941
0
LINE
8
BLACK
6
CONTINUOUS
10
6.4883
20
-7.70941
11
6.49674
21
-7.64192
0
LINE
8
BLACK
6
CONTINUOUS
10
6.55861
20
-7.71691
11
6.55064
21
-7.72066
0
LINE
8
BLACK
6
CONTINUOUS
10
6.55064
20
-7.72066
11
6.53564
21
-7.72066
0
LINE
8
BLACK
6
CONTINUOUS
10
6.53564
20
-7.72066
11
6.52861
21
-7.71691
0
LINE
8
BLACK
6
CONTINUOUS
10
6.52861
20
-7.71691
11
6.5258
21
-7.70941
0
LINE
8
BLACK
6
CONTINUOUS
10
6.5258
20
-7.70941
11
6.52955
21
-7.67942
0
LINE
8
BLACK
6
CONTINUOUS
10
6.52955
20
-7.67942
11
6.53423
21
-7.67192
0
LINE
8
BLACK
6
CONTINUOUS
10
6.53423
20
-7.67192
11
6.5422
21
-7.66817
0
LINE
8
BLACK
6
CONTINUOUS
10
6.5422
20
-7.66817
11
6.5572
21
-7.66817
0
LINE
8
BLACK
6
CONTINUOUS
10
6.5572
20
-7.66817
11
6.56423
21
-7.67192
0
LINE
8
BLACK
6
CONTINUOUS
10
6.56423
20
-7.67192
11
6.56704
21
-7.67942
0
LINE
8
BLACK
6
CONTINUOUS
10
6.56704
20
-7.67942
11
6.5661
21
-7.68691
0
LINE
8
BLACK
6
CONTINUOUS
10
6.5661
20
-7.68691
11
6.52767
21
-7.69441
0
LINE
8
BLACK
6
CONTINUOUS
10
6.59657
20
-7.71316
11
6.59985
21
-7.71691
0
LINE
8
BLACK
6
CONTINUOUS
10
6.59985
20
-7.71691
11
6.59563
21
-7.72066
0
LINE
8
BLACK
6
CONTINUOUS
10
6.59563
20
-7.72066
11
6.59235
21
-7.71691
0
LINE
8
BLACK
6
CONTINUOUS
10
6.59235
20
-7.71691
11
6.59657
21
-7.71316
0
LINE
8
BLACK
6
CONTINUOUS
10
6.59657
20
-7.71316
11
6.59563
21
-7.72066
0
LINE
8
BLACK
6
CONTINUOUS
10
6.60172
20
-7.67192
11
6.60501
21
-7.67567
0
LINE
8
BLACK
6
CONTINUOUS
10
6.60501
20
-7.67567
11
6.60079
21
-7.67942
0
LINE
8
BLACK
6
CONTINUOUS
10
6.60079
20
-7.67942
11
6.59751
21
-7.67567
0
LINE
8
BLACK
6
CONTINUOUS
10
6.59751
20
-7.67567
11
6.60172
21
-7.67192
0
LINE
8
BLACK
6
CONTINUOUS
10
6.60172
20
-7.67192
11
6.60079
21
-7.67942
0
LINE
8
BLACK
6
CONTINUOUS
10
6.35166
20
-7.53909
11
6.33197
21
-7.53909
0
LINE
8
BLACK
6
CONTINUOUS
10
6.33197
20
-7.57002
11
6.33197
21
-7.51097
0
LINE
8
BLACK
6
CONTINUOUS
10
6.33197
20
-7.51097
11
6.3601
21
-7.51097
0
LINE
8
BLACK
6
CONTINUOUS
10
6.38259
20
-7.57002
11
6.38259
21
-7.53065
0
LINE
8
BLACK
6
CONTINUOUS
10
6.38259
20
-7.51097
11
6.37978
21
-7.51378
0
LINE
8
BLACK
6
CONTINUOUS
10
6.37978
20
-7.51378
11
6.38259
21
-7.51659
0
LINE
8
BLACK
6
CONTINUOUS
10
6.38259
20
-7.51659
11
6.3854
21
-7.51378
0
LINE
8
BLACK
6
CONTINUOUS
10
6.3854
20
-7.51378
11
6.38259
21
-7.51097
0
LINE
8
BLACK
6
CONTINUOUS
10
6.38259
20
-7.51097
11
6.38259
21
-7.51659
0
LINE
8
BLACK
6
CONTINUOUS
10
6.41915
20
-7.57002
11
6.41353
21
-7.56721
0
LINE
8
BLACK
6
CONTINUOUS
10
6.41353
20
-7.56721
11
6.41071
21
-7.56159
0
LINE
8
BLACK
6
CONTINUOUS
10
6.41071
20
-7.56159
11
6.41071
21
-7.51097
0
LINE
8
BLACK
6
CONTINUOUS
10
6.46415
20
-7.56721
11
6.45852
21
-7.57002
0
LINE
8
BLACK
6
CONTINUOUS
10
6.45852
20
-7.57002
11
6.44727
21
-7.57002
0
LINE
8
BLACK
6
CONTINUOUS
10
6.44727
20
-7.57002
11
6.44165
21
-7.56721
0
LINE
8
BLACK
6
CONTINUOUS
10
6.44165
20
-7.56721
11
6.43884
21
-7.56159
0
LINE
8
BLACK
6
CONTINUOUS
10
6.43884
20
-7.56159
11
6.43884
21
-7.53909
0
LINE
8
BLACK
6
CONTINUOUS
10
6.43884
20
-7.53909
11
6.44165
21
-7.53346
0
LINE
8
BLACK
6
CONTINUOUS
10
6.44165
20
-7.53346
11
6.44727
21
-7.53065
0
LINE
8
BLACK
6
CONTINUOUS
10
6.44727
20
-7.53065
11
6.45852
21
-7.53065
0
LINE
8
BLACK
6
CONTINUOUS
10
6.45852
20
-7.53065
11
6.46415
21
-7.53346
0
LINE
8
BLACK
6
CONTINUOUS
10
6.46415
20
-7.53346
11
6.46696
21
-7.53909
0
LINE
8
BLACK
6
CONTINUOUS
10
6.46696
20
-7.53909
11
6.46696
21
-7.54471
0
LINE
8
BLACK
6
CONTINUOUS
10
6.46696
20
-7.54471
11
6.43884
21
-7.55034
0
LINE
8
BLACK
6
CONTINUOUS
10
6.49227
20
-7.5644
11
6.49508
21
-7.56721
0
LINE
8
BLACK
6
CONTINUOUS
10
6.49508
20
-7.56721
11
6.49227
21
-7.57002
0
LINE
8
BLACK
6
CONTINUOUS
10
6.49227
20
-7.57002
11
6.48945
21
-7.56721
0
LINE
8
BLACK
6
CONTINUOUS
10
6.48945
20
-7.56721
11
6.49227
21
-7.5644
0
LINE
8
BLACK
6
CONTINUOUS
10
6.49227
20
-7.5644
11
6.49227
21
-7.57002
0
LINE
8
BLACK
6
CONTINUOUS
10
6.49227
20
-7.53346
11
6.49508
21
-7.53628
0
LINE
8
BLACK
6
CONTINUOUS
10
6.49508
20
-7.53628
11
6.49227
21
-7.53909
0
LINE
8
BLACK
6
CONTINUOUS
10
6.49227
20
-7.53909
11
6.48945
21
-7.53628
0
LINE
8
BLACK
6
CONTINUOUS
10
6.48945
20
-7.53628
11
6.49227
21
-7.53346
0
LINE
8
BLACK
6
CONTINUOUS
10
6.49227
20
-7.53346
11
6.49227
21
-7.53909
0
LINE
8
BLACK
6
CONTINUOUS
10
6.56538
20
-7.57002
11
6.56538
21
-7.51097
0
LINE
8
BLACK
6
CONTINUOUS
10
6.56538
20
-7.53346
11
6.57101
21
-7.53065
0
LINE
8
BLACK
6
CONTINUOUS
10
6.57101
20
-7.53065
11
6.58226
21
-7.53065
0
LINE
8
BLACK
6
CONTINUOUS
10
6.58226
20
-7.53065
11
6.58788
21
-7.53346
0
LINE
8
BLACK
6
CONTINUOUS
10
6.58788
20
-7.53346
11
6.59069
21
-7.53628
0
LINE
8
BLACK
6
CONTINUOUS
10
6.59069
20
-7.53628
11
6.5935
21
-7.5419
0
LINE
8
BLACK
6
CONTINUOUS
10
6.5935
20
-7.5419
11
6.5935
21
-7.55877
0
LINE
8
BLACK
6
CONTINUOUS
10
6.5935
20
-7.55877
11
6.59069
21
-7.5644
0
LINE
8
BLACK
6
CONTINUOUS
10
6.59069
20
-7.5644
11
6.58788
21
-7.56721
0
LINE
8
BLACK
6
CONTINUOUS
10
6.58788
20
-7.56721
11
6.58226
21
-7.57002
0
LINE
8
BLACK
6
CONTINUOUS
10
6.58226
20
-7.57002
11
6.57101
21
-7.57002
0
LINE
8
BLACK
6
CONTINUOUS
10
6.57101
20
-7.57002
11
6.56538
21
-7.56721
0
LINE
8
BLACK
6
CONTINUOUS
10
6.64412
20
-7.57002
11
6.64412
21
-7.53909
0
LINE
8
BLACK
6
CONTINUOUS
10
6.64412
20
-7.53909
11
6.64131
21
-7.53346
0
LINE
8
BLACK
6
CONTINUOUS
10
6.64131
20
-7.53346
11
6.63569
21
-7.53065
0
LINE
8
BLACK
6
CONTINUOUS
10
6.63569
20
-7.53065
11
6.62444
21
-7.53065
0
LINE
8
BLACK
6
CONTINUOUS
10
6.62444
20
-7.53065
11
6.61881
21
-7.53346
0
LINE
8
BLACK
6
CONTINUOUS
10
6.64412
20
-7.56721
11
6.6385
21
-7.57002
0
LINE
8
BLACK
6
CONTINUOUS
10
6.6385
20
-7.57002
11
6.62444
21
-7.57002
0
LINE
8
BLACK
6
CONTINUOUS
10
6.62444
20
-7.57002
11
6.61881
21
-7.56721
0
LINE
8
BLACK
6
CONTINUOUS
10
6.61881
20
-7.56721
11
6.616
21
-7.56159
0
LINE
8
BLACK
6
CONTINUOUS
10
6.616
20
-7.56159
11
6.616
21
-7.55596
0
LINE
8
BLACK
6
CONTINUOUS
10
6.616
20
-7.55596
11
6.61881
21
-7.55034
0
LINE
8
BLACK
6
CONTINUOUS
10
6.61881
20
-7.55034
11
6.62444
21
-7.54753
0
LINE
8
BLACK
6
CONTINUOUS
10
6.62444
20
-7.54753
11
6.6385
21
-7.54753
0
LINE
8
BLACK
6
CONTINUOUS
10
6.6385
20
-7.54753
11
6.64412
21
-7.54471
0
LINE
8
BLACK
6
CONTINUOUS
10
6.69755
20
-7.57002
11
6.69755
21
-7.51097
0
LINE
8
BLACK
6
CONTINUOUS
10
6.69755
20
-7.56721
11
6.69193
21
-7.57002
0
LINE
8
BLACK
6
CONTINUOUS
10
6.69193
20
-7.57002
11
6.68068
21
-7.57002
0
LINE
8
BLACK
6
CONTINUOUS
10
6.68068
20
-7.57002
11
6.67506
21
-7.56721
0
LINE
8
BLACK
6
CONTINUOUS
10
6.67506
20
-7.56721
11
6.67224
21
-7.5644
0
LINE
8
BLACK
6
CONTINUOUS
10
6.67224
20
-7.5644
11
6.66943
21
-7.55877
0
LINE
8
BLACK
6
CONTINUOUS
10
6.66943
20
-7.55877
11
6.66943
21
-7.5419
0
LINE
8
BLACK
6
CONTINUOUS
10
6.66943
20
-7.5419
11
6.67224
21
-7.53628
0
LINE
8
BLACK
6
CONTINUOUS
10
6.67224
20
-7.53628
11
6.67506
21
-7.53346
0
LINE
8
BLACK
6
CONTINUOUS
10
6.67506
20
-7.53346
11
6.68068
21
-7.53065
0
LINE
8
BLACK
6
CONTINUOUS
10
6.68068
20
-7.53065
11
6.69193
21
-7.53065
0
LINE
8
BLACK
6
CONTINUOUS
10
6.69193
20
-7.53065
11
6.69755
21
-7.53346
0
LINE
8
BLACK
6
CONTINUOUS
10
6.75098
20
-7.53065
11
6.75098
21
-7.57846
0
LINE
8
BLACK
6
CONTINUOUS
10
6.75098
20
-7.57846
11
6.74817
21
-7.58408
0
LINE
8
BLACK
6
CONTINUOUS
10
6.74817
20
-7.58408
11
6.74536
21
-7.5869
0
LINE
8
BLACK
6
CONTINUOUS
10
6.74536
20
-7.5869
11
6.73974
21
-7.58971
0
LINE
8
BLACK
6
CONTINUOUS
10
6.73974
20
-7.58971
11
6.7313
21
-7.58971
0
LINE
8
BLACK
6
CONTINUOUS
10
6.7313
20
-7.58971
11
6.72567
21
-7.5869
0
LINE
8
BLACK
6
CONTINUOUS
10
6.75098
20
-7.56721
11
6.74536
21
-7.57002
0
LINE
8
BLACK
6
CONTINUOUS
10
6.74536
20
-7.57002
11
6.73411
21
-7.57002
0
LINE
8
BLACK
6
CONTINUOUS
10
6.73411
20
-7.57002
11
6.72849
21
-7.56721
0
LINE
8
BLACK
6
CONTINUOUS
10
6.72849
20
-7.56721
11
6.72567
21
-7.5644
0
LINE
8
BLACK
6
CONTINUOUS
10
6.72567
20
-7.5644
11
6.72286
21
-7.55877
0
LINE
8
BLACK
6
CONTINUOUS
10
6.72286
20
-7.55877
11
6.72286
21
-7.5419
0
LINE
8
BLACK
6
CONTINUOUS
10
6.72286
20
-7.5419
11
6.72567
21
-7.53628
0
LINE
8
BLACK
6
CONTINUOUS
10
6.72567
20
-7.53628
11
6.72849
21
-7.53346
0
LINE
8
BLACK
6
CONTINUOUS
10
6.72849
20
-7.53346
11
6.73411
21
-7.53065
0
LINE
8
BLACK
6
CONTINUOUS
10
6.73411
20
-7.53065
11
6.74536
21
-7.53065
0
LINE
8
BLACK
6
CONTINUOUS
10
6.74536
20
-7.53065
11
6.75098
21
-7.53346
0
LINE
8
BLACK
6
CONTINUOUS
10
6.8016
20
-7.56721
11
6.79598
21
-7.57002
0
LINE
8
BLACK
6
CONTINUOUS
10
6.79598
20
-7.57002
11
6.78473
21
-7.57002
0
LINE
8
BLACK
6
CONTINUOUS
10
6.78473
20
-7.57002
11
6.77911
21
-7.56721
0
LINE
8
BLACK
6
CONTINUOUS
10
6.77911
20
-7.56721
11
6.77629
21
-7.56159
0
LINE
8
BLACK
6
CONTINUOUS
10
6.77629
20
-7.56159
11
6.77629
21
-7.53909
0
LINE
8
BLACK
6
CONTINUOUS
10
6.77629
20
-7.53909
11
6.77911
21
-7.53346
0
LINE
8
BLACK
6
CONTINUOUS
10
6.77911
20
-7.53346
11
6.78473
21
-7.53065
0
LINE
8
BLACK
6
CONTINUOUS
10
6.78473
20
-7.53065
11
6.79598
21
-7.53065
0
LINE
8
BLACK
6
CONTINUOUS
10
6.79598
20
-7.53065
11
6.8016
21
-7.53346
0
LINE
8
BLACK
6
CONTINUOUS
10
6.8016
20
-7.53346
11
6.80442
21
-7.53909
0
LINE
8
BLACK
6
CONTINUOUS
10
6.80442
20
-7.53909
11
6.80442
21
-7.54471
0
LINE
8
BLACK
6
CONTINUOUS
10
6.80442
20
-7.54471
11
6.77629
21
-7.55034
0
LINE
8
BLACK
6
CONTINUOUS
10
6.82972
20
-7.57002
11
6.82972
21
-7.53065
0
LINE
8
BLACK
6
CONTINUOUS
10
6.82972
20
-7.5419
11
6.83254
21
-7.53628
0
LINE
8
BLACK
6
CONTINUOUS
10
6.83254
20
-7.53628
11
6.83535
21
-7.53346
0
LINE
8
BLACK
6
CONTINUOUS
10
6.83535
20
-7.53346
11
6.84097
21
-7.53065
0
LINE
8
BLACK
6
CONTINUOUS
10
6.84097
20
-7.53065
11
6.8466
21
-7.53065
0
LINE
8
BLACK
6
CONTINUOUS
10
6.86628
20
-7.54753
11
6.91128
21
-7.54753
0
LINE
8
BLACK
6
CONTINUOUS
10
6.9394
20
-7.57002
11
6.9394
21
-7.51097
0
LINE
8
BLACK
6
CONTINUOUS
10
6.9394
20
-7.53346
11
6.94502
21
-7.53065
0
LINE
8
BLACK
6
CONTINUOUS
10
6.94502
20
-7.53065
11
6.95627
21
-7.53065
0
LINE
8
BLACK
6
CONTINUOUS
10
6.95627
20
-7.53065
11
6.9619
21
-7.53346
0
LINE
8
BLACK
6
CONTINUOUS
10
6.9619
20
-7.53346
11
6.96471
21
-7.53628
0
LINE
8
BLACK
6
CONTINUOUS
10
6.96471
20
-7.53628
11
6.96752
21
-7.5419
0
LINE
8
BLACK
6
CONTINUOUS
10
6.96752
20
-7.5419
11
6.96752
21
-7.55877
0
LINE
8
BLACK
6
CONTINUOUS
10
6.96752
20
-7.55877
11
6.96471
21
-7.5644
0
LINE
8
BLACK
6
CONTINUOUS
10
6.96471
20
-7.5644
11
6.9619
21
-7.56721
0
LINE
8
BLACK
6
CONTINUOUS
10
6.9619
20
-7.56721
11
6.95627
21
-7.57002
0
LINE
8
BLACK
6
CONTINUOUS
10
6.95627
20
-7.57002
11
6.94502
21
-7.57002
0
LINE
8
BLACK
6
CONTINUOUS
10
6.94502
20
-7.57002
11
6.9394
21
-7.56721
0
LINE
8
BLACK
6
CONTINUOUS
10
7.01814
20
-7.57002
11
7.01814
21
-7.53909
0
LINE
8
BLACK
6
CONTINUOUS
10
7.01814
20
-7.53909
11
7.01533
21
-7.53346
0
LINE
8
BLACK
6
CONTINUOUS
10
7.01533
20
-7.53346
11
7.0097
21
-7.53065
0
LINE
8
BLACK
6
CONTINUOUS
10
7.0097
20
-7.53065
11
6.99845
21
-7.53065
0
LINE
8
BLACK
6
CONTINUOUS
10
6.99845
20
-7.53065
11
6.99283
21
-7.53346
0
LINE
8
BLACK
6
CONTINUOUS
10
7.01814
20
-7.56721
11
7.01251
21
-7.57002
0
LINE
8
BLACK
6
CONTINUOUS
10
7.01251
20
-7.57002
11
6.99845
21
-7.57002
0
LINE
8
BLACK
6
CONTINUOUS
10
6.99845
20
-7.57002
11
6.99283
21
-7.56721
0
LINE
8
BLACK
6
CONTINUOUS
10
6.99283
20
-7.56721
11
6.99002
21
-7.56159
0
LINE
8
BLACK
6
CONTINUOUS
10
6.99002
20
-7.56159
11
6.99002
21
-7.55596
0
LINE
8
BLACK
6
CONTINUOUS
10
6.99002
20
-7.55596
11
6.99283
21
-7.55034
0
LINE
8
BLACK
6
CONTINUOUS
10
6.99283
20
-7.55034
11
6.99845
21
-7.54753
0
LINE
8
BLACK
6
CONTINUOUS
10
6.99845
20
-7.54753
11
7.01251
21
-7.54753
0
LINE
8
BLACK
6
CONTINUOUS
10
7.01251
20
-7.54753
11
7.01814
21
-7.54471
0
LINE
8
BLACK
6
CONTINUOUS
10
7.07157
20
-7.57002
11
7.07157
21
-7.51097
0
LINE
8
BLACK
6
CONTINUOUS
10
7.07157
20
-7.56721
11
7.06594
21
-7.57002
0
LINE
8
BLACK
6
CONTINUOUS
10
7.06594
20
-7.57002
11
7.0547
21
-7.57002
0
LINE
8
BLACK
6
CONTINUOUS
10
7.0547
20
-7.57002
11
7.04907
21
-7.56721
0
LINE
8
BLACK
6
CONTINUOUS
10
7.04907
20
-7.56721
11
7.04626
21
-7.5644
0
LINE
8
BLACK
6
CONTINUOUS
10
7.04626
20
-7.5644
11
7.04345
21
-7.55877
0
LINE
8
BLACK
6
CONTINUOUS
10
7.04345
20
-7.55877
11
7.04345
21
-7.5419
0
LINE
8
BLACK
6
CONTINUOUS
10
7.04345
20
-7.5419
11
7.04626
21
-7.53628
0
LINE
8
BLACK
6
CONTINUOUS
10
7.04626
20
-7.53628
11
7.04907
21
-7.53346
0
LINE
8
BLACK
6
CONTINUOUS
10
7.04907
20
-7.53346
11
7.0547
21
-7.53065
0
LINE
8
BLACK
6
CONTINUOUS
10
7.0547
20
-7.53065
11
7.06594
21
-7.53065
0
LINE
8
BLACK
6
CONTINUOUS
10
7.06594
20
-7.53065
11
7.07157
21
-7.53346
0
LINE
8
BLACK
6
CONTINUOUS
10
7.125
20
-7.53065
11
7.125
21
-7.57846
0
LINE
8
BLACK
6
CONTINUOUS
10
7.125
20
-7.57846
11
7.12219
21
-7.58408
0
LINE
8
BLACK
6
CONTINUOUS
10
7.12219
20
-7.58408
11
7.11938
21
-7.5869
0
LINE
8
BLACK
6
CONTINUOUS
10
7.11938
20
-7.5869
11
7.11375
21
-7.58971
0
LINE
8
BLACK
6
CONTINUOUS
10
7.11375
20
-7.58971
11
7.10531
21
-7.58971
0
LINE
8
BLACK
6
CONTINUOUS
10
7.10531
20
-7.58971
11
7.09969
21
-7.5869
0
LINE
8
BLACK
6
CONTINUOUS
10
7.125
20
-7.56721
11
7.11938
21
-7.57002
0
LINE
8
BLACK
6
CONTINUOUS
10
7.11938
20
-7.57002
11
7.10813
21
-7.57002
0
LINE
8
BLACK
6
CONTINUOUS
10
7.10813
20
-7.57002
11
7.1025
21
-7.56721
0
LINE
8
BLACK
6
CONTINUOUS
10
7.1025
20
-7.56721
11
7.09969
21
-7.5644
0
LINE
8
BLACK
6
CONTINUOUS
10
7.09969
20
-7.5644
11
7.09688
21
-7.55877
0
LINE
8
BLACK
6
CONTINUOUS
10
7.09688
20
-7.55877
11
7.09688
21
-7.5419
0
LINE
8
BLACK
6
CONTINUOUS
10
7.09688
20
-7.5419
11
7.09969
21
-7.53628
0
LINE
8
BLACK
6
CONTINUOUS
10
7.09969
20
-7.53628
11
7.1025
21
-7.53346
0
LINE
8
BLACK
6
CONTINUOUS
10
7.1025
20
-7.53346
11
7.10813
21
-7.53065
0
LINE
8
BLACK
6
CONTINUOUS
10
7.10813
20
-7.53065
11
7.11938
21
-7.53065
0
LINE
8
BLACK
6
CONTINUOUS
10
7.11938
20
-7.53065
11
7.125
21
-7.53346
0
LINE
8
BLACK
6
CONTINUOUS
10
7.17562
20
-7.56721
11
7.16999
21
-7.57002
0
LINE
8
BLACK
6
CONTINUOUS
10
7.16999
20
-7.57002
11
7.15875
21
-7.57002
0
LINE
8
BLACK
6
CONTINUOUS
10
7.15875
20
-7.57002
11
7.15312
21
-7.56721
0
LINE
8
BLACK
6
CONTINUOUS
10
7.15312
20
-7.56721
11
7.15031
21
-7.56159
0
LINE
8
BLACK
6
CONTINUOUS
10
7.15031
20
-7.56159
11
7.15031
21
-7.53909
0
LINE
8
BLACK
6
CONTINUOUS
10
7.15031
20
-7.53909
11
7.15312
21
-7.53346
0
LINE
8
BLACK
6
CONTINUOUS
10
7.15312
20
-7.53346
11
7.15875
21
-7.53065
0
LINE
8
BLACK
6
CONTINUOUS
10
7.15875
20
-7.53065
11
7.16999
21
-7.53065
0
LINE
8
BLACK
6
CONTINUOUS
10
7.16999
20
-7.53065
11
7.17562
21
-7.53346
0
LINE
8
BLACK
6
CONTINUOUS
10
7.17562
20
-7.53346
11
7.17843
21
-7.53909
0
LINE
8
BLACK
6
CONTINUOUS
10
7.17843
20
-7.53909
11
7.17843
21
-7.54471
0
LINE
8
BLACK
6
CONTINUOUS
10
7.17843
20
-7.54471
11
7.15031
21
-7.55034
0
LINE
8
BLACK
6
CONTINUOUS
10
7.20374
20
-7.5644
11
7.20655
21
-7.56721
0
LINE
8
BLACK
6
CONTINUOUS
10
7.20655
20
-7.56721
11
7.20374
21
-7.57002
0
LINE
8
BLACK
6
CONTINUOUS
10
7.20374
20
-7.57002
11
7.20093
21
-7.56721
0
LINE
8
BLACK
6
CONTINUOUS
10
7.20093
20
-7.56721
11
7.20374
21
-7.5644
0
LINE
8
BLACK
6
CONTINUOUS
10
7.20374
20
-7.5644
11
7.20374
21
-7.57002
0
LINE
8
BLACK
6
CONTINUOUS
10
7.23186
20
-7.57002
11
7.23186
21
-7.51097
0
LINE
8
BLACK
6
CONTINUOUS
10
7.23749
20
-7.54753
11
7.25436
21
-7.57002
0
LINE
8
BLACK
6
CONTINUOUS
10
7.25436
20
-7.53065
11
7.23186
21
-7.55315
0
LINE
8
BLACK
6
CONTINUOUS
10
7.27967
20
-7.57002
11
7.27967
21
-7.53065
0
LINE
8
BLACK
6
CONTINUOUS
10
7.27967
20
-7.51097
11
7.27686
21
-7.51378
0
LINE
8
BLACK
6
CONTINUOUS
10
7.27686
20
-7.51378
11
7.27967
21
-7.51659
0
LINE
8
BLACK
6
CONTINUOUS
10
7.27967
20
-7.51659
11
7.28248
21
-7.51378
0
LINE
8
BLACK
6
CONTINUOUS
10
7.28248
20
-7.51378
11
7.27967
21
-7.51097
0
LINE
8
BLACK
6
CONTINUOUS
10
7.27967
20
-7.51097
11
7.27967
21
-7.51659
0
LINE
8
BLACK
6
CONTINUOUS
10
7.3331
20
-7.56721
11
7.32747
21
-7.57002
0
LINE
8
BLACK
6
CONTINUOUS
10
7.32747
20
-7.57002
11
7.31623
21
-7.57002
0
LINE
8
BLACK
6
CONTINUOUS
10
7.31623
20
-7.57002
11
7.3106
21
-7.56721
0
LINE
8
BLACK
6
CONTINUOUS
10
7.3106
20
-7.56721
11
7.30779
21
-7.5644
0
LINE
8
BLACK
6
CONTINUOUS
10
7.30779
20
-7.5644
11
7.30498
21
-7.55877
0
LINE
8
BLACK
6
CONTINUOUS
10
7.30498
20
-7.55877
11
7.30498
21
-7.5419
0
LINE
8
BLACK
6
CONTINUOUS
10
7.30498
20
-7.5419
11
7.30779
21
-7.53628
0
LINE
8
BLACK
6
CONTINUOUS
10
7.30779
20
-7.53628
11
7.3106
21
-7.53346
0
LINE
8
BLACK
6
CONTINUOUS
10
7.3106
20
-7.53346
11
7.31623
21
-7.53065
0
LINE
8
BLACK
6
CONTINUOUS
10
7.31623
20
-7.53065
11
7.32747
21
-7.53065
0
LINE
8
BLACK
6
CONTINUOUS
10
7.32747
20
-7.53065
11
7.3331
21
-7.53346
0
LINE
8
BLACK
6
CONTINUOUS
10
7.38372
20
-7.57002
11
7.38372
21
-7.53909
0
LINE
8
BLACK
6
CONTINUOUS
10
7.38372
20
-7.53909
11
7.38091
21
-7.53346
0
LINE
8
BLACK
6
CONTINUOUS
10
7.38091
20
-7.53346
11
7.37528
21
-7.53065
0
LINE
8
BLACK
6
CONTINUOUS
10
7.37528
20
-7.53065
11
7.36403
21
-7.53065
0
LINE
8
BLACK
6
CONTINUOUS
10
7.36403
20
-7.53065
11
7.35841
21
-7.53346
0
LINE
8
BLACK
6
CONTINUOUS
10
7.38372
20
-7.56721
11
7.37809
21
-7.57002
0
LINE
8
BLACK
6
CONTINUOUS
10
7.37809
20
-7.57002
11
7.36403
21
-7.57002
0
LINE
8
BLACK
6
CONTINUOUS
10
7.36403
20
-7.57002
11
7.35841
21
-7.56721
0
LINE
8
BLACK
6
CONTINUOUS
10
7.35841
20
-7.56721
11
7.3556
21
-7.56159
0
LINE
8
BLACK
6
CONTINUOUS
10
7.3556
20
-7.56159
11
7.3556
21
-7.55596
0
LINE
8
BLACK
6
CONTINUOUS
10
7.3556
20
-7.55596
11
7.35841
21
-7.55034
0
LINE
8
BLACK
6
CONTINUOUS
10
7.35841
20
-7.55034
11
7.36403
21
-7.54753
0
LINE
8
BLACK
6
CONTINUOUS
10
7.36403
20
-7.54753
11
7.37809
21
-7.54753
0
LINE
8
BLACK
6
CONTINUOUS
10
7.37809
20
-7.54753
11
7.38372
21
-7.54471
0
LINE
8
BLACK
6
CONTINUOUS
10
7.43715
20
-7.57002
11
7.43715
21
-7.51097
0
LINE
8
BLACK
6
CONTINUOUS
10
7.43715
20
-7.56721
11
7.43152
21
-7.57002
0
LINE
8
BLACK
6
CONTINUOUS
10
7.43152
20
-7.57002
11
7.42028
21
-7.57002
0
LINE
8
BLACK
6
CONTINUOUS
10
7.42028
20
-7.57002
11
7.41465
21
-7.56721
0
LINE
8
BLACK
6
CONTINUOUS
10
7.41465
20
-7.56721
11
7.41184
21
-7.5644
0
LINE
8
BLACK
6
CONTINUOUS
10
7.41184
20
-7.5644
11
7.40903
21
-7.55877
0
LINE
8
BLACK
6
CONTINUOUS
10
7.40903
20
-7.55877
11
7.40903
21
-7.5419
0
LINE
8
BLACK
6
CONTINUOUS
10
7.40903
20
-7.5419
11
7.41184
21
-7.53628
0
LINE
8
BLACK
6
CONTINUOUS
10
7.41184
20
-7.53628
11
7.41465
21
-7.53346
0
LINE
8
BLACK
6
CONTINUOUS
10
7.41465
20
-7.53346
11
7.42028
21
-7.53065
0
LINE
8
BLACK
6
CONTINUOUS
10
7.42028
20
-7.53065
11
7.43152
21
-7.53065
0
LINE
8
BLACK
6
CONTINUOUS
10
7.43152
20
-7.53065
11
7.43715
21
-7.53346
0
LINE
8
BLACK
6
CONTINUOUS
10
7.45121
20
-7.57565
11
7.4962
21
-7.57565
0
LINE
8
BLACK
6
CONTINUOUS
10
7.51026
20
-7.53065
11
7.51026
21
-7.58971
0
LINE
8
BLACK
6
CONTINUOUS
10
7.51026
20
-7.53346
11
7.51589
21
-7.53065
0
LINE
8
BLACK
6
CONTINUOUS
10
7.51589
20
-7.53065
11
7.52714
21
-7.53065
0
LINE
8
BLACK
6
CONTINUOUS
10
7.52714
20
-7.53065
11
7.53276
21
-7.53346
0
LINE
8
BLACK
6
CONTINUOUS
10
7.53276
20
-7.53346
11
7.53557
21
-7.53628
0
LINE
8
BLACK
6
CONTINUOUS
10
7.53557
20
-7.53628
11
7.53839
21
-7.5419
0
LINE
8
BLACK
6
CONTINUOUS
10
7.53839
20
-7.5419
11
7.53839
21
-7.55877
0
LINE
8
BLACK
6
CONTINUOUS
10
7.53839
20
-7.55877
11
7.53557
21
-7.5644
0
LINE
8
BLACK
6
CONTINUOUS
10
7.53557
20
-7.5644
11
7.53276
21
-7.56721
0
LINE
8
BLACK
6
CONTINUOUS
10
7.53276
20
-7.56721
11
7.52714
21
-7.57002
0
LINE
8
BLACK
6
CONTINUOUS
10
7.52714
20
-7.57002
11
7.51589
21
-7.57002
0
LINE
8
BLACK
6
CONTINUOUS
10
7.51589
20
-7.57002
11
7.51026
21
-7.56721
0
LINE
8
BLACK
6
CONTINUOUS
10
7.589
20
-7.56721
11
7.58338
21
-7.57002
0
LINE
8
BLACK
6
CONTINUOUS
10
7.58338
20
-7.57002
11
7.57213
21
-7.57002
0
LINE
8
BLACK
6
CONTINUOUS
10
7.57213
20
-7.57002
11
7.56651
21
-7.56721
0
LINE
8
BLACK
6
CONTINUOUS
10
7.56651
20
-7.56721
11
7.5637
21
-7.5644
0
LINE
8
BLACK
6
CONTINUOUS
10
7.5637
20
-7.5644
11
7.56088
21
-7.55877
0
LINE
8
BLACK
6
CONTINUOUS
10
7.56088
20
-7.55877
11
7.56088
21
-7.5419
0
LINE
8
BLACK
6
CONTINUOUS
10
7.56088
20
-7.5419
11
7.5637
21
-7.53628
0
LINE
8
BLACK
6
CONTINUOUS
10
7.5637
20
-7.53628
11
7.56651
21
-7.53346
0
LINE
8
BLACK
6
CONTINUOUS
10
7.56651
20
-7.53346
11
7.57213
21
-7.53065
0
LINE
8
BLACK
6
CONTINUOUS
10
7.57213
20
-7.53065
11
7.58338
21
-7.53065
0
LINE
8
BLACK
6
CONTINUOUS
10
7.58338
20
-7.53065
11
7.589
21
-7.53346
0
LINE
8
BLACK
6
CONTINUOUS
10
7.61431
20
-7.57002
11
7.61431
21
-7.51097
0
LINE
8
BLACK
6
CONTINUOUS
10
7.61431
20
-7.53346
11
7.61994
21
-7.53065
0
LINE
8
BLACK
6
CONTINUOUS
10
7.61994
20
-7.53065
11
7.63119
21
-7.53065
0
LINE
8
BLACK
6
CONTINUOUS
10
7.63119
20
-7.53065
11
7.63681
21
-7.53346
0
LINE
8
BLACK
6
CONTINUOUS
10
7.63681
20
-7.53346
11
7.63962
21
-7.53628
0
LINE
8
BLACK
6
CONTINUOUS
10
7.63962
20
-7.53628
11
7.64244
21
-7.5419
0
LINE
8
BLACK
6
CONTINUOUS
10
7.64244
20
-7.5419
11
7.64244
21
-7.55877
0
LINE
8
BLACK
6
CONTINUOUS
10
7.64244
20
-7.55877
11
7.63962
21
-7.5644
0
LINE
8
BLACK
6
CONTINUOUS
10
7.63962
20
-7.5644
11
7.63681
21
-7.56721
0
LINE
8
BLACK
6
CONTINUOUS
10
7.63681
20
-7.56721
11
7.63119
21
-7.57002
0
LINE
8
BLACK
6
CONTINUOUS
10
7.63119
20
-7.57002
11
7.61994
21
-7.57002
0
LINE
8
BLACK
6
CONTINUOUS
10
7.61994
20
-7.57002
11
7.61431
21
-7.56721
0
LINE
8
BLACK
6
CONTINUOUS
10
6.27559
20
-7.37795
11
10.5276
21
-7.37795
0
LINE
8
BLACK
6
CONTINUOUS
10
6.32916
20
-7.46091
11
6.3376
21
-7.46372
0
LINE
8
BLACK
6
CONTINUOUS
10
6.3376
20
-7.46372
11
6.35166
21
-7.46372
0
LINE
8
BLACK
6
CONTINUOUS
10
6.35166
20
-7.46372
11
6.35728
21
-7.46091
0
LINE
8
BLACK
6
CONTINUOUS
10
6.35728
20
-7.46091
11
6.3601
21
-7.4581
0
LINE
8
BLACK
6
CONTINUOUS
10
6.3601
20
-7.4581
11
6.36291
21
-7.45247
0
LINE
8
BLACK
6
CONTINUOUS
10
6.36291
20
-7.45247
11
6.36291
21
-7.44685
0
LINE
8
BLACK
6
CONTINUOUS
10
6.36291
20
-7.44685
11
6.3601
21
-7.44123
0
LINE
8
BLACK
6
CONTINUOUS
10
6.3601
20
-7.44123
11
6.35728
21
-7.43841
0
LINE
8
BLACK
6
CONTINUOUS
10
6.35728
20
-7.43841
11
6.35166
21
-7.4356
0
LINE
8
BLACK
6
CONTINUOUS
10
6.35166
20
-7.4356
11
6.34041
21
-7.43279
0
LINE
8
BLACK
6
CONTINUOUS
10
6.34041
20
-7.43279
11
6.33479
21
-7.42998
0
LINE
8
BLACK
6
CONTINUOUS
10
6.33479
20
-7.42998
11
6.33197
21
-7.42717
0
LINE
8
BLACK
6
CONTINUOUS
10
6.33197
20
-7.42717
11
6.32916
21
-7.42154
0
LINE
8
BLACK
6
CONTINUOUS
10
6.32916
20
-7.42154
11
6.32916
21
-7.41592
0
LINE
8
BLACK
6
CONTINUOUS
10
6.32916
20
-7.41592
11
6.33197
21
-7.41029
0
LINE
8
BLACK
6
CONTINUOUS
10
6.33197
20
-7.41029
11
6.33479
21
-7.40748
0
LINE
8
BLACK
6
CONTINUOUS
10
6.33479
20
-7.40748
11
6.34041
21
-7.40467
0
LINE
8
BLACK
6
CONTINUOUS
10
6.34041
20
-7.40467
11
6.35447
21
-7.40467
0
LINE
8
BLACK
6
CONTINUOUS
10
6.35447
20
-7.40467
11
6.36291
21
-7.40748
0
LINE
8
BLACK
6
CONTINUOUS
10
6.38822
20
-7.46372
11
6.38822
21
-7.40467
0
LINE
8
BLACK
6
CONTINUOUS
10
6.41353
20
-7.46372
11
6.41353
21
-7.43279
0
LINE
8
BLACK
6
CONTINUOUS
10
6.41353
20
-7.43279
11
6.41071
21
-7.42717
0
LINE
8
BLACK
6
CONTINUOUS
10
6.41071
20
-7.42717
11
6.40509
21
-7.42435
0
LINE
8
BLACK
6
CONTINUOUS
10
6.40509
20
-7.42435
11
6.39665
21
-7.42435
0
LINE
8
BLACK
6
CONTINUOUS
10
6.39665
20
-7.42435
11
6.39103
21
-7.42717
0
LINE
8
BLACK
6
CONTINUOUS
10
6.39103
20
-7.42717
11
6.38822
21
-7.42998
0
LINE
8
BLACK
6
CONTINUOUS
10
6.46415
20
-7.46091
11
6.45852
21
-7.46372
0
LINE
8
BLACK
6
CONTINUOUS
10
6.45852
20
-7.46372
11
6.44727
21
-7.46372
0
LINE
8
BLACK
6
CONTINUOUS
10
6.44727
20
-7.46372
11
6.44165
21
-7.46091
0
LINE
8
BLACK
6
CONTINUOUS
10
6.44165
20
-7.46091
11
6.43884
21
-7.45529
0
LINE
8
BLACK
6
CONTINUOUS
10
6.43884
20
-7.45529
11
6.43884
21
-7.43279
0
LINE
8
BLACK
6
CONTINUOUS
10
6.43884
20
-7.43279
11
6.44165
21
-7.42717
0
LINE
8
BLACK
6
CONTINUOUS
10
6.44165
20
-7.42717
11
6.44727
21
-7.42435
0
LINE
8
BLACK
6
CONTINUOUS
10
6.44727
20
-7.42435
11
6.45852
21
-7.42435
0
LINE
8
BLACK
6
CONTINUOUS
10
6.45852
20
-7.42435
11
6.46415
21
-7.42717
0
LINE
8
BLACK
6
CONTINUOUS
10
6.46415
20
-7.42717
11
6.46696
21
-7.43279
0
LINE
8
BLACK
6
CONTINUOUS
10
6.46696
20
-7.43279
11
6.46696
21
-7.43841
0
LINE
8
BLACK
6
CONTINUOUS
10
6.46696
20
-7.43841
11
6.43884
21
-7.44404
0
LINE
8
BLACK
6
CONTINUOUS
10
6.51476
20
-7.46091
11
6.50914
21
-7.46372
0
LINE
8
BLACK
6
CONTINUOUS
10
6.50914
20
-7.46372
11
6.49789
21
-7.46372
0
LINE
8
BLACK
6
CONTINUOUS
10
6.49789
20
-7.46372
11
6.49227
21
-7.46091
0
LINE
8
BLACK
6
CONTINUOUS
10
6.49227
20
-7.46091
11
6.48945
21
-7.45529
0
LINE
8
BLACK
6
CONTINUOUS
10
6.48945
20
-7.45529
11
6.48945
21
-7.43279
0
LINE
8
BLACK
6
CONTINUOUS
10
6.48945
20
-7.43279
11
6.49227
21
-7.42717
0
LINE
8
BLACK
6
CONTINUOUS
10
6.49227
20
-7.42717
11
6.49789
21
-7.42435
0
LINE
8
BLACK
6
CONTINUOUS
10
6.49789
20
-7.42435
11
6.50914
21
-7.42435
0
LINE
8
BLACK
6
CONTINUOUS
10
6.50914
20
-7.42435
11
6.51476
21
-7.42717
0
LINE
8
BLACK
6
CONTINUOUS
10
6.51476
20
-7.42717
11
6.51758
21
-7.43279
0
LINE
8
BLACK
6
CONTINUOUS
10
6.51758
20
-7.43279
11
6.51758
21
-7.43841
0
LINE
8
BLACK
6
CONTINUOUS
10
6.51758
20
-7.43841
11
6.48945
21
-7.44404
0
LINE
8
BLACK
6
CONTINUOUS
10
6.53445
20
-7.42435
11
6.55695
21
-7.42435
0
LINE
8
BLACK
6
CONTINUOUS
10
6.54289
20
-7.40467
11
6.54289
21
-7.45529
0
LINE
8
BLACK
6
CONTINUOUS
10
6.54289
20
-7.45529
11
6.5457
21
-7.46091
0
LINE
8
BLACK
6
CONTINUOUS
10
6.5457
20
-7.46091
11
6.55132
21
-7.46372
0
LINE
8
BLACK
6
CONTINUOUS
10
6.55132
20
-7.46372
11
6.55695
21
-7.46372
0
LINE
8
BLACK
6
CONTINUOUS
10
6.57663
20
-7.4581
11
6.57944
21
-7.46091
0
LINE
8
BLACK
6
CONTINUOUS
10
6.57944
20
-7.46091
11
6.57663
21
-7.46372
0
LINE
8
BLACK
6
CONTINUOUS
10
6.57663
20
-7.46372
11
6.57382
21
-7.46091
0
LINE
8
BLACK
6
CONTINUOUS
10
6.57382
20
-7.46091
11
6.57663
21
-7.4581
0
LINE
8
BLACK
6
CONTINUOUS
10
6.57663
20
-7.4581
11
6.57663
21
-7.46372
0
LINE
8
BLACK
6
CONTINUOUS
10
6.57663
20
-7.42717
11
6.57944
21
-7.42998
0
LINE
8
BLACK
6
CONTINUOUS
10
6.57944
20
-7.42998
11
6.57663
21
-7.43279
0
LINE
8
BLACK
6
CONTINUOUS
10
6.57663
20
-7.43279
11
6.57382
21
-7.42998
0
LINE
8
BLACK
6
CONTINUOUS
10
6.57382
20
-7.42998
11
6.57663
21
-7.42717
0
LINE
8
BLACK
6
CONTINUOUS
10
6.57663
20
-7.42717
11
6.57663
21
-7.43279
0
LINE
8
BLACK
6
CONTINUOUS
10
7.06299
20
-7.77165
11
7.06299
21
-7.88976
0
LINE
8
BLACK
6
CONTINUOUS
10
9.58268
20
-7.77165
11
9.58268
21
-8.02756
0
LINE
8
BLACK
6
CONTINUOUS
10
4.13386
20
-1.96751
11
4.13391
21
-1.96752
0
LINE
8
BLACK
6
CONTINUOUS
10
4.13391
20
-1.96752
11
4.13391
21
-1.96752
0
LINE
8
BLACK
6
CONTINUOUS
10
4.13391
20
-1.96752
11
4.13405
21
-1.96753
0
LINE
8
BLACK
6
CONTINUOUS
10
4.13405
20
-1.96753
11
4.13424
21
-1.96759
0
LINE
8
BLACK
6
CONTINUOUS
10
4.13424
20
-1.96759
11
4.13441
21
-1.96768
0
LINE
8
BLACK
6
CONTINUOUS
10
4.13441
20
-1.96768
11
4.13456
21
-1.9678
0
LINE
8
BLACK
6
CONTINUOUS
10
4.13456
20
-1.9678
11
4.13468
21
-1.96795
0
LINE
8
BLACK
6
CONTINUOUS
10
4.13468
20
-1.96795
11
4.13477
21
-1.96813
0
LINE
8
BLACK
6
CONTINUOUS
10
4.13477
20
-1.96813
11
4.13483
21
-1.96831
0
LINE
8
BLACK
6
CONTINUOUS
10
4.13483
20
-1.96831
11
4.13485
21
-1.9685
0
LINE
8
BLACK
6
CONTINUOUS
10
4.13485
20
-1.9685
11
4.13484
21
-1.96855
0
LINE
8
BLACK
6
CONTINUOUS
10
4.13484
20
-1.96855
11
4.13484
21
-5.39365
0
LINE
8
BLACK
6
CONTINUOUS
10
4.13484
20
-5.39365
11
4.13485
21
-5.3937
0
LINE
8
BLACK
6
CONTINUOUS
10
4.13485
20
-5.3937
11
4.13484
21
-5.39375
0
LINE
8
BLACK
6
CONTINUOUS
10
4.13484
20
-5.39375
11
4.13484
21
-5.39375
0
LINE
8
BLACK
6
CONTINUOUS
10
4.13484
20
-5.39375
11
4.13483
21
-5.39389
0
LINE
8
BLACK
6
CONTINUOUS
10
4.13483
20
-5.39389
11
4.13477
21
-5.39408
0
LINE
8
BLACK
6
CONTINUOUS
10
4.13477
20
-5.39408
11
4.13468
21
-5.39425
0
LINE
8
BLACK
6
CONTINUOUS
10
4.13468
20
-5.39425
11
4.13456
21
-5.3944
0
LINE
8
BLACK
6
CONTINUOUS
10
4.13456
20
-5.3944
11
4.13441
21
-5.39452
0
LINE
8
BLACK
6
CONTINUOUS
10
4.13441
20
-5.39452
11
4.13424
21
-5.39461
0
LINE
8
BLACK
6
CONTINUOUS
10
4.13424
20
-5.39461
11
4.13405
21
-5.39467
0
LINE
8
BLACK
6
CONTINUOUS
10
4.13405
20
-5.39467
11
4.13386
21
-5.39469
0
LINE
8
BLACK
6
CONTINUOUS
10
4.13386
20
-5.39469
11
4.13381
21
-5.39469
0
LINE
8
BLACK
6
CONTINUOUS
10
4.13381
20
-5.39469
11
1.96855
21
-5.39469
0
LINE
8
BLACK
6
CONTINUOUS
10
1.96855
20
-5.39469
11
1.9685
21
-5.39469
0
LINE
8
BLACK
6
CONTINUOUS
10
1.9685
20
-5.39469
11
1.96831
21
-5.39467
0
LINE
8
BLACK
6
CONTINUOUS
10
1.96831
20
-5.39467
11
1.96813
21
-5.39461
0
LINE
8
BLACK
6
CONTINUOUS
10
1.96813
20
-5.39461
11
1.96795
21
-5.39452
0
LINE
8
BLACK
6
CONTINUOUS
10
1.96795
20
-5.39452
11
1.9678
21
-5.3944
0
LINE
8
BLACK
6
CONTINUOUS
10
1.9678
20
-5.3944
11
1.96768
21
-5.39425
0
LINE
8
BLACK
6
CONTINUOUS
10
1.96768
20
-5.39425
11
1.96759
21
-5.39408
0
LINE
8
BLACK
6
CONTINUOUS
10
1.96759
20
-5.39408
11
1.96753
21
-5.39389
0
LINE
8
BLACK
6
CONTINUOUS
10
1.96753
20
-5.39389
11
1.96751
21
-5.3937
0
LINE
8
BLACK
6
CONTINUOUS
10
1.96751
20
-5.3937
11
1.96752
21
-5.39365
0
LINE
8
BLACK
6
CONTINUOUS
10
1.96752
20
-5.39365
11
1.96752
21
-1.96855
0
LINE
8
BLACK
6
CONTINUOUS
10
1.96752
20
-1.96855
11
1.96751
21
-1.9685
0
LINE
8
BLACK
6
CONTINUOUS
10
1.96751
20
-1.9685
11
1.96753
21
-1.96831
0
LINE
8
BLACK
6
CONTINUOUS
10
1.96753
20
-1.96831
11
1.96759
21
-1.96813
0
LINE
8
BLACK
6
CONTINUOUS
10
1.96759
20
-1.96813
11
1.96768
21
-1.96795
0
LINE
8
BLACK
6
CONTINUOUS
10
1.96768
20
-1.96795
11
1.9678
21
-1.9678
0
LINE
8
BLACK
6
CONTINUOUS
10
1.9678
20
-1.9678
11
1.96795
21
-1.96768
0
LINE
8
BLACK
6
CONTINUOUS
10
1.96795
20
-1.96768
11
1.96813
21
-1.96759
0
LINE
8
BLACK
6
CONTINUOUS
10
1.96813
20
-1.96759
11
1.96831
21
-1.96753
0
LINE
8
BLACK
6
CONTINUOUS
10
1.96831
20
-1.96753
11
1.96846
21
-1.96752
0
LINE
8
BLACK
6
CONTINUOUS
10
1.96846
20
-1.96752
11
1.96846
21
-1.96752
0
LINE
8
BLACK
6
CONTINUOUS
10
1.96846
20
-1.96752
11
1.9685
21
-1.96751
0
LINE
8
BLACK
6
CONTINUOUS
10
1.9685
20
-1.96751
11
1.96855
21
-1.96752
0
LINE
8
BLACK
6
CONTINUOUS
10
1.96855
20
-1.96752
11
4.13381
21
-1.96752
0
LINE
8
BLACK
6
CONTINUOUS
10
4.13381
20
-1.96752
11
4.13386
21
-1.96751
0
LINE
8
BLACK
6
CONTINUOUS
10
1.96949
20
-5.39272
11
4.13287
21
-5.39272
0
LINE
8
BLACK
6
CONTINUOUS
10
4.13287
20
-5.39272
11
4.13287
21
-1.96949
0
LINE
8
BLACK
6
CONTINUOUS
10
4.13287
20
-1.96949
11
1.96949
21
-1.96949
0
LINE
8
BLACK
6
CONTINUOUS
10
1.96949
20
-1.96949
11
1.96949
21
-5.39272
0
LINE
8
BLACK
6
CONTINUOUS
10
3.93706
20
-5.24508
11
3.9372
21
-5.24509
0
LINE
8
BLACK
6
CONTINUOUS
10
3.9372
20
-5.24509
11
3.93739
21
-5.24515
0
LINE
8
BLACK
6
CONTINUOUS
10
3.93739
20
-5.24515
11
3.93756
21
-5.24524
0
LINE
8
BLACK
6
CONTINUOUS
10
3.93756
20
-5.24524
11
3.93771
21
-5.24536
0
LINE
8
BLACK
6
CONTINUOUS
10
3.93771
20
-5.24536
11
3.93783
21
-5.24551
0
LINE
8
BLACK
6
CONTINUOUS
10
3.93783
20
-5.24551
11
3.93792
21
-5.24568
0
LINE
8
BLACK
6
CONTINUOUS
10
3.93792
20
-5.24568
11
3.93798
21
-5.24587
0
LINE
8
BLACK
6
CONTINUOUS
10
3.93798
20
-5.24587
11
3.938
21
-5.24606
0
LINE
8
BLACK
6
CONTINUOUS
10
3.938
20
-5.24606
11
3.93799
21
-5.24611
0
LINE
8
BLACK
6
CONTINUOUS
10
3.93799
20
-5.24611
11
3.93799
21
-5.31491
0
LINE
8
BLACK
6
CONTINUOUS
10
3.93799
20
-5.31491
11
3.938
21
-5.31496
0
LINE
8
BLACK
6
CONTINUOUS
10
3.938
20
-5.31496
11
3.93798
21
-5.31515
0
LINE
8
BLACK
6
CONTINUOUS
10
3.93798
20
-5.31515
11
3.93792
21
-5.31534
0
LINE
8
BLACK
6
CONTINUOUS
10
3.93792
20
-5.31534
11
3.93783
21
-5.31551
0
LINE
8
BLACK
6
CONTINUOUS
10
3.93783
20
-5.31551
11
3.93771
21
-5.31566
0
LINE
8
BLACK
6
CONTINUOUS
10
3.93771
20
-5.31566
11
3.93756
21
-5.31578
0
LINE
8
BLACK
6
CONTINUOUS
10
3.93756
20
-5.31578
11
3.93739
21
-5.31587
0
LINE
8
BLACK
6
CONTINUOUS
10
3.93739
20
-5.31587
11
3.9372
21
-5.31593
0
LINE
8
BLACK
6
CONTINUOUS
10
3.9372
20
-5.31593
11
3.93706
21
-5.31594
0
LINE
8
BLACK
6
CONTINUOUS
10
3.93706
20
-5.31594
11
3.93706
21
-5.31594
0
LINE
8
BLACK
6
CONTINUOUS
10
3.93706
20
-5.31594
11
3.93701
21
-5.31595
0
LINE
8
BLACK
6
CONTINUOUS
10
3.93701
20
-5.31595
11
3.93696
21
-5.31594
0
LINE
8
BLACK
6
CONTINUOUS
10
3.93696
20
-5.31594
11
3.3465
21
-5.31594
0
LINE
8
BLACK
6
CONTINUOUS
10
3.3465
20
-5.31594
11
3.34646
21
-5.31595
0
LINE
8
BLACK
6
CONTINUOUS
10
3.34646
20
-5.31595
11
3.34641
21
-5.31594
0
LINE
8
BLACK
6
CONTINUOUS
10
3.34641
20
-5.31594
11
3.34641
21
-5.31594
0
LINE
8
BLACK
6
CONTINUOUS
10
3.34641
20
-5.31594
11
3.34626
21
-5.31593
0
LINE
8
BLACK
6
CONTINUOUS
10
3.34626
20
-5.31593
11
3.34608
21
-5.31587
0
LINE
8
BLACK
6
CONTINUOUS
10
3.34608
20
-5.31587
11
3.34591
21
-5.31578
0
LINE
8
BLACK
6
CONTINUOUS
10
3.34591
20
-5.31578
11
3.34576
21
-5.31566
0
LINE
8
BLACK
6
CONTINUOUS
10
3.34576
20
-5.31566
11
3.34563
21
-5.31551
0
LINE
8
BLACK
6
CONTINUOUS
10
3.34563
20
-5.31551
11
3.34554
21
-5.31534
0
LINE
8
BLACK
6
CONTINUOUS
10
3.34554
20
-5.31534
11
3.34549
21
-5.31515
0
LINE
8
BLACK
6
CONTINUOUS
10
3.34549
20
-5.31515
11
3.34547
21
-5.31496
0
LINE
8
BLACK
6
CONTINUOUS
10
3.34547
20
-5.31496
11
3.34547
21
-5.31491
0
LINE
8
BLACK
6
CONTINUOUS
10
3.34547
20
-5.31491
11
3.34547
21
-5.24611
0
LINE
8
BLACK
6
CONTINUOUS
10
3.34547
20
-5.24611
11
3.34547
21
-5.24606
0
LINE
8
BLACK
6
CONTINUOUS
10
3.34547
20
-5.24606
11
3.34549
21
-5.24587
0
LINE
8
BLACK
6
CONTINUOUS
10
3.34549
20
-5.24587
11
3.34554
21
-5.24568
0
LINE
8
BLACK
6
CONTINUOUS
10
3.34554
20
-5.24568
11
3.34563
21
-5.24551
0
LINE
8
BLACK
6
CONTINUOUS
10
3.34563
20
-5.24551
11
3.34576
21
-5.24536
0
LINE
8
BLACK
6
CONTINUOUS
10
3.34576
20
-5.24536
11
3.34591
21
-5.24524
0
LINE
8
BLACK
6
CONTINUOUS
10
3.34591
20
-5.24524
11
3.34608
21
-5.24515
0
LINE
8
BLACK
6
CONTINUOUS
10
3.34608
20
-5.24515
11
3.34626
21
-5.24509
0
LINE
8
BLACK
6
CONTINUOUS
10
3.34626
20
-5.24509
11
3.34641
21
-5.24508
0
LINE
8
BLACK
6
CONTINUOUS
10
3.34641
20
-5.24508
11
3.34646
21
-5.24507
0
LINE
8
BLACK
6
CONTINUOUS
10
3.34646
20
-5.24507
11
3.3465
21
-5.24508
0
LINE
8
BLACK
6
CONTINUOUS
10
3.3465
20
-5.24508
11
3.93696
21
-5.24508
0
LINE
8
BLACK
6
CONTINUOUS
10
3.93696
20
-5.24508
11
3.93701
21
-5.24507
0
LINE
8
BLACK
6
CONTINUOUS
10
3.93701
20
-5.24507
11
3.93706
21
-5.24508
0
LINE
8
BLACK
6
CONTINUOUS
10
3.34744
20
-5.24705
11
3.34744
21
-5.31398
0
LINE
8
BLACK
6
CONTINUOUS
10
3.34744
20
-5.31398
11
3.93602
21
-5.31398
0
LINE
8
BLACK
6
CONTINUOUS
10
3.93602
20
-5.31398
11
3.93602
21
-5.24705
0
LINE
8
BLACK
6
CONTINUOUS
10
3.93602
20
-5.24705
11
3.34744
21
-5.24705
0
LINE
8
BLACK
6
CONTINUOUS
10
2.75595
20
-5.24508
11
2.7561
21
-5.24509
0
LINE
8
BLACK
6
CONTINUOUS
10
2.7561
20
-5.24509
11
2.75628
21
-5.24515
0
LINE
8
BLACK
6
CONTINUOUS
10
2.75628
20
-5.24515
11
2.75645
21
-5.24524
0
LINE
8
BLACK
6
CONTINUOUS
10
2.75645
20
-5.24524
11
2.7566
21
-5.24536
0
LINE
8
BLACK
6
CONTINUOUS
10
2.7566
20
-5.24536
11
2.75673
21
-5.24551
0
LINE
8
BLACK
6
CONTINUOUS
10
2.75673
20
-5.24551
11
2.75682
21
-5.24568
0
LINE
8
BLACK
6
CONTINUOUS
10
2.75682
20
-5.24568
11
2.75688
21
-5.24587
0
LINE
8
BLACK
6
CONTINUOUS
10
2.75688
20
-5.24587
11
2.75689
21
-5.24606
0
LINE
8
BLACK
6
CONTINUOUS
10
2.75689
20
-5.24606
11
2.75689
21
-5.24611
0
LINE
8
BLACK
6
CONTINUOUS
10
2.75689
20
-5.24611
11
2.75689
21
-5.31491
0
LINE
8
BLACK
6
CONTINUOUS
10
2.75689
20
-5.31491
11
2.75689
21
-5.31496
0
LINE
8
BLACK
6
CONTINUOUS
10
2.75689
20
-5.31496
11
2.75688
21
-5.31515
0
LINE
8
BLACK
6
CONTINUOUS
10
2.75688
20
-5.31515
11
2.75682
21
-5.31534
0
LINE
8
BLACK
6
CONTINUOUS
10
2.75682
20
-5.31534
11
2.75673
21
-5.31551
0
LINE
8
BLACK
6
CONTINUOUS
10
2.75673
20
-5.31551
11
2.7566
21
-5.31566
0
LINE
8
BLACK
6
CONTINUOUS
10
2.7566
20
-5.31566
11
2.75645
21
-5.31578
0
LINE
8
BLACK
6
CONTINUOUS
10
2.75645
20
-5.31578
11
2.75628
21
-5.31587
0
LINE
8
BLACK
6
CONTINUOUS
10
2.75628
20
-5.31587
11
2.7561
21
-5.31593
0
LINE
8
BLACK
6
CONTINUOUS
10
2.7561
20
-5.31593
11
2.75595
21
-5.31594
0
LINE
8
BLACK
6
CONTINUOUS
10
2.75595
20
-5.31594
11
2.75595
21
-5.31594
0
LINE
8
BLACK
6
CONTINUOUS
10
2.75595
20
-5.31594
11
2.75591
21
-5.31595
0
LINE
8
BLACK
6
CONTINUOUS
10
2.75591
20
-5.31595
11
2.75586
21
-5.31594
0
LINE
8
BLACK
6
CONTINUOUS
10
2.75586
20
-5.31594
11
2.1654
21
-5.31594
0
LINE
8
BLACK
6
CONTINUOUS
10
2.1654
20
-5.31594
11
2.16535
21
-5.31595
0
LINE
8
BLACK
6
CONTINUOUS
10
2.16535
20
-5.31595
11
2.16531
21
-5.31594
0
LINE
8
BLACK
6
CONTINUOUS
10
2.16531
20
-5.31594
11
2.16531
21
-5.31594
0
LINE
8
BLACK
6
CONTINUOUS
10
2.16531
20
-5.31594
11
2.16516
21
-5.31593
0
LINE
8
BLACK
6
CONTINUOUS
10
2.16516
20
-5.31593
11
2.16498
21
-5.31587
0
LINE
8
BLACK
6
CONTINUOUS
10
2.16498
20
-5.31587
11
2.1648
21
-5.31578
0
LINE
8
BLACK
6
CONTINUOUS
10
2.1648
20
-5.31578
11
2.16465
21
-5.31566
0
LINE
8
BLACK
6
CONTINUOUS
10
2.16465
20
-5.31566
11
2.16453
21
-5.31551
0
LINE
8
BLACK
6
CONTINUOUS
10
2.16453
20
-5.31551
11
2.16444
21
-5.31534
0
LINE
8
BLACK
6
CONTINUOUS
10
2.16444
20
-5.31534
11
2.16438
21
-5.31515
0
LINE
8
BLACK
6
CONTINUOUS
10
2.16438
20
-5.31515
11
2.16437
21
-5.31496
0
LINE
8
BLACK
6
CONTINUOUS
10
2.16437
20
-5.31496
11
2.16437
21
-5.31491
0
LINE
8
BLACK
6
CONTINUOUS
10
2.16437
20
-5.31491
11
2.16437
21
-5.24611
0
LINE
8
BLACK
6
CONTINUOUS
10
2.16437
20
-5.24611
11
2.16437
21
-5.24606
0
LINE
8
BLACK
6
CONTINUOUS
10
2.16437
20
-5.24606
11
2.16438
21
-5.24587
0
LINE
8
BLACK
6
CONTINUOUS
10
2.16438
20
-5.24587
11
2.16444
21
-5.24568
0
LINE
8
BLACK
6
CONTINUOUS
10
2.16444
20
-5.24568
11
2.16453
21
-5.24551
0
LINE
8
BLACK
6
CONTINUOUS
10
2.16453
20
-5.24551
11
2.16465
21
-5.24536
0
LINE
8
BLACK
6
CONTINUOUS
10
2.16465
20
-5.24536
11
2.1648
21
-5.24524
0
LINE
8
BLACK
6
CONTINUOUS
10
2.1648
20
-5.24524
11
2.16498
21
-5.24515
0
LINE
8
BLACK
6
CONTINUOUS
10
2.16498
20
-5.24515
11
2.16516
21
-5.24509
0
LINE
8
BLACK
6
CONTINUOUS
10
2.16516
20
-5.24509
11
2.16531
21
-5.24508
0
LINE
8
BLACK
6
CONTINUOUS
10
2.16531
20
-5.24508
11
2.16535
21
-5.24507
0
LINE
8
BLACK
6
CONTINUOUS
10
2.16535
20
-5.24507
11
2.1654
21
-5.24508
0
LINE
8
BLACK
6
CONTINUOUS
10
2.1654
20
-5.24508
11
2.75586
21
-5.24508
0
LINE
8
BLACK
6
CONTINUOUS
10
2.75586
20
-5.24508
11
2.75591
21
-5.24507
0
LINE
8
BLACK
6
CONTINUOUS
10
2.75591
20
-5.24507
11
2.75595
21
-5.24508
0
LINE
8
BLACK
6
CONTINUOUS
10
2.16634
20
-5.24705
11
2.16634
21
-5.31398
0
LINE
8
BLACK
6
CONTINUOUS
10
2.16634
20
-5.31398
11
2.75492
21
-5.31398
0
LINE
8
BLACK
6
CONTINUOUS
10
2.75492
20
-5.31398
11
2.75492
21
-5.24705
0
LINE
8
BLACK
6
CONTINUOUS
10
2.75492
20
-5.24705
11
2.16634
21
-5.24705
0
LINE
8
BLACK
6
CONTINUOUS
10
3.93706
20
-2.2628
11
3.9372
21
-2.26281
0
LINE
8
BLACK
6
CONTINUOUS
10
3.9372
20
-2.26281
11
3.93739
21
-2.26287
0
LINE
8
BLACK
6
CONTINUOUS
10
3.93739
20
-2.26287
11
3.93756
21
-2.26296
0
LINE
8
BLACK
6
CONTINUOUS
10
3.93756
20
-2.26296
11
3.93771
21
-2.26308
0
LINE
8
BLACK
6
CONTINUOUS
10
3.93771
20
-2.26308
11
3.93783
21
-2.26323
0
LINE
8
BLACK
6
CONTINUOUS
10
3.93783
20
-2.26323
11
3.93792
21
-2.2634
0
LINE
8
BLACK
6
CONTINUOUS
10
3.93792
20
-2.2634
11
3.93798
21
-2.26359
0
LINE
8
BLACK
6
CONTINUOUS
10
3.93798
20
-2.26359
11
3.938
21
-2.26378
0
LINE
8
BLACK
6
CONTINUOUS
10
3.938
20
-2.26378
11
3.93799
21
-2.26383
0
LINE
8
BLACK
6
CONTINUOUS
10
3.93799
20
-2.26383
11
3.93799
21
-2.33263
0
LINE
8
BLACK
6
CONTINUOUS
10
3.93799
20
-2.33263
11
3.938
21
-2.33268
0
LINE
8
BLACK
6
CONTINUOUS
10
3.938
20
-2.33268
11
3.93798
21
-2.33287
0
LINE
8
BLACK
6
CONTINUOUS
10
3.93798
20
-2.33287
11
3.93792
21
-2.33306
0
LINE
8
BLACK
6
CONTINUOUS
10
3.93792
20
-2.33306
11
3.93783
21
-2.33323
0
LINE
8
BLACK
6
CONTINUOUS
10
3.93783
20
-2.33323
11
3.93771
21
-2.33338
0
LINE
8
BLACK
6
CONTINUOUS
10
3.93771
20
-2.33338
11
3.93756
21
-2.3335
0
LINE
8
BLACK
6
CONTINUOUS
10
3.93756
20
-2.3335
11
3.93739
21
-2.33359
0
LINE
8
BLACK
6
CONTINUOUS
10
3.93739
20
-2.33359
11
3.9372
21
-2.33365
0
LINE
8
BLACK
6
CONTINUOUS
10
3.9372
20
-2.33365
11
3.93706
21
-2.33366
0
LINE
8
BLACK
6
CONTINUOUS
10
3.93706
20
-2.33366
11
3.93706
21
-2.33366
0
LINE
8
BLACK
6
CONTINUOUS
10
3.93706
20
-2.33366
11
3.93701
21
-2.33367
0
LINE
8
BLACK
6
CONTINUOUS
10
3.93701
20
-2.33367
11
3.93696
21
-2.33366
0
LINE
8
BLACK
6
CONTINUOUS
10
3.93696
20
-2.33366
11
3.3465
21
-2.33366
0
LINE
8
BLACK
6
CONTINUOUS
10
3.3465
20
-2.33366
11
3.34646
21
-2.33367
0
LINE
8
BLACK
6
CONTINUOUS
10
3.34646
20
-2.33367
11
3.34641
21
-2.33366
0
LINE
8
BLACK
6
CONTINUOUS
10
3.34641
20
-2.33366
11
3.34641
21
-2.33366
0
LINE
8
BLACK
6
CONTINUOUS
10
3.34641
20
-2.33366
11
3.34626
21
-2.33365
0
LINE
8
BLACK
6
CONTINUOUS
10
3.34626
20
-2.33365
11
3.34608
21
-2.33359
0
LINE
8
BLACK
6
CONTINUOUS
10
3.34608
20
-2.33359
11
3.34591
21
-2.3335
0
LINE
8
BLACK
6
CONTINUOUS
10
3.34591
20
-2.3335
11
3.34576
21
-2.33338
0
LINE
8
BLACK
6
CONTINUOUS
10
3.34576
20
-2.33338
11
3.34563
21
-2.33323
0
LINE
8
BLACK
6
CONTINUOUS
10
3.34563
20
-2.33323
11
3.34554
21
-2.33306
0
LINE
8
BLACK
6
CONTINUOUS
10
3.34554
20
-2.33306
11
3.34549
21
-2.33287
0
LINE
8
BLACK
6
CONTINUOUS
10
3.34549
20
-2.33287
11
3.34547
21
-2.33268
0
LINE
8
BLACK
6
CONTINUOUS
10
3.34547
20
-2.33268
11
3.34547
21
-2.33263
0
LINE
8
BLACK
6
CONTINUOUS
10
3.34547
20
-2.33263
11
3.34547
21
-2.26383
0
LINE
8
BLACK
6
CONTINUOUS
10
3.34547
20
-2.26383
11
3.34547
21
-2.26378
0
LINE
8
BLACK
6
CONTINUOUS
10
3.34547
20
-2.26378
11
3.34549
21
-2.26359
0
LINE
8
BLACK
6
CONTINUOUS
10
3.34549
20
-2.26359
11
3.34554
21
-2.2634
0
LINE
8
BLACK
6
CONTINUOUS
10
3.34554
20
-2.2634
11
3.34563
21
-2.26323
0
LINE
8
BLACK
6
CONTINUOUS
10
3.34563
20
-2.26323
11
3.34576
21
-2.26308
0
LINE
8
BLACK
6
CONTINUOUS
10
3.34576
20
-2.26308
11
3.34591
21
-2.26296
0
LINE
8
BLACK
6
CONTINUOUS
10
3.34591
20
-2.26296
11
3.34608
21
-2.26287
0
LINE
8
BLACK
6
CONTINUOUS
10
3.34608
20
-2.26287
11
3.34626
21
-2.26281
0
LINE
8
BLACK
6
CONTINUOUS
10
3.34626
20
-2.26281
11
3.34641
21
-2.2628
0
LINE
8
BLACK
6
CONTINUOUS
10
3.34641
20
-2.2628
11
3.34646
21
-2.26279
0
LINE
8
BLACK
6
CONTINUOUS
10
3.34646
20
-2.26279
11
3.3465
21
-2.2628
0
LINE
8
BLACK
6
CONTINUOUS
10
3.3465
20
-2.2628
11
3.93696
21
-2.2628
0
LINE
8
BLACK
6
CONTINUOUS
10
3.93696
20
-2.2628
11
3.93701
21
-2.26279
0
LINE
8
BLACK
6
CONTINUOUS
10
3.93701
20
-2.26279
11
3.93706
21
-2.2628
0
LINE
8
BLACK
6
CONTINUOUS
10
3.34744
20
-2.26476
11
3.34744
21
-2.33169
0
LINE
8
BLACK
6
CONTINUOUS
10
3.34744
20
-2.33169
11
3.93602
21
-2.33169
0
LINE
8
BLACK
6
CONTINUOUS
10
3.93602
20
-2.33169
11
3.93602
21
-2.26476
0
LINE
8
BLACK
6
CONTINUOUS
10
3.93602
20
-2.26476
11
3.34744
21
-2.26476
0
LINE
8
BLACK
6
CONTINUOUS
10
2.75595
20
-2.2628
11
2.7561
21
-2.26281
0
LINE
8
BLACK
6
CONTINUOUS
10
2.7561
20
-2.26281
11
2.75628
21
-2.26287
0
LINE
8
BLACK
6
CONTINUOUS
10
2.75628
20
-2.26287
11
2.75645
21
-2.26296
0
LINE
8
BLACK
6
CONTINUOUS
10
2.75645
20
-2.26296
11
2.7566
21
-2.26308
0
LINE
8
BLACK
6
CONTINUOUS
10
2.7566
20
-2.26308
11
2.75673
21
-2.26323
0
LINE
8
BLACK
6
CONTINUOUS
10
2.75673
20
-2.26323
11
2.75682
21
-2.2634
0
LINE
8
BLACK
6
CONTINUOUS
10
2.75682
20
-2.2634
11
2.75688
21
-2.26359
0
LINE
8
BLACK
6
CONTINUOUS
10
2.75688
20
-2.26359
11
2.75689
21
-2.26378
0
LINE
8
BLACK
6
CONTINUOUS
10
2.75689
20
-2.26378
11
2.75689
21
-2.26383
0
LINE
8
BLACK
6
CONTINUOUS
10
2.75689
20
-2.26383
11
2.75689
21
-2.33263
0
LINE
8
BLACK
6
CONTINUOUS
10
2.75689
20
-2.33263
11
2.75689
21
-2.33268
0
LINE
8
BLACK
6
CONTINUOUS
10
2.75689
20
-2.33268
11
2.75688
21
-2.33287
0
LINE
8
BLACK
6
CONTINUOUS
10
2.75688
20
-2.33287
11
2.75682
21
-2.33306
0
LINE
8
BLACK
6
CONTINUOUS
10
2.75682
20
-2.33306
11
2.75673
21
-2.33323
0
LINE
8
BLACK
6
CONTINUOUS
10
2.75673
20
-2.33323
11
2.7566
21
-2.33338
0
LINE
8
BLACK
6
CONTINUOUS
10
2.7566
20
-2.33338
11
2.75645
21
-2.3335
0
LINE
8
BLACK
6
CONTINUOUS
10
2.75645
20
-2.3335
11
2.75628
21
-2.33359
0
LINE
8
BLACK
6
CONTINUOUS
10
2.75628
20
-2.33359
11
2.7561
21
-2.33365
0
LINE
8
BLACK
6
CONTINUOUS
10
2.7561
20
-2.33365
11
2.75595
21
-2.33366
0
LINE
8
BLACK
6
CONTINUOUS
10
2.75595
20
-2.33366
11
2.75595
21
-2.33366
0
LINE
8
BLACK
6
CONTINUOUS
10
2.75595
20
-2.33366
11
2.75591
21
-2.33367
0
LINE
8
BLACK
6
CONTINUOUS
10
2.75591
20
-2.33367
11
2.75586
21
-2.33366
0
LINE
8
BLACK
6
CONTINUOUS
10
2.75586
20
-2.33366
11
2.1654
21
-2.33366
0
LINE
8
BLACK
6
CONTINUOUS
10
2.1654
20
-2.33366
11
2.16535
21
-2.33367
0
LINE
8
BLACK
6
CONTINUOUS
10
2.16535
20
-2.33367
11
2.16531
21
-2.33366
0
LINE
8
BLACK
6
CONTINUOUS
10
2.16531
20
-2.33366
11
2.16531
21
-2.33366
0
LINE
8
BLACK
6
CONTINUOUS
10
2.16531
20
-2.33366
11
2.16516
21
-2.33365
0
LINE
8
BLACK
6
CONTINUOUS
10
2.16516
20
-2.33365
11
2.16498
21
-2.33359
0
LINE
8
BLACK
6
CONTINUOUS
10
2.16498
20
-2.33359
11
2.1648
21
-2.3335
0
LINE
8
BLACK
6
CONTINUOUS
10
2.1648
20
-2.3335
11
2.16465
21
-2.33338
0
LINE
8
BLACK
6
CONTINUOUS
10
2.16465
20
-2.33338
11
2.16453
21
-2.33323
0
LINE
8
BLACK
6
CONTINUOUS
10
2.16453
20
-2.33323
11
2.16444
21
-2.33306
0
LINE
8
BLACK
6
CONTINUOUS
10
2.16444
20
-2.33306
11
2.16438
21
-2.33287
0
LINE
8
BLACK
6
CONTINUOUS
10
2.16438
20
-2.33287
11
2.16437
21
-2.33268
0
LINE
8
BLACK
6
CONTINUOUS
10
2.16437
20
-2.33268
11
2.16437
21
-2.33263
0
LINE
8
BLACK
6
CONTINUOUS
10
2.16437
20
-2.33263
11
2.16437
21
-2.26383
0
LINE
8
BLACK
6
CONTINUOUS
10
2.16437
20
-2.26383
11
2.16437
21
-2.26378
0
LINE
8
BLACK
6
CONTINUOUS
10
2.16437
20
-2.26378
11
2.16438
21
-2.26359
0
LINE
8
BLACK
6
CONTINUOUS
10
2.16438
20
-2.26359
11
2.16444
21
-2.2634
0
LINE
8
BLACK
6
CONTINUOUS
10
2.16444
20
-2.2634
11
2.16453
21
-2.26323
0
LINE
8
BLACK
6
CONTINUOUS
10
2.16453
20
-2.26323
11
2.16465
21
-2.26308
0
LINE
8
BLACK
6
CONTINUOUS
10
2.16465
20
-2.26308
11
2.1648
21
-2.26296
0
LINE
8
BLACK
6
CONTINUOUS
10
2.1648
20
-2.26296
11
2.16498
21
-2.26287
0
LINE
8
BLACK
6
CONTINUOUS
10
2.16498
20
-2.26287
11
2.16516
21
-2.26281
0
LINE
8
BLACK
6
CONTINUOUS
10
2.16516
20
-2.26281
11
2.16531
21
-2.2628
0
LINE
8
BLACK
6
CONTINUOUS
10
2.16531
20
-2.2628
11
2.16535
21
-2.26279
0
LINE
8
BLACK
6
CONTINUOUS
10
2.16535
20
-2.26279
11
2.1654
21
-2.2628
0
LINE
8
BLACK
6
CONTINUOUS
10
2.1654
20
-2.2628
11
2.75586
21
-2.2628
0
LINE
8
BLACK
6
CONTINUOUS
10
2.75586
20
-2.2628
11
2.75591
21
-2.26279
0
LINE
8
BLACK
6
CONTINUOUS
10
2.75591
20
-2.26279
11
2.75595
21
-2.2628
0
LINE
8
BLACK
6
CONTINUOUS
10
2.16634
20
-2.26476
11
2.16634
21
-2.33169
0
LINE
8
BLACK
6
CONTINUOUS
10
2.16634
20
-2.33169
11
2.75492
21
-2.33169
0
LINE
8
BLACK
6
CONTINUOUS
10
2.75492
20
-2.33169
11
2.75492
21
-2.26476
0
LINE
8
BLACK
6
CONTINUOUS
10
2.75492
20
-2.26476
11
2.16634
21
-2.26476
  0
ENDSEC
  0
EOF
