G04 #@! TF.GenerationSoftware,KiCad,Pcbnew,(5.1.4)-1*
G04 #@! TF.CreationDate,2019-10-14T19:51:17-04:00*
G04 #@! TF.ProjectId,badger-badge,62616467-6572-42d6-9261-6467652e6b69,rev?*
G04 #@! TF.SameCoordinates,Original*
G04 #@! TF.FileFunction,Soldermask,Top*
G04 #@! TF.FilePolarity,Negative*
%FSLAX46Y46*%
G04 Gerber Fmt 4.6, Leading zero omitted, Abs format (unit mm)*
G04 Created by KiCad (PCBNEW (5.1.4)-1) date 2019-10-14 19:51:17*
%MOMM*%
%LPD*%
G04 APERTURE LIST*
%ADD10C,0.100000*%
G04 APERTURE END LIST*
D10*
G36*
X100000000Y-133250000D02*
G01*
X85000000Y-133250000D01*
X85000000Y-130250000D01*
X100000000Y-130250000D01*
X100000000Y-133250000D01*
X100000000Y-133250000D01*
G37*
G36*
X70003363Y-133250000D02*
G01*
X55003363Y-133250000D01*
X55003363Y-130250000D01*
X70003363Y-130250000D01*
X70003363Y-133250000D01*
X70003363Y-133250000D01*
G37*
G36*
X82481000Y-124816000D02*
G01*
X80599000Y-124816000D01*
X80599000Y-122714000D01*
X82481000Y-122714000D01*
X82481000Y-124816000D01*
X82481000Y-124816000D01*
G37*
G36*
X77401000Y-124816000D02*
G01*
X75519000Y-124816000D01*
X75519000Y-122714000D01*
X77401000Y-122714000D01*
X77401000Y-124816000D01*
X77401000Y-124816000D01*
G37*
G36*
X79941000Y-124816000D02*
G01*
X78059000Y-124816000D01*
X78059000Y-122714000D01*
X79941000Y-122714000D01*
X79941000Y-124816000D01*
X79941000Y-124816000D01*
G37*
G36*
X98751000Y-124151000D02*
G01*
X96449000Y-124151000D01*
X96449000Y-121249000D01*
X98751000Y-121249000D01*
X98751000Y-124151000D01*
X98751000Y-124151000D01*
G37*
G36*
X85651000Y-123151000D02*
G01*
X84349000Y-123151000D01*
X84349000Y-122149000D01*
X85651000Y-122149000D01*
X85651000Y-123151000D01*
X85651000Y-123151000D01*
G37*
G36*
X98613512Y-118103927D02*
G01*
X98762812Y-118133624D01*
X98926784Y-118201544D01*
X99074354Y-118300147D01*
X99199853Y-118425646D01*
X99298456Y-118573216D01*
X99366376Y-118737188D01*
X99401000Y-118911259D01*
X99401000Y-119088741D01*
X99366376Y-119262812D01*
X99298456Y-119426784D01*
X99199853Y-119574354D01*
X99074354Y-119699853D01*
X98926784Y-119798456D01*
X98762812Y-119866376D01*
X98613512Y-119896073D01*
X98588742Y-119901000D01*
X98411258Y-119901000D01*
X98386488Y-119896073D01*
X98237188Y-119866376D01*
X98073216Y-119798456D01*
X97925646Y-119699853D01*
X97800147Y-119574354D01*
X97701544Y-119426784D01*
X97633624Y-119262812D01*
X97599000Y-119088741D01*
X97599000Y-118911259D01*
X97633624Y-118737188D01*
X97701544Y-118573216D01*
X97800147Y-118425646D01*
X97925646Y-118300147D01*
X98073216Y-118201544D01*
X98237188Y-118133624D01*
X98386488Y-118103927D01*
X98411258Y-118099000D01*
X98588742Y-118099000D01*
X98613512Y-118103927D01*
X98613512Y-118103927D01*
G37*
G36*
X91613512Y-118103927D02*
G01*
X91762812Y-118133624D01*
X91926784Y-118201544D01*
X92074354Y-118300147D01*
X92199853Y-118425646D01*
X92298456Y-118573216D01*
X92366376Y-118737188D01*
X92401000Y-118911259D01*
X92401000Y-119088741D01*
X92366376Y-119262812D01*
X92298456Y-119426784D01*
X92199853Y-119574354D01*
X92074354Y-119699853D01*
X91926784Y-119798456D01*
X91762812Y-119866376D01*
X91613512Y-119896073D01*
X91588742Y-119901000D01*
X91411258Y-119901000D01*
X91386488Y-119896073D01*
X91237188Y-119866376D01*
X91073216Y-119798456D01*
X90925646Y-119699853D01*
X90800147Y-119574354D01*
X90701544Y-119426784D01*
X90633624Y-119262812D01*
X90599000Y-119088741D01*
X90599000Y-118911259D01*
X90633624Y-118737188D01*
X90701544Y-118573216D01*
X90800147Y-118425646D01*
X90925646Y-118300147D01*
X91073216Y-118201544D01*
X91237188Y-118133624D01*
X91386488Y-118103927D01*
X91411258Y-118099000D01*
X91588742Y-118099000D01*
X91613512Y-118103927D01*
X91613512Y-118103927D01*
G37*
G36*
X85651000Y-119851000D02*
G01*
X84349000Y-119851000D01*
X84349000Y-118849000D01*
X85651000Y-118849000D01*
X85651000Y-119851000D01*
X85651000Y-119851000D01*
G37*
G36*
X85379591Y-116303085D02*
G01*
X85413569Y-116313393D01*
X85444890Y-116330134D01*
X85472339Y-116352661D01*
X85494866Y-116380110D01*
X85511607Y-116411431D01*
X85521915Y-116445409D01*
X85526000Y-116486890D01*
X85526000Y-117088110D01*
X85521915Y-117129591D01*
X85511607Y-117163569D01*
X85494866Y-117194890D01*
X85472339Y-117222339D01*
X85444890Y-117244866D01*
X85413569Y-117261607D01*
X85379591Y-117271915D01*
X85338110Y-117276000D01*
X84661890Y-117276000D01*
X84620409Y-117271915D01*
X84586431Y-117261607D01*
X84555110Y-117244866D01*
X84527661Y-117222339D01*
X84505134Y-117194890D01*
X84488393Y-117163569D01*
X84478085Y-117129591D01*
X84474000Y-117088110D01*
X84474000Y-116486890D01*
X84478085Y-116445409D01*
X84488393Y-116411431D01*
X84505134Y-116380110D01*
X84527661Y-116352661D01*
X84555110Y-116330134D01*
X84586431Y-116313393D01*
X84620409Y-116303085D01*
X84661890Y-116299000D01*
X85338110Y-116299000D01*
X85379591Y-116303085D01*
X85379591Y-116303085D01*
G37*
G36*
X100751000Y-116751000D02*
G01*
X98449000Y-116751000D01*
X98449000Y-113849000D01*
X100751000Y-113849000D01*
X100751000Y-116751000D01*
X100751000Y-116751000D01*
G37*
G36*
X91651000Y-116751000D02*
G01*
X88749000Y-116751000D01*
X88749000Y-113849000D01*
X91651000Y-113849000D01*
X91651000Y-116751000D01*
X91651000Y-116751000D01*
G37*
G36*
X57256000Y-116556000D02*
G01*
X54744000Y-116556000D01*
X54744000Y-113744000D01*
X57256000Y-113744000D01*
X57256000Y-116556000D01*
X57256000Y-116556000D01*
G37*
G36*
X64379591Y-115303085D02*
G01*
X64413569Y-115313393D01*
X64444890Y-115330134D01*
X64472339Y-115352661D01*
X64494866Y-115380110D01*
X64511607Y-115411431D01*
X64521915Y-115445409D01*
X64526000Y-115486890D01*
X64526000Y-116088110D01*
X64521915Y-116129591D01*
X64511607Y-116163569D01*
X64494866Y-116194890D01*
X64472339Y-116222339D01*
X64444890Y-116244866D01*
X64413569Y-116261607D01*
X64379591Y-116271915D01*
X64338110Y-116276000D01*
X63661890Y-116276000D01*
X63620409Y-116271915D01*
X63586431Y-116261607D01*
X63555110Y-116244866D01*
X63527661Y-116222339D01*
X63505134Y-116194890D01*
X63488393Y-116163569D01*
X63478085Y-116129591D01*
X63474000Y-116088110D01*
X63474000Y-115486890D01*
X63478085Y-115445409D01*
X63488393Y-115411431D01*
X63505134Y-115380110D01*
X63527661Y-115352661D01*
X63555110Y-115330134D01*
X63586431Y-115313393D01*
X63620409Y-115303085D01*
X63661890Y-115299000D01*
X64338110Y-115299000D01*
X64379591Y-115303085D01*
X64379591Y-115303085D01*
G37*
G36*
X66379591Y-115303085D02*
G01*
X66413569Y-115313393D01*
X66444890Y-115330134D01*
X66472339Y-115352661D01*
X66494866Y-115380110D01*
X66511607Y-115411431D01*
X66521915Y-115445409D01*
X66526000Y-115486890D01*
X66526000Y-116088110D01*
X66521915Y-116129591D01*
X66511607Y-116163569D01*
X66494866Y-116194890D01*
X66472339Y-116222339D01*
X66444890Y-116244866D01*
X66413569Y-116261607D01*
X66379591Y-116271915D01*
X66338110Y-116276000D01*
X65661890Y-116276000D01*
X65620409Y-116271915D01*
X65586431Y-116261607D01*
X65555110Y-116244866D01*
X65527661Y-116222339D01*
X65505134Y-116194890D01*
X65488393Y-116163569D01*
X65478085Y-116129591D01*
X65474000Y-116088110D01*
X65474000Y-115486890D01*
X65478085Y-115445409D01*
X65488393Y-115411431D01*
X65505134Y-115380110D01*
X65527661Y-115352661D01*
X65555110Y-115330134D01*
X65586431Y-115313393D01*
X65620409Y-115303085D01*
X65661890Y-115299000D01*
X66338110Y-115299000D01*
X66379591Y-115303085D01*
X66379591Y-115303085D01*
G37*
G36*
X85379591Y-114728085D02*
G01*
X85413569Y-114738393D01*
X85444890Y-114755134D01*
X85472339Y-114777661D01*
X85494866Y-114805110D01*
X85511607Y-114836431D01*
X85521915Y-114870409D01*
X85526000Y-114911890D01*
X85526000Y-115513110D01*
X85521915Y-115554591D01*
X85511607Y-115588569D01*
X85494866Y-115619890D01*
X85472339Y-115647339D01*
X85444890Y-115669866D01*
X85413569Y-115686607D01*
X85379591Y-115696915D01*
X85338110Y-115701000D01*
X84661890Y-115701000D01*
X84620409Y-115696915D01*
X84586431Y-115686607D01*
X84555110Y-115669866D01*
X84527661Y-115647339D01*
X84505134Y-115619890D01*
X84488393Y-115588569D01*
X84478085Y-115554591D01*
X84474000Y-115513110D01*
X84474000Y-114911890D01*
X84478085Y-114870409D01*
X84488393Y-114836431D01*
X84505134Y-114805110D01*
X84527661Y-114777661D01*
X84555110Y-114755134D01*
X84586431Y-114738393D01*
X84620409Y-114728085D01*
X84661890Y-114724000D01*
X85338110Y-114724000D01*
X85379591Y-114728085D01*
X85379591Y-114728085D01*
G37*
G36*
X82481000Y-115286000D02*
G01*
X80599000Y-115286000D01*
X80599000Y-113184000D01*
X82481000Y-113184000D01*
X82481000Y-115286000D01*
X82481000Y-115286000D01*
G37*
G36*
X79941000Y-115286000D02*
G01*
X78059000Y-115286000D01*
X78059000Y-113184000D01*
X79941000Y-113184000D01*
X79941000Y-115286000D01*
X79941000Y-115286000D01*
G37*
G36*
X77401000Y-115286000D02*
G01*
X75519000Y-115286000D01*
X75519000Y-113184000D01*
X77401000Y-113184000D01*
X77401000Y-115286000D01*
X77401000Y-115286000D01*
G37*
G36*
X66379591Y-113728085D02*
G01*
X66413569Y-113738393D01*
X66444890Y-113755134D01*
X66472339Y-113777661D01*
X66494866Y-113805110D01*
X66511607Y-113836431D01*
X66521915Y-113870409D01*
X66526000Y-113911890D01*
X66526000Y-114513110D01*
X66521915Y-114554591D01*
X66511607Y-114588569D01*
X66494866Y-114619890D01*
X66472339Y-114647339D01*
X66444890Y-114669866D01*
X66413569Y-114686607D01*
X66379591Y-114696915D01*
X66338110Y-114701000D01*
X65661890Y-114701000D01*
X65620409Y-114696915D01*
X65586431Y-114686607D01*
X65555110Y-114669866D01*
X65527661Y-114647339D01*
X65505134Y-114619890D01*
X65488393Y-114588569D01*
X65478085Y-114554591D01*
X65474000Y-114513110D01*
X65474000Y-113911890D01*
X65478085Y-113870409D01*
X65488393Y-113836431D01*
X65505134Y-113805110D01*
X65527661Y-113777661D01*
X65555110Y-113755134D01*
X65586431Y-113738393D01*
X65620409Y-113728085D01*
X65661890Y-113724000D01*
X66338110Y-113724000D01*
X66379591Y-113728085D01*
X66379591Y-113728085D01*
G37*
G36*
X64379591Y-113728085D02*
G01*
X64413569Y-113738393D01*
X64444890Y-113755134D01*
X64472339Y-113777661D01*
X64494866Y-113805110D01*
X64511607Y-113836431D01*
X64521915Y-113870409D01*
X64526000Y-113911890D01*
X64526000Y-114513110D01*
X64521915Y-114554591D01*
X64511607Y-114588569D01*
X64494866Y-114619890D01*
X64472339Y-114647339D01*
X64444890Y-114669866D01*
X64413569Y-114686607D01*
X64379591Y-114696915D01*
X64338110Y-114701000D01*
X63661890Y-114701000D01*
X63620409Y-114696915D01*
X63586431Y-114686607D01*
X63555110Y-114669866D01*
X63527661Y-114647339D01*
X63505134Y-114619890D01*
X63488393Y-114588569D01*
X63478085Y-114554591D01*
X63474000Y-114513110D01*
X63474000Y-113911890D01*
X63478085Y-113870409D01*
X63488393Y-113836431D01*
X63505134Y-113805110D01*
X63527661Y-113777661D01*
X63555110Y-113755134D01*
X63586431Y-113738393D01*
X63620409Y-113728085D01*
X63661890Y-113724000D01*
X64338110Y-113724000D01*
X64379591Y-113728085D01*
X64379591Y-113728085D01*
G37*
G36*
X72379591Y-113228085D02*
G01*
X72413569Y-113238393D01*
X72444890Y-113255134D01*
X72472339Y-113277661D01*
X72494866Y-113305110D01*
X72511607Y-113336431D01*
X72521915Y-113370409D01*
X72526000Y-113411890D01*
X72526000Y-114088110D01*
X72521915Y-114129591D01*
X72511607Y-114163569D01*
X72494866Y-114194890D01*
X72472339Y-114222339D01*
X72444890Y-114244866D01*
X72413569Y-114261607D01*
X72379591Y-114271915D01*
X72338110Y-114276000D01*
X71736890Y-114276000D01*
X71695409Y-114271915D01*
X71661431Y-114261607D01*
X71630110Y-114244866D01*
X71602661Y-114222339D01*
X71580134Y-114194890D01*
X71563393Y-114163569D01*
X71553085Y-114129591D01*
X71549000Y-114088110D01*
X71549000Y-113411890D01*
X71553085Y-113370409D01*
X71563393Y-113336431D01*
X71580134Y-113305110D01*
X71602661Y-113277661D01*
X71630110Y-113255134D01*
X71661431Y-113238393D01*
X71695409Y-113228085D01*
X71736890Y-113224000D01*
X72338110Y-113224000D01*
X72379591Y-113228085D01*
X72379591Y-113228085D01*
G37*
G36*
X70804591Y-113228085D02*
G01*
X70838569Y-113238393D01*
X70869890Y-113255134D01*
X70897339Y-113277661D01*
X70919866Y-113305110D01*
X70936607Y-113336431D01*
X70946915Y-113370409D01*
X70951000Y-113411890D01*
X70951000Y-114088110D01*
X70946915Y-114129591D01*
X70936607Y-114163569D01*
X70919866Y-114194890D01*
X70897339Y-114222339D01*
X70869890Y-114244866D01*
X70838569Y-114261607D01*
X70804591Y-114271915D01*
X70763110Y-114276000D01*
X70161890Y-114276000D01*
X70120409Y-114271915D01*
X70086431Y-114261607D01*
X70055110Y-114244866D01*
X70027661Y-114222339D01*
X70005134Y-114194890D01*
X69988393Y-114163569D01*
X69978085Y-114129591D01*
X69974000Y-114088110D01*
X69974000Y-113411890D01*
X69978085Y-113370409D01*
X69988393Y-113336431D01*
X70005134Y-113305110D01*
X70027661Y-113277661D01*
X70055110Y-113255134D01*
X70086431Y-113238393D01*
X70120409Y-113228085D01*
X70161890Y-113224000D01*
X70763110Y-113224000D01*
X70804591Y-113228085D01*
X70804591Y-113228085D01*
G37*
G36*
X64326000Y-112681000D02*
G01*
X61674000Y-112681000D01*
X61674000Y-111519000D01*
X64326000Y-111519000D01*
X64326000Y-112681000D01*
X64326000Y-112681000D01*
G37*
G36*
X80554591Y-111478085D02*
G01*
X80588569Y-111488393D01*
X80619890Y-111505134D01*
X80647339Y-111527661D01*
X80669866Y-111555110D01*
X80686607Y-111586431D01*
X80696915Y-111620409D01*
X80701000Y-111661890D01*
X80701000Y-112338110D01*
X80696915Y-112379591D01*
X80686607Y-112413569D01*
X80669866Y-112444890D01*
X80647339Y-112472339D01*
X80619890Y-112494866D01*
X80588569Y-112511607D01*
X80554591Y-112521915D01*
X80513110Y-112526000D01*
X79911890Y-112526000D01*
X79870409Y-112521915D01*
X79836431Y-112511607D01*
X79805110Y-112494866D01*
X79777661Y-112472339D01*
X79755134Y-112444890D01*
X79738393Y-112413569D01*
X79728085Y-112379591D01*
X79724000Y-112338110D01*
X79724000Y-111661890D01*
X79728085Y-111620409D01*
X79738393Y-111586431D01*
X79755134Y-111555110D01*
X79777661Y-111527661D01*
X79805110Y-111505134D01*
X79836431Y-111488393D01*
X79870409Y-111478085D01*
X79911890Y-111474000D01*
X80513110Y-111474000D01*
X80554591Y-111478085D01*
X80554591Y-111478085D01*
G37*
G36*
X82129591Y-111478085D02*
G01*
X82163569Y-111488393D01*
X82194890Y-111505134D01*
X82222339Y-111527661D01*
X82244866Y-111555110D01*
X82261607Y-111586431D01*
X82271915Y-111620409D01*
X82276000Y-111661890D01*
X82276000Y-112338110D01*
X82271915Y-112379591D01*
X82261607Y-112413569D01*
X82244866Y-112444890D01*
X82222339Y-112472339D01*
X82194890Y-112494866D01*
X82163569Y-112511607D01*
X82129591Y-112521915D01*
X82088110Y-112526000D01*
X81486890Y-112526000D01*
X81445409Y-112521915D01*
X81411431Y-112511607D01*
X81380110Y-112494866D01*
X81352661Y-112472339D01*
X81330134Y-112444890D01*
X81313393Y-112413569D01*
X81303085Y-112379591D01*
X81299000Y-112338110D01*
X81299000Y-111661890D01*
X81303085Y-111620409D01*
X81313393Y-111586431D01*
X81330134Y-111555110D01*
X81352661Y-111527661D01*
X81380110Y-111505134D01*
X81411431Y-111488393D01*
X81445409Y-111478085D01*
X81486890Y-111474000D01*
X82088110Y-111474000D01*
X82129591Y-111478085D01*
X82129591Y-111478085D01*
G37*
G36*
X78129591Y-111478085D02*
G01*
X78163569Y-111488393D01*
X78194890Y-111505134D01*
X78222339Y-111527661D01*
X78244866Y-111555110D01*
X78261607Y-111586431D01*
X78271915Y-111620409D01*
X78276000Y-111661890D01*
X78276000Y-112338110D01*
X78271915Y-112379591D01*
X78261607Y-112413569D01*
X78244866Y-112444890D01*
X78222339Y-112472339D01*
X78194890Y-112494866D01*
X78163569Y-112511607D01*
X78129591Y-112521915D01*
X78088110Y-112526000D01*
X77486890Y-112526000D01*
X77445409Y-112521915D01*
X77411431Y-112511607D01*
X77380110Y-112494866D01*
X77352661Y-112472339D01*
X77330134Y-112444890D01*
X77313393Y-112413569D01*
X77303085Y-112379591D01*
X77299000Y-112338110D01*
X77299000Y-111661890D01*
X77303085Y-111620409D01*
X77313393Y-111586431D01*
X77330134Y-111555110D01*
X77352661Y-111527661D01*
X77380110Y-111505134D01*
X77411431Y-111488393D01*
X77445409Y-111478085D01*
X77486890Y-111474000D01*
X78088110Y-111474000D01*
X78129591Y-111478085D01*
X78129591Y-111478085D01*
G37*
G36*
X76554591Y-111478085D02*
G01*
X76588569Y-111488393D01*
X76619890Y-111505134D01*
X76647339Y-111527661D01*
X76669866Y-111555110D01*
X76686607Y-111586431D01*
X76696915Y-111620409D01*
X76701000Y-111661890D01*
X76701000Y-112338110D01*
X76696915Y-112379591D01*
X76686607Y-112413569D01*
X76669866Y-112444890D01*
X76647339Y-112472339D01*
X76619890Y-112494866D01*
X76588569Y-112511607D01*
X76554591Y-112521915D01*
X76513110Y-112526000D01*
X75911890Y-112526000D01*
X75870409Y-112521915D01*
X75836431Y-112511607D01*
X75805110Y-112494866D01*
X75777661Y-112472339D01*
X75755134Y-112444890D01*
X75738393Y-112413569D01*
X75728085Y-112379591D01*
X75724000Y-112338110D01*
X75724000Y-111661890D01*
X75728085Y-111620409D01*
X75738393Y-111586431D01*
X75755134Y-111555110D01*
X75777661Y-111527661D01*
X75805110Y-111505134D01*
X75836431Y-111488393D01*
X75870409Y-111478085D01*
X75911890Y-111474000D01*
X76513110Y-111474000D01*
X76554591Y-111478085D01*
X76554591Y-111478085D01*
G37*
G36*
X71701000Y-112501000D02*
G01*
X70799000Y-112501000D01*
X70799000Y-111499000D01*
X71701000Y-111499000D01*
X71701000Y-112501000D01*
X71701000Y-112501000D01*
G37*
G36*
X98751000Y-112151000D02*
G01*
X96449000Y-112151000D01*
X96449000Y-109249000D01*
X98751000Y-109249000D01*
X98751000Y-112151000D01*
X98751000Y-112151000D01*
G37*
G36*
X70751000Y-110501000D02*
G01*
X69849000Y-110501000D01*
X69849000Y-109499000D01*
X70751000Y-109499000D01*
X70751000Y-110501000D01*
X70751000Y-110501000D01*
G37*
G36*
X72651000Y-110501000D02*
G01*
X71749000Y-110501000D01*
X71749000Y-109499000D01*
X72651000Y-109499000D01*
X72651000Y-110501000D01*
X72651000Y-110501000D01*
G37*
G36*
X64326000Y-110481000D02*
G01*
X61674000Y-110481000D01*
X61674000Y-109319000D01*
X64326000Y-109319000D01*
X64326000Y-110481000D01*
X64326000Y-110481000D01*
G37*
G36*
X85379591Y-109303085D02*
G01*
X85413569Y-109313393D01*
X85444890Y-109330134D01*
X85472339Y-109352661D01*
X85494866Y-109380110D01*
X85511607Y-109411431D01*
X85521915Y-109445409D01*
X85526000Y-109486890D01*
X85526000Y-110088110D01*
X85521915Y-110129591D01*
X85511607Y-110163569D01*
X85494866Y-110194890D01*
X85472339Y-110222339D01*
X85444890Y-110244866D01*
X85413569Y-110261607D01*
X85379591Y-110271915D01*
X85338110Y-110276000D01*
X84661890Y-110276000D01*
X84620409Y-110271915D01*
X84586431Y-110261607D01*
X84555110Y-110244866D01*
X84527661Y-110222339D01*
X84505134Y-110194890D01*
X84488393Y-110163569D01*
X84478085Y-110129591D01*
X84474000Y-110088110D01*
X84474000Y-109486890D01*
X84478085Y-109445409D01*
X84488393Y-109411431D01*
X84505134Y-109380110D01*
X84527661Y-109352661D01*
X84555110Y-109330134D01*
X84586431Y-109313393D01*
X84620409Y-109303085D01*
X84661890Y-109299000D01*
X85338110Y-109299000D01*
X85379591Y-109303085D01*
X85379591Y-109303085D01*
G37*
G36*
X70804591Y-107728085D02*
G01*
X70838569Y-107738393D01*
X70869890Y-107755134D01*
X70897339Y-107777661D01*
X70919866Y-107805110D01*
X70936607Y-107836431D01*
X70946915Y-107870409D01*
X70951000Y-107911890D01*
X70951000Y-108588110D01*
X70946915Y-108629591D01*
X70936607Y-108663569D01*
X70919866Y-108694890D01*
X70897339Y-108722339D01*
X70869890Y-108744866D01*
X70838569Y-108761607D01*
X70804591Y-108771915D01*
X70763110Y-108776000D01*
X70161890Y-108776000D01*
X70120409Y-108771915D01*
X70086431Y-108761607D01*
X70055110Y-108744866D01*
X70027661Y-108722339D01*
X70005134Y-108694890D01*
X69988393Y-108663569D01*
X69978085Y-108629591D01*
X69974000Y-108588110D01*
X69974000Y-107911890D01*
X69978085Y-107870409D01*
X69988393Y-107836431D01*
X70005134Y-107805110D01*
X70027661Y-107777661D01*
X70055110Y-107755134D01*
X70086431Y-107738393D01*
X70120409Y-107728085D01*
X70161890Y-107724000D01*
X70763110Y-107724000D01*
X70804591Y-107728085D01*
X70804591Y-107728085D01*
G37*
G36*
X72379591Y-107728085D02*
G01*
X72413569Y-107738393D01*
X72444890Y-107755134D01*
X72472339Y-107777661D01*
X72494866Y-107805110D01*
X72511607Y-107836431D01*
X72521915Y-107870409D01*
X72526000Y-107911890D01*
X72526000Y-108588110D01*
X72521915Y-108629591D01*
X72511607Y-108663569D01*
X72494866Y-108694890D01*
X72472339Y-108722339D01*
X72444890Y-108744866D01*
X72413569Y-108761607D01*
X72379591Y-108771915D01*
X72338110Y-108776000D01*
X71736890Y-108776000D01*
X71695409Y-108771915D01*
X71661431Y-108761607D01*
X71630110Y-108744866D01*
X71602661Y-108722339D01*
X71580134Y-108694890D01*
X71563393Y-108663569D01*
X71553085Y-108629591D01*
X71549000Y-108588110D01*
X71549000Y-107911890D01*
X71553085Y-107870409D01*
X71563393Y-107836431D01*
X71580134Y-107805110D01*
X71602661Y-107777661D01*
X71630110Y-107755134D01*
X71661431Y-107738393D01*
X71695409Y-107728085D01*
X71736890Y-107724000D01*
X72338110Y-107724000D01*
X72379591Y-107728085D01*
X72379591Y-107728085D01*
G37*
G36*
X85379591Y-107728085D02*
G01*
X85413569Y-107738393D01*
X85444890Y-107755134D01*
X85472339Y-107777661D01*
X85494866Y-107805110D01*
X85511607Y-107836431D01*
X85521915Y-107870409D01*
X85526000Y-107911890D01*
X85526000Y-108513110D01*
X85521915Y-108554591D01*
X85511607Y-108588569D01*
X85494866Y-108619890D01*
X85472339Y-108647339D01*
X85444890Y-108669866D01*
X85413569Y-108686607D01*
X85379591Y-108696915D01*
X85338110Y-108701000D01*
X84661890Y-108701000D01*
X84620409Y-108696915D01*
X84586431Y-108686607D01*
X84555110Y-108669866D01*
X84527661Y-108647339D01*
X84505134Y-108619890D01*
X84488393Y-108588569D01*
X84478085Y-108554591D01*
X84474000Y-108513110D01*
X84474000Y-107911890D01*
X84478085Y-107870409D01*
X84488393Y-107836431D01*
X84505134Y-107805110D01*
X84527661Y-107777661D01*
X84555110Y-107755134D01*
X84586431Y-107738393D01*
X84620409Y-107728085D01*
X84661890Y-107724000D01*
X85338110Y-107724000D01*
X85379591Y-107728085D01*
X85379591Y-107728085D01*
G37*
G36*
X62584468Y-107403565D02*
G01*
X62623138Y-107415296D01*
X62658777Y-107434346D01*
X62690017Y-107459983D01*
X62715654Y-107491223D01*
X62734704Y-107526862D01*
X62746435Y-107565532D01*
X62751000Y-107611888D01*
X62751000Y-108263112D01*
X62746435Y-108309468D01*
X62734704Y-108348138D01*
X62715654Y-108383777D01*
X62690017Y-108415017D01*
X62658777Y-108440654D01*
X62623138Y-108459704D01*
X62584468Y-108471435D01*
X62538112Y-108476000D01*
X61461888Y-108476000D01*
X61415532Y-108471435D01*
X61376862Y-108459704D01*
X61341223Y-108440654D01*
X61309983Y-108415017D01*
X61284346Y-108383777D01*
X61265296Y-108348138D01*
X61253565Y-108309468D01*
X61249000Y-108263112D01*
X61249000Y-107611888D01*
X61253565Y-107565532D01*
X61265296Y-107526862D01*
X61284346Y-107491223D01*
X61309983Y-107459983D01*
X61341223Y-107434346D01*
X61376862Y-107415296D01*
X61415532Y-107403565D01*
X61461888Y-107399000D01*
X62538112Y-107399000D01*
X62584468Y-107403565D01*
X62584468Y-107403565D01*
G37*
G36*
X64379591Y-107303085D02*
G01*
X64413569Y-107313393D01*
X64444890Y-107330134D01*
X64472339Y-107352661D01*
X64494866Y-107380110D01*
X64511607Y-107411431D01*
X64521915Y-107445409D01*
X64526000Y-107486890D01*
X64526000Y-108088110D01*
X64521915Y-108129591D01*
X64511607Y-108163569D01*
X64494866Y-108194890D01*
X64472339Y-108222339D01*
X64444890Y-108244866D01*
X64413569Y-108261607D01*
X64379591Y-108271915D01*
X64338110Y-108276000D01*
X63661890Y-108276000D01*
X63620409Y-108271915D01*
X63586431Y-108261607D01*
X63555110Y-108244866D01*
X63527661Y-108222339D01*
X63505134Y-108194890D01*
X63488393Y-108163569D01*
X63478085Y-108129591D01*
X63474000Y-108088110D01*
X63474000Y-107486890D01*
X63478085Y-107445409D01*
X63488393Y-107411431D01*
X63505134Y-107380110D01*
X63527661Y-107352661D01*
X63555110Y-107330134D01*
X63586431Y-107313393D01*
X63620409Y-107303085D01*
X63661890Y-107299000D01*
X64338110Y-107299000D01*
X64379591Y-107303085D01*
X64379591Y-107303085D01*
G37*
G36*
X66379591Y-107303085D02*
G01*
X66413569Y-107313393D01*
X66444890Y-107330134D01*
X66472339Y-107352661D01*
X66494866Y-107380110D01*
X66511607Y-107411431D01*
X66521915Y-107445409D01*
X66526000Y-107486890D01*
X66526000Y-108088110D01*
X66521915Y-108129591D01*
X66511607Y-108163569D01*
X66494866Y-108194890D01*
X66472339Y-108222339D01*
X66444890Y-108244866D01*
X66413569Y-108261607D01*
X66379591Y-108271915D01*
X66338110Y-108276000D01*
X65661890Y-108276000D01*
X65620409Y-108271915D01*
X65586431Y-108261607D01*
X65555110Y-108244866D01*
X65527661Y-108222339D01*
X65505134Y-108194890D01*
X65488393Y-108163569D01*
X65478085Y-108129591D01*
X65474000Y-108088110D01*
X65474000Y-107486890D01*
X65478085Y-107445409D01*
X65488393Y-107411431D01*
X65505134Y-107380110D01*
X65527661Y-107352661D01*
X65555110Y-107330134D01*
X65586431Y-107313393D01*
X65620409Y-107303085D01*
X65661890Y-107299000D01*
X66338110Y-107299000D01*
X66379591Y-107303085D01*
X66379591Y-107303085D01*
G37*
G36*
X57256000Y-108256000D02*
G01*
X54744000Y-108256000D01*
X54744000Y-105444000D01*
X57256000Y-105444000D01*
X57256000Y-108256000D01*
X57256000Y-108256000D01*
G37*
G36*
X91613512Y-106103927D02*
G01*
X91762812Y-106133624D01*
X91926784Y-106201544D01*
X92074354Y-106300147D01*
X92199853Y-106425646D01*
X92298456Y-106573216D01*
X92366376Y-106737188D01*
X92401000Y-106911259D01*
X92401000Y-107088741D01*
X92366376Y-107262812D01*
X92298456Y-107426784D01*
X92199853Y-107574354D01*
X92074354Y-107699853D01*
X91926784Y-107798456D01*
X91762812Y-107866376D01*
X91613512Y-107896073D01*
X91588742Y-107901000D01*
X91411258Y-107901000D01*
X91386488Y-107896073D01*
X91237188Y-107866376D01*
X91073216Y-107798456D01*
X90925646Y-107699853D01*
X90800147Y-107574354D01*
X90701544Y-107426784D01*
X90633624Y-107262812D01*
X90599000Y-107088741D01*
X90599000Y-106911259D01*
X90633624Y-106737188D01*
X90701544Y-106573216D01*
X90800147Y-106425646D01*
X90925646Y-106300147D01*
X91073216Y-106201544D01*
X91237188Y-106133624D01*
X91386488Y-106103927D01*
X91411258Y-106099000D01*
X91588742Y-106099000D01*
X91613512Y-106103927D01*
X91613512Y-106103927D01*
G37*
G36*
X98613512Y-106103927D02*
G01*
X98762812Y-106133624D01*
X98926784Y-106201544D01*
X99074354Y-106300147D01*
X99199853Y-106425646D01*
X99298456Y-106573216D01*
X99366376Y-106737188D01*
X99401000Y-106911259D01*
X99401000Y-107088741D01*
X99366376Y-107262812D01*
X99298456Y-107426784D01*
X99199853Y-107574354D01*
X99074354Y-107699853D01*
X98926784Y-107798456D01*
X98762812Y-107866376D01*
X98613512Y-107896073D01*
X98588742Y-107901000D01*
X98411258Y-107901000D01*
X98386488Y-107896073D01*
X98237188Y-107866376D01*
X98073216Y-107798456D01*
X97925646Y-107699853D01*
X97800147Y-107574354D01*
X97701544Y-107426784D01*
X97633624Y-107262812D01*
X97599000Y-107088741D01*
X97599000Y-106911259D01*
X97633624Y-106737188D01*
X97701544Y-106573216D01*
X97800147Y-106425646D01*
X97925646Y-106300147D01*
X98073216Y-106201544D01*
X98237188Y-106133624D01*
X98386488Y-106103927D01*
X98411258Y-106099000D01*
X98588742Y-106099000D01*
X98613512Y-106103927D01*
X98613512Y-106103927D01*
G37*
G36*
X64379591Y-105728085D02*
G01*
X64413569Y-105738393D01*
X64444890Y-105755134D01*
X64472339Y-105777661D01*
X64494866Y-105805110D01*
X64511607Y-105836431D01*
X64521915Y-105870409D01*
X64526000Y-105911890D01*
X64526000Y-106513110D01*
X64521915Y-106554591D01*
X64511607Y-106588569D01*
X64494866Y-106619890D01*
X64472339Y-106647339D01*
X64444890Y-106669866D01*
X64413569Y-106686607D01*
X64379591Y-106696915D01*
X64338110Y-106701000D01*
X63661890Y-106701000D01*
X63620409Y-106696915D01*
X63586431Y-106686607D01*
X63555110Y-106669866D01*
X63527661Y-106647339D01*
X63505134Y-106619890D01*
X63488393Y-106588569D01*
X63478085Y-106554591D01*
X63474000Y-106513110D01*
X63474000Y-105911890D01*
X63478085Y-105870409D01*
X63488393Y-105836431D01*
X63505134Y-105805110D01*
X63527661Y-105777661D01*
X63555110Y-105755134D01*
X63586431Y-105738393D01*
X63620409Y-105728085D01*
X63661890Y-105724000D01*
X64338110Y-105724000D01*
X64379591Y-105728085D01*
X64379591Y-105728085D01*
G37*
G36*
X66379591Y-105728085D02*
G01*
X66413569Y-105738393D01*
X66444890Y-105755134D01*
X66472339Y-105777661D01*
X66494866Y-105805110D01*
X66511607Y-105836431D01*
X66521915Y-105870409D01*
X66526000Y-105911890D01*
X66526000Y-106513110D01*
X66521915Y-106554591D01*
X66511607Y-106588569D01*
X66494866Y-106619890D01*
X66472339Y-106647339D01*
X66444890Y-106669866D01*
X66413569Y-106686607D01*
X66379591Y-106696915D01*
X66338110Y-106701000D01*
X65661890Y-106701000D01*
X65620409Y-106696915D01*
X65586431Y-106686607D01*
X65555110Y-106669866D01*
X65527661Y-106647339D01*
X65505134Y-106619890D01*
X65488393Y-106588569D01*
X65478085Y-106554591D01*
X65474000Y-106513110D01*
X65474000Y-105911890D01*
X65478085Y-105870409D01*
X65488393Y-105836431D01*
X65505134Y-105805110D01*
X65527661Y-105777661D01*
X65555110Y-105755134D01*
X65586431Y-105738393D01*
X65620409Y-105728085D01*
X65661890Y-105724000D01*
X66338110Y-105724000D01*
X66379591Y-105728085D01*
X66379591Y-105728085D01*
G37*
G36*
X62584468Y-105528565D02*
G01*
X62623138Y-105540296D01*
X62658777Y-105559346D01*
X62690017Y-105584983D01*
X62715654Y-105616223D01*
X62734704Y-105651862D01*
X62746435Y-105690532D01*
X62751000Y-105736888D01*
X62751000Y-106388112D01*
X62746435Y-106434468D01*
X62734704Y-106473138D01*
X62715654Y-106508777D01*
X62690017Y-106540017D01*
X62658777Y-106565654D01*
X62623138Y-106584704D01*
X62584468Y-106596435D01*
X62538112Y-106601000D01*
X61461888Y-106601000D01*
X61415532Y-106596435D01*
X61376862Y-106584704D01*
X61341223Y-106565654D01*
X61309983Y-106540017D01*
X61284346Y-106508777D01*
X61265296Y-106473138D01*
X61253565Y-106434468D01*
X61249000Y-106388112D01*
X61249000Y-105736888D01*
X61253565Y-105690532D01*
X61265296Y-105651862D01*
X61284346Y-105616223D01*
X61309983Y-105584983D01*
X61341223Y-105559346D01*
X61376862Y-105540296D01*
X61415532Y-105528565D01*
X61461888Y-105524000D01*
X62538112Y-105524000D01*
X62584468Y-105528565D01*
X62584468Y-105528565D01*
G37*
G36*
X85379591Y-105303085D02*
G01*
X85413569Y-105313393D01*
X85444890Y-105330134D01*
X85472339Y-105352661D01*
X85494866Y-105380110D01*
X85511607Y-105411431D01*
X85521915Y-105445409D01*
X85526000Y-105486890D01*
X85526000Y-106088110D01*
X85521915Y-106129591D01*
X85511607Y-106163569D01*
X85494866Y-106194890D01*
X85472339Y-106222339D01*
X85444890Y-106244866D01*
X85413569Y-106261607D01*
X85379591Y-106271915D01*
X85338110Y-106276000D01*
X84661890Y-106276000D01*
X84620409Y-106271915D01*
X84586431Y-106261607D01*
X84555110Y-106244866D01*
X84527661Y-106222339D01*
X84505134Y-106194890D01*
X84488393Y-106163569D01*
X84478085Y-106129591D01*
X84474000Y-106088110D01*
X84474000Y-105486890D01*
X84478085Y-105445409D01*
X84488393Y-105411431D01*
X84505134Y-105380110D01*
X84527661Y-105352661D01*
X84555110Y-105330134D01*
X84586431Y-105313393D01*
X84620409Y-105303085D01*
X84661890Y-105299000D01*
X85338110Y-105299000D01*
X85379591Y-105303085D01*
X85379591Y-105303085D01*
G37*
G36*
X91651000Y-104751000D02*
G01*
X88749000Y-104751000D01*
X88749000Y-101849000D01*
X91651000Y-101849000D01*
X91651000Y-104751000D01*
X91651000Y-104751000D01*
G37*
G36*
X100751000Y-104751000D02*
G01*
X98449000Y-104751000D01*
X98449000Y-101849000D01*
X100751000Y-101849000D01*
X100751000Y-104751000D01*
X100751000Y-104751000D01*
G37*
G36*
X85379591Y-103728085D02*
G01*
X85413569Y-103738393D01*
X85444890Y-103755134D01*
X85472339Y-103777661D01*
X85494866Y-103805110D01*
X85511607Y-103836431D01*
X85521915Y-103870409D01*
X85526000Y-103911890D01*
X85526000Y-104513110D01*
X85521915Y-104554591D01*
X85511607Y-104588569D01*
X85494866Y-104619890D01*
X85472339Y-104647339D01*
X85444890Y-104669866D01*
X85413569Y-104686607D01*
X85379591Y-104696915D01*
X85338110Y-104701000D01*
X84661890Y-104701000D01*
X84620409Y-104696915D01*
X84586431Y-104686607D01*
X84555110Y-104669866D01*
X84527661Y-104647339D01*
X84505134Y-104619890D01*
X84488393Y-104588569D01*
X84478085Y-104554591D01*
X84474000Y-104513110D01*
X84474000Y-103911890D01*
X84478085Y-103870409D01*
X84488393Y-103836431D01*
X84505134Y-103805110D01*
X84527661Y-103777661D01*
X84555110Y-103755134D01*
X84586431Y-103738393D01*
X84620409Y-103728085D01*
X84661890Y-103724000D01*
X85338110Y-103724000D01*
X85379591Y-103728085D01*
X85379591Y-103728085D01*
G37*
G36*
X69358228Y-96801703D02*
G01*
X69513100Y-96865853D01*
X69652481Y-96958985D01*
X69771015Y-97077519D01*
X69864147Y-97216900D01*
X69928297Y-97371772D01*
X69961000Y-97536184D01*
X69961000Y-97703816D01*
X69928297Y-97868228D01*
X69864147Y-98023100D01*
X69771015Y-98162481D01*
X69652481Y-98281015D01*
X69513100Y-98374147D01*
X69358228Y-98438297D01*
X69193816Y-98471000D01*
X69026184Y-98471000D01*
X68861772Y-98438297D01*
X68706900Y-98374147D01*
X68567519Y-98281015D01*
X68448985Y-98162481D01*
X68355853Y-98023100D01*
X68291703Y-97868228D01*
X68259000Y-97703816D01*
X68259000Y-97536184D01*
X68291703Y-97371772D01*
X68355853Y-97216900D01*
X68448985Y-97077519D01*
X68567519Y-96958985D01*
X68706900Y-96865853D01*
X68861772Y-96801703D01*
X69026184Y-96769000D01*
X69193816Y-96769000D01*
X69358228Y-96801703D01*
X69358228Y-96801703D01*
G37*
G36*
X71898228Y-96801703D02*
G01*
X72053100Y-96865853D01*
X72192481Y-96958985D01*
X72311015Y-97077519D01*
X72404147Y-97216900D01*
X72468297Y-97371772D01*
X72501000Y-97536184D01*
X72501000Y-97703816D01*
X72468297Y-97868228D01*
X72404147Y-98023100D01*
X72311015Y-98162481D01*
X72192481Y-98281015D01*
X72053100Y-98374147D01*
X71898228Y-98438297D01*
X71733816Y-98471000D01*
X71566184Y-98471000D01*
X71401772Y-98438297D01*
X71246900Y-98374147D01*
X71107519Y-98281015D01*
X70988985Y-98162481D01*
X70895853Y-98023100D01*
X70831703Y-97868228D01*
X70799000Y-97703816D01*
X70799000Y-97536184D01*
X70831703Y-97371772D01*
X70895853Y-97216900D01*
X70988985Y-97077519D01*
X71107519Y-96958985D01*
X71246900Y-96865853D01*
X71401772Y-96801703D01*
X71566184Y-96769000D01*
X71733816Y-96769000D01*
X71898228Y-96801703D01*
X71898228Y-96801703D01*
G37*
G36*
X74438228Y-96801703D02*
G01*
X74593100Y-96865853D01*
X74732481Y-96958985D01*
X74851015Y-97077519D01*
X74944147Y-97216900D01*
X75008297Y-97371772D01*
X75041000Y-97536184D01*
X75041000Y-97703816D01*
X75008297Y-97868228D01*
X74944147Y-98023100D01*
X74851015Y-98162481D01*
X74732481Y-98281015D01*
X74593100Y-98374147D01*
X74438228Y-98438297D01*
X74273816Y-98471000D01*
X74106184Y-98471000D01*
X73941772Y-98438297D01*
X73786900Y-98374147D01*
X73647519Y-98281015D01*
X73528985Y-98162481D01*
X73435853Y-98023100D01*
X73371703Y-97868228D01*
X73339000Y-97703816D01*
X73339000Y-97536184D01*
X73371703Y-97371772D01*
X73435853Y-97216900D01*
X73528985Y-97077519D01*
X73647519Y-96958985D01*
X73786900Y-96865853D01*
X73941772Y-96801703D01*
X74106184Y-96769000D01*
X74273816Y-96769000D01*
X74438228Y-96801703D01*
X74438228Y-96801703D01*
G37*
G36*
X76978228Y-96801703D02*
G01*
X77133100Y-96865853D01*
X77272481Y-96958985D01*
X77391015Y-97077519D01*
X77484147Y-97216900D01*
X77548297Y-97371772D01*
X77581000Y-97536184D01*
X77581000Y-97703816D01*
X77548297Y-97868228D01*
X77484147Y-98023100D01*
X77391015Y-98162481D01*
X77272481Y-98281015D01*
X77133100Y-98374147D01*
X76978228Y-98438297D01*
X76813816Y-98471000D01*
X76646184Y-98471000D01*
X76481772Y-98438297D01*
X76326900Y-98374147D01*
X76187519Y-98281015D01*
X76068985Y-98162481D01*
X75975853Y-98023100D01*
X75911703Y-97868228D01*
X75879000Y-97703816D01*
X75879000Y-97536184D01*
X75911703Y-97371772D01*
X75975853Y-97216900D01*
X76068985Y-97077519D01*
X76187519Y-96958985D01*
X76326900Y-96865853D01*
X76481772Y-96801703D01*
X76646184Y-96769000D01*
X76813816Y-96769000D01*
X76978228Y-96801703D01*
X76978228Y-96801703D01*
G37*
G36*
X79518228Y-96801703D02*
G01*
X79673100Y-96865853D01*
X79812481Y-96958985D01*
X79931015Y-97077519D01*
X80024147Y-97216900D01*
X80088297Y-97371772D01*
X80121000Y-97536184D01*
X80121000Y-97703816D01*
X80088297Y-97868228D01*
X80024147Y-98023100D01*
X79931015Y-98162481D01*
X79812481Y-98281015D01*
X79673100Y-98374147D01*
X79518228Y-98438297D01*
X79353816Y-98471000D01*
X79186184Y-98471000D01*
X79021772Y-98438297D01*
X78866900Y-98374147D01*
X78727519Y-98281015D01*
X78608985Y-98162481D01*
X78515853Y-98023100D01*
X78451703Y-97868228D01*
X78419000Y-97703816D01*
X78419000Y-97536184D01*
X78451703Y-97371772D01*
X78515853Y-97216900D01*
X78608985Y-97077519D01*
X78727519Y-96958985D01*
X78866900Y-96865853D01*
X79021772Y-96801703D01*
X79186184Y-96769000D01*
X79353816Y-96769000D01*
X79518228Y-96801703D01*
X79518228Y-96801703D01*
G37*
G36*
X82058228Y-96801703D02*
G01*
X82213100Y-96865853D01*
X82352481Y-96958985D01*
X82471015Y-97077519D01*
X82564147Y-97216900D01*
X82628297Y-97371772D01*
X82661000Y-97536184D01*
X82661000Y-97703816D01*
X82628297Y-97868228D01*
X82564147Y-98023100D01*
X82471015Y-98162481D01*
X82352481Y-98281015D01*
X82213100Y-98374147D01*
X82058228Y-98438297D01*
X81893816Y-98471000D01*
X81726184Y-98471000D01*
X81561772Y-98438297D01*
X81406900Y-98374147D01*
X81267519Y-98281015D01*
X81148985Y-98162481D01*
X81055853Y-98023100D01*
X80991703Y-97868228D01*
X80959000Y-97703816D01*
X80959000Y-97536184D01*
X80991703Y-97371772D01*
X81055853Y-97216900D01*
X81148985Y-97077519D01*
X81267519Y-96958985D01*
X81406900Y-96865853D01*
X81561772Y-96801703D01*
X81726184Y-96769000D01*
X81893816Y-96769000D01*
X82058228Y-96801703D01*
X82058228Y-96801703D01*
G37*
G36*
X84598228Y-96801703D02*
G01*
X84753100Y-96865853D01*
X84892481Y-96958985D01*
X85011015Y-97077519D01*
X85104147Y-97216900D01*
X85168297Y-97371772D01*
X85201000Y-97536184D01*
X85201000Y-97703816D01*
X85168297Y-97868228D01*
X85104147Y-98023100D01*
X85011015Y-98162481D01*
X84892481Y-98281015D01*
X84753100Y-98374147D01*
X84598228Y-98438297D01*
X84433816Y-98471000D01*
X84266184Y-98471000D01*
X84101772Y-98438297D01*
X83946900Y-98374147D01*
X83807519Y-98281015D01*
X83688985Y-98162481D01*
X83595853Y-98023100D01*
X83531703Y-97868228D01*
X83499000Y-97703816D01*
X83499000Y-97536184D01*
X83531703Y-97371772D01*
X83595853Y-97216900D01*
X83688985Y-97077519D01*
X83807519Y-96958985D01*
X83946900Y-96865853D01*
X84101772Y-96801703D01*
X84266184Y-96769000D01*
X84433816Y-96769000D01*
X84598228Y-96801703D01*
X84598228Y-96801703D01*
G37*
G36*
X92218228Y-96801703D02*
G01*
X92373100Y-96865853D01*
X92512481Y-96958985D01*
X92631015Y-97077519D01*
X92724147Y-97216900D01*
X92788297Y-97371772D01*
X92821000Y-97536184D01*
X92821000Y-97703816D01*
X92788297Y-97868228D01*
X92724147Y-98023100D01*
X92631015Y-98162481D01*
X92512481Y-98281015D01*
X92373100Y-98374147D01*
X92218228Y-98438297D01*
X92053816Y-98471000D01*
X91886184Y-98471000D01*
X91721772Y-98438297D01*
X91566900Y-98374147D01*
X91427519Y-98281015D01*
X91308985Y-98162481D01*
X91215853Y-98023100D01*
X91151703Y-97868228D01*
X91119000Y-97703816D01*
X91119000Y-97536184D01*
X91151703Y-97371772D01*
X91215853Y-97216900D01*
X91308985Y-97077519D01*
X91427519Y-96958985D01*
X91566900Y-96865853D01*
X91721772Y-96801703D01*
X91886184Y-96769000D01*
X92053816Y-96769000D01*
X92218228Y-96801703D01*
X92218228Y-96801703D01*
G37*
G36*
X87138228Y-96801703D02*
G01*
X87293100Y-96865853D01*
X87432481Y-96958985D01*
X87551015Y-97077519D01*
X87644147Y-97216900D01*
X87708297Y-97371772D01*
X87741000Y-97536184D01*
X87741000Y-97703816D01*
X87708297Y-97868228D01*
X87644147Y-98023100D01*
X87551015Y-98162481D01*
X87432481Y-98281015D01*
X87293100Y-98374147D01*
X87138228Y-98438297D01*
X86973816Y-98471000D01*
X86806184Y-98471000D01*
X86641772Y-98438297D01*
X86486900Y-98374147D01*
X86347519Y-98281015D01*
X86228985Y-98162481D01*
X86135853Y-98023100D01*
X86071703Y-97868228D01*
X86039000Y-97703816D01*
X86039000Y-97536184D01*
X86071703Y-97371772D01*
X86135853Y-97216900D01*
X86228985Y-97077519D01*
X86347519Y-96958985D01*
X86486900Y-96865853D01*
X86641772Y-96801703D01*
X86806184Y-96769000D01*
X86973816Y-96769000D01*
X87138228Y-96801703D01*
X87138228Y-96801703D01*
G37*
G36*
X66818228Y-96801703D02*
G01*
X66973100Y-96865853D01*
X67112481Y-96958985D01*
X67231015Y-97077519D01*
X67324147Y-97216900D01*
X67388297Y-97371772D01*
X67421000Y-97536184D01*
X67421000Y-97703816D01*
X67388297Y-97868228D01*
X67324147Y-98023100D01*
X67231015Y-98162481D01*
X67112481Y-98281015D01*
X66973100Y-98374147D01*
X66818228Y-98438297D01*
X66653816Y-98471000D01*
X66486184Y-98471000D01*
X66321772Y-98438297D01*
X66166900Y-98374147D01*
X66027519Y-98281015D01*
X65908985Y-98162481D01*
X65815853Y-98023100D01*
X65751703Y-97868228D01*
X65719000Y-97703816D01*
X65719000Y-97536184D01*
X65751703Y-97371772D01*
X65815853Y-97216900D01*
X65908985Y-97077519D01*
X66027519Y-96958985D01*
X66166900Y-96865853D01*
X66321772Y-96801703D01*
X66486184Y-96769000D01*
X66653816Y-96769000D01*
X66818228Y-96801703D01*
X66818228Y-96801703D01*
G37*
G36*
X89678228Y-96801703D02*
G01*
X89833100Y-96865853D01*
X89972481Y-96958985D01*
X90091015Y-97077519D01*
X90184147Y-97216900D01*
X90248297Y-97371772D01*
X90281000Y-97536184D01*
X90281000Y-97703816D01*
X90248297Y-97868228D01*
X90184147Y-98023100D01*
X90091015Y-98162481D01*
X89972481Y-98281015D01*
X89833100Y-98374147D01*
X89678228Y-98438297D01*
X89513816Y-98471000D01*
X89346184Y-98471000D01*
X89181772Y-98438297D01*
X89026900Y-98374147D01*
X88887519Y-98281015D01*
X88768985Y-98162481D01*
X88675853Y-98023100D01*
X88611703Y-97868228D01*
X88579000Y-97703816D01*
X88579000Y-97536184D01*
X88611703Y-97371772D01*
X88675853Y-97216900D01*
X88768985Y-97077519D01*
X88887519Y-96958985D01*
X89026900Y-96865853D01*
X89181772Y-96801703D01*
X89346184Y-96769000D01*
X89513816Y-96769000D01*
X89678228Y-96801703D01*
X89678228Y-96801703D01*
G37*
G36*
X64278228Y-96801703D02*
G01*
X64433100Y-96865853D01*
X64572481Y-96958985D01*
X64691015Y-97077519D01*
X64784147Y-97216900D01*
X64848297Y-97371772D01*
X64881000Y-97536184D01*
X64881000Y-97703816D01*
X64848297Y-97868228D01*
X64784147Y-98023100D01*
X64691015Y-98162481D01*
X64572481Y-98281015D01*
X64433100Y-98374147D01*
X64278228Y-98438297D01*
X64113816Y-98471000D01*
X63946184Y-98471000D01*
X63781772Y-98438297D01*
X63626900Y-98374147D01*
X63487519Y-98281015D01*
X63368985Y-98162481D01*
X63275853Y-98023100D01*
X63211703Y-97868228D01*
X63179000Y-97703816D01*
X63179000Y-97536184D01*
X63211703Y-97371772D01*
X63275853Y-97216900D01*
X63368985Y-97077519D01*
X63487519Y-96958985D01*
X63626900Y-96865853D01*
X63781772Y-96801703D01*
X63946184Y-96769000D01*
X64113816Y-96769000D01*
X64278228Y-96801703D01*
X64278228Y-96801703D01*
G37*
G36*
X61738228Y-96801703D02*
G01*
X61893100Y-96865853D01*
X62032481Y-96958985D01*
X62151015Y-97077519D01*
X62244147Y-97216900D01*
X62308297Y-97371772D01*
X62341000Y-97536184D01*
X62341000Y-97703816D01*
X62308297Y-97868228D01*
X62244147Y-98023100D01*
X62151015Y-98162481D01*
X62032481Y-98281015D01*
X61893100Y-98374147D01*
X61738228Y-98438297D01*
X61573816Y-98471000D01*
X61406184Y-98471000D01*
X61241772Y-98438297D01*
X61086900Y-98374147D01*
X60947519Y-98281015D01*
X60828985Y-98162481D01*
X60735853Y-98023100D01*
X60671703Y-97868228D01*
X60639000Y-97703816D01*
X60639000Y-97536184D01*
X60671703Y-97371772D01*
X60735853Y-97216900D01*
X60828985Y-97077519D01*
X60947519Y-96958985D01*
X61086900Y-96865853D01*
X61241772Y-96801703D01*
X61406184Y-96769000D01*
X61573816Y-96769000D01*
X61738228Y-96801703D01*
X61738228Y-96801703D01*
G37*
G36*
X94758228Y-96801703D02*
G01*
X94913100Y-96865853D01*
X95052481Y-96958985D01*
X95171015Y-97077519D01*
X95264147Y-97216900D01*
X95328297Y-97371772D01*
X95361000Y-97536184D01*
X95361000Y-97703816D01*
X95328297Y-97868228D01*
X95264147Y-98023100D01*
X95171015Y-98162481D01*
X95052481Y-98281015D01*
X94913100Y-98374147D01*
X94758228Y-98438297D01*
X94593816Y-98471000D01*
X94426184Y-98471000D01*
X94261772Y-98438297D01*
X94106900Y-98374147D01*
X93967519Y-98281015D01*
X93848985Y-98162481D01*
X93755853Y-98023100D01*
X93691703Y-97868228D01*
X93659000Y-97703816D01*
X93659000Y-97536184D01*
X93691703Y-97371772D01*
X93755853Y-97216900D01*
X93848985Y-97077519D01*
X93967519Y-96958985D01*
X94106900Y-96865853D01*
X94261772Y-96801703D01*
X94426184Y-96769000D01*
X94593816Y-96769000D01*
X94758228Y-96801703D01*
X94758228Y-96801703D01*
G37*
G36*
X87138228Y-94261703D02*
G01*
X87293100Y-94325853D01*
X87432481Y-94418985D01*
X87551015Y-94537519D01*
X87644147Y-94676900D01*
X87708297Y-94831772D01*
X87741000Y-94996184D01*
X87741000Y-95163816D01*
X87708297Y-95328228D01*
X87644147Y-95483100D01*
X87551015Y-95622481D01*
X87432481Y-95741015D01*
X87293100Y-95834147D01*
X87138228Y-95898297D01*
X86973816Y-95931000D01*
X86806184Y-95931000D01*
X86641772Y-95898297D01*
X86486900Y-95834147D01*
X86347519Y-95741015D01*
X86228985Y-95622481D01*
X86135853Y-95483100D01*
X86071703Y-95328228D01*
X86039000Y-95163816D01*
X86039000Y-94996184D01*
X86071703Y-94831772D01*
X86135853Y-94676900D01*
X86228985Y-94537519D01*
X86347519Y-94418985D01*
X86486900Y-94325853D01*
X86641772Y-94261703D01*
X86806184Y-94229000D01*
X86973816Y-94229000D01*
X87138228Y-94261703D01*
X87138228Y-94261703D01*
G37*
G36*
X84598228Y-94261703D02*
G01*
X84753100Y-94325853D01*
X84892481Y-94418985D01*
X85011015Y-94537519D01*
X85104147Y-94676900D01*
X85168297Y-94831772D01*
X85201000Y-94996184D01*
X85201000Y-95163816D01*
X85168297Y-95328228D01*
X85104147Y-95483100D01*
X85011015Y-95622481D01*
X84892481Y-95741015D01*
X84753100Y-95834147D01*
X84598228Y-95898297D01*
X84433816Y-95931000D01*
X84266184Y-95931000D01*
X84101772Y-95898297D01*
X83946900Y-95834147D01*
X83807519Y-95741015D01*
X83688985Y-95622481D01*
X83595853Y-95483100D01*
X83531703Y-95328228D01*
X83499000Y-95163816D01*
X83499000Y-94996184D01*
X83531703Y-94831772D01*
X83595853Y-94676900D01*
X83688985Y-94537519D01*
X83807519Y-94418985D01*
X83946900Y-94325853D01*
X84101772Y-94261703D01*
X84266184Y-94229000D01*
X84433816Y-94229000D01*
X84598228Y-94261703D01*
X84598228Y-94261703D01*
G37*
G36*
X92218228Y-94261703D02*
G01*
X92373100Y-94325853D01*
X92512481Y-94418985D01*
X92631015Y-94537519D01*
X92724147Y-94676900D01*
X92788297Y-94831772D01*
X92821000Y-94996184D01*
X92821000Y-95163816D01*
X92788297Y-95328228D01*
X92724147Y-95483100D01*
X92631015Y-95622481D01*
X92512481Y-95741015D01*
X92373100Y-95834147D01*
X92218228Y-95898297D01*
X92053816Y-95931000D01*
X91886184Y-95931000D01*
X91721772Y-95898297D01*
X91566900Y-95834147D01*
X91427519Y-95741015D01*
X91308985Y-95622481D01*
X91215853Y-95483100D01*
X91151703Y-95328228D01*
X91119000Y-95163816D01*
X91119000Y-94996184D01*
X91151703Y-94831772D01*
X91215853Y-94676900D01*
X91308985Y-94537519D01*
X91427519Y-94418985D01*
X91566900Y-94325853D01*
X91721772Y-94261703D01*
X91886184Y-94229000D01*
X92053816Y-94229000D01*
X92218228Y-94261703D01*
X92218228Y-94261703D01*
G37*
G36*
X82058228Y-94261703D02*
G01*
X82213100Y-94325853D01*
X82352481Y-94418985D01*
X82471015Y-94537519D01*
X82564147Y-94676900D01*
X82628297Y-94831772D01*
X82661000Y-94996184D01*
X82661000Y-95163816D01*
X82628297Y-95328228D01*
X82564147Y-95483100D01*
X82471015Y-95622481D01*
X82352481Y-95741015D01*
X82213100Y-95834147D01*
X82058228Y-95898297D01*
X81893816Y-95931000D01*
X81726184Y-95931000D01*
X81561772Y-95898297D01*
X81406900Y-95834147D01*
X81267519Y-95741015D01*
X81148985Y-95622481D01*
X81055853Y-95483100D01*
X80991703Y-95328228D01*
X80959000Y-95163816D01*
X80959000Y-94996184D01*
X80991703Y-94831772D01*
X81055853Y-94676900D01*
X81148985Y-94537519D01*
X81267519Y-94418985D01*
X81406900Y-94325853D01*
X81561772Y-94261703D01*
X81726184Y-94229000D01*
X81893816Y-94229000D01*
X82058228Y-94261703D01*
X82058228Y-94261703D01*
G37*
G36*
X61738228Y-94261703D02*
G01*
X61893100Y-94325853D01*
X62032481Y-94418985D01*
X62151015Y-94537519D01*
X62244147Y-94676900D01*
X62308297Y-94831772D01*
X62341000Y-94996184D01*
X62341000Y-95163816D01*
X62308297Y-95328228D01*
X62244147Y-95483100D01*
X62151015Y-95622481D01*
X62032481Y-95741015D01*
X61893100Y-95834147D01*
X61738228Y-95898297D01*
X61573816Y-95931000D01*
X61406184Y-95931000D01*
X61241772Y-95898297D01*
X61086900Y-95834147D01*
X60947519Y-95741015D01*
X60828985Y-95622481D01*
X60735853Y-95483100D01*
X60671703Y-95328228D01*
X60639000Y-95163816D01*
X60639000Y-94996184D01*
X60671703Y-94831772D01*
X60735853Y-94676900D01*
X60828985Y-94537519D01*
X60947519Y-94418985D01*
X61086900Y-94325853D01*
X61241772Y-94261703D01*
X61406184Y-94229000D01*
X61573816Y-94229000D01*
X61738228Y-94261703D01*
X61738228Y-94261703D01*
G37*
G36*
X61738228Y-91721703D02*
G01*
X61893100Y-91785853D01*
X62032481Y-91878985D01*
X62151015Y-91997519D01*
X62244147Y-92136900D01*
X62308297Y-92291772D01*
X62341000Y-92456184D01*
X62341000Y-92623816D01*
X62308297Y-92788228D01*
X62244147Y-92943100D01*
X62151015Y-93082481D01*
X62032481Y-93201015D01*
X61893100Y-93294147D01*
X61738228Y-93358297D01*
X61573816Y-93391000D01*
X61406184Y-93391000D01*
X61241772Y-93358297D01*
X61086900Y-93294147D01*
X60947519Y-93201015D01*
X60828985Y-93082481D01*
X60735853Y-92943100D01*
X60671703Y-92788228D01*
X60639000Y-92623816D01*
X60639000Y-92456184D01*
X60671703Y-92291772D01*
X60735853Y-92136900D01*
X60828985Y-91997519D01*
X60947519Y-91878985D01*
X61086900Y-91785853D01*
X61241772Y-91721703D01*
X61406184Y-91689000D01*
X61573816Y-91689000D01*
X61738228Y-91721703D01*
X61738228Y-91721703D01*
G37*
G36*
X88355285Y-89018234D02*
G01*
X88451981Y-89037468D01*
X88634151Y-89112926D01*
X88798100Y-89222473D01*
X88937527Y-89361900D01*
X89047074Y-89525849D01*
X89122532Y-89708019D01*
X89161000Y-89901410D01*
X89161000Y-90098590D01*
X89122532Y-90291981D01*
X89047074Y-90474151D01*
X88937527Y-90638100D01*
X88798100Y-90777527D01*
X88634151Y-90887074D01*
X88451981Y-90962532D01*
X88258591Y-91001000D01*
X88061409Y-91001000D01*
X87868019Y-90962532D01*
X87685849Y-90887074D01*
X87521900Y-90777527D01*
X87382473Y-90638100D01*
X87272926Y-90474151D01*
X87197468Y-90291981D01*
X87159000Y-90098590D01*
X87159000Y-89901410D01*
X87197468Y-89708019D01*
X87272926Y-89525849D01*
X87382473Y-89361900D01*
X87521900Y-89222473D01*
X87685849Y-89112926D01*
X87868019Y-89037468D01*
X87964715Y-89018234D01*
X88061409Y-88999000D01*
X88258591Y-88999000D01*
X88355285Y-89018234D01*
X88355285Y-89018234D01*
G37*
G36*
X84545285Y-89018234D02*
G01*
X84641981Y-89037468D01*
X84824151Y-89112926D01*
X84988100Y-89222473D01*
X85127527Y-89361900D01*
X85237074Y-89525849D01*
X85312532Y-89708019D01*
X85351000Y-89901410D01*
X85351000Y-90098590D01*
X85312532Y-90291981D01*
X85237074Y-90474151D01*
X85127527Y-90638100D01*
X84988100Y-90777527D01*
X84824151Y-90887074D01*
X84641981Y-90962532D01*
X84448591Y-91001000D01*
X84251409Y-91001000D01*
X84058019Y-90962532D01*
X83875849Y-90887074D01*
X83711900Y-90777527D01*
X83572473Y-90638100D01*
X83462926Y-90474151D01*
X83387468Y-90291981D01*
X83349000Y-90098590D01*
X83349000Y-89901410D01*
X83387468Y-89708019D01*
X83462926Y-89525849D01*
X83572473Y-89361900D01*
X83711900Y-89222473D01*
X83875849Y-89112926D01*
X84058019Y-89037468D01*
X84154715Y-89018234D01*
X84251409Y-88999000D01*
X84448591Y-88999000D01*
X84545285Y-89018234D01*
X84545285Y-89018234D01*
G37*
G36*
X61738228Y-89181703D02*
G01*
X61893100Y-89245853D01*
X62032481Y-89338985D01*
X62151015Y-89457519D01*
X62244147Y-89596900D01*
X62308297Y-89751772D01*
X62341000Y-89916184D01*
X62341000Y-90083816D01*
X62308297Y-90248228D01*
X62244147Y-90403100D01*
X62151015Y-90542481D01*
X62032481Y-90661015D01*
X61893100Y-90754147D01*
X61738228Y-90818297D01*
X61573816Y-90851000D01*
X61406184Y-90851000D01*
X61241772Y-90818297D01*
X61086900Y-90754147D01*
X60947519Y-90661015D01*
X60828985Y-90542481D01*
X60735853Y-90403100D01*
X60671703Y-90248228D01*
X60639000Y-90083816D01*
X60639000Y-89916184D01*
X60671703Y-89751772D01*
X60735853Y-89596900D01*
X60828985Y-89457519D01*
X60947519Y-89338985D01*
X61086900Y-89245853D01*
X61241772Y-89181703D01*
X61406184Y-89149000D01*
X61573816Y-89149000D01*
X61738228Y-89181703D01*
X61738228Y-89181703D01*
G37*
G36*
X61738228Y-86641703D02*
G01*
X61893100Y-86705853D01*
X62032481Y-86798985D01*
X62151015Y-86917519D01*
X62244147Y-87056900D01*
X62308297Y-87211772D01*
X62341000Y-87376184D01*
X62341000Y-87543816D01*
X62308297Y-87708228D01*
X62244147Y-87863100D01*
X62151015Y-88002481D01*
X62032481Y-88121015D01*
X61893100Y-88214147D01*
X61738228Y-88278297D01*
X61573816Y-88311000D01*
X61406184Y-88311000D01*
X61241772Y-88278297D01*
X61086900Y-88214147D01*
X60947519Y-88121015D01*
X60828985Y-88002481D01*
X60735853Y-87863100D01*
X60671703Y-87708228D01*
X60639000Y-87543816D01*
X60639000Y-87376184D01*
X60671703Y-87211772D01*
X60735853Y-87056900D01*
X60828985Y-86917519D01*
X60947519Y-86798985D01*
X61086900Y-86705853D01*
X61241772Y-86641703D01*
X61406184Y-86609000D01*
X61573816Y-86609000D01*
X61738228Y-86641703D01*
X61738228Y-86641703D01*
G37*
G36*
X72129591Y-86303085D02*
G01*
X72163569Y-86313393D01*
X72194890Y-86330134D01*
X72222339Y-86352661D01*
X72244866Y-86380110D01*
X72261607Y-86411431D01*
X72271915Y-86445409D01*
X72276000Y-86486890D01*
X72276000Y-87088110D01*
X72271915Y-87129591D01*
X72261607Y-87163569D01*
X72244866Y-87194890D01*
X72222339Y-87222339D01*
X72194890Y-87244866D01*
X72163569Y-87261607D01*
X72129591Y-87271915D01*
X72088110Y-87276000D01*
X71411890Y-87276000D01*
X71370409Y-87271915D01*
X71336431Y-87261607D01*
X71305110Y-87244866D01*
X71277661Y-87222339D01*
X71255134Y-87194890D01*
X71238393Y-87163569D01*
X71228085Y-87129591D01*
X71224000Y-87088110D01*
X71224000Y-86486890D01*
X71228085Y-86445409D01*
X71238393Y-86411431D01*
X71255134Y-86380110D01*
X71277661Y-86352661D01*
X71305110Y-86330134D01*
X71336431Y-86313393D01*
X71370409Y-86303085D01*
X71411890Y-86299000D01*
X72088110Y-86299000D01*
X72129591Y-86303085D01*
X72129591Y-86303085D01*
G37*
G36*
X69629591Y-86303085D02*
G01*
X69663569Y-86313393D01*
X69694890Y-86330134D01*
X69722339Y-86352661D01*
X69744866Y-86380110D01*
X69761607Y-86411431D01*
X69771915Y-86445409D01*
X69776000Y-86486890D01*
X69776000Y-87088110D01*
X69771915Y-87129591D01*
X69761607Y-87163569D01*
X69744866Y-87194890D01*
X69722339Y-87222339D01*
X69694890Y-87244866D01*
X69663569Y-87261607D01*
X69629591Y-87271915D01*
X69588110Y-87276000D01*
X68911890Y-87276000D01*
X68870409Y-87271915D01*
X68836431Y-87261607D01*
X68805110Y-87244866D01*
X68777661Y-87222339D01*
X68755134Y-87194890D01*
X68738393Y-87163569D01*
X68728085Y-87129591D01*
X68724000Y-87088110D01*
X68724000Y-86486890D01*
X68728085Y-86445409D01*
X68738393Y-86411431D01*
X68755134Y-86380110D01*
X68777661Y-86352661D01*
X68805110Y-86330134D01*
X68836431Y-86313393D01*
X68870409Y-86303085D01*
X68911890Y-86299000D01*
X69588110Y-86299000D01*
X69629591Y-86303085D01*
X69629591Y-86303085D01*
G37*
G36*
X67129591Y-86303085D02*
G01*
X67163569Y-86313393D01*
X67194890Y-86330134D01*
X67222339Y-86352661D01*
X67244866Y-86380110D01*
X67261607Y-86411431D01*
X67271915Y-86445409D01*
X67276000Y-86486890D01*
X67276000Y-87088110D01*
X67271915Y-87129591D01*
X67261607Y-87163569D01*
X67244866Y-87194890D01*
X67222339Y-87222339D01*
X67194890Y-87244866D01*
X67163569Y-87261607D01*
X67129591Y-87271915D01*
X67088110Y-87276000D01*
X66411890Y-87276000D01*
X66370409Y-87271915D01*
X66336431Y-87261607D01*
X66305110Y-87244866D01*
X66277661Y-87222339D01*
X66255134Y-87194890D01*
X66238393Y-87163569D01*
X66228085Y-87129591D01*
X66224000Y-87088110D01*
X66224000Y-86486890D01*
X66228085Y-86445409D01*
X66238393Y-86411431D01*
X66255134Y-86380110D01*
X66277661Y-86352661D01*
X66305110Y-86330134D01*
X66336431Y-86313393D01*
X66370409Y-86303085D01*
X66411890Y-86299000D01*
X67088110Y-86299000D01*
X67129591Y-86303085D01*
X67129591Y-86303085D01*
G37*
G36*
X64629591Y-86303085D02*
G01*
X64663569Y-86313393D01*
X64694890Y-86330134D01*
X64722339Y-86352661D01*
X64744866Y-86380110D01*
X64761607Y-86411431D01*
X64771915Y-86445409D01*
X64776000Y-86486890D01*
X64776000Y-87088110D01*
X64771915Y-87129591D01*
X64761607Y-87163569D01*
X64744866Y-87194890D01*
X64722339Y-87222339D01*
X64694890Y-87244866D01*
X64663569Y-87261607D01*
X64629591Y-87271915D01*
X64588110Y-87276000D01*
X63911890Y-87276000D01*
X63870409Y-87271915D01*
X63836431Y-87261607D01*
X63805110Y-87244866D01*
X63777661Y-87222339D01*
X63755134Y-87194890D01*
X63738393Y-87163569D01*
X63728085Y-87129591D01*
X63724000Y-87088110D01*
X63724000Y-86486890D01*
X63728085Y-86445409D01*
X63738393Y-86411431D01*
X63755134Y-86380110D01*
X63777661Y-86352661D01*
X63805110Y-86330134D01*
X63836431Y-86313393D01*
X63870409Y-86303085D01*
X63911890Y-86299000D01*
X64588110Y-86299000D01*
X64629591Y-86303085D01*
X64629591Y-86303085D01*
G37*
G36*
X61738228Y-84101703D02*
G01*
X61893100Y-84165853D01*
X62032481Y-84258985D01*
X62151015Y-84377519D01*
X62244147Y-84516900D01*
X62308297Y-84671772D01*
X62341000Y-84836184D01*
X62341000Y-85003816D01*
X62308297Y-85168228D01*
X62244147Y-85323100D01*
X62151015Y-85462481D01*
X62032481Y-85581015D01*
X61893100Y-85674147D01*
X61738228Y-85738297D01*
X61573816Y-85771000D01*
X61406184Y-85771000D01*
X61241772Y-85738297D01*
X61086900Y-85674147D01*
X60947519Y-85581015D01*
X60828985Y-85462481D01*
X60735853Y-85323100D01*
X60671703Y-85168228D01*
X60639000Y-85003816D01*
X60639000Y-84836184D01*
X60671703Y-84671772D01*
X60735853Y-84516900D01*
X60828985Y-84377519D01*
X60947519Y-84258985D01*
X61086900Y-84165853D01*
X61241772Y-84101703D01*
X61406184Y-84069000D01*
X61573816Y-84069000D01*
X61738228Y-84101703D01*
X61738228Y-84101703D01*
G37*
G36*
X72129591Y-84728085D02*
G01*
X72163569Y-84738393D01*
X72194890Y-84755134D01*
X72222339Y-84777661D01*
X72244866Y-84805110D01*
X72261607Y-84836431D01*
X72271915Y-84870409D01*
X72276000Y-84911890D01*
X72276000Y-85513110D01*
X72271915Y-85554591D01*
X72261607Y-85588569D01*
X72244866Y-85619890D01*
X72222339Y-85647339D01*
X72194890Y-85669866D01*
X72163569Y-85686607D01*
X72129591Y-85696915D01*
X72088110Y-85701000D01*
X71411890Y-85701000D01*
X71370409Y-85696915D01*
X71336431Y-85686607D01*
X71305110Y-85669866D01*
X71277661Y-85647339D01*
X71255134Y-85619890D01*
X71238393Y-85588569D01*
X71228085Y-85554591D01*
X71224000Y-85513110D01*
X71224000Y-84911890D01*
X71228085Y-84870409D01*
X71238393Y-84836431D01*
X71255134Y-84805110D01*
X71277661Y-84777661D01*
X71305110Y-84755134D01*
X71336431Y-84738393D01*
X71370409Y-84728085D01*
X71411890Y-84724000D01*
X72088110Y-84724000D01*
X72129591Y-84728085D01*
X72129591Y-84728085D01*
G37*
G36*
X69629591Y-84728085D02*
G01*
X69663569Y-84738393D01*
X69694890Y-84755134D01*
X69722339Y-84777661D01*
X69744866Y-84805110D01*
X69761607Y-84836431D01*
X69771915Y-84870409D01*
X69776000Y-84911890D01*
X69776000Y-85513110D01*
X69771915Y-85554591D01*
X69761607Y-85588569D01*
X69744866Y-85619890D01*
X69722339Y-85647339D01*
X69694890Y-85669866D01*
X69663569Y-85686607D01*
X69629591Y-85696915D01*
X69588110Y-85701000D01*
X68911890Y-85701000D01*
X68870409Y-85696915D01*
X68836431Y-85686607D01*
X68805110Y-85669866D01*
X68777661Y-85647339D01*
X68755134Y-85619890D01*
X68738393Y-85588569D01*
X68728085Y-85554591D01*
X68724000Y-85513110D01*
X68724000Y-84911890D01*
X68728085Y-84870409D01*
X68738393Y-84836431D01*
X68755134Y-84805110D01*
X68777661Y-84777661D01*
X68805110Y-84755134D01*
X68836431Y-84738393D01*
X68870409Y-84728085D01*
X68911890Y-84724000D01*
X69588110Y-84724000D01*
X69629591Y-84728085D01*
X69629591Y-84728085D01*
G37*
G36*
X64629591Y-84728085D02*
G01*
X64663569Y-84738393D01*
X64694890Y-84755134D01*
X64722339Y-84777661D01*
X64744866Y-84805110D01*
X64761607Y-84836431D01*
X64771915Y-84870409D01*
X64776000Y-84911890D01*
X64776000Y-85513110D01*
X64771915Y-85554591D01*
X64761607Y-85588569D01*
X64744866Y-85619890D01*
X64722339Y-85647339D01*
X64694890Y-85669866D01*
X64663569Y-85686607D01*
X64629591Y-85696915D01*
X64588110Y-85701000D01*
X63911890Y-85701000D01*
X63870409Y-85696915D01*
X63836431Y-85686607D01*
X63805110Y-85669866D01*
X63777661Y-85647339D01*
X63755134Y-85619890D01*
X63738393Y-85588569D01*
X63728085Y-85554591D01*
X63724000Y-85513110D01*
X63724000Y-84911890D01*
X63728085Y-84870409D01*
X63738393Y-84836431D01*
X63755134Y-84805110D01*
X63777661Y-84777661D01*
X63805110Y-84755134D01*
X63836431Y-84738393D01*
X63870409Y-84728085D01*
X63911890Y-84724000D01*
X64588110Y-84724000D01*
X64629591Y-84728085D01*
X64629591Y-84728085D01*
G37*
G36*
X67129591Y-84728085D02*
G01*
X67163569Y-84738393D01*
X67194890Y-84755134D01*
X67222339Y-84777661D01*
X67244866Y-84805110D01*
X67261607Y-84836431D01*
X67271915Y-84870409D01*
X67276000Y-84911890D01*
X67276000Y-85513110D01*
X67271915Y-85554591D01*
X67261607Y-85588569D01*
X67244866Y-85619890D01*
X67222339Y-85647339D01*
X67194890Y-85669866D01*
X67163569Y-85686607D01*
X67129591Y-85696915D01*
X67088110Y-85701000D01*
X66411890Y-85701000D01*
X66370409Y-85696915D01*
X66336431Y-85686607D01*
X66305110Y-85669866D01*
X66277661Y-85647339D01*
X66255134Y-85619890D01*
X66238393Y-85588569D01*
X66228085Y-85554591D01*
X66224000Y-85513110D01*
X66224000Y-84911890D01*
X66228085Y-84870409D01*
X66238393Y-84836431D01*
X66255134Y-84805110D01*
X66277661Y-84777661D01*
X66305110Y-84755134D01*
X66336431Y-84738393D01*
X66370409Y-84728085D01*
X66411890Y-84724000D01*
X67088110Y-84724000D01*
X67129591Y-84728085D01*
X67129591Y-84728085D01*
G37*
G36*
X87138228Y-81561703D02*
G01*
X87293100Y-81625853D01*
X87432481Y-81718985D01*
X87551015Y-81837519D01*
X87644147Y-81976900D01*
X87708297Y-82131772D01*
X87741000Y-82296184D01*
X87741000Y-82463816D01*
X87708297Y-82628228D01*
X87644147Y-82783100D01*
X87551015Y-82922481D01*
X87432481Y-83041015D01*
X87293100Y-83134147D01*
X87138228Y-83198297D01*
X86973816Y-83231000D01*
X86806184Y-83231000D01*
X86641772Y-83198297D01*
X86486900Y-83134147D01*
X86347519Y-83041015D01*
X86228985Y-82922481D01*
X86135853Y-82783100D01*
X86071703Y-82628228D01*
X86039000Y-82463816D01*
X86039000Y-82296184D01*
X86071703Y-82131772D01*
X86135853Y-81976900D01*
X86228985Y-81837519D01*
X86347519Y-81718985D01*
X86486900Y-81625853D01*
X86641772Y-81561703D01*
X86806184Y-81529000D01*
X86973816Y-81529000D01*
X87138228Y-81561703D01*
X87138228Y-81561703D01*
G37*
G36*
X84598228Y-81561703D02*
G01*
X84753100Y-81625853D01*
X84892481Y-81718985D01*
X85011015Y-81837519D01*
X85104147Y-81976900D01*
X85168297Y-82131772D01*
X85201000Y-82296184D01*
X85201000Y-82463816D01*
X85168297Y-82628228D01*
X85104147Y-82783100D01*
X85011015Y-82922481D01*
X84892481Y-83041015D01*
X84753100Y-83134147D01*
X84598228Y-83198297D01*
X84433816Y-83231000D01*
X84266184Y-83231000D01*
X84101772Y-83198297D01*
X83946900Y-83134147D01*
X83807519Y-83041015D01*
X83688985Y-82922481D01*
X83595853Y-82783100D01*
X83531703Y-82628228D01*
X83499000Y-82463816D01*
X83499000Y-82296184D01*
X83531703Y-82131772D01*
X83595853Y-81976900D01*
X83688985Y-81837519D01*
X83807519Y-81718985D01*
X83946900Y-81625853D01*
X84101772Y-81561703D01*
X84266184Y-81529000D01*
X84433816Y-81529000D01*
X84598228Y-81561703D01*
X84598228Y-81561703D01*
G37*
G36*
X82058228Y-81561703D02*
G01*
X82213100Y-81625853D01*
X82352481Y-81718985D01*
X82471015Y-81837519D01*
X82564147Y-81976900D01*
X82628297Y-82131772D01*
X82661000Y-82296184D01*
X82661000Y-82463816D01*
X82628297Y-82628228D01*
X82564147Y-82783100D01*
X82471015Y-82922481D01*
X82352481Y-83041015D01*
X82213100Y-83134147D01*
X82058228Y-83198297D01*
X81893816Y-83231000D01*
X81726184Y-83231000D01*
X81561772Y-83198297D01*
X81406900Y-83134147D01*
X81267519Y-83041015D01*
X81148985Y-82922481D01*
X81055853Y-82783100D01*
X80991703Y-82628228D01*
X80959000Y-82463816D01*
X80959000Y-82296184D01*
X80991703Y-82131772D01*
X81055853Y-81976900D01*
X81148985Y-81837519D01*
X81267519Y-81718985D01*
X81406900Y-81625853D01*
X81561772Y-81561703D01*
X81726184Y-81529000D01*
X81893816Y-81529000D01*
X82058228Y-81561703D01*
X82058228Y-81561703D01*
G37*
G36*
X61738228Y-81561703D02*
G01*
X61893100Y-81625853D01*
X62032481Y-81718985D01*
X62151015Y-81837519D01*
X62244147Y-81976900D01*
X62308297Y-82131772D01*
X62341000Y-82296184D01*
X62341000Y-82463816D01*
X62308297Y-82628228D01*
X62244147Y-82783100D01*
X62151015Y-82922481D01*
X62032481Y-83041015D01*
X61893100Y-83134147D01*
X61738228Y-83198297D01*
X61573816Y-83231000D01*
X61406184Y-83231000D01*
X61241772Y-83198297D01*
X61086900Y-83134147D01*
X60947519Y-83041015D01*
X60828985Y-82922481D01*
X60735853Y-82783100D01*
X60671703Y-82628228D01*
X60639000Y-82463816D01*
X60639000Y-82296184D01*
X60671703Y-82131772D01*
X60735853Y-81976900D01*
X60828985Y-81837519D01*
X60947519Y-81718985D01*
X61086900Y-81625853D01*
X61241772Y-81561703D01*
X61406184Y-81529000D01*
X61573816Y-81529000D01*
X61738228Y-81561703D01*
X61738228Y-81561703D01*
G37*
G36*
X79518228Y-81561703D02*
G01*
X79673100Y-81625853D01*
X79812481Y-81718985D01*
X79931015Y-81837519D01*
X80024147Y-81976900D01*
X80088297Y-82131772D01*
X80121000Y-82296184D01*
X80121000Y-82463816D01*
X80088297Y-82628228D01*
X80024147Y-82783100D01*
X79931015Y-82922481D01*
X79812481Y-83041015D01*
X79673100Y-83134147D01*
X79518228Y-83198297D01*
X79353816Y-83231000D01*
X79186184Y-83231000D01*
X79021772Y-83198297D01*
X78866900Y-83134147D01*
X78727519Y-83041015D01*
X78608985Y-82922481D01*
X78515853Y-82783100D01*
X78451703Y-82628228D01*
X78419000Y-82463816D01*
X78419000Y-82296184D01*
X78451703Y-82131772D01*
X78515853Y-81976900D01*
X78608985Y-81837519D01*
X78727519Y-81718985D01*
X78866900Y-81625853D01*
X79021772Y-81561703D01*
X79186184Y-81529000D01*
X79353816Y-81529000D01*
X79518228Y-81561703D01*
X79518228Y-81561703D01*
G37*
G36*
X76978228Y-81561703D02*
G01*
X77133100Y-81625853D01*
X77272481Y-81718985D01*
X77391015Y-81837519D01*
X77484147Y-81976900D01*
X77548297Y-82131772D01*
X77581000Y-82296184D01*
X77581000Y-82463816D01*
X77548297Y-82628228D01*
X77484147Y-82783100D01*
X77391015Y-82922481D01*
X77272481Y-83041015D01*
X77133100Y-83134147D01*
X76978228Y-83198297D01*
X76813816Y-83231000D01*
X76646184Y-83231000D01*
X76481772Y-83198297D01*
X76326900Y-83134147D01*
X76187519Y-83041015D01*
X76068985Y-82922481D01*
X75975853Y-82783100D01*
X75911703Y-82628228D01*
X75879000Y-82463816D01*
X75879000Y-82296184D01*
X75911703Y-82131772D01*
X75975853Y-81976900D01*
X76068985Y-81837519D01*
X76187519Y-81718985D01*
X76326900Y-81625853D01*
X76481772Y-81561703D01*
X76646184Y-81529000D01*
X76813816Y-81529000D01*
X76978228Y-81561703D01*
X76978228Y-81561703D01*
G37*
G36*
X74438228Y-81561703D02*
G01*
X74593100Y-81625853D01*
X74732481Y-81718985D01*
X74851015Y-81837519D01*
X74944147Y-81976900D01*
X75008297Y-82131772D01*
X75041000Y-82296184D01*
X75041000Y-82463816D01*
X75008297Y-82628228D01*
X74944147Y-82783100D01*
X74851015Y-82922481D01*
X74732481Y-83041015D01*
X74593100Y-83134147D01*
X74438228Y-83198297D01*
X74273816Y-83231000D01*
X74106184Y-83231000D01*
X73941772Y-83198297D01*
X73786900Y-83134147D01*
X73647519Y-83041015D01*
X73528985Y-82922481D01*
X73435853Y-82783100D01*
X73371703Y-82628228D01*
X73339000Y-82463816D01*
X73339000Y-82296184D01*
X73371703Y-82131772D01*
X73435853Y-81976900D01*
X73528985Y-81837519D01*
X73647519Y-81718985D01*
X73786900Y-81625853D01*
X73941772Y-81561703D01*
X74106184Y-81529000D01*
X74273816Y-81529000D01*
X74438228Y-81561703D01*
X74438228Y-81561703D01*
G37*
G36*
X69358228Y-81561703D02*
G01*
X69513100Y-81625853D01*
X69652481Y-81718985D01*
X69771015Y-81837519D01*
X69864147Y-81976900D01*
X69928297Y-82131772D01*
X69961000Y-82296184D01*
X69961000Y-82463816D01*
X69928297Y-82628228D01*
X69864147Y-82783100D01*
X69771015Y-82922481D01*
X69652481Y-83041015D01*
X69513100Y-83134147D01*
X69358228Y-83198297D01*
X69193816Y-83231000D01*
X69026184Y-83231000D01*
X68861772Y-83198297D01*
X68706900Y-83134147D01*
X68567519Y-83041015D01*
X68448985Y-82922481D01*
X68355853Y-82783100D01*
X68291703Y-82628228D01*
X68259000Y-82463816D01*
X68259000Y-82296184D01*
X68291703Y-82131772D01*
X68355853Y-81976900D01*
X68448985Y-81837519D01*
X68567519Y-81718985D01*
X68706900Y-81625853D01*
X68861772Y-81561703D01*
X69026184Y-81529000D01*
X69193816Y-81529000D01*
X69358228Y-81561703D01*
X69358228Y-81561703D01*
G37*
G36*
X66818228Y-81561703D02*
G01*
X66973100Y-81625853D01*
X67112481Y-81718985D01*
X67231015Y-81837519D01*
X67324147Y-81976900D01*
X67388297Y-82131772D01*
X67421000Y-82296184D01*
X67421000Y-82463816D01*
X67388297Y-82628228D01*
X67324147Y-82783100D01*
X67231015Y-82922481D01*
X67112481Y-83041015D01*
X66973100Y-83134147D01*
X66818228Y-83198297D01*
X66653816Y-83231000D01*
X66486184Y-83231000D01*
X66321772Y-83198297D01*
X66166900Y-83134147D01*
X66027519Y-83041015D01*
X65908985Y-82922481D01*
X65815853Y-82783100D01*
X65751703Y-82628228D01*
X65719000Y-82463816D01*
X65719000Y-82296184D01*
X65751703Y-82131772D01*
X65815853Y-81976900D01*
X65908985Y-81837519D01*
X66027519Y-81718985D01*
X66166900Y-81625853D01*
X66321772Y-81561703D01*
X66486184Y-81529000D01*
X66653816Y-81529000D01*
X66818228Y-81561703D01*
X66818228Y-81561703D01*
G37*
G36*
X64278228Y-81561703D02*
G01*
X64433100Y-81625853D01*
X64572481Y-81718985D01*
X64691015Y-81837519D01*
X64784147Y-81976900D01*
X64848297Y-82131772D01*
X64881000Y-82296184D01*
X64881000Y-82463816D01*
X64848297Y-82628228D01*
X64784147Y-82783100D01*
X64691015Y-82922481D01*
X64572481Y-83041015D01*
X64433100Y-83134147D01*
X64278228Y-83198297D01*
X64113816Y-83231000D01*
X63946184Y-83231000D01*
X63781772Y-83198297D01*
X63626900Y-83134147D01*
X63487519Y-83041015D01*
X63368985Y-82922481D01*
X63275853Y-82783100D01*
X63211703Y-82628228D01*
X63179000Y-82463816D01*
X63179000Y-82296184D01*
X63211703Y-82131772D01*
X63275853Y-81976900D01*
X63368985Y-81837519D01*
X63487519Y-81718985D01*
X63626900Y-81625853D01*
X63781772Y-81561703D01*
X63946184Y-81529000D01*
X64113816Y-81529000D01*
X64278228Y-81561703D01*
X64278228Y-81561703D01*
G37*
G36*
X89678228Y-81561703D02*
G01*
X89833100Y-81625853D01*
X89972481Y-81718985D01*
X90091015Y-81837519D01*
X90184147Y-81976900D01*
X90248297Y-82131772D01*
X90281000Y-82296184D01*
X90281000Y-82463816D01*
X90248297Y-82628228D01*
X90184147Y-82783100D01*
X90091015Y-82922481D01*
X89972481Y-83041015D01*
X89833100Y-83134147D01*
X89678228Y-83198297D01*
X89513816Y-83231000D01*
X89346184Y-83231000D01*
X89181772Y-83198297D01*
X89026900Y-83134147D01*
X88887519Y-83041015D01*
X88768985Y-82922481D01*
X88675853Y-82783100D01*
X88611703Y-82628228D01*
X88579000Y-82463816D01*
X88579000Y-82296184D01*
X88611703Y-82131772D01*
X88675853Y-81976900D01*
X88768985Y-81837519D01*
X88887519Y-81718985D01*
X89026900Y-81625853D01*
X89181772Y-81561703D01*
X89346184Y-81529000D01*
X89513816Y-81529000D01*
X89678228Y-81561703D01*
X89678228Y-81561703D01*
G37*
G36*
X92218228Y-81561703D02*
G01*
X92373100Y-81625853D01*
X92512481Y-81718985D01*
X92631015Y-81837519D01*
X92724147Y-81976900D01*
X92788297Y-82131772D01*
X92821000Y-82296184D01*
X92821000Y-82463816D01*
X92788297Y-82628228D01*
X92724147Y-82783100D01*
X92631015Y-82922481D01*
X92512481Y-83041015D01*
X92373100Y-83134147D01*
X92218228Y-83198297D01*
X92053816Y-83231000D01*
X91886184Y-83231000D01*
X91721772Y-83198297D01*
X91566900Y-83134147D01*
X91427519Y-83041015D01*
X91308985Y-82922481D01*
X91215853Y-82783100D01*
X91151703Y-82628228D01*
X91119000Y-82463816D01*
X91119000Y-82296184D01*
X91151703Y-82131772D01*
X91215853Y-81976900D01*
X91308985Y-81837519D01*
X91427519Y-81718985D01*
X91566900Y-81625853D01*
X91721772Y-81561703D01*
X91886184Y-81529000D01*
X92053816Y-81529000D01*
X92218228Y-81561703D01*
X92218228Y-81561703D01*
G37*
G36*
X95361000Y-83231000D02*
G01*
X93659000Y-83231000D01*
X93659000Y-81529000D01*
X95361000Y-81529000D01*
X95361000Y-83231000D01*
X95361000Y-83231000D01*
G37*
G36*
X71898228Y-81561703D02*
G01*
X72053100Y-81625853D01*
X72192481Y-81718985D01*
X72311015Y-81837519D01*
X72404147Y-81976900D01*
X72468297Y-82131772D01*
X72501000Y-82296184D01*
X72501000Y-82463816D01*
X72468297Y-82628228D01*
X72404147Y-82783100D01*
X72311015Y-82922481D01*
X72192481Y-83041015D01*
X72053100Y-83134147D01*
X71898228Y-83198297D01*
X71733816Y-83231000D01*
X71566184Y-83231000D01*
X71401772Y-83198297D01*
X71246900Y-83134147D01*
X71107519Y-83041015D01*
X70988985Y-82922481D01*
X70895853Y-82783100D01*
X70831703Y-82628228D01*
X70799000Y-82463816D01*
X70799000Y-82296184D01*
X70831703Y-82131772D01*
X70895853Y-81976900D01*
X70988985Y-81837519D01*
X71107519Y-81718985D01*
X71246900Y-81625853D01*
X71401772Y-81561703D01*
X71566184Y-81529000D01*
X71733816Y-81529000D01*
X71898228Y-81561703D01*
X71898228Y-81561703D01*
G37*
G36*
X88129591Y-79478085D02*
G01*
X88163569Y-79488393D01*
X88194890Y-79505134D01*
X88222339Y-79527661D01*
X88244866Y-79555110D01*
X88261607Y-79586431D01*
X88271915Y-79620409D01*
X88276000Y-79661890D01*
X88276000Y-80338110D01*
X88271915Y-80379591D01*
X88261607Y-80413569D01*
X88244866Y-80444890D01*
X88222339Y-80472339D01*
X88194890Y-80494866D01*
X88163569Y-80511607D01*
X88129591Y-80521915D01*
X88088110Y-80526000D01*
X87486890Y-80526000D01*
X87445409Y-80521915D01*
X87411431Y-80511607D01*
X87380110Y-80494866D01*
X87352661Y-80472339D01*
X87330134Y-80444890D01*
X87313393Y-80413569D01*
X87303085Y-80379591D01*
X87299000Y-80338110D01*
X87299000Y-79661890D01*
X87303085Y-79620409D01*
X87313393Y-79586431D01*
X87330134Y-79555110D01*
X87352661Y-79527661D01*
X87380110Y-79505134D01*
X87411431Y-79488393D01*
X87445409Y-79478085D01*
X87486890Y-79474000D01*
X88088110Y-79474000D01*
X88129591Y-79478085D01*
X88129591Y-79478085D01*
G37*
G36*
X86554591Y-79478085D02*
G01*
X86588569Y-79488393D01*
X86619890Y-79505134D01*
X86647339Y-79527661D01*
X86669866Y-79555110D01*
X86686607Y-79586431D01*
X86696915Y-79620409D01*
X86701000Y-79661890D01*
X86701000Y-80338110D01*
X86696915Y-80379591D01*
X86686607Y-80413569D01*
X86669866Y-80444890D01*
X86647339Y-80472339D01*
X86619890Y-80494866D01*
X86588569Y-80511607D01*
X86554591Y-80521915D01*
X86513110Y-80526000D01*
X85911890Y-80526000D01*
X85870409Y-80521915D01*
X85836431Y-80511607D01*
X85805110Y-80494866D01*
X85777661Y-80472339D01*
X85755134Y-80444890D01*
X85738393Y-80413569D01*
X85728085Y-80379591D01*
X85724000Y-80338110D01*
X85724000Y-79661890D01*
X85728085Y-79620409D01*
X85738393Y-79586431D01*
X85755134Y-79555110D01*
X85777661Y-79527661D01*
X85805110Y-79505134D01*
X85836431Y-79488393D01*
X85870409Y-79478085D01*
X85911890Y-79474000D01*
X86513110Y-79474000D01*
X86554591Y-79478085D01*
X86554591Y-79478085D01*
G37*
G36*
X86501000Y-78751000D02*
G01*
X85599000Y-78751000D01*
X85599000Y-77749000D01*
X86501000Y-77749000D01*
X86501000Y-78751000D01*
X86501000Y-78751000D01*
G37*
G36*
X88401000Y-78751000D02*
G01*
X87499000Y-78751000D01*
X87499000Y-77749000D01*
X88401000Y-77749000D01*
X88401000Y-78751000D01*
X88401000Y-78751000D01*
G37*
G36*
X87451000Y-76751000D02*
G01*
X86549000Y-76751000D01*
X86549000Y-75749000D01*
X87451000Y-75749000D01*
X87451000Y-76751000D01*
X87451000Y-76751000D01*
G37*
G36*
X88129591Y-73978085D02*
G01*
X88163569Y-73988393D01*
X88194890Y-74005134D01*
X88222339Y-74027661D01*
X88244866Y-74055110D01*
X88261607Y-74086431D01*
X88271915Y-74120409D01*
X88276000Y-74161890D01*
X88276000Y-74838110D01*
X88271915Y-74879591D01*
X88261607Y-74913569D01*
X88244866Y-74944890D01*
X88222339Y-74972339D01*
X88194890Y-74994866D01*
X88163569Y-75011607D01*
X88129591Y-75021915D01*
X88088110Y-75026000D01*
X87486890Y-75026000D01*
X87445409Y-75021915D01*
X87411431Y-75011607D01*
X87380110Y-74994866D01*
X87352661Y-74972339D01*
X87330134Y-74944890D01*
X87313393Y-74913569D01*
X87303085Y-74879591D01*
X87299000Y-74838110D01*
X87299000Y-74161890D01*
X87303085Y-74120409D01*
X87313393Y-74086431D01*
X87330134Y-74055110D01*
X87352661Y-74027661D01*
X87380110Y-74005134D01*
X87411431Y-73988393D01*
X87445409Y-73978085D01*
X87486890Y-73974000D01*
X88088110Y-73974000D01*
X88129591Y-73978085D01*
X88129591Y-73978085D01*
G37*
G36*
X86554591Y-73978085D02*
G01*
X86588569Y-73988393D01*
X86619890Y-74005134D01*
X86647339Y-74027661D01*
X86669866Y-74055110D01*
X86686607Y-74086431D01*
X86696915Y-74120409D01*
X86701000Y-74161890D01*
X86701000Y-74838110D01*
X86696915Y-74879591D01*
X86686607Y-74913569D01*
X86669866Y-74944890D01*
X86647339Y-74972339D01*
X86619890Y-74994866D01*
X86588569Y-75011607D01*
X86554591Y-75021915D01*
X86513110Y-75026000D01*
X85911890Y-75026000D01*
X85870409Y-75021915D01*
X85836431Y-75011607D01*
X85805110Y-74994866D01*
X85777661Y-74972339D01*
X85755134Y-74944890D01*
X85738393Y-74913569D01*
X85728085Y-74879591D01*
X85724000Y-74838110D01*
X85724000Y-74161890D01*
X85728085Y-74120409D01*
X85738393Y-74086431D01*
X85755134Y-74055110D01*
X85777661Y-74027661D01*
X85805110Y-74005134D01*
X85836431Y-73988393D01*
X85870409Y-73978085D01*
X85911890Y-73974000D01*
X86513110Y-73974000D01*
X86554591Y-73978085D01*
X86554591Y-73978085D01*
G37*
G36*
X100000000Y-62250000D02*
G01*
X85000000Y-62250000D01*
X85000000Y-59250000D01*
X100000000Y-59250000D01*
X100000000Y-62250000D01*
X100000000Y-62250000D01*
G37*
G36*
X70000000Y-62250000D02*
G01*
X55000000Y-62250000D01*
X55000000Y-59250000D01*
X70000000Y-59250000D01*
X70000000Y-62250000D01*
X70000000Y-62250000D01*
G37*
G36*
X77298500Y-52551000D02*
G01*
X75950999Y-52551000D01*
X75926613Y-52553402D01*
X75903164Y-52560515D01*
X75881553Y-52572066D01*
X75862611Y-52587611D01*
X75847066Y-52606553D01*
X75835515Y-52628164D01*
X75828402Y-52651613D01*
X75826000Y-52675999D01*
X75826000Y-53344001D01*
X75828402Y-53368387D01*
X75835515Y-53391836D01*
X75847066Y-53413447D01*
X75862611Y-53432389D01*
X75881553Y-53447934D01*
X75903164Y-53459485D01*
X75926613Y-53466598D01*
X75950999Y-53469000D01*
X79049001Y-53469000D01*
X79073387Y-53466598D01*
X79096836Y-53459485D01*
X79118447Y-53447934D01*
X79137389Y-53432389D01*
X79152934Y-53413447D01*
X79164485Y-53391836D01*
X79171598Y-53368387D01*
X79174000Y-53344001D01*
X79174000Y-52675999D01*
X79171598Y-52651613D01*
X79164485Y-52628164D01*
X79152934Y-52606553D01*
X79137389Y-52587611D01*
X79118447Y-52572066D01*
X79096836Y-52560515D01*
X79073387Y-52553402D01*
X79049001Y-52551000D01*
X77701500Y-52551000D01*
X77701500Y-50549000D01*
X81648500Y-50549000D01*
X81648500Y-52551000D01*
X80875999Y-52551000D01*
X80851613Y-52553402D01*
X80828164Y-52560515D01*
X80806553Y-52572066D01*
X80787611Y-52587611D01*
X80772066Y-52606553D01*
X80760515Y-52628164D01*
X80753402Y-52651613D01*
X80751000Y-52675999D01*
X80751000Y-54951000D01*
X74249000Y-54951000D01*
X74249000Y-52675999D01*
X74246598Y-52651613D01*
X74239485Y-52628164D01*
X74227934Y-52606553D01*
X74212389Y-52587611D01*
X74193447Y-52572066D01*
X74171836Y-52560515D01*
X74148387Y-52553402D01*
X74124001Y-52551000D01*
X73351500Y-52551000D01*
X73351500Y-50549000D01*
X77298500Y-50549000D01*
X77298500Y-52551000D01*
X77298500Y-52551000D01*
G37*
G36*
X52901000Y-53801000D02*
G01*
X51299000Y-53801000D01*
X51299000Y-52199000D01*
X52901000Y-52199000D01*
X52901000Y-53801000D01*
X52901000Y-53801000D01*
G37*
G36*
X95901000Y-53801000D02*
G01*
X94299000Y-53801000D01*
X94299000Y-52199000D01*
X95901000Y-52199000D01*
X95901000Y-53801000D01*
X95901000Y-53801000D01*
G37*
G36*
X103701000Y-53801000D02*
G01*
X102099000Y-53801000D01*
X102099000Y-52199000D01*
X103701000Y-52199000D01*
X103701000Y-53801000D01*
X103701000Y-53801000D01*
G37*
G36*
X92701000Y-53801000D02*
G01*
X91099000Y-53801000D01*
X91099000Y-52199000D01*
X92701000Y-52199000D01*
X92701000Y-53801000D01*
X92701000Y-53801000D01*
G37*
G36*
X84901000Y-53801000D02*
G01*
X83299000Y-53801000D01*
X83299000Y-52199000D01*
X84901000Y-52199000D01*
X84901000Y-53801000D01*
X84901000Y-53801000D01*
G37*
G36*
X71701000Y-53801000D02*
G01*
X70099000Y-53801000D01*
X70099000Y-52199000D01*
X71701000Y-52199000D01*
X71701000Y-53801000D01*
X71701000Y-53801000D01*
G37*
G36*
X63901000Y-53801000D02*
G01*
X62299000Y-53801000D01*
X62299000Y-52199000D01*
X63901000Y-52199000D01*
X63901000Y-53801000D01*
X63901000Y-53801000D01*
G37*
G36*
X60701000Y-53801000D02*
G01*
X59099000Y-53801000D01*
X59099000Y-52199000D01*
X60701000Y-52199000D01*
X60701000Y-53801000D01*
X60701000Y-53801000D01*
G37*
M02*
